G04 #@! TF.GenerationSoftware,KiCad,Pcbnew,no-vcs-found-7625~57~ubuntu16.04.1*
G04 #@! TF.CreationDate,2017-02-13T10:02:40-05:00*
G04 #@! TF.ProjectId,high_power_switch_controller_5x3,686967685F706F7765725F7377697463,1.0*
G04 #@! TF.FileFunction,Legend,Top*
G04 #@! TF.FilePolarity,Positive*
%FSLAX46Y46*%
G04 Gerber Fmt 4.6, Leading zero omitted, Abs format (unit mm)*
G04 Created by KiCad (PCBNEW no-vcs-found-7625~57~ubuntu16.04.1) date Mon Feb 13 10:02:40 2017*
%MOMM*%
%LPD*%
G01*
G04 APERTURE LIST*
%ADD10C,0.100000*%
%ADD11C,0.254000*%
%ADD12C,0.381000*%
%ADD13C,0.508000*%
%ADD14C,0.228600*%
%ADD15C,0.190500*%
%ADD16O,2.032000X1.524000*%
%ADD17O,1.854200X2.540000*%
%ADD18R,1.854200X2.540000*%
%ADD19C,3.556000*%
%ADD20C,2.540000*%
G04 APERTURE END LIST*
D10*
D11*
X105664000Y-127713619D02*
X105857523Y-127713619D01*
X105954285Y-127762000D01*
X106051047Y-127858761D01*
X106099428Y-128052285D01*
X106099428Y-128390952D01*
X106051047Y-128584476D01*
X105954285Y-128681238D01*
X105857523Y-128729619D01*
X105664000Y-128729619D01*
X105567238Y-128681238D01*
X105470476Y-128584476D01*
X105422095Y-128390952D01*
X105422095Y-128052285D01*
X105470476Y-127858761D01*
X105567238Y-127762000D01*
X105664000Y-127713619D01*
X106534857Y-127713619D02*
X106534857Y-128536095D01*
X106583238Y-128632857D01*
X106631619Y-128681238D01*
X106728380Y-128729619D01*
X106921904Y-128729619D01*
X107018666Y-128681238D01*
X107067047Y-128632857D01*
X107115428Y-128536095D01*
X107115428Y-127713619D01*
X107454095Y-127713619D02*
X108034666Y-127713619D01*
X107744380Y-128729619D02*
X107744380Y-127713619D01*
D12*
X189919428Y-124278571D02*
X188903428Y-124278571D01*
X189048571Y-124278571D02*
X188976000Y-124206000D01*
X188903428Y-124060857D01*
X188903428Y-123843142D01*
X188976000Y-123698000D01*
X189121142Y-123625428D01*
X189919428Y-123625428D01*
X189121142Y-123625428D02*
X188976000Y-123552857D01*
X188903428Y-123407714D01*
X188903428Y-123190000D01*
X188976000Y-123044857D01*
X189121142Y-122972285D01*
X189919428Y-122972285D01*
X189919428Y-122028857D02*
X189846857Y-122174000D01*
X189774285Y-122246571D01*
X189629142Y-122319142D01*
X189193714Y-122319142D01*
X189048571Y-122246571D01*
X188976000Y-122174000D01*
X188903428Y-122028857D01*
X188903428Y-121811142D01*
X188976000Y-121666000D01*
X189048571Y-121593428D01*
X189193714Y-121520857D01*
X189629142Y-121520857D01*
X189774285Y-121593428D01*
X189846857Y-121666000D01*
X189919428Y-121811142D01*
X189919428Y-122028857D01*
X189919428Y-120214571D02*
X188395428Y-120214571D01*
X189846857Y-120214571D02*
X189919428Y-120359714D01*
X189919428Y-120650000D01*
X189846857Y-120795142D01*
X189774285Y-120867714D01*
X189629142Y-120940285D01*
X189193714Y-120940285D01*
X189048571Y-120867714D01*
X188976000Y-120795142D01*
X188903428Y-120650000D01*
X188903428Y-120359714D01*
X188976000Y-120214571D01*
X188903428Y-118835714D02*
X189919428Y-118835714D01*
X188903428Y-119488857D02*
X189701714Y-119488857D01*
X189846857Y-119416285D01*
X189919428Y-119271142D01*
X189919428Y-119053428D01*
X189846857Y-118908285D01*
X189774285Y-118835714D01*
X189919428Y-117892285D02*
X189846857Y-118037428D01*
X189701714Y-118110000D01*
X188395428Y-118110000D01*
X189919428Y-116658571D02*
X189121142Y-116658571D01*
X188976000Y-116731142D01*
X188903428Y-116876285D01*
X188903428Y-117166571D01*
X188976000Y-117311714D01*
X189846857Y-116658571D02*
X189919428Y-116803714D01*
X189919428Y-117166571D01*
X189846857Y-117311714D01*
X189701714Y-117384285D01*
X189556571Y-117384285D01*
X189411428Y-117311714D01*
X189338857Y-117166571D01*
X189338857Y-116803714D01*
X189266285Y-116658571D01*
X189919428Y-115932857D02*
X188903428Y-115932857D01*
X189193714Y-115932857D02*
X189048571Y-115860285D01*
X188976000Y-115787714D01*
X188903428Y-115642571D01*
X188903428Y-115497428D01*
X190064571Y-115352285D02*
X190064571Y-114191142D01*
X189919428Y-113175142D02*
X188395428Y-113175142D01*
X189846857Y-113175142D02*
X189919428Y-113320285D01*
X189919428Y-113610571D01*
X189846857Y-113755714D01*
X189774285Y-113828285D01*
X189629142Y-113900857D01*
X189193714Y-113900857D01*
X189048571Y-113828285D01*
X188976000Y-113755714D01*
X188903428Y-113610571D01*
X188903428Y-113320285D01*
X188976000Y-113175142D01*
X189846857Y-111868857D02*
X189919428Y-112014000D01*
X189919428Y-112304285D01*
X189846857Y-112449428D01*
X189701714Y-112522000D01*
X189121142Y-112522000D01*
X188976000Y-112449428D01*
X188903428Y-112304285D01*
X188903428Y-112014000D01*
X188976000Y-111868857D01*
X189121142Y-111796285D01*
X189266285Y-111796285D01*
X189411428Y-112522000D01*
X188903428Y-111288285D02*
X189919428Y-110925428D01*
X188903428Y-110562571D01*
X189919428Y-109982000D02*
X188903428Y-109982000D01*
X188395428Y-109982000D02*
X188468000Y-110054571D01*
X188540571Y-109982000D01*
X188468000Y-109909428D01*
X188395428Y-109982000D01*
X188540571Y-109982000D01*
X189846857Y-108603142D02*
X189919428Y-108748285D01*
X189919428Y-109038571D01*
X189846857Y-109183714D01*
X189774285Y-109256285D01*
X189629142Y-109328857D01*
X189193714Y-109328857D01*
X189048571Y-109256285D01*
X188976000Y-109183714D01*
X188903428Y-109038571D01*
X188903428Y-108748285D01*
X188976000Y-108603142D01*
X189846857Y-107369428D02*
X189919428Y-107514571D01*
X189919428Y-107804857D01*
X189846857Y-107950000D01*
X189701714Y-108022571D01*
X189121142Y-108022571D01*
X188976000Y-107950000D01*
X188903428Y-107804857D01*
X188903428Y-107514571D01*
X188976000Y-107369428D01*
X189121142Y-107296857D01*
X189266285Y-107296857D01*
X189411428Y-108022571D01*
X190064571Y-107006571D02*
X190064571Y-105845428D01*
X189919428Y-105482571D02*
X188395428Y-105482571D01*
X188976000Y-105482571D02*
X188903428Y-105337428D01*
X188903428Y-105047142D01*
X188976000Y-104902000D01*
X189048571Y-104829428D01*
X189193714Y-104756857D01*
X189629142Y-104756857D01*
X189774285Y-104829428D01*
X189846857Y-104902000D01*
X189919428Y-105047142D01*
X189919428Y-105337428D01*
X189846857Y-105482571D01*
X189919428Y-103450571D02*
X189121142Y-103450571D01*
X188976000Y-103523142D01*
X188903428Y-103668285D01*
X188903428Y-103958571D01*
X188976000Y-104103714D01*
X189846857Y-103450571D02*
X189919428Y-103595714D01*
X189919428Y-103958571D01*
X189846857Y-104103714D01*
X189701714Y-104176285D01*
X189556571Y-104176285D01*
X189411428Y-104103714D01*
X189338857Y-103958571D01*
X189338857Y-103595714D01*
X189266285Y-103450571D01*
X189846857Y-102797428D02*
X189919428Y-102652285D01*
X189919428Y-102362000D01*
X189846857Y-102216857D01*
X189701714Y-102144285D01*
X189629142Y-102144285D01*
X189484000Y-102216857D01*
X189411428Y-102362000D01*
X189411428Y-102579714D01*
X189338857Y-102724857D01*
X189193714Y-102797428D01*
X189121142Y-102797428D01*
X188976000Y-102724857D01*
X188903428Y-102579714D01*
X188903428Y-102362000D01*
X188976000Y-102216857D01*
X189846857Y-100910571D02*
X189919428Y-101055714D01*
X189919428Y-101346000D01*
X189846857Y-101491142D01*
X189701714Y-101563714D01*
X189121142Y-101563714D01*
X188976000Y-101491142D01*
X188903428Y-101346000D01*
X188903428Y-101055714D01*
X188976000Y-100910571D01*
X189121142Y-100838000D01*
X189266285Y-100838000D01*
X189411428Y-101563714D01*
X189774285Y-100184857D02*
X189846857Y-100112285D01*
X189919428Y-100184857D01*
X189846857Y-100257428D01*
X189774285Y-100184857D01*
X189919428Y-100184857D01*
X188976000Y-100184857D02*
X189048571Y-100112285D01*
X189121142Y-100184857D01*
X189048571Y-100257428D01*
X188976000Y-100184857D01*
X189121142Y-100184857D01*
X189338857Y-98298000D02*
X189338857Y-97136857D01*
X189919428Y-97717428D02*
X188758285Y-97717428D01*
X189919428Y-96338571D02*
X189919428Y-96048285D01*
X189846857Y-95903142D01*
X189774285Y-95830571D01*
X189556571Y-95685428D01*
X189266285Y-95612857D01*
X188685714Y-95612857D01*
X188540571Y-95685428D01*
X188468000Y-95758000D01*
X188395428Y-95903142D01*
X188395428Y-96193428D01*
X188468000Y-96338571D01*
X188540571Y-96411142D01*
X188685714Y-96483714D01*
X189048571Y-96483714D01*
X189193714Y-96411142D01*
X189266285Y-96338571D01*
X189338857Y-96193428D01*
X189338857Y-95903142D01*
X189266285Y-95758000D01*
X189193714Y-95685428D01*
X189048571Y-95612857D01*
X189338857Y-94959714D02*
X189338857Y-93798571D01*
X188395428Y-93218000D02*
X188395428Y-92274571D01*
X188976000Y-92782571D01*
X188976000Y-92564857D01*
X189048571Y-92419714D01*
X189121142Y-92347142D01*
X189266285Y-92274571D01*
X189629142Y-92274571D01*
X189774285Y-92347142D01*
X189846857Y-92419714D01*
X189919428Y-92564857D01*
X189919428Y-93000285D01*
X189846857Y-93145428D01*
X189774285Y-93218000D01*
X188395428Y-91331142D02*
X188395428Y-91186000D01*
X188468000Y-91040857D01*
X188540571Y-90968285D01*
X188685714Y-90895714D01*
X188976000Y-90823142D01*
X189338857Y-90823142D01*
X189629142Y-90895714D01*
X189774285Y-90968285D01*
X189846857Y-91040857D01*
X189919428Y-91186000D01*
X189919428Y-91331142D01*
X189846857Y-91476285D01*
X189774285Y-91548857D01*
X189629142Y-91621428D01*
X189338857Y-91694000D01*
X188976000Y-91694000D01*
X188685714Y-91621428D01*
X188540571Y-91548857D01*
X188468000Y-91476285D01*
X188395428Y-91331142D01*
X188395428Y-90387714D02*
X189919428Y-89879714D01*
X188395428Y-89371714D01*
X189919428Y-88863714D02*
X188395428Y-88863714D01*
X188395428Y-88500857D01*
X188468000Y-88283142D01*
X188613142Y-88138000D01*
X188758285Y-88065428D01*
X189048571Y-87992857D01*
X189266285Y-87992857D01*
X189556571Y-88065428D01*
X189701714Y-88138000D01*
X189846857Y-88283142D01*
X189919428Y-88500857D01*
X189919428Y-88863714D01*
X189774285Y-86468857D02*
X189846857Y-86541428D01*
X189919428Y-86759142D01*
X189919428Y-86904285D01*
X189846857Y-87122000D01*
X189701714Y-87267142D01*
X189556571Y-87339714D01*
X189266285Y-87412285D01*
X189048571Y-87412285D01*
X188758285Y-87339714D01*
X188613142Y-87267142D01*
X188468000Y-87122000D01*
X188395428Y-86904285D01*
X188395428Y-86759142D01*
X188468000Y-86541428D01*
X188540571Y-86468857D01*
D13*
X178930904Y-129050142D02*
X180479095Y-129050142D01*
X153530904Y-129050142D02*
X155079095Y-129050142D01*
X128130904Y-129050142D02*
X129679095Y-129050142D01*
X102730904Y-129050142D02*
X104279095Y-129050142D01*
X178930904Y-103650142D02*
X180479095Y-103650142D01*
X153530904Y-103650142D02*
X155079095Y-103650142D01*
X128130904Y-103650142D02*
X129679095Y-103650142D01*
X170040904Y-129050142D02*
X171589095Y-129050142D01*
X170815000Y-129824238D02*
X170815000Y-128276047D01*
X144640904Y-129050142D02*
X146189095Y-129050142D01*
X145415000Y-129824238D02*
X145415000Y-128276047D01*
X119240904Y-129050142D02*
X120789095Y-129050142D01*
X120015000Y-129824238D02*
X120015000Y-128276047D01*
X93840904Y-129050142D02*
X95389095Y-129050142D01*
X94615000Y-129824238D02*
X94615000Y-128276047D01*
X170040904Y-103650142D02*
X171589095Y-103650142D01*
X170815000Y-104424238D02*
X170815000Y-102876047D01*
X144640904Y-103650142D02*
X146189095Y-103650142D01*
X145415000Y-104424238D02*
X145415000Y-102876047D01*
X119240904Y-103650142D02*
X120789095Y-103650142D01*
X120015000Y-104424238D02*
X120015000Y-102876047D01*
D11*
X178453142Y-108367285D02*
X177679047Y-108657571D01*
X178453142Y-108947857D01*
X178936952Y-108512428D02*
X179711047Y-108512428D01*
X179711047Y-108802714D02*
X178936952Y-108802714D01*
X180098095Y-108028619D02*
X180775428Y-108028619D01*
X180340000Y-109044619D01*
X181162476Y-108947857D02*
X181210857Y-108996238D01*
X181162476Y-109044619D01*
X181114095Y-108996238D01*
X181162476Y-108947857D01*
X181162476Y-109044619D01*
X182130095Y-108028619D02*
X181646285Y-108028619D01*
X181597904Y-108512428D01*
X181646285Y-108464047D01*
X181743047Y-108415666D01*
X181984952Y-108415666D01*
X182081714Y-108464047D01*
X182130095Y-108512428D01*
X182178476Y-108609190D01*
X182178476Y-108851095D01*
X182130095Y-108947857D01*
X182081714Y-108996238D01*
X181984952Y-109044619D01*
X181743047Y-109044619D01*
X181646285Y-108996238D01*
X181597904Y-108947857D01*
X182565523Y-108754333D02*
X183049333Y-108754333D01*
X182468761Y-109044619D02*
X182807428Y-108028619D01*
X183146095Y-109044619D01*
X153053142Y-108367285D02*
X152279047Y-108657571D01*
X153053142Y-108947857D01*
X153536952Y-108512428D02*
X154311047Y-108512428D01*
X154311047Y-108802714D02*
X153536952Y-108802714D01*
X154698095Y-108028619D02*
X155375428Y-108028619D01*
X154940000Y-109044619D01*
X155762476Y-108947857D02*
X155810857Y-108996238D01*
X155762476Y-109044619D01*
X155714095Y-108996238D01*
X155762476Y-108947857D01*
X155762476Y-109044619D01*
X156730095Y-108028619D02*
X156246285Y-108028619D01*
X156197904Y-108512428D01*
X156246285Y-108464047D01*
X156343047Y-108415666D01*
X156584952Y-108415666D01*
X156681714Y-108464047D01*
X156730095Y-108512428D01*
X156778476Y-108609190D01*
X156778476Y-108851095D01*
X156730095Y-108947857D01*
X156681714Y-108996238D01*
X156584952Y-109044619D01*
X156343047Y-109044619D01*
X156246285Y-108996238D01*
X156197904Y-108947857D01*
X157165523Y-108754333D02*
X157649333Y-108754333D01*
X157068761Y-109044619D02*
X157407428Y-108028619D01*
X157746095Y-109044619D01*
X127653142Y-108367285D02*
X126879047Y-108657571D01*
X127653142Y-108947857D01*
X128136952Y-108512428D02*
X128911047Y-108512428D01*
X128911047Y-108802714D02*
X128136952Y-108802714D01*
X129298095Y-108028619D02*
X129975428Y-108028619D01*
X129540000Y-109044619D01*
X130362476Y-108947857D02*
X130410857Y-108996238D01*
X130362476Y-109044619D01*
X130314095Y-108996238D01*
X130362476Y-108947857D01*
X130362476Y-109044619D01*
X131330095Y-108028619D02*
X130846285Y-108028619D01*
X130797904Y-108512428D01*
X130846285Y-108464047D01*
X130943047Y-108415666D01*
X131184952Y-108415666D01*
X131281714Y-108464047D01*
X131330095Y-108512428D01*
X131378476Y-108609190D01*
X131378476Y-108851095D01*
X131330095Y-108947857D01*
X131281714Y-108996238D01*
X131184952Y-109044619D01*
X130943047Y-109044619D01*
X130846285Y-108996238D01*
X130797904Y-108947857D01*
X131765523Y-108754333D02*
X132249333Y-108754333D01*
X131668761Y-109044619D02*
X132007428Y-108028619D01*
X132346095Y-109044619D01*
X178453142Y-82967285D02*
X177679047Y-83257571D01*
X178453142Y-83547857D01*
X178936952Y-83112428D02*
X179711047Y-83112428D01*
X179711047Y-83402714D02*
X178936952Y-83402714D01*
X180098095Y-82628619D02*
X180775428Y-82628619D01*
X180340000Y-83644619D01*
X181162476Y-83547857D02*
X181210857Y-83596238D01*
X181162476Y-83644619D01*
X181114095Y-83596238D01*
X181162476Y-83547857D01*
X181162476Y-83644619D01*
X182130095Y-82628619D02*
X181646285Y-82628619D01*
X181597904Y-83112428D01*
X181646285Y-83064047D01*
X181743047Y-83015666D01*
X181984952Y-83015666D01*
X182081714Y-83064047D01*
X182130095Y-83112428D01*
X182178476Y-83209190D01*
X182178476Y-83451095D01*
X182130095Y-83547857D01*
X182081714Y-83596238D01*
X181984952Y-83644619D01*
X181743047Y-83644619D01*
X181646285Y-83596238D01*
X181597904Y-83547857D01*
X182565523Y-83354333D02*
X183049333Y-83354333D01*
X182468761Y-83644619D02*
X182807428Y-82628619D01*
X183146095Y-83644619D01*
X153053142Y-82967285D02*
X152279047Y-83257571D01*
X153053142Y-83547857D01*
X153536952Y-83112428D02*
X154311047Y-83112428D01*
X154311047Y-83402714D02*
X153536952Y-83402714D01*
X154698095Y-82628619D02*
X155375428Y-82628619D01*
X154940000Y-83644619D01*
X155762476Y-83547857D02*
X155810857Y-83596238D01*
X155762476Y-83644619D01*
X155714095Y-83596238D01*
X155762476Y-83547857D01*
X155762476Y-83644619D01*
X156730095Y-82628619D02*
X156246285Y-82628619D01*
X156197904Y-83112428D01*
X156246285Y-83064047D01*
X156343047Y-83015666D01*
X156584952Y-83015666D01*
X156681714Y-83064047D01*
X156730095Y-83112428D01*
X156778476Y-83209190D01*
X156778476Y-83451095D01*
X156730095Y-83547857D01*
X156681714Y-83596238D01*
X156584952Y-83644619D01*
X156343047Y-83644619D01*
X156246285Y-83596238D01*
X156197904Y-83547857D01*
X157165523Y-83354333D02*
X157649333Y-83354333D01*
X157068761Y-83644619D02*
X157407428Y-82628619D01*
X157746095Y-83644619D01*
X127653142Y-82967285D02*
X126879047Y-83257571D01*
X127653142Y-83547857D01*
X128136952Y-83112428D02*
X128911047Y-83112428D01*
X128911047Y-83402714D02*
X128136952Y-83402714D01*
X129298095Y-82628619D02*
X129975428Y-82628619D01*
X129540000Y-83644619D01*
X130362476Y-83547857D02*
X130410857Y-83596238D01*
X130362476Y-83644619D01*
X130314095Y-83596238D01*
X130362476Y-83547857D01*
X130362476Y-83644619D01*
X131330095Y-82628619D02*
X130846285Y-82628619D01*
X130797904Y-83112428D01*
X130846285Y-83064047D01*
X130943047Y-83015666D01*
X131184952Y-83015666D01*
X131281714Y-83064047D01*
X131330095Y-83112428D01*
X131378476Y-83209190D01*
X131378476Y-83451095D01*
X131330095Y-83547857D01*
X131281714Y-83596238D01*
X131184952Y-83644619D01*
X130943047Y-83644619D01*
X130846285Y-83596238D01*
X130797904Y-83547857D01*
X131765523Y-83354333D02*
X132249333Y-83354333D01*
X131668761Y-83644619D02*
X132007428Y-82628619D01*
X132346095Y-83644619D01*
X102253142Y-108367285D02*
X101479047Y-108657571D01*
X102253142Y-108947857D01*
X102736952Y-108512428D02*
X103511047Y-108512428D01*
X103511047Y-108802714D02*
X102736952Y-108802714D01*
X103898095Y-108028619D02*
X104575428Y-108028619D01*
X104140000Y-109044619D01*
X104962476Y-108947857D02*
X105010857Y-108996238D01*
X104962476Y-109044619D01*
X104914095Y-108996238D01*
X104962476Y-108947857D01*
X104962476Y-109044619D01*
X105930095Y-108028619D02*
X105446285Y-108028619D01*
X105397904Y-108512428D01*
X105446285Y-108464047D01*
X105543047Y-108415666D01*
X105784952Y-108415666D01*
X105881714Y-108464047D01*
X105930095Y-108512428D01*
X105978476Y-108609190D01*
X105978476Y-108851095D01*
X105930095Y-108947857D01*
X105881714Y-108996238D01*
X105784952Y-109044619D01*
X105543047Y-109044619D01*
X105446285Y-108996238D01*
X105397904Y-108947857D01*
X106365523Y-108754333D02*
X106849333Y-108754333D01*
X106268761Y-109044619D02*
X106607428Y-108028619D01*
X106946095Y-109044619D01*
X167519047Y-108367285D02*
X166744952Y-108657571D01*
X167519047Y-108947857D01*
X168002857Y-108512428D02*
X168776952Y-108512428D01*
X168776952Y-108802714D02*
X168002857Y-108802714D01*
X169164000Y-108028619D02*
X169792952Y-108028619D01*
X169454285Y-108415666D01*
X169599428Y-108415666D01*
X169696190Y-108464047D01*
X169744571Y-108512428D01*
X169792952Y-108609190D01*
X169792952Y-108851095D01*
X169744571Y-108947857D01*
X169696190Y-108996238D01*
X169599428Y-109044619D01*
X169309142Y-109044619D01*
X169212380Y-108996238D01*
X169164000Y-108947857D01*
X170421904Y-108028619D02*
X170518666Y-108028619D01*
X170615428Y-108077000D01*
X170663809Y-108125380D01*
X170712190Y-108222142D01*
X170760571Y-108415666D01*
X170760571Y-108657571D01*
X170712190Y-108851095D01*
X170663809Y-108947857D01*
X170615428Y-108996238D01*
X170518666Y-109044619D01*
X170421904Y-109044619D01*
X170325142Y-108996238D01*
X170276761Y-108947857D01*
X170228380Y-108851095D01*
X170180000Y-108657571D01*
X170180000Y-108415666D01*
X170228380Y-108222142D01*
X170276761Y-108125380D01*
X170325142Y-108077000D01*
X170421904Y-108028619D01*
X171050857Y-108028619D02*
X171389523Y-109044619D01*
X171728190Y-108028619D01*
X172066857Y-109044619D02*
X172066857Y-108028619D01*
X172308761Y-108028619D01*
X172453904Y-108077000D01*
X172550666Y-108173761D01*
X172599047Y-108270523D01*
X172647428Y-108464047D01*
X172647428Y-108609190D01*
X172599047Y-108802714D01*
X172550666Y-108899476D01*
X172453904Y-108996238D01*
X172308761Y-109044619D01*
X172066857Y-109044619D01*
X173663428Y-108947857D02*
X173615047Y-108996238D01*
X173469904Y-109044619D01*
X173373142Y-109044619D01*
X173228000Y-108996238D01*
X173131238Y-108899476D01*
X173082857Y-108802714D01*
X173034476Y-108609190D01*
X173034476Y-108464047D01*
X173082857Y-108270523D01*
X173131238Y-108173761D01*
X173228000Y-108077000D01*
X173373142Y-108028619D01*
X173469904Y-108028619D01*
X173615047Y-108077000D01*
X173663428Y-108125380D01*
X142119047Y-108367285D02*
X141344952Y-108657571D01*
X142119047Y-108947857D01*
X142602857Y-108512428D02*
X143376952Y-108512428D01*
X143376952Y-108802714D02*
X142602857Y-108802714D01*
X143764000Y-108028619D02*
X144392952Y-108028619D01*
X144054285Y-108415666D01*
X144199428Y-108415666D01*
X144296190Y-108464047D01*
X144344571Y-108512428D01*
X144392952Y-108609190D01*
X144392952Y-108851095D01*
X144344571Y-108947857D01*
X144296190Y-108996238D01*
X144199428Y-109044619D01*
X143909142Y-109044619D01*
X143812380Y-108996238D01*
X143764000Y-108947857D01*
X145021904Y-108028619D02*
X145118666Y-108028619D01*
X145215428Y-108077000D01*
X145263809Y-108125380D01*
X145312190Y-108222142D01*
X145360571Y-108415666D01*
X145360571Y-108657571D01*
X145312190Y-108851095D01*
X145263809Y-108947857D01*
X145215428Y-108996238D01*
X145118666Y-109044619D01*
X145021904Y-109044619D01*
X144925142Y-108996238D01*
X144876761Y-108947857D01*
X144828380Y-108851095D01*
X144780000Y-108657571D01*
X144780000Y-108415666D01*
X144828380Y-108222142D01*
X144876761Y-108125380D01*
X144925142Y-108077000D01*
X145021904Y-108028619D01*
X145650857Y-108028619D02*
X145989523Y-109044619D01*
X146328190Y-108028619D01*
X146666857Y-109044619D02*
X146666857Y-108028619D01*
X146908761Y-108028619D01*
X147053904Y-108077000D01*
X147150666Y-108173761D01*
X147199047Y-108270523D01*
X147247428Y-108464047D01*
X147247428Y-108609190D01*
X147199047Y-108802714D01*
X147150666Y-108899476D01*
X147053904Y-108996238D01*
X146908761Y-109044619D01*
X146666857Y-109044619D01*
X148263428Y-108947857D02*
X148215047Y-108996238D01*
X148069904Y-109044619D01*
X147973142Y-109044619D01*
X147828000Y-108996238D01*
X147731238Y-108899476D01*
X147682857Y-108802714D01*
X147634476Y-108609190D01*
X147634476Y-108464047D01*
X147682857Y-108270523D01*
X147731238Y-108173761D01*
X147828000Y-108077000D01*
X147973142Y-108028619D01*
X148069904Y-108028619D01*
X148215047Y-108077000D01*
X148263428Y-108125380D01*
X116719047Y-108367285D02*
X115944952Y-108657571D01*
X116719047Y-108947857D01*
X117202857Y-108512428D02*
X117976952Y-108512428D01*
X117976952Y-108802714D02*
X117202857Y-108802714D01*
X118364000Y-108028619D02*
X118992952Y-108028619D01*
X118654285Y-108415666D01*
X118799428Y-108415666D01*
X118896190Y-108464047D01*
X118944571Y-108512428D01*
X118992952Y-108609190D01*
X118992952Y-108851095D01*
X118944571Y-108947857D01*
X118896190Y-108996238D01*
X118799428Y-109044619D01*
X118509142Y-109044619D01*
X118412380Y-108996238D01*
X118364000Y-108947857D01*
X119621904Y-108028619D02*
X119718666Y-108028619D01*
X119815428Y-108077000D01*
X119863809Y-108125380D01*
X119912190Y-108222142D01*
X119960571Y-108415666D01*
X119960571Y-108657571D01*
X119912190Y-108851095D01*
X119863809Y-108947857D01*
X119815428Y-108996238D01*
X119718666Y-109044619D01*
X119621904Y-109044619D01*
X119525142Y-108996238D01*
X119476761Y-108947857D01*
X119428380Y-108851095D01*
X119380000Y-108657571D01*
X119380000Y-108415666D01*
X119428380Y-108222142D01*
X119476761Y-108125380D01*
X119525142Y-108077000D01*
X119621904Y-108028619D01*
X120250857Y-108028619D02*
X120589523Y-109044619D01*
X120928190Y-108028619D01*
X121266857Y-109044619D02*
X121266857Y-108028619D01*
X121508761Y-108028619D01*
X121653904Y-108077000D01*
X121750666Y-108173761D01*
X121799047Y-108270523D01*
X121847428Y-108464047D01*
X121847428Y-108609190D01*
X121799047Y-108802714D01*
X121750666Y-108899476D01*
X121653904Y-108996238D01*
X121508761Y-109044619D01*
X121266857Y-109044619D01*
X122863428Y-108947857D02*
X122815047Y-108996238D01*
X122669904Y-109044619D01*
X122573142Y-109044619D01*
X122428000Y-108996238D01*
X122331238Y-108899476D01*
X122282857Y-108802714D01*
X122234476Y-108609190D01*
X122234476Y-108464047D01*
X122282857Y-108270523D01*
X122331238Y-108173761D01*
X122428000Y-108077000D01*
X122573142Y-108028619D01*
X122669904Y-108028619D01*
X122815047Y-108077000D01*
X122863428Y-108125380D01*
X167519047Y-82967285D02*
X166744952Y-83257571D01*
X167519047Y-83547857D01*
X168002857Y-83112428D02*
X168776952Y-83112428D01*
X168776952Y-83402714D02*
X168002857Y-83402714D01*
X169164000Y-82628619D02*
X169792952Y-82628619D01*
X169454285Y-83015666D01*
X169599428Y-83015666D01*
X169696190Y-83064047D01*
X169744571Y-83112428D01*
X169792952Y-83209190D01*
X169792952Y-83451095D01*
X169744571Y-83547857D01*
X169696190Y-83596238D01*
X169599428Y-83644619D01*
X169309142Y-83644619D01*
X169212380Y-83596238D01*
X169164000Y-83547857D01*
X170421904Y-82628619D02*
X170518666Y-82628619D01*
X170615428Y-82677000D01*
X170663809Y-82725380D01*
X170712190Y-82822142D01*
X170760571Y-83015666D01*
X170760571Y-83257571D01*
X170712190Y-83451095D01*
X170663809Y-83547857D01*
X170615428Y-83596238D01*
X170518666Y-83644619D01*
X170421904Y-83644619D01*
X170325142Y-83596238D01*
X170276761Y-83547857D01*
X170228380Y-83451095D01*
X170180000Y-83257571D01*
X170180000Y-83015666D01*
X170228380Y-82822142D01*
X170276761Y-82725380D01*
X170325142Y-82677000D01*
X170421904Y-82628619D01*
X171050857Y-82628619D02*
X171389523Y-83644619D01*
X171728190Y-82628619D01*
X172066857Y-83644619D02*
X172066857Y-82628619D01*
X172308761Y-82628619D01*
X172453904Y-82677000D01*
X172550666Y-82773761D01*
X172599047Y-82870523D01*
X172647428Y-83064047D01*
X172647428Y-83209190D01*
X172599047Y-83402714D01*
X172550666Y-83499476D01*
X172453904Y-83596238D01*
X172308761Y-83644619D01*
X172066857Y-83644619D01*
X173663428Y-83547857D02*
X173615047Y-83596238D01*
X173469904Y-83644619D01*
X173373142Y-83644619D01*
X173228000Y-83596238D01*
X173131238Y-83499476D01*
X173082857Y-83402714D01*
X173034476Y-83209190D01*
X173034476Y-83064047D01*
X173082857Y-82870523D01*
X173131238Y-82773761D01*
X173228000Y-82677000D01*
X173373142Y-82628619D01*
X173469904Y-82628619D01*
X173615047Y-82677000D01*
X173663428Y-82725380D01*
X142119047Y-82967285D02*
X141344952Y-83257571D01*
X142119047Y-83547857D01*
X142602857Y-83112428D02*
X143376952Y-83112428D01*
X143376952Y-83402714D02*
X142602857Y-83402714D01*
X143764000Y-82628619D02*
X144392952Y-82628619D01*
X144054285Y-83015666D01*
X144199428Y-83015666D01*
X144296190Y-83064047D01*
X144344571Y-83112428D01*
X144392952Y-83209190D01*
X144392952Y-83451095D01*
X144344571Y-83547857D01*
X144296190Y-83596238D01*
X144199428Y-83644619D01*
X143909142Y-83644619D01*
X143812380Y-83596238D01*
X143764000Y-83547857D01*
X145021904Y-82628619D02*
X145118666Y-82628619D01*
X145215428Y-82677000D01*
X145263809Y-82725380D01*
X145312190Y-82822142D01*
X145360571Y-83015666D01*
X145360571Y-83257571D01*
X145312190Y-83451095D01*
X145263809Y-83547857D01*
X145215428Y-83596238D01*
X145118666Y-83644619D01*
X145021904Y-83644619D01*
X144925142Y-83596238D01*
X144876761Y-83547857D01*
X144828380Y-83451095D01*
X144780000Y-83257571D01*
X144780000Y-83015666D01*
X144828380Y-82822142D01*
X144876761Y-82725380D01*
X144925142Y-82677000D01*
X145021904Y-82628619D01*
X145650857Y-82628619D02*
X145989523Y-83644619D01*
X146328190Y-82628619D01*
X146666857Y-83644619D02*
X146666857Y-82628619D01*
X146908761Y-82628619D01*
X147053904Y-82677000D01*
X147150666Y-82773761D01*
X147199047Y-82870523D01*
X147247428Y-83064047D01*
X147247428Y-83209190D01*
X147199047Y-83402714D01*
X147150666Y-83499476D01*
X147053904Y-83596238D01*
X146908761Y-83644619D01*
X146666857Y-83644619D01*
X148263428Y-83547857D02*
X148215047Y-83596238D01*
X148069904Y-83644619D01*
X147973142Y-83644619D01*
X147828000Y-83596238D01*
X147731238Y-83499476D01*
X147682857Y-83402714D01*
X147634476Y-83209190D01*
X147634476Y-83064047D01*
X147682857Y-82870523D01*
X147731238Y-82773761D01*
X147828000Y-82677000D01*
X147973142Y-82628619D01*
X148069904Y-82628619D01*
X148215047Y-82677000D01*
X148263428Y-82725380D01*
X116719047Y-82967285D02*
X115944952Y-83257571D01*
X116719047Y-83547857D01*
X117202857Y-83112428D02*
X117976952Y-83112428D01*
X117976952Y-83402714D02*
X117202857Y-83402714D01*
X118364000Y-82628619D02*
X118992952Y-82628619D01*
X118654285Y-83015666D01*
X118799428Y-83015666D01*
X118896190Y-83064047D01*
X118944571Y-83112428D01*
X118992952Y-83209190D01*
X118992952Y-83451095D01*
X118944571Y-83547857D01*
X118896190Y-83596238D01*
X118799428Y-83644619D01*
X118509142Y-83644619D01*
X118412380Y-83596238D01*
X118364000Y-83547857D01*
X119621904Y-82628619D02*
X119718666Y-82628619D01*
X119815428Y-82677000D01*
X119863809Y-82725380D01*
X119912190Y-82822142D01*
X119960571Y-83015666D01*
X119960571Y-83257571D01*
X119912190Y-83451095D01*
X119863809Y-83547857D01*
X119815428Y-83596238D01*
X119718666Y-83644619D01*
X119621904Y-83644619D01*
X119525142Y-83596238D01*
X119476761Y-83547857D01*
X119428380Y-83451095D01*
X119380000Y-83257571D01*
X119380000Y-83015666D01*
X119428380Y-82822142D01*
X119476761Y-82725380D01*
X119525142Y-82677000D01*
X119621904Y-82628619D01*
X120250857Y-82628619D02*
X120589523Y-83644619D01*
X120928190Y-82628619D01*
X121266857Y-83644619D02*
X121266857Y-82628619D01*
X121508761Y-82628619D01*
X121653904Y-82677000D01*
X121750666Y-82773761D01*
X121799047Y-82870523D01*
X121847428Y-83064047D01*
X121847428Y-83209190D01*
X121799047Y-83402714D01*
X121750666Y-83499476D01*
X121653904Y-83596238D01*
X121508761Y-83644619D01*
X121266857Y-83644619D01*
X122863428Y-83547857D02*
X122815047Y-83596238D01*
X122669904Y-83644619D01*
X122573142Y-83644619D01*
X122428000Y-83596238D01*
X122331238Y-83499476D01*
X122282857Y-83402714D01*
X122234476Y-83209190D01*
X122234476Y-83064047D01*
X122282857Y-82870523D01*
X122331238Y-82773761D01*
X122428000Y-82677000D01*
X122573142Y-82628619D01*
X122669904Y-82628619D01*
X122815047Y-82677000D01*
X122863428Y-82725380D01*
X91319047Y-108367285D02*
X90544952Y-108657571D01*
X91319047Y-108947857D01*
X91802857Y-108512428D02*
X92576952Y-108512428D01*
X92576952Y-108802714D02*
X91802857Y-108802714D01*
X92964000Y-108028619D02*
X93592952Y-108028619D01*
X93254285Y-108415666D01*
X93399428Y-108415666D01*
X93496190Y-108464047D01*
X93544571Y-108512428D01*
X93592952Y-108609190D01*
X93592952Y-108851095D01*
X93544571Y-108947857D01*
X93496190Y-108996238D01*
X93399428Y-109044619D01*
X93109142Y-109044619D01*
X93012380Y-108996238D01*
X92964000Y-108947857D01*
X94221904Y-108028619D02*
X94318666Y-108028619D01*
X94415428Y-108077000D01*
X94463809Y-108125380D01*
X94512190Y-108222142D01*
X94560571Y-108415666D01*
X94560571Y-108657571D01*
X94512190Y-108851095D01*
X94463809Y-108947857D01*
X94415428Y-108996238D01*
X94318666Y-109044619D01*
X94221904Y-109044619D01*
X94125142Y-108996238D01*
X94076761Y-108947857D01*
X94028380Y-108851095D01*
X93980000Y-108657571D01*
X93980000Y-108415666D01*
X94028380Y-108222142D01*
X94076761Y-108125380D01*
X94125142Y-108077000D01*
X94221904Y-108028619D01*
X94850857Y-108028619D02*
X95189523Y-109044619D01*
X95528190Y-108028619D01*
X95866857Y-109044619D02*
X95866857Y-108028619D01*
X96108761Y-108028619D01*
X96253904Y-108077000D01*
X96350666Y-108173761D01*
X96399047Y-108270523D01*
X96447428Y-108464047D01*
X96447428Y-108609190D01*
X96399047Y-108802714D01*
X96350666Y-108899476D01*
X96253904Y-108996238D01*
X96108761Y-109044619D01*
X95866857Y-109044619D01*
X97463428Y-108947857D02*
X97415047Y-108996238D01*
X97269904Y-109044619D01*
X97173142Y-109044619D01*
X97028000Y-108996238D01*
X96931238Y-108899476D01*
X96882857Y-108802714D01*
X96834476Y-108609190D01*
X96834476Y-108464047D01*
X96882857Y-108270523D01*
X96931238Y-108173761D01*
X97028000Y-108077000D01*
X97173142Y-108028619D01*
X97269904Y-108028619D01*
X97415047Y-108077000D01*
X97463428Y-108125380D01*
D12*
X178816000Y-105845428D02*
X179106285Y-105845428D01*
X179251428Y-105918000D01*
X179396571Y-106063142D01*
X179469142Y-106353428D01*
X179469142Y-106861428D01*
X179396571Y-107151714D01*
X179251428Y-107296857D01*
X179106285Y-107369428D01*
X178816000Y-107369428D01*
X178670857Y-107296857D01*
X178525714Y-107151714D01*
X178453142Y-106861428D01*
X178453142Y-106353428D01*
X178525714Y-106063142D01*
X178670857Y-105918000D01*
X178816000Y-105845428D01*
X180122285Y-105845428D02*
X180122285Y-107079142D01*
X180194857Y-107224285D01*
X180267428Y-107296857D01*
X180412571Y-107369428D01*
X180702857Y-107369428D01*
X180848000Y-107296857D01*
X180920571Y-107224285D01*
X180993142Y-107079142D01*
X180993142Y-105845428D01*
X181501142Y-105845428D02*
X182372000Y-105845428D01*
X181936571Y-107369428D02*
X181936571Y-105845428D01*
X153416000Y-105845428D02*
X153706285Y-105845428D01*
X153851428Y-105918000D01*
X153996571Y-106063142D01*
X154069142Y-106353428D01*
X154069142Y-106861428D01*
X153996571Y-107151714D01*
X153851428Y-107296857D01*
X153706285Y-107369428D01*
X153416000Y-107369428D01*
X153270857Y-107296857D01*
X153125714Y-107151714D01*
X153053142Y-106861428D01*
X153053142Y-106353428D01*
X153125714Y-106063142D01*
X153270857Y-105918000D01*
X153416000Y-105845428D01*
X154722285Y-105845428D02*
X154722285Y-107079142D01*
X154794857Y-107224285D01*
X154867428Y-107296857D01*
X155012571Y-107369428D01*
X155302857Y-107369428D01*
X155448000Y-107296857D01*
X155520571Y-107224285D01*
X155593142Y-107079142D01*
X155593142Y-105845428D01*
X156101142Y-105845428D02*
X156972000Y-105845428D01*
X156536571Y-107369428D02*
X156536571Y-105845428D01*
X128016000Y-105845428D02*
X128306285Y-105845428D01*
X128451428Y-105918000D01*
X128596571Y-106063142D01*
X128669142Y-106353428D01*
X128669142Y-106861428D01*
X128596571Y-107151714D01*
X128451428Y-107296857D01*
X128306285Y-107369428D01*
X128016000Y-107369428D01*
X127870857Y-107296857D01*
X127725714Y-107151714D01*
X127653142Y-106861428D01*
X127653142Y-106353428D01*
X127725714Y-106063142D01*
X127870857Y-105918000D01*
X128016000Y-105845428D01*
X129322285Y-105845428D02*
X129322285Y-107079142D01*
X129394857Y-107224285D01*
X129467428Y-107296857D01*
X129612571Y-107369428D01*
X129902857Y-107369428D01*
X130048000Y-107296857D01*
X130120571Y-107224285D01*
X130193142Y-107079142D01*
X130193142Y-105845428D01*
X130701142Y-105845428D02*
X131572000Y-105845428D01*
X131136571Y-107369428D02*
X131136571Y-105845428D01*
X102616000Y-105845428D02*
X102906285Y-105845428D01*
X103051428Y-105918000D01*
X103196571Y-106063142D01*
X103269142Y-106353428D01*
X103269142Y-106861428D01*
X103196571Y-107151714D01*
X103051428Y-107296857D01*
X102906285Y-107369428D01*
X102616000Y-107369428D01*
X102470857Y-107296857D01*
X102325714Y-107151714D01*
X102253142Y-106861428D01*
X102253142Y-106353428D01*
X102325714Y-106063142D01*
X102470857Y-105918000D01*
X102616000Y-105845428D01*
X103922285Y-105845428D02*
X103922285Y-107079142D01*
X103994857Y-107224285D01*
X104067428Y-107296857D01*
X104212571Y-107369428D01*
X104502857Y-107369428D01*
X104648000Y-107296857D01*
X104720571Y-107224285D01*
X104793142Y-107079142D01*
X104793142Y-105845428D01*
X105301142Y-105845428D02*
X106172000Y-105845428D01*
X105736571Y-107369428D02*
X105736571Y-105845428D01*
X178816000Y-80445428D02*
X179106285Y-80445428D01*
X179251428Y-80518000D01*
X179396571Y-80663142D01*
X179469142Y-80953428D01*
X179469142Y-81461428D01*
X179396571Y-81751714D01*
X179251428Y-81896857D01*
X179106285Y-81969428D01*
X178816000Y-81969428D01*
X178670857Y-81896857D01*
X178525714Y-81751714D01*
X178453142Y-81461428D01*
X178453142Y-80953428D01*
X178525714Y-80663142D01*
X178670857Y-80518000D01*
X178816000Y-80445428D01*
X180122285Y-80445428D02*
X180122285Y-81679142D01*
X180194857Y-81824285D01*
X180267428Y-81896857D01*
X180412571Y-81969428D01*
X180702857Y-81969428D01*
X180848000Y-81896857D01*
X180920571Y-81824285D01*
X180993142Y-81679142D01*
X180993142Y-80445428D01*
X181501142Y-80445428D02*
X182372000Y-80445428D01*
X181936571Y-81969428D02*
X181936571Y-80445428D01*
X153416000Y-80445428D02*
X153706285Y-80445428D01*
X153851428Y-80518000D01*
X153996571Y-80663142D01*
X154069142Y-80953428D01*
X154069142Y-81461428D01*
X153996571Y-81751714D01*
X153851428Y-81896857D01*
X153706285Y-81969428D01*
X153416000Y-81969428D01*
X153270857Y-81896857D01*
X153125714Y-81751714D01*
X153053142Y-81461428D01*
X153053142Y-80953428D01*
X153125714Y-80663142D01*
X153270857Y-80518000D01*
X153416000Y-80445428D01*
X154722285Y-80445428D02*
X154722285Y-81679142D01*
X154794857Y-81824285D01*
X154867428Y-81896857D01*
X155012571Y-81969428D01*
X155302857Y-81969428D01*
X155448000Y-81896857D01*
X155520571Y-81824285D01*
X155593142Y-81679142D01*
X155593142Y-80445428D01*
X156101142Y-80445428D02*
X156972000Y-80445428D01*
X156536571Y-81969428D02*
X156536571Y-80445428D01*
X128016000Y-80445428D02*
X128306285Y-80445428D01*
X128451428Y-80518000D01*
X128596571Y-80663142D01*
X128669142Y-80953428D01*
X128669142Y-81461428D01*
X128596571Y-81751714D01*
X128451428Y-81896857D01*
X128306285Y-81969428D01*
X128016000Y-81969428D01*
X127870857Y-81896857D01*
X127725714Y-81751714D01*
X127653142Y-81461428D01*
X127653142Y-80953428D01*
X127725714Y-80663142D01*
X127870857Y-80518000D01*
X128016000Y-80445428D01*
X129322285Y-80445428D02*
X129322285Y-81679142D01*
X129394857Y-81824285D01*
X129467428Y-81896857D01*
X129612571Y-81969428D01*
X129902857Y-81969428D01*
X130048000Y-81896857D01*
X130120571Y-81824285D01*
X130193142Y-81679142D01*
X130193142Y-80445428D01*
X130701142Y-80445428D02*
X131572000Y-80445428D01*
X131136571Y-81969428D02*
X131136571Y-80445428D01*
X169381714Y-107369428D02*
X169381714Y-105845428D01*
X170107428Y-107369428D02*
X170107428Y-105845428D01*
X170978285Y-107369428D01*
X170978285Y-105845428D01*
X143981714Y-107369428D02*
X143981714Y-105845428D01*
X144707428Y-107369428D02*
X144707428Y-105845428D01*
X145578285Y-107369428D01*
X145578285Y-105845428D01*
X169381714Y-81969428D02*
X169381714Y-80445428D01*
X170107428Y-81969428D02*
X170107428Y-80445428D01*
X170978285Y-81969428D01*
X170978285Y-80445428D01*
X143981714Y-81969428D02*
X143981714Y-80445428D01*
X144707428Y-81969428D02*
X144707428Y-80445428D01*
X145578285Y-81969428D01*
X145578285Y-80445428D01*
X118581714Y-81969428D02*
X118581714Y-80445428D01*
X119307428Y-81969428D02*
X119307428Y-80445428D01*
X120178285Y-81969428D01*
X120178285Y-80445428D01*
X118581714Y-107369428D02*
X118581714Y-105845428D01*
X119307428Y-107369428D02*
X119307428Y-105845428D01*
X120178285Y-107369428D01*
X120178285Y-105845428D01*
X93181714Y-107369428D02*
X93181714Y-105845428D01*
X93907428Y-107369428D02*
X93907428Y-105845428D01*
X94778285Y-107369428D01*
X94778285Y-105845428D01*
D13*
X182105904Y-110635142D02*
X183654095Y-110635142D01*
X171945904Y-110635142D02*
X173494095Y-110635142D01*
X156705904Y-110635142D02*
X158254095Y-110635142D01*
X146545904Y-110635142D02*
X148094095Y-110635142D01*
X131305904Y-110635142D02*
X132854095Y-110635142D01*
X121145904Y-110635142D02*
X122694095Y-110635142D01*
X105905904Y-110635142D02*
X107454095Y-110635142D01*
X95745904Y-110635142D02*
X97294095Y-110635142D01*
X182105904Y-85235142D02*
X183654095Y-85235142D01*
X171945904Y-85235142D02*
X173494095Y-85235142D01*
X156705904Y-85235142D02*
X158254095Y-85235142D01*
X146545904Y-85235142D02*
X148094095Y-85235142D01*
X131305904Y-85235142D02*
X132854095Y-85235142D01*
X121145904Y-85235142D02*
X122694095Y-85235142D01*
X177025904Y-110635142D02*
X178574095Y-110635142D01*
X177800000Y-111409238D02*
X177800000Y-109861047D01*
X166865904Y-110635142D02*
X168414095Y-110635142D01*
X167640000Y-111409238D02*
X167640000Y-109861047D01*
X151625904Y-110635142D02*
X153174095Y-110635142D01*
X152400000Y-111409238D02*
X152400000Y-109861047D01*
X141465904Y-110635142D02*
X143014095Y-110635142D01*
X142240000Y-111409238D02*
X142240000Y-109861047D01*
X126225904Y-110635142D02*
X127774095Y-110635142D01*
X127000000Y-111409238D02*
X127000000Y-109861047D01*
X116065904Y-110635142D02*
X117614095Y-110635142D01*
X116840000Y-111409238D02*
X116840000Y-109861047D01*
X100825904Y-110635142D02*
X102374095Y-110635142D01*
X101600000Y-111409238D02*
X101600000Y-109861047D01*
X90665904Y-110635142D02*
X92214095Y-110635142D01*
X91440000Y-111409238D02*
X91440000Y-109861047D01*
X177025904Y-85235142D02*
X178574095Y-85235142D01*
X177800000Y-86009238D02*
X177800000Y-84461047D01*
X166865904Y-85235142D02*
X168414095Y-85235142D01*
X167640000Y-86009238D02*
X167640000Y-84461047D01*
X151625904Y-85235142D02*
X153174095Y-85235142D01*
X152400000Y-86009238D02*
X152400000Y-84461047D01*
X141465904Y-85235142D02*
X143014095Y-85235142D01*
X142240000Y-86009238D02*
X142240000Y-84461047D01*
X126225904Y-85235142D02*
X127774095Y-85235142D01*
X127000000Y-86009238D02*
X127000000Y-84461047D01*
X116065904Y-85235142D02*
X117614095Y-85235142D01*
X116840000Y-86009238D02*
X116840000Y-84461047D01*
D11*
X173348952Y-123601238D02*
X173494095Y-123649619D01*
X173736000Y-123649619D01*
X173832761Y-123601238D01*
X173881142Y-123552857D01*
X173929523Y-123456095D01*
X173929523Y-123359333D01*
X173881142Y-123262571D01*
X173832761Y-123214190D01*
X173736000Y-123165809D01*
X173542476Y-123117428D01*
X173445714Y-123069047D01*
X173397333Y-123020666D01*
X173348952Y-122923904D01*
X173348952Y-122827142D01*
X173397333Y-122730380D01*
X173445714Y-122682000D01*
X173542476Y-122633619D01*
X173784380Y-122633619D01*
X173929523Y-122682000D01*
X174364952Y-123649619D02*
X174364952Y-122633619D01*
X175380952Y-122682000D02*
X175284190Y-122633619D01*
X175139047Y-122633619D01*
X174993904Y-122682000D01*
X174897142Y-122778761D01*
X174848761Y-122875523D01*
X174800380Y-123069047D01*
X174800380Y-123214190D01*
X174848761Y-123407714D01*
X174897142Y-123504476D01*
X174993904Y-123601238D01*
X175139047Y-123649619D01*
X175235809Y-123649619D01*
X175380952Y-123601238D01*
X175429333Y-123552857D01*
X175429333Y-123214190D01*
X175235809Y-123214190D01*
X175622857Y-123746380D02*
X176396952Y-123746380D01*
X176542095Y-122633619D02*
X177219428Y-122633619D01*
X176784000Y-123649619D01*
X147948952Y-123601238D02*
X148094095Y-123649619D01*
X148336000Y-123649619D01*
X148432761Y-123601238D01*
X148481142Y-123552857D01*
X148529523Y-123456095D01*
X148529523Y-123359333D01*
X148481142Y-123262571D01*
X148432761Y-123214190D01*
X148336000Y-123165809D01*
X148142476Y-123117428D01*
X148045714Y-123069047D01*
X147997333Y-123020666D01*
X147948952Y-122923904D01*
X147948952Y-122827142D01*
X147997333Y-122730380D01*
X148045714Y-122682000D01*
X148142476Y-122633619D01*
X148384380Y-122633619D01*
X148529523Y-122682000D01*
X148964952Y-123649619D02*
X148964952Y-122633619D01*
X149980952Y-122682000D02*
X149884190Y-122633619D01*
X149739047Y-122633619D01*
X149593904Y-122682000D01*
X149497142Y-122778761D01*
X149448761Y-122875523D01*
X149400380Y-123069047D01*
X149400380Y-123214190D01*
X149448761Y-123407714D01*
X149497142Y-123504476D01*
X149593904Y-123601238D01*
X149739047Y-123649619D01*
X149835809Y-123649619D01*
X149980952Y-123601238D01*
X150029333Y-123552857D01*
X150029333Y-123214190D01*
X149835809Y-123214190D01*
X150222857Y-123746380D02*
X150996952Y-123746380D01*
X151674285Y-122633619D02*
X151480761Y-122633619D01*
X151384000Y-122682000D01*
X151335619Y-122730380D01*
X151238857Y-122875523D01*
X151190476Y-123069047D01*
X151190476Y-123456095D01*
X151238857Y-123552857D01*
X151287238Y-123601238D01*
X151384000Y-123649619D01*
X151577523Y-123649619D01*
X151674285Y-123601238D01*
X151722666Y-123552857D01*
X151771047Y-123456095D01*
X151771047Y-123214190D01*
X151722666Y-123117428D01*
X151674285Y-123069047D01*
X151577523Y-123020666D01*
X151384000Y-123020666D01*
X151287238Y-123069047D01*
X151238857Y-123117428D01*
X151190476Y-123214190D01*
X122548952Y-123601238D02*
X122694095Y-123649619D01*
X122936000Y-123649619D01*
X123032761Y-123601238D01*
X123081142Y-123552857D01*
X123129523Y-123456095D01*
X123129523Y-123359333D01*
X123081142Y-123262571D01*
X123032761Y-123214190D01*
X122936000Y-123165809D01*
X122742476Y-123117428D01*
X122645714Y-123069047D01*
X122597333Y-123020666D01*
X122548952Y-122923904D01*
X122548952Y-122827142D01*
X122597333Y-122730380D01*
X122645714Y-122682000D01*
X122742476Y-122633619D01*
X122984380Y-122633619D01*
X123129523Y-122682000D01*
X123564952Y-123649619D02*
X123564952Y-122633619D01*
X124580952Y-122682000D02*
X124484190Y-122633619D01*
X124339047Y-122633619D01*
X124193904Y-122682000D01*
X124097142Y-122778761D01*
X124048761Y-122875523D01*
X124000380Y-123069047D01*
X124000380Y-123214190D01*
X124048761Y-123407714D01*
X124097142Y-123504476D01*
X124193904Y-123601238D01*
X124339047Y-123649619D01*
X124435809Y-123649619D01*
X124580952Y-123601238D01*
X124629333Y-123552857D01*
X124629333Y-123214190D01*
X124435809Y-123214190D01*
X124822857Y-123746380D02*
X125596952Y-123746380D01*
X126322666Y-122633619D02*
X125838857Y-122633619D01*
X125790476Y-123117428D01*
X125838857Y-123069047D01*
X125935619Y-123020666D01*
X126177523Y-123020666D01*
X126274285Y-123069047D01*
X126322666Y-123117428D01*
X126371047Y-123214190D01*
X126371047Y-123456095D01*
X126322666Y-123552857D01*
X126274285Y-123601238D01*
X126177523Y-123649619D01*
X125935619Y-123649619D01*
X125838857Y-123601238D01*
X125790476Y-123552857D01*
X97148952Y-123601238D02*
X97294095Y-123649619D01*
X97536000Y-123649619D01*
X97632761Y-123601238D01*
X97681142Y-123552857D01*
X97729523Y-123456095D01*
X97729523Y-123359333D01*
X97681142Y-123262571D01*
X97632761Y-123214190D01*
X97536000Y-123165809D01*
X97342476Y-123117428D01*
X97245714Y-123069047D01*
X97197333Y-123020666D01*
X97148952Y-122923904D01*
X97148952Y-122827142D01*
X97197333Y-122730380D01*
X97245714Y-122682000D01*
X97342476Y-122633619D01*
X97584380Y-122633619D01*
X97729523Y-122682000D01*
X98164952Y-123649619D02*
X98164952Y-122633619D01*
X99180952Y-122682000D02*
X99084190Y-122633619D01*
X98939047Y-122633619D01*
X98793904Y-122682000D01*
X98697142Y-122778761D01*
X98648761Y-122875523D01*
X98600380Y-123069047D01*
X98600380Y-123214190D01*
X98648761Y-123407714D01*
X98697142Y-123504476D01*
X98793904Y-123601238D01*
X98939047Y-123649619D01*
X99035809Y-123649619D01*
X99180952Y-123601238D01*
X99229333Y-123552857D01*
X99229333Y-123214190D01*
X99035809Y-123214190D01*
X99422857Y-123746380D02*
X100196952Y-123746380D01*
X100874285Y-122972285D02*
X100874285Y-123649619D01*
X100632380Y-122585238D02*
X100390476Y-123310952D01*
X101019428Y-123310952D01*
X173348952Y-98201238D02*
X173494095Y-98249619D01*
X173736000Y-98249619D01*
X173832761Y-98201238D01*
X173881142Y-98152857D01*
X173929523Y-98056095D01*
X173929523Y-97959333D01*
X173881142Y-97862571D01*
X173832761Y-97814190D01*
X173736000Y-97765809D01*
X173542476Y-97717428D01*
X173445714Y-97669047D01*
X173397333Y-97620666D01*
X173348952Y-97523904D01*
X173348952Y-97427142D01*
X173397333Y-97330380D01*
X173445714Y-97282000D01*
X173542476Y-97233619D01*
X173784380Y-97233619D01*
X173929523Y-97282000D01*
X174364952Y-98249619D02*
X174364952Y-97233619D01*
X175380952Y-97282000D02*
X175284190Y-97233619D01*
X175139047Y-97233619D01*
X174993904Y-97282000D01*
X174897142Y-97378761D01*
X174848761Y-97475523D01*
X174800380Y-97669047D01*
X174800380Y-97814190D01*
X174848761Y-98007714D01*
X174897142Y-98104476D01*
X174993904Y-98201238D01*
X175139047Y-98249619D01*
X175235809Y-98249619D01*
X175380952Y-98201238D01*
X175429333Y-98152857D01*
X175429333Y-97814190D01*
X175235809Y-97814190D01*
X175622857Y-98346380D02*
X176396952Y-98346380D01*
X176542095Y-97233619D02*
X177171047Y-97233619D01*
X176832380Y-97620666D01*
X176977523Y-97620666D01*
X177074285Y-97669047D01*
X177122666Y-97717428D01*
X177171047Y-97814190D01*
X177171047Y-98056095D01*
X177122666Y-98152857D01*
X177074285Y-98201238D01*
X176977523Y-98249619D01*
X176687238Y-98249619D01*
X176590476Y-98201238D01*
X176542095Y-98152857D01*
X147948952Y-98201238D02*
X148094095Y-98249619D01*
X148336000Y-98249619D01*
X148432761Y-98201238D01*
X148481142Y-98152857D01*
X148529523Y-98056095D01*
X148529523Y-97959333D01*
X148481142Y-97862571D01*
X148432761Y-97814190D01*
X148336000Y-97765809D01*
X148142476Y-97717428D01*
X148045714Y-97669047D01*
X147997333Y-97620666D01*
X147948952Y-97523904D01*
X147948952Y-97427142D01*
X147997333Y-97330380D01*
X148045714Y-97282000D01*
X148142476Y-97233619D01*
X148384380Y-97233619D01*
X148529523Y-97282000D01*
X148964952Y-98249619D02*
X148964952Y-97233619D01*
X149980952Y-97282000D02*
X149884190Y-97233619D01*
X149739047Y-97233619D01*
X149593904Y-97282000D01*
X149497142Y-97378761D01*
X149448761Y-97475523D01*
X149400380Y-97669047D01*
X149400380Y-97814190D01*
X149448761Y-98007714D01*
X149497142Y-98104476D01*
X149593904Y-98201238D01*
X149739047Y-98249619D01*
X149835809Y-98249619D01*
X149980952Y-98201238D01*
X150029333Y-98152857D01*
X150029333Y-97814190D01*
X149835809Y-97814190D01*
X150222857Y-98346380D02*
X150996952Y-98346380D01*
X151190476Y-97330380D02*
X151238857Y-97282000D01*
X151335619Y-97233619D01*
X151577523Y-97233619D01*
X151674285Y-97282000D01*
X151722666Y-97330380D01*
X151771047Y-97427142D01*
X151771047Y-97523904D01*
X151722666Y-97669047D01*
X151142095Y-98249619D01*
X151771047Y-98249619D01*
X122548952Y-98201238D02*
X122694095Y-98249619D01*
X122936000Y-98249619D01*
X123032761Y-98201238D01*
X123081142Y-98152857D01*
X123129523Y-98056095D01*
X123129523Y-97959333D01*
X123081142Y-97862571D01*
X123032761Y-97814190D01*
X122936000Y-97765809D01*
X122742476Y-97717428D01*
X122645714Y-97669047D01*
X122597333Y-97620666D01*
X122548952Y-97523904D01*
X122548952Y-97427142D01*
X122597333Y-97330380D01*
X122645714Y-97282000D01*
X122742476Y-97233619D01*
X122984380Y-97233619D01*
X123129523Y-97282000D01*
X123564952Y-98249619D02*
X123564952Y-97233619D01*
X124580952Y-97282000D02*
X124484190Y-97233619D01*
X124339047Y-97233619D01*
X124193904Y-97282000D01*
X124097142Y-97378761D01*
X124048761Y-97475523D01*
X124000380Y-97669047D01*
X124000380Y-97814190D01*
X124048761Y-98007714D01*
X124097142Y-98104476D01*
X124193904Y-98201238D01*
X124339047Y-98249619D01*
X124435809Y-98249619D01*
X124580952Y-98201238D01*
X124629333Y-98152857D01*
X124629333Y-97814190D01*
X124435809Y-97814190D01*
X124822857Y-98346380D02*
X125596952Y-98346380D01*
X126371047Y-98249619D02*
X125790476Y-98249619D01*
X126080761Y-98249619D02*
X126080761Y-97233619D01*
X125984000Y-97378761D01*
X125887238Y-97475523D01*
X125790476Y-97523904D01*
D14*
X175260000Y-120015000D02*
X175260000Y-105410000D01*
X149860000Y-120015000D02*
X149860000Y-105410000D01*
X124460000Y-120015000D02*
X124460000Y-105410000D01*
X99060000Y-120015000D02*
X99060000Y-105410000D01*
X175260000Y-94615000D02*
X175260000Y-80010000D01*
X149860000Y-94615000D02*
X149860000Y-80010000D01*
X124460000Y-94615000D02*
X124460000Y-80010000D01*
D11*
X181864000Y-127713619D02*
X182057523Y-127713619D01*
X182154285Y-127762000D01*
X182251047Y-127858761D01*
X182299428Y-128052285D01*
X182299428Y-128390952D01*
X182251047Y-128584476D01*
X182154285Y-128681238D01*
X182057523Y-128729619D01*
X181864000Y-128729619D01*
X181767238Y-128681238D01*
X181670476Y-128584476D01*
X181622095Y-128390952D01*
X181622095Y-128052285D01*
X181670476Y-127858761D01*
X181767238Y-127762000D01*
X181864000Y-127713619D01*
X182734857Y-127713619D02*
X182734857Y-128536095D01*
X182783238Y-128632857D01*
X182831619Y-128681238D01*
X182928380Y-128729619D01*
X183121904Y-128729619D01*
X183218666Y-128681238D01*
X183267047Y-128632857D01*
X183315428Y-128536095D01*
X183315428Y-127713619D01*
X183654095Y-127713619D02*
X184234666Y-127713619D01*
X183944380Y-128729619D02*
X183944380Y-127713619D01*
X156464000Y-127713619D02*
X156657523Y-127713619D01*
X156754285Y-127762000D01*
X156851047Y-127858761D01*
X156899428Y-128052285D01*
X156899428Y-128390952D01*
X156851047Y-128584476D01*
X156754285Y-128681238D01*
X156657523Y-128729619D01*
X156464000Y-128729619D01*
X156367238Y-128681238D01*
X156270476Y-128584476D01*
X156222095Y-128390952D01*
X156222095Y-128052285D01*
X156270476Y-127858761D01*
X156367238Y-127762000D01*
X156464000Y-127713619D01*
X157334857Y-127713619D02*
X157334857Y-128536095D01*
X157383238Y-128632857D01*
X157431619Y-128681238D01*
X157528380Y-128729619D01*
X157721904Y-128729619D01*
X157818666Y-128681238D01*
X157867047Y-128632857D01*
X157915428Y-128536095D01*
X157915428Y-127713619D01*
X158254095Y-127713619D02*
X158834666Y-127713619D01*
X158544380Y-128729619D02*
X158544380Y-127713619D01*
X131064000Y-127713619D02*
X131257523Y-127713619D01*
X131354285Y-127762000D01*
X131451047Y-127858761D01*
X131499428Y-128052285D01*
X131499428Y-128390952D01*
X131451047Y-128584476D01*
X131354285Y-128681238D01*
X131257523Y-128729619D01*
X131064000Y-128729619D01*
X130967238Y-128681238D01*
X130870476Y-128584476D01*
X130822095Y-128390952D01*
X130822095Y-128052285D01*
X130870476Y-127858761D01*
X130967238Y-127762000D01*
X131064000Y-127713619D01*
X131934857Y-127713619D02*
X131934857Y-128536095D01*
X131983238Y-128632857D01*
X132031619Y-128681238D01*
X132128380Y-128729619D01*
X132321904Y-128729619D01*
X132418666Y-128681238D01*
X132467047Y-128632857D01*
X132515428Y-128536095D01*
X132515428Y-127713619D01*
X132854095Y-127713619D02*
X133434666Y-127713619D01*
X133144380Y-128729619D02*
X133144380Y-127713619D01*
X181864000Y-102313619D02*
X182057523Y-102313619D01*
X182154285Y-102362000D01*
X182251047Y-102458761D01*
X182299428Y-102652285D01*
X182299428Y-102990952D01*
X182251047Y-103184476D01*
X182154285Y-103281238D01*
X182057523Y-103329619D01*
X181864000Y-103329619D01*
X181767238Y-103281238D01*
X181670476Y-103184476D01*
X181622095Y-102990952D01*
X181622095Y-102652285D01*
X181670476Y-102458761D01*
X181767238Y-102362000D01*
X181864000Y-102313619D01*
X182734857Y-102313619D02*
X182734857Y-103136095D01*
X182783238Y-103232857D01*
X182831619Y-103281238D01*
X182928380Y-103329619D01*
X183121904Y-103329619D01*
X183218666Y-103281238D01*
X183267047Y-103232857D01*
X183315428Y-103136095D01*
X183315428Y-102313619D01*
X183654095Y-102313619D02*
X184234666Y-102313619D01*
X183944380Y-103329619D02*
X183944380Y-102313619D01*
X156464000Y-102313619D02*
X156657523Y-102313619D01*
X156754285Y-102362000D01*
X156851047Y-102458761D01*
X156899428Y-102652285D01*
X156899428Y-102990952D01*
X156851047Y-103184476D01*
X156754285Y-103281238D01*
X156657523Y-103329619D01*
X156464000Y-103329619D01*
X156367238Y-103281238D01*
X156270476Y-103184476D01*
X156222095Y-102990952D01*
X156222095Y-102652285D01*
X156270476Y-102458761D01*
X156367238Y-102362000D01*
X156464000Y-102313619D01*
X157334857Y-102313619D02*
X157334857Y-103136095D01*
X157383238Y-103232857D01*
X157431619Y-103281238D01*
X157528380Y-103329619D01*
X157721904Y-103329619D01*
X157818666Y-103281238D01*
X157867047Y-103232857D01*
X157915428Y-103136095D01*
X157915428Y-102313619D01*
X158254095Y-102313619D02*
X158834666Y-102313619D01*
X158544380Y-103329619D02*
X158544380Y-102313619D01*
X131064000Y-102313619D02*
X131257523Y-102313619D01*
X131354285Y-102362000D01*
X131451047Y-102458761D01*
X131499428Y-102652285D01*
X131499428Y-102990952D01*
X131451047Y-103184476D01*
X131354285Y-103281238D01*
X131257523Y-103329619D01*
X131064000Y-103329619D01*
X130967238Y-103281238D01*
X130870476Y-103184476D01*
X130822095Y-102990952D01*
X130822095Y-102652285D01*
X130870476Y-102458761D01*
X130967238Y-102362000D01*
X131064000Y-102313619D01*
X131934857Y-102313619D02*
X131934857Y-103136095D01*
X131983238Y-103232857D01*
X132031619Y-103281238D01*
X132128380Y-103329619D01*
X132321904Y-103329619D01*
X132418666Y-103281238D01*
X132467047Y-103232857D01*
X132515428Y-103136095D01*
X132515428Y-102313619D01*
X132854095Y-102313619D02*
X133434666Y-102313619D01*
X133144380Y-103329619D02*
X133144380Y-102313619D01*
X166599809Y-128681238D02*
X166744952Y-128729619D01*
X166986857Y-128729619D01*
X167083619Y-128681238D01*
X167132000Y-128632857D01*
X167180380Y-128536095D01*
X167180380Y-128439333D01*
X167132000Y-128342571D01*
X167083619Y-128294190D01*
X166986857Y-128245809D01*
X166793333Y-128197428D01*
X166696571Y-128149047D01*
X166648190Y-128100666D01*
X166599809Y-128003904D01*
X166599809Y-127907142D01*
X166648190Y-127810380D01*
X166696571Y-127762000D01*
X166793333Y-127713619D01*
X167035238Y-127713619D01*
X167180380Y-127762000D01*
X167615809Y-128729619D02*
X167615809Y-127713619D01*
X168631809Y-127762000D02*
X168535047Y-127713619D01*
X168389904Y-127713619D01*
X168244761Y-127762000D01*
X168148000Y-127858761D01*
X168099619Y-127955523D01*
X168051238Y-128149047D01*
X168051238Y-128294190D01*
X168099619Y-128487714D01*
X168148000Y-128584476D01*
X168244761Y-128681238D01*
X168389904Y-128729619D01*
X168486666Y-128729619D01*
X168631809Y-128681238D01*
X168680190Y-128632857D01*
X168680190Y-128294190D01*
X168486666Y-128294190D01*
X166599809Y-103281238D02*
X166744952Y-103329619D01*
X166986857Y-103329619D01*
X167083619Y-103281238D01*
X167132000Y-103232857D01*
X167180380Y-103136095D01*
X167180380Y-103039333D01*
X167132000Y-102942571D01*
X167083619Y-102894190D01*
X166986857Y-102845809D01*
X166793333Y-102797428D01*
X166696571Y-102749047D01*
X166648190Y-102700666D01*
X166599809Y-102603904D01*
X166599809Y-102507142D01*
X166648190Y-102410380D01*
X166696571Y-102362000D01*
X166793333Y-102313619D01*
X167035238Y-102313619D01*
X167180380Y-102362000D01*
X167615809Y-103329619D02*
X167615809Y-102313619D01*
X168631809Y-102362000D02*
X168535047Y-102313619D01*
X168389904Y-102313619D01*
X168244761Y-102362000D01*
X168148000Y-102458761D01*
X168099619Y-102555523D01*
X168051238Y-102749047D01*
X168051238Y-102894190D01*
X168099619Y-103087714D01*
X168148000Y-103184476D01*
X168244761Y-103281238D01*
X168389904Y-103329619D01*
X168486666Y-103329619D01*
X168631809Y-103281238D01*
X168680190Y-103232857D01*
X168680190Y-102894190D01*
X168486666Y-102894190D01*
X141199809Y-103281238D02*
X141344952Y-103329619D01*
X141586857Y-103329619D01*
X141683619Y-103281238D01*
X141732000Y-103232857D01*
X141780380Y-103136095D01*
X141780380Y-103039333D01*
X141732000Y-102942571D01*
X141683619Y-102894190D01*
X141586857Y-102845809D01*
X141393333Y-102797428D01*
X141296571Y-102749047D01*
X141248190Y-102700666D01*
X141199809Y-102603904D01*
X141199809Y-102507142D01*
X141248190Y-102410380D01*
X141296571Y-102362000D01*
X141393333Y-102313619D01*
X141635238Y-102313619D01*
X141780380Y-102362000D01*
X142215809Y-103329619D02*
X142215809Y-102313619D01*
X143231809Y-102362000D02*
X143135047Y-102313619D01*
X142989904Y-102313619D01*
X142844761Y-102362000D01*
X142748000Y-102458761D01*
X142699619Y-102555523D01*
X142651238Y-102749047D01*
X142651238Y-102894190D01*
X142699619Y-103087714D01*
X142748000Y-103184476D01*
X142844761Y-103281238D01*
X142989904Y-103329619D01*
X143086666Y-103329619D01*
X143231809Y-103281238D01*
X143280190Y-103232857D01*
X143280190Y-102894190D01*
X143086666Y-102894190D01*
X141199809Y-128681238D02*
X141344952Y-128729619D01*
X141586857Y-128729619D01*
X141683619Y-128681238D01*
X141732000Y-128632857D01*
X141780380Y-128536095D01*
X141780380Y-128439333D01*
X141732000Y-128342571D01*
X141683619Y-128294190D01*
X141586857Y-128245809D01*
X141393333Y-128197428D01*
X141296571Y-128149047D01*
X141248190Y-128100666D01*
X141199809Y-128003904D01*
X141199809Y-127907142D01*
X141248190Y-127810380D01*
X141296571Y-127762000D01*
X141393333Y-127713619D01*
X141635238Y-127713619D01*
X141780380Y-127762000D01*
X142215809Y-128729619D02*
X142215809Y-127713619D01*
X143231809Y-127762000D02*
X143135047Y-127713619D01*
X142989904Y-127713619D01*
X142844761Y-127762000D01*
X142748000Y-127858761D01*
X142699619Y-127955523D01*
X142651238Y-128149047D01*
X142651238Y-128294190D01*
X142699619Y-128487714D01*
X142748000Y-128584476D01*
X142844761Y-128681238D01*
X142989904Y-128729619D01*
X143086666Y-128729619D01*
X143231809Y-128681238D01*
X143280190Y-128632857D01*
X143280190Y-128294190D01*
X143086666Y-128294190D01*
X115799809Y-128681238D02*
X115944952Y-128729619D01*
X116186857Y-128729619D01*
X116283619Y-128681238D01*
X116332000Y-128632857D01*
X116380380Y-128536095D01*
X116380380Y-128439333D01*
X116332000Y-128342571D01*
X116283619Y-128294190D01*
X116186857Y-128245809D01*
X115993333Y-128197428D01*
X115896571Y-128149047D01*
X115848190Y-128100666D01*
X115799809Y-128003904D01*
X115799809Y-127907142D01*
X115848190Y-127810380D01*
X115896571Y-127762000D01*
X115993333Y-127713619D01*
X116235238Y-127713619D01*
X116380380Y-127762000D01*
X116815809Y-128729619D02*
X116815809Y-127713619D01*
X117831809Y-127762000D02*
X117735047Y-127713619D01*
X117589904Y-127713619D01*
X117444761Y-127762000D01*
X117348000Y-127858761D01*
X117299619Y-127955523D01*
X117251238Y-128149047D01*
X117251238Y-128294190D01*
X117299619Y-128487714D01*
X117348000Y-128584476D01*
X117444761Y-128681238D01*
X117589904Y-128729619D01*
X117686666Y-128729619D01*
X117831809Y-128681238D01*
X117880190Y-128632857D01*
X117880190Y-128294190D01*
X117686666Y-128294190D01*
X90399809Y-128681238D02*
X90544952Y-128729619D01*
X90786857Y-128729619D01*
X90883619Y-128681238D01*
X90932000Y-128632857D01*
X90980380Y-128536095D01*
X90980380Y-128439333D01*
X90932000Y-128342571D01*
X90883619Y-128294190D01*
X90786857Y-128245809D01*
X90593333Y-128197428D01*
X90496571Y-128149047D01*
X90448190Y-128100666D01*
X90399809Y-128003904D01*
X90399809Y-127907142D01*
X90448190Y-127810380D01*
X90496571Y-127762000D01*
X90593333Y-127713619D01*
X90835238Y-127713619D01*
X90980380Y-127762000D01*
X91415809Y-128729619D02*
X91415809Y-127713619D01*
X92431809Y-127762000D02*
X92335047Y-127713619D01*
X92189904Y-127713619D01*
X92044761Y-127762000D01*
X91948000Y-127858761D01*
X91899619Y-127955523D01*
X91851238Y-128149047D01*
X91851238Y-128294190D01*
X91899619Y-128487714D01*
X91948000Y-128584476D01*
X92044761Y-128681238D01*
X92189904Y-128729619D01*
X92286666Y-128729619D01*
X92431809Y-128681238D01*
X92480190Y-128632857D01*
X92480190Y-128294190D01*
X92286666Y-128294190D01*
X115799809Y-103281238D02*
X115944952Y-103329619D01*
X116186857Y-103329619D01*
X116283619Y-103281238D01*
X116332000Y-103232857D01*
X116380380Y-103136095D01*
X116380380Y-103039333D01*
X116332000Y-102942571D01*
X116283619Y-102894190D01*
X116186857Y-102845809D01*
X115993333Y-102797428D01*
X115896571Y-102749047D01*
X115848190Y-102700666D01*
X115799809Y-102603904D01*
X115799809Y-102507142D01*
X115848190Y-102410380D01*
X115896571Y-102362000D01*
X115993333Y-102313619D01*
X116235238Y-102313619D01*
X116380380Y-102362000D01*
X116815809Y-103329619D02*
X116815809Y-102313619D01*
X117831809Y-102362000D02*
X117735047Y-102313619D01*
X117589904Y-102313619D01*
X117444761Y-102362000D01*
X117348000Y-102458761D01*
X117299619Y-102555523D01*
X117251238Y-102749047D01*
X117251238Y-102894190D01*
X117299619Y-103087714D01*
X117348000Y-103184476D01*
X117444761Y-103281238D01*
X117589904Y-103329619D01*
X117686666Y-103329619D01*
X117831809Y-103281238D01*
X117880190Y-103232857D01*
X117880190Y-102894190D01*
X117686666Y-102894190D01*
X105664000Y-102313619D02*
X105857523Y-102313619D01*
X105954285Y-102362000D01*
X106051047Y-102458761D01*
X106099428Y-102652285D01*
X106099428Y-102990952D01*
X106051047Y-103184476D01*
X105954285Y-103281238D01*
X105857523Y-103329619D01*
X105664000Y-103329619D01*
X105567238Y-103281238D01*
X105470476Y-103184476D01*
X105422095Y-102990952D01*
X105422095Y-102652285D01*
X105470476Y-102458761D01*
X105567238Y-102362000D01*
X105664000Y-102313619D01*
X106534857Y-102313619D02*
X106534857Y-103136095D01*
X106583238Y-103232857D01*
X106631619Y-103281238D01*
X106728380Y-103329619D01*
X106921904Y-103329619D01*
X107018666Y-103281238D01*
X107067047Y-103232857D01*
X107115428Y-103136095D01*
X107115428Y-102313619D01*
X107454095Y-102313619D02*
X108034666Y-102313619D01*
X107744380Y-103329619D02*
X107744380Y-102313619D01*
X90399809Y-103281238D02*
X90544952Y-103329619D01*
X90786857Y-103329619D01*
X90883619Y-103281238D01*
X90932000Y-103232857D01*
X90980380Y-103136095D01*
X90980380Y-103039333D01*
X90932000Y-102942571D01*
X90883619Y-102894190D01*
X90786857Y-102845809D01*
X90593333Y-102797428D01*
X90496571Y-102749047D01*
X90448190Y-102700666D01*
X90399809Y-102603904D01*
X90399809Y-102507142D01*
X90448190Y-102410380D01*
X90496571Y-102362000D01*
X90593333Y-102313619D01*
X90835238Y-102313619D01*
X90980380Y-102362000D01*
X91415809Y-103329619D02*
X91415809Y-102313619D01*
X92431809Y-102362000D02*
X92335047Y-102313619D01*
X92189904Y-102313619D01*
X92044761Y-102362000D01*
X91948000Y-102458761D01*
X91899619Y-102555523D01*
X91851238Y-102749047D01*
X91851238Y-102894190D01*
X91899619Y-103087714D01*
X91948000Y-103184476D01*
X92044761Y-103281238D01*
X92189904Y-103329619D01*
X92286666Y-103329619D01*
X92431809Y-103281238D01*
X92480190Y-103232857D01*
X92480190Y-102894190D01*
X92286666Y-102894190D01*
X102253142Y-82967285D02*
X101479047Y-83257571D01*
X102253142Y-83547857D01*
X102736952Y-83112428D02*
X103511047Y-83112428D01*
X103511047Y-83402714D02*
X102736952Y-83402714D01*
X103898095Y-82628619D02*
X104575428Y-82628619D01*
X104140000Y-83644619D01*
X104962476Y-83547857D02*
X105010857Y-83596238D01*
X104962476Y-83644619D01*
X104914095Y-83596238D01*
X104962476Y-83547857D01*
X104962476Y-83644619D01*
X105930095Y-82628619D02*
X105446285Y-82628619D01*
X105397904Y-83112428D01*
X105446285Y-83064047D01*
X105543047Y-83015666D01*
X105784952Y-83015666D01*
X105881714Y-83064047D01*
X105930095Y-83112428D01*
X105978476Y-83209190D01*
X105978476Y-83451095D01*
X105930095Y-83547857D01*
X105881714Y-83596238D01*
X105784952Y-83644619D01*
X105543047Y-83644619D01*
X105446285Y-83596238D01*
X105397904Y-83547857D01*
X106365523Y-83354333D02*
X106849333Y-83354333D01*
X106268761Y-83644619D02*
X106607428Y-82628619D01*
X106946095Y-83644619D01*
X91319047Y-82967285D02*
X90544952Y-83257571D01*
X91319047Y-83547857D01*
X91802857Y-83112428D02*
X92576952Y-83112428D01*
X92576952Y-83402714D02*
X91802857Y-83402714D01*
X92964000Y-82628619D02*
X93592952Y-82628619D01*
X93254285Y-83015666D01*
X93399428Y-83015666D01*
X93496190Y-83064047D01*
X93544571Y-83112428D01*
X93592952Y-83209190D01*
X93592952Y-83451095D01*
X93544571Y-83547857D01*
X93496190Y-83596238D01*
X93399428Y-83644619D01*
X93109142Y-83644619D01*
X93012380Y-83596238D01*
X92964000Y-83547857D01*
X94221904Y-82628619D02*
X94318666Y-82628619D01*
X94415428Y-82677000D01*
X94463809Y-82725380D01*
X94512190Y-82822142D01*
X94560571Y-83015666D01*
X94560571Y-83257571D01*
X94512190Y-83451095D01*
X94463809Y-83547857D01*
X94415428Y-83596238D01*
X94318666Y-83644619D01*
X94221904Y-83644619D01*
X94125142Y-83596238D01*
X94076761Y-83547857D01*
X94028380Y-83451095D01*
X93980000Y-83257571D01*
X93980000Y-83015666D01*
X94028380Y-82822142D01*
X94076761Y-82725380D01*
X94125142Y-82677000D01*
X94221904Y-82628619D01*
X94850857Y-82628619D02*
X95189523Y-83644619D01*
X95528190Y-82628619D01*
X95866857Y-83644619D02*
X95866857Y-82628619D01*
X96108761Y-82628619D01*
X96253904Y-82677000D01*
X96350666Y-82773761D01*
X96399047Y-82870523D01*
X96447428Y-83064047D01*
X96447428Y-83209190D01*
X96399047Y-83402714D01*
X96350666Y-83499476D01*
X96253904Y-83596238D01*
X96108761Y-83644619D01*
X95866857Y-83644619D01*
X97463428Y-83547857D02*
X97415047Y-83596238D01*
X97269904Y-83644619D01*
X97173142Y-83644619D01*
X97028000Y-83596238D01*
X96931238Y-83499476D01*
X96882857Y-83402714D01*
X96834476Y-83209190D01*
X96834476Y-83064047D01*
X96882857Y-82870523D01*
X96931238Y-82773761D01*
X97028000Y-82677000D01*
X97173142Y-82628619D01*
X97269904Y-82628619D01*
X97415047Y-82677000D01*
X97463428Y-82725380D01*
D12*
X102616000Y-80445428D02*
X102906285Y-80445428D01*
X103051428Y-80518000D01*
X103196571Y-80663142D01*
X103269142Y-80953428D01*
X103269142Y-81461428D01*
X103196571Y-81751714D01*
X103051428Y-81896857D01*
X102906285Y-81969428D01*
X102616000Y-81969428D01*
X102470857Y-81896857D01*
X102325714Y-81751714D01*
X102253142Y-81461428D01*
X102253142Y-80953428D01*
X102325714Y-80663142D01*
X102470857Y-80518000D01*
X102616000Y-80445428D01*
X103922285Y-80445428D02*
X103922285Y-81679142D01*
X103994857Y-81824285D01*
X104067428Y-81896857D01*
X104212571Y-81969428D01*
X104502857Y-81969428D01*
X104648000Y-81896857D01*
X104720571Y-81824285D01*
X104793142Y-81679142D01*
X104793142Y-80445428D01*
X105301142Y-80445428D02*
X106172000Y-80445428D01*
X105736571Y-81969428D02*
X105736571Y-80445428D01*
X93181714Y-81969428D02*
X93181714Y-80445428D01*
X93907428Y-81969428D02*
X93907428Y-80445428D01*
X94778285Y-81969428D01*
X94778285Y-80445428D01*
D14*
X99060000Y-94615000D02*
X99060000Y-80010000D01*
D11*
X97148952Y-98201238D02*
X97294095Y-98249619D01*
X97536000Y-98249619D01*
X97632761Y-98201238D01*
X97681142Y-98152857D01*
X97729523Y-98056095D01*
X97729523Y-97959333D01*
X97681142Y-97862571D01*
X97632761Y-97814190D01*
X97536000Y-97765809D01*
X97342476Y-97717428D01*
X97245714Y-97669047D01*
X97197333Y-97620666D01*
X97148952Y-97523904D01*
X97148952Y-97427142D01*
X97197333Y-97330380D01*
X97245714Y-97282000D01*
X97342476Y-97233619D01*
X97584380Y-97233619D01*
X97729523Y-97282000D01*
X98164952Y-98249619D02*
X98164952Y-97233619D01*
X99180952Y-97282000D02*
X99084190Y-97233619D01*
X98939047Y-97233619D01*
X98793904Y-97282000D01*
X98697142Y-97378761D01*
X98648761Y-97475523D01*
X98600380Y-97669047D01*
X98600380Y-97814190D01*
X98648761Y-98007714D01*
X98697142Y-98104476D01*
X98793904Y-98201238D01*
X98939047Y-98249619D01*
X99035809Y-98249619D01*
X99180952Y-98201238D01*
X99229333Y-98152857D01*
X99229333Y-97814190D01*
X99035809Y-97814190D01*
X99422857Y-98346380D02*
X100196952Y-98346380D01*
X100632380Y-97233619D02*
X100729142Y-97233619D01*
X100825904Y-97282000D01*
X100874285Y-97330380D01*
X100922666Y-97427142D01*
X100971047Y-97620666D01*
X100971047Y-97862571D01*
X100922666Y-98056095D01*
X100874285Y-98152857D01*
X100825904Y-98201238D01*
X100729142Y-98249619D01*
X100632380Y-98249619D01*
X100535619Y-98201238D01*
X100487238Y-98152857D01*
X100438857Y-98056095D01*
X100390476Y-97862571D01*
X100390476Y-97620666D01*
X100438857Y-97427142D01*
X100487238Y-97330380D01*
X100535619Y-97282000D01*
X100632380Y-97233619D01*
D13*
X102730904Y-103650142D02*
X104279095Y-103650142D01*
X93840904Y-103650142D02*
X95389095Y-103650142D01*
X94615000Y-104424238D02*
X94615000Y-102876047D01*
X105905904Y-85235142D02*
X107454095Y-85235142D01*
X95745904Y-85235142D02*
X97294095Y-85235142D01*
X100825904Y-85235142D02*
X102374095Y-85235142D01*
X101600000Y-86009238D02*
X101600000Y-84461047D01*
X90665904Y-85235142D02*
X92214095Y-85235142D01*
X91440000Y-86009238D02*
X91440000Y-84461047D01*
X163152666Y-127792238D02*
X164507333Y-127792238D01*
X163636476Y-129824238D01*
X138817047Y-127792238D02*
X138430000Y-127792238D01*
X138236476Y-127889000D01*
X138139714Y-127985761D01*
X137946190Y-128276047D01*
X137849428Y-128663095D01*
X137849428Y-129437190D01*
X137946190Y-129630714D01*
X138042952Y-129727476D01*
X138236476Y-129824238D01*
X138623523Y-129824238D01*
X138817047Y-129727476D01*
X138913809Y-129630714D01*
X139010571Y-129437190D01*
X139010571Y-128953380D01*
X138913809Y-128759857D01*
X138817047Y-128663095D01*
X138623523Y-128566333D01*
X138236476Y-128566333D01*
X138042952Y-128663095D01*
X137946190Y-128759857D01*
X137849428Y-128953380D01*
X113513809Y-127792238D02*
X112546190Y-127792238D01*
X112449428Y-128759857D01*
X112546190Y-128663095D01*
X112739714Y-128566333D01*
X113223523Y-128566333D01*
X113417047Y-128663095D01*
X113513809Y-128759857D01*
X113610571Y-128953380D01*
X113610571Y-129437190D01*
X113513809Y-129630714D01*
X113417047Y-129727476D01*
X113223523Y-129824238D01*
X112739714Y-129824238D01*
X112546190Y-129727476D01*
X112449428Y-129630714D01*
X88017047Y-128469571D02*
X88017047Y-129824238D01*
X87533238Y-127695476D02*
X87049428Y-129146904D01*
X88307333Y-129146904D01*
X163152666Y-102392238D02*
X164410571Y-102392238D01*
X163733238Y-103166333D01*
X164023523Y-103166333D01*
X164217047Y-103263095D01*
X164313809Y-103359857D01*
X164410571Y-103553380D01*
X164410571Y-104037190D01*
X164313809Y-104230714D01*
X164217047Y-104327476D01*
X164023523Y-104424238D01*
X163442952Y-104424238D01*
X163249428Y-104327476D01*
X163152666Y-104230714D01*
X137849428Y-102585761D02*
X137946190Y-102489000D01*
X138139714Y-102392238D01*
X138623523Y-102392238D01*
X138817047Y-102489000D01*
X138913809Y-102585761D01*
X139010571Y-102779285D01*
X139010571Y-102972809D01*
X138913809Y-103263095D01*
X137752666Y-104424238D01*
X139010571Y-104424238D01*
X113610571Y-104424238D02*
X112449428Y-104424238D01*
X113030000Y-104424238D02*
X113030000Y-102392238D01*
X112836476Y-102682523D01*
X112642952Y-102876047D01*
X112449428Y-102972809D01*
X87533238Y-102392238D02*
X87726761Y-102392238D01*
X87920285Y-102489000D01*
X88017047Y-102585761D01*
X88113809Y-102779285D01*
X88210571Y-103166333D01*
X88210571Y-103650142D01*
X88113809Y-104037190D01*
X88017047Y-104230714D01*
X87920285Y-104327476D01*
X87726761Y-104424238D01*
X87533238Y-104424238D01*
X87339714Y-104327476D01*
X87242952Y-104230714D01*
X87146190Y-104037190D01*
X87049428Y-103650142D01*
X87049428Y-103166333D01*
X87146190Y-102779285D01*
X87242952Y-102585761D01*
X87339714Y-102489000D01*
X87533238Y-102392238D01*
D14*
X86360000Y-130810000D02*
X187960000Y-130810000D01*
X86360000Y-80010000D02*
X187960000Y-80010000D01*
X187960000Y-80010000D02*
X187960000Y-130810000D01*
X86360000Y-80010000D02*
X86360000Y-130810000D01*
X162560000Y-80010000D02*
X162560000Y-130810000D01*
X111760000Y-80010000D02*
X111760000Y-130810000D01*
X86360000Y-105410000D02*
X187960000Y-105410000D01*
X137160000Y-80010000D02*
X137160000Y-130810000D01*
X190500000Y-72390000D02*
X69850000Y-72390000D01*
X190500000Y-138430000D02*
X190500000Y-72390000D01*
X69850000Y-138430000D02*
X190500000Y-138430000D01*
X69850000Y-72390000D02*
X69850000Y-138430000D01*
D15*
X85452857Y-133809619D02*
X85452857Y-132793619D01*
X85888285Y-133809619D02*
X85888285Y-133277428D01*
X85839904Y-133180666D01*
X85743142Y-133132285D01*
X85598000Y-133132285D01*
X85501238Y-133180666D01*
X85452857Y-133229047D01*
X86226952Y-133132285D02*
X86614000Y-133132285D01*
X86372095Y-132793619D02*
X86372095Y-133664476D01*
X86420476Y-133761238D01*
X86517238Y-133809619D01*
X86614000Y-133809619D01*
X86807523Y-133132285D02*
X87194571Y-133132285D01*
X86952666Y-132793619D02*
X86952666Y-133664476D01*
X87001047Y-133761238D01*
X87097809Y-133809619D01*
X87194571Y-133809619D01*
X87533238Y-133132285D02*
X87533238Y-134148285D01*
X87533238Y-133180666D02*
X87630000Y-133132285D01*
X87823523Y-133132285D01*
X87920285Y-133180666D01*
X87968666Y-133229047D01*
X88017047Y-133325809D01*
X88017047Y-133616095D01*
X87968666Y-133712857D01*
X87920285Y-133761238D01*
X87823523Y-133809619D01*
X87630000Y-133809619D01*
X87533238Y-133761238D01*
X88404095Y-133761238D02*
X88500857Y-133809619D01*
X88694380Y-133809619D01*
X88791142Y-133761238D01*
X88839523Y-133664476D01*
X88839523Y-133616095D01*
X88791142Y-133519333D01*
X88694380Y-133470952D01*
X88549238Y-133470952D01*
X88452476Y-133422571D01*
X88404095Y-133325809D01*
X88404095Y-133277428D01*
X88452476Y-133180666D01*
X88549238Y-133132285D01*
X88694380Y-133132285D01*
X88791142Y-133180666D01*
X89274952Y-133712857D02*
X89323333Y-133761238D01*
X89274952Y-133809619D01*
X89226571Y-133761238D01*
X89274952Y-133712857D01*
X89274952Y-133809619D01*
X89274952Y-133180666D02*
X89323333Y-133229047D01*
X89274952Y-133277428D01*
X89226571Y-133229047D01*
X89274952Y-133180666D01*
X89274952Y-133277428D01*
X90484476Y-132745238D02*
X89613619Y-134051523D01*
X91548857Y-132745238D02*
X90678000Y-134051523D01*
X92322952Y-133132285D02*
X92322952Y-133954761D01*
X92274571Y-134051523D01*
X92226190Y-134099904D01*
X92129428Y-134148285D01*
X91984285Y-134148285D01*
X91887523Y-134099904D01*
X92322952Y-133761238D02*
X92226190Y-133809619D01*
X92032666Y-133809619D01*
X91935904Y-133761238D01*
X91887523Y-133712857D01*
X91839142Y-133616095D01*
X91839142Y-133325809D01*
X91887523Y-133229047D01*
X91935904Y-133180666D01*
X92032666Y-133132285D01*
X92226190Y-133132285D01*
X92322952Y-133180666D01*
X92806761Y-133809619D02*
X92806761Y-133132285D01*
X92806761Y-132793619D02*
X92758380Y-132842000D01*
X92806761Y-132890380D01*
X92855142Y-132842000D01*
X92806761Y-132793619D01*
X92806761Y-132890380D01*
X93145428Y-133132285D02*
X93532476Y-133132285D01*
X93290571Y-132793619D02*
X93290571Y-133664476D01*
X93338952Y-133761238D01*
X93435714Y-133809619D01*
X93532476Y-133809619D01*
X93871142Y-133809619D02*
X93871142Y-132793619D01*
X94306571Y-133809619D02*
X94306571Y-133277428D01*
X94258190Y-133180666D01*
X94161428Y-133132285D01*
X94016285Y-133132285D01*
X93919523Y-133180666D01*
X93871142Y-133229047D01*
X95225809Y-133132285D02*
X95225809Y-133809619D01*
X94790380Y-133132285D02*
X94790380Y-133664476D01*
X94838761Y-133761238D01*
X94935523Y-133809619D01*
X95080666Y-133809619D01*
X95177428Y-133761238D01*
X95225809Y-133712857D01*
X95709619Y-133809619D02*
X95709619Y-132793619D01*
X95709619Y-133180666D02*
X95806380Y-133132285D01*
X95999904Y-133132285D01*
X96096666Y-133180666D01*
X96145047Y-133229047D01*
X96193428Y-133325809D01*
X96193428Y-133616095D01*
X96145047Y-133712857D01*
X96096666Y-133761238D01*
X95999904Y-133809619D01*
X95806380Y-133809619D01*
X95709619Y-133761238D01*
X96628857Y-133712857D02*
X96677238Y-133761238D01*
X96628857Y-133809619D01*
X96580476Y-133761238D01*
X96628857Y-133712857D01*
X96628857Y-133809619D01*
X97548095Y-133761238D02*
X97451333Y-133809619D01*
X97257809Y-133809619D01*
X97161047Y-133761238D01*
X97112666Y-133712857D01*
X97064285Y-133616095D01*
X97064285Y-133325809D01*
X97112666Y-133229047D01*
X97161047Y-133180666D01*
X97257809Y-133132285D01*
X97451333Y-133132285D01*
X97548095Y-133180666D01*
X98128666Y-133809619D02*
X98031904Y-133761238D01*
X97983523Y-133712857D01*
X97935142Y-133616095D01*
X97935142Y-133325809D01*
X97983523Y-133229047D01*
X98031904Y-133180666D01*
X98128666Y-133132285D01*
X98273809Y-133132285D01*
X98370571Y-133180666D01*
X98418952Y-133229047D01*
X98467333Y-133325809D01*
X98467333Y-133616095D01*
X98418952Y-133712857D01*
X98370571Y-133761238D01*
X98273809Y-133809619D01*
X98128666Y-133809619D01*
X98902761Y-133809619D02*
X98902761Y-133132285D01*
X98902761Y-133229047D02*
X98951142Y-133180666D01*
X99047904Y-133132285D01*
X99193047Y-133132285D01*
X99289809Y-133180666D01*
X99338190Y-133277428D01*
X99338190Y-133809619D01*
X99338190Y-133277428D02*
X99386571Y-133180666D01*
X99483333Y-133132285D01*
X99628476Y-133132285D01*
X99725238Y-133180666D01*
X99773619Y-133277428D01*
X99773619Y-133809619D01*
X100983142Y-132745238D02*
X100112285Y-134051523D01*
X101321809Y-133132285D02*
X101321809Y-134003142D01*
X101273428Y-134099904D01*
X101176666Y-134148285D01*
X101128285Y-134148285D01*
X101321809Y-132793619D02*
X101273428Y-132842000D01*
X101321809Y-132890380D01*
X101370190Y-132842000D01*
X101321809Y-132793619D01*
X101321809Y-132890380D01*
X102241047Y-133809619D02*
X102241047Y-133277428D01*
X102192666Y-133180666D01*
X102095904Y-133132285D01*
X101902380Y-133132285D01*
X101805619Y-133180666D01*
X102241047Y-133761238D02*
X102144285Y-133809619D01*
X101902380Y-133809619D01*
X101805619Y-133761238D01*
X101757238Y-133664476D01*
X101757238Y-133567714D01*
X101805619Y-133470952D01*
X101902380Y-133422571D01*
X102144285Y-133422571D01*
X102241047Y-133374190D01*
X102724857Y-133132285D02*
X102724857Y-133809619D01*
X102724857Y-133229047D02*
X102773238Y-133180666D01*
X102870000Y-133132285D01*
X103015142Y-133132285D01*
X103111904Y-133180666D01*
X103160285Y-133277428D01*
X103160285Y-133809619D01*
X104031142Y-133761238D02*
X103934380Y-133809619D01*
X103740857Y-133809619D01*
X103644095Y-133761238D01*
X103595714Y-133664476D01*
X103595714Y-133277428D01*
X103644095Y-133180666D01*
X103740857Y-133132285D01*
X103934380Y-133132285D01*
X104031142Y-133180666D01*
X104079523Y-133277428D01*
X104079523Y-133374190D01*
X103595714Y-133470952D01*
X104660095Y-133809619D02*
X104563333Y-133761238D01*
X104514952Y-133664476D01*
X104514952Y-132793619D01*
X105047142Y-133809619D02*
X105047142Y-133132285D01*
X105047142Y-132793619D02*
X104998761Y-132842000D01*
X105047142Y-132890380D01*
X105095523Y-132842000D01*
X105047142Y-132793619D01*
X105047142Y-132890380D01*
X105966380Y-133809619D02*
X105966380Y-133277428D01*
X105918000Y-133180666D01*
X105821238Y-133132285D01*
X105627714Y-133132285D01*
X105530952Y-133180666D01*
X105966380Y-133761238D02*
X105869619Y-133809619D01*
X105627714Y-133809619D01*
X105530952Y-133761238D01*
X105482571Y-133664476D01*
X105482571Y-133567714D01*
X105530952Y-133470952D01*
X105627714Y-133422571D01*
X105869619Y-133422571D01*
X105966380Y-133374190D01*
X106450190Y-133422571D02*
X107224285Y-133422571D01*
X107708095Y-133809619D02*
X107708095Y-133132285D01*
X107708095Y-133229047D02*
X107756476Y-133180666D01*
X107853238Y-133132285D01*
X107998380Y-133132285D01*
X108095142Y-133180666D01*
X108143523Y-133277428D01*
X108143523Y-133809619D01*
X108143523Y-133277428D02*
X108191904Y-133180666D01*
X108288666Y-133132285D01*
X108433809Y-133132285D01*
X108530571Y-133180666D01*
X108578952Y-133277428D01*
X108578952Y-133809619D01*
X109207904Y-133809619D02*
X109111142Y-133761238D01*
X109062761Y-133712857D01*
X109014380Y-133616095D01*
X109014380Y-133325809D01*
X109062761Y-133229047D01*
X109111142Y-133180666D01*
X109207904Y-133132285D01*
X109353047Y-133132285D01*
X109449809Y-133180666D01*
X109498190Y-133229047D01*
X109546571Y-133325809D01*
X109546571Y-133616095D01*
X109498190Y-133712857D01*
X109449809Y-133761238D01*
X109353047Y-133809619D01*
X109207904Y-133809619D01*
X110417428Y-133809619D02*
X110417428Y-132793619D01*
X110417428Y-133761238D02*
X110320666Y-133809619D01*
X110127142Y-133809619D01*
X110030380Y-133761238D01*
X109982000Y-133712857D01*
X109933619Y-133616095D01*
X109933619Y-133325809D01*
X109982000Y-133229047D01*
X110030380Y-133180666D01*
X110127142Y-133132285D01*
X110320666Y-133132285D01*
X110417428Y-133180666D01*
X111336666Y-133132285D02*
X111336666Y-133809619D01*
X110901238Y-133132285D02*
X110901238Y-133664476D01*
X110949619Y-133761238D01*
X111046380Y-133809619D01*
X111191523Y-133809619D01*
X111288285Y-133761238D01*
X111336666Y-133712857D01*
X111965619Y-133809619D02*
X111868857Y-133761238D01*
X111820476Y-133664476D01*
X111820476Y-132793619D01*
X112788095Y-133809619D02*
X112788095Y-133277428D01*
X112739714Y-133180666D01*
X112642952Y-133132285D01*
X112449428Y-133132285D01*
X112352666Y-133180666D01*
X112788095Y-133761238D02*
X112691333Y-133809619D01*
X112449428Y-133809619D01*
X112352666Y-133761238D01*
X112304285Y-133664476D01*
X112304285Y-133567714D01*
X112352666Y-133470952D01*
X112449428Y-133422571D01*
X112691333Y-133422571D01*
X112788095Y-133374190D01*
X113271904Y-133809619D02*
X113271904Y-133132285D01*
X113271904Y-133325809D02*
X113320285Y-133229047D01*
X113368666Y-133180666D01*
X113465428Y-133132285D01*
X113562190Y-133132285D01*
X113900857Y-133422571D02*
X114674952Y-133422571D01*
X115594190Y-133809619D02*
X115594190Y-132793619D01*
X115594190Y-133761238D02*
X115497428Y-133809619D01*
X115303904Y-133809619D01*
X115207142Y-133761238D01*
X115158761Y-133712857D01*
X115110380Y-133616095D01*
X115110380Y-133325809D01*
X115158761Y-133229047D01*
X115207142Y-133180666D01*
X115303904Y-133132285D01*
X115497428Y-133132285D01*
X115594190Y-133180666D01*
X116465047Y-133761238D02*
X116368285Y-133809619D01*
X116174761Y-133809619D01*
X116078000Y-133761238D01*
X116029619Y-133664476D01*
X116029619Y-133277428D01*
X116078000Y-133180666D01*
X116174761Y-133132285D01*
X116368285Y-133132285D01*
X116465047Y-133180666D01*
X116513428Y-133277428D01*
X116513428Y-133374190D01*
X116029619Y-133470952D01*
X116852095Y-133132285D02*
X117094000Y-133809619D01*
X117335904Y-133132285D01*
X117722952Y-133809619D02*
X117722952Y-133132285D01*
X117722952Y-132793619D02*
X117674571Y-132842000D01*
X117722952Y-132890380D01*
X117771333Y-132842000D01*
X117722952Y-132793619D01*
X117722952Y-132890380D01*
X118642190Y-133761238D02*
X118545428Y-133809619D01*
X118351904Y-133809619D01*
X118255142Y-133761238D01*
X118206761Y-133712857D01*
X118158380Y-133616095D01*
X118158380Y-133325809D01*
X118206761Y-133229047D01*
X118255142Y-133180666D01*
X118351904Y-133132285D01*
X118545428Y-133132285D01*
X118642190Y-133180666D01*
X119464666Y-133761238D02*
X119367904Y-133809619D01*
X119174380Y-133809619D01*
X119077619Y-133761238D01*
X119029238Y-133664476D01*
X119029238Y-133277428D01*
X119077619Y-133180666D01*
X119174380Y-133132285D01*
X119367904Y-133132285D01*
X119464666Y-133180666D01*
X119513047Y-133277428D01*
X119513047Y-133374190D01*
X119029238Y-133470952D01*
X119900095Y-133761238D02*
X119996857Y-133809619D01*
X120190380Y-133809619D01*
X120287142Y-133761238D01*
X120335523Y-133664476D01*
X120335523Y-133616095D01*
X120287142Y-133519333D01*
X120190380Y-133470952D01*
X120045238Y-133470952D01*
X119948476Y-133422571D01*
X119900095Y-133325809D01*
X119900095Y-133277428D01*
X119948476Y-133180666D01*
X120045238Y-133132285D01*
X120190380Y-133132285D01*
X120287142Y-133180666D01*
D11*
X70436619Y-113804095D02*
X71162333Y-113804095D01*
X71307476Y-113852476D01*
X71404238Y-113949238D01*
X71452619Y-114094380D01*
X71452619Y-114191142D01*
X71452619Y-112884857D02*
X70920428Y-112884857D01*
X70823666Y-112933238D01*
X70775285Y-113030000D01*
X70775285Y-113223523D01*
X70823666Y-113320285D01*
X71404238Y-112884857D02*
X71452619Y-112981619D01*
X71452619Y-113223523D01*
X71404238Y-113320285D01*
X71307476Y-113368666D01*
X71210714Y-113368666D01*
X71113952Y-113320285D01*
X71065571Y-113223523D01*
X71065571Y-112981619D01*
X71017190Y-112884857D01*
X70775285Y-112401047D02*
X71452619Y-112401047D01*
X70872047Y-112401047D02*
X70823666Y-112352666D01*
X70775285Y-112255904D01*
X70775285Y-112110761D01*
X70823666Y-112014000D01*
X70920428Y-111965619D01*
X71452619Y-111965619D01*
X71404238Y-111094761D02*
X71452619Y-111191523D01*
X71452619Y-111385047D01*
X71404238Y-111481809D01*
X71307476Y-111530190D01*
X70920428Y-111530190D01*
X70823666Y-111481809D01*
X70775285Y-111385047D01*
X70775285Y-111191523D01*
X70823666Y-111094761D01*
X70920428Y-111046380D01*
X71017190Y-111046380D01*
X71113952Y-111530190D01*
X71452619Y-110465809D02*
X71404238Y-110562571D01*
X71307476Y-110610952D01*
X70436619Y-110610952D01*
X71452619Y-110078761D02*
X70775285Y-110078761D01*
X70436619Y-110078761D02*
X70485000Y-110127142D01*
X70533380Y-110078761D01*
X70485000Y-110030380D01*
X70436619Y-110078761D01*
X70533380Y-110078761D01*
X71452619Y-109159523D02*
X70920428Y-109159523D01*
X70823666Y-109207904D01*
X70775285Y-109304666D01*
X70775285Y-109498190D01*
X70823666Y-109594952D01*
X71404238Y-109159523D02*
X71452619Y-109256285D01*
X71452619Y-109498190D01*
X71404238Y-109594952D01*
X71307476Y-109643333D01*
X71210714Y-109643333D01*
X71113952Y-109594952D01*
X71065571Y-109498190D01*
X71065571Y-109256285D01*
X71017190Y-109159523D01*
X71452619Y-107901619D02*
X70436619Y-107901619D01*
X71162333Y-107562952D01*
X70436619Y-107224285D01*
X71452619Y-107224285D01*
X71452619Y-106595333D02*
X71404238Y-106692095D01*
X71355857Y-106740476D01*
X71259095Y-106788857D01*
X70968809Y-106788857D01*
X70872047Y-106740476D01*
X70823666Y-106692095D01*
X70775285Y-106595333D01*
X70775285Y-106450190D01*
X70823666Y-106353428D01*
X70872047Y-106305047D01*
X70968809Y-106256666D01*
X71259095Y-106256666D01*
X71355857Y-106305047D01*
X71404238Y-106353428D01*
X71452619Y-106450190D01*
X71452619Y-106595333D01*
X71452619Y-105385809D02*
X70436619Y-105385809D01*
X71404238Y-105385809D02*
X71452619Y-105482571D01*
X71452619Y-105676095D01*
X71404238Y-105772857D01*
X71355857Y-105821238D01*
X71259095Y-105869619D01*
X70968809Y-105869619D01*
X70872047Y-105821238D01*
X70823666Y-105772857D01*
X70775285Y-105676095D01*
X70775285Y-105482571D01*
X70823666Y-105385809D01*
X70775285Y-104466571D02*
X71452619Y-104466571D01*
X70775285Y-104902000D02*
X71307476Y-104902000D01*
X71404238Y-104853619D01*
X71452619Y-104756857D01*
X71452619Y-104611714D01*
X71404238Y-104514952D01*
X71355857Y-104466571D01*
X71452619Y-103837619D02*
X71404238Y-103934380D01*
X71307476Y-103982761D01*
X70436619Y-103982761D01*
X71452619Y-103015142D02*
X70920428Y-103015142D01*
X70823666Y-103063523D01*
X70775285Y-103160285D01*
X70775285Y-103353809D01*
X70823666Y-103450571D01*
X71404238Y-103015142D02*
X71452619Y-103111904D01*
X71452619Y-103353809D01*
X71404238Y-103450571D01*
X71307476Y-103498952D01*
X71210714Y-103498952D01*
X71113952Y-103450571D01*
X71065571Y-103353809D01*
X71065571Y-103111904D01*
X71017190Y-103015142D01*
X71452619Y-102531333D02*
X70775285Y-102531333D01*
X70968809Y-102531333D02*
X70872047Y-102482952D01*
X70823666Y-102434571D01*
X70775285Y-102337809D01*
X70775285Y-102241047D01*
X71452619Y-101128285D02*
X70436619Y-101128285D01*
X70436619Y-100886380D01*
X70485000Y-100741238D01*
X70581761Y-100644476D01*
X70678523Y-100596095D01*
X70872047Y-100547714D01*
X71017190Y-100547714D01*
X71210714Y-100596095D01*
X71307476Y-100644476D01*
X71404238Y-100741238D01*
X71452619Y-100886380D01*
X71452619Y-101128285D01*
X71404238Y-99725238D02*
X71452619Y-99822000D01*
X71452619Y-100015523D01*
X71404238Y-100112285D01*
X71307476Y-100160666D01*
X70920428Y-100160666D01*
X70823666Y-100112285D01*
X70775285Y-100015523D01*
X70775285Y-99822000D01*
X70823666Y-99725238D01*
X70920428Y-99676857D01*
X71017190Y-99676857D01*
X71113952Y-100160666D01*
X70775285Y-99338190D02*
X71452619Y-99096285D01*
X70775285Y-98854380D01*
X71452619Y-98467333D02*
X70775285Y-98467333D01*
X70436619Y-98467333D02*
X70485000Y-98515714D01*
X70533380Y-98467333D01*
X70485000Y-98418952D01*
X70436619Y-98467333D01*
X70533380Y-98467333D01*
X71404238Y-97548095D02*
X71452619Y-97644857D01*
X71452619Y-97838380D01*
X71404238Y-97935142D01*
X71355857Y-97983523D01*
X71259095Y-98031904D01*
X70968809Y-98031904D01*
X70872047Y-97983523D01*
X70823666Y-97935142D01*
X70775285Y-97838380D01*
X70775285Y-97644857D01*
X70823666Y-97548095D01*
X71404238Y-96725619D02*
X71452619Y-96822380D01*
X71452619Y-97015904D01*
X71404238Y-97112666D01*
X71307476Y-97161047D01*
X70920428Y-97161047D01*
X70823666Y-97112666D01*
X70775285Y-97015904D01*
X70775285Y-96822380D01*
X70823666Y-96725619D01*
X70920428Y-96677238D01*
X71017190Y-96677238D01*
X71113952Y-97161047D01*
X73230619Y-116223142D02*
X72214619Y-116223142D01*
X73230619Y-115787714D02*
X72698428Y-115787714D01*
X72601666Y-115836095D01*
X72553285Y-115932857D01*
X72553285Y-116078000D01*
X72601666Y-116174761D01*
X72650047Y-116223142D01*
X73230619Y-115303904D02*
X72553285Y-115303904D01*
X72214619Y-115303904D02*
X72263000Y-115352285D01*
X72311380Y-115303904D01*
X72263000Y-115255523D01*
X72214619Y-115303904D01*
X72311380Y-115303904D01*
X72553285Y-114384666D02*
X73375761Y-114384666D01*
X73472523Y-114433047D01*
X73520904Y-114481428D01*
X73569285Y-114578190D01*
X73569285Y-114723333D01*
X73520904Y-114820095D01*
X73182238Y-114384666D02*
X73230619Y-114481428D01*
X73230619Y-114674952D01*
X73182238Y-114771714D01*
X73133857Y-114820095D01*
X73037095Y-114868476D01*
X72746809Y-114868476D01*
X72650047Y-114820095D01*
X72601666Y-114771714D01*
X72553285Y-114674952D01*
X72553285Y-114481428D01*
X72601666Y-114384666D01*
X73230619Y-113900857D02*
X72214619Y-113900857D01*
X73230619Y-113465428D02*
X72698428Y-113465428D01*
X72601666Y-113513809D01*
X72553285Y-113610571D01*
X72553285Y-113755714D01*
X72601666Y-113852476D01*
X72650047Y-113900857D01*
X73327380Y-113223523D02*
X73327380Y-112449428D01*
X72553285Y-112207523D02*
X73569285Y-112207523D01*
X72601666Y-112207523D02*
X72553285Y-112110761D01*
X72553285Y-111917238D01*
X72601666Y-111820476D01*
X72650047Y-111772095D01*
X72746809Y-111723714D01*
X73037095Y-111723714D01*
X73133857Y-111772095D01*
X73182238Y-111820476D01*
X73230619Y-111917238D01*
X73230619Y-112110761D01*
X73182238Y-112207523D01*
X73230619Y-111143142D02*
X73182238Y-111239904D01*
X73133857Y-111288285D01*
X73037095Y-111336666D01*
X72746809Y-111336666D01*
X72650047Y-111288285D01*
X72601666Y-111239904D01*
X72553285Y-111143142D01*
X72553285Y-110998000D01*
X72601666Y-110901238D01*
X72650047Y-110852857D01*
X72746809Y-110804476D01*
X73037095Y-110804476D01*
X73133857Y-110852857D01*
X73182238Y-110901238D01*
X73230619Y-110998000D01*
X73230619Y-111143142D01*
X72553285Y-110465809D02*
X73230619Y-110272285D01*
X72746809Y-110078761D01*
X73230619Y-109885238D01*
X72553285Y-109691714D01*
X73182238Y-108917619D02*
X73230619Y-109014380D01*
X73230619Y-109207904D01*
X73182238Y-109304666D01*
X73085476Y-109353047D01*
X72698428Y-109353047D01*
X72601666Y-109304666D01*
X72553285Y-109207904D01*
X72553285Y-109014380D01*
X72601666Y-108917619D01*
X72698428Y-108869238D01*
X72795190Y-108869238D01*
X72891952Y-109353047D01*
X73230619Y-108433809D02*
X72553285Y-108433809D01*
X72746809Y-108433809D02*
X72650047Y-108385428D01*
X72601666Y-108337047D01*
X72553285Y-108240285D01*
X72553285Y-108143523D01*
X73327380Y-108046761D02*
X73327380Y-107272666D01*
X73182238Y-107079142D02*
X73230619Y-106982380D01*
X73230619Y-106788857D01*
X73182238Y-106692095D01*
X73085476Y-106643714D01*
X73037095Y-106643714D01*
X72940333Y-106692095D01*
X72891952Y-106788857D01*
X72891952Y-106934000D01*
X72843571Y-107030761D01*
X72746809Y-107079142D01*
X72698428Y-107079142D01*
X72601666Y-107030761D01*
X72553285Y-106934000D01*
X72553285Y-106788857D01*
X72601666Y-106692095D01*
X72553285Y-106305047D02*
X73230619Y-106111523D01*
X72746809Y-105918000D01*
X73230619Y-105724476D01*
X72553285Y-105530952D01*
X73230619Y-105143904D02*
X72553285Y-105143904D01*
X72214619Y-105143904D02*
X72263000Y-105192285D01*
X72311380Y-105143904D01*
X72263000Y-105095523D01*
X72214619Y-105143904D01*
X72311380Y-105143904D01*
X72553285Y-104805238D02*
X72553285Y-104418190D01*
X72214619Y-104660095D02*
X73085476Y-104660095D01*
X73182238Y-104611714D01*
X73230619Y-104514952D01*
X73230619Y-104418190D01*
X73182238Y-103644095D02*
X73230619Y-103740857D01*
X73230619Y-103934380D01*
X73182238Y-104031142D01*
X73133857Y-104079523D01*
X73037095Y-104127904D01*
X72746809Y-104127904D01*
X72650047Y-104079523D01*
X72601666Y-104031142D01*
X72553285Y-103934380D01*
X72553285Y-103740857D01*
X72601666Y-103644095D01*
X73230619Y-103208666D02*
X72214619Y-103208666D01*
X73230619Y-102773238D02*
X72698428Y-102773238D01*
X72601666Y-102821619D01*
X72553285Y-102918380D01*
X72553285Y-103063523D01*
X72601666Y-103160285D01*
X72650047Y-103208666D01*
X73327380Y-102531333D02*
X73327380Y-101757238D01*
X73182238Y-101079904D02*
X73230619Y-101176666D01*
X73230619Y-101370190D01*
X73182238Y-101466952D01*
X73133857Y-101515333D01*
X73037095Y-101563714D01*
X72746809Y-101563714D01*
X72650047Y-101515333D01*
X72601666Y-101466952D01*
X72553285Y-101370190D01*
X72553285Y-101176666D01*
X72601666Y-101079904D01*
X73230619Y-100499333D02*
X73182238Y-100596095D01*
X73133857Y-100644476D01*
X73037095Y-100692857D01*
X72746809Y-100692857D01*
X72650047Y-100644476D01*
X72601666Y-100596095D01*
X72553285Y-100499333D01*
X72553285Y-100354190D01*
X72601666Y-100257428D01*
X72650047Y-100209047D01*
X72746809Y-100160666D01*
X73037095Y-100160666D01*
X73133857Y-100209047D01*
X73182238Y-100257428D01*
X73230619Y-100354190D01*
X73230619Y-100499333D01*
X72553285Y-99725238D02*
X73230619Y-99725238D01*
X72650047Y-99725238D02*
X72601666Y-99676857D01*
X72553285Y-99580095D01*
X72553285Y-99434952D01*
X72601666Y-99338190D01*
X72698428Y-99289809D01*
X73230619Y-99289809D01*
X72553285Y-98951142D02*
X72553285Y-98564095D01*
X72214619Y-98806000D02*
X73085476Y-98806000D01*
X73182238Y-98757619D01*
X73230619Y-98660857D01*
X73230619Y-98564095D01*
X73230619Y-98225428D02*
X72553285Y-98225428D01*
X72746809Y-98225428D02*
X72650047Y-98177047D01*
X72601666Y-98128666D01*
X72553285Y-98031904D01*
X72553285Y-97935142D01*
X73230619Y-97451333D02*
X73182238Y-97548095D01*
X73133857Y-97596476D01*
X73037095Y-97644857D01*
X72746809Y-97644857D01*
X72650047Y-97596476D01*
X72601666Y-97548095D01*
X72553285Y-97451333D01*
X72553285Y-97306190D01*
X72601666Y-97209428D01*
X72650047Y-97161047D01*
X72746809Y-97112666D01*
X73037095Y-97112666D01*
X73133857Y-97161047D01*
X73182238Y-97209428D01*
X73230619Y-97306190D01*
X73230619Y-97451333D01*
X73230619Y-96532095D02*
X73182238Y-96628857D01*
X73085476Y-96677238D01*
X72214619Y-96677238D01*
X73230619Y-95999904D02*
X73182238Y-96096666D01*
X73085476Y-96145047D01*
X72214619Y-96145047D01*
X73182238Y-95225809D02*
X73230619Y-95322571D01*
X73230619Y-95516095D01*
X73182238Y-95612857D01*
X73085476Y-95661238D01*
X72698428Y-95661238D01*
X72601666Y-95612857D01*
X72553285Y-95516095D01*
X72553285Y-95322571D01*
X72601666Y-95225809D01*
X72698428Y-95177428D01*
X72795190Y-95177428D01*
X72891952Y-95661238D01*
X73230619Y-94742000D02*
X72553285Y-94742000D01*
X72746809Y-94742000D02*
X72650047Y-94693619D01*
X72601666Y-94645238D01*
X72553285Y-94548476D01*
X72553285Y-94451714D01*
X74331285Y-112449428D02*
X75347285Y-112449428D01*
X74379666Y-112449428D02*
X74331285Y-112352666D01*
X74331285Y-112159142D01*
X74379666Y-112062380D01*
X74428047Y-112014000D01*
X74524809Y-111965619D01*
X74815095Y-111965619D01*
X74911857Y-112014000D01*
X74960238Y-112062380D01*
X75008619Y-112159142D01*
X75008619Y-112352666D01*
X74960238Y-112449428D01*
X75008619Y-111094761D02*
X74476428Y-111094761D01*
X74379666Y-111143142D01*
X74331285Y-111239904D01*
X74331285Y-111433428D01*
X74379666Y-111530190D01*
X74960238Y-111094761D02*
X75008619Y-111191523D01*
X75008619Y-111433428D01*
X74960238Y-111530190D01*
X74863476Y-111578571D01*
X74766714Y-111578571D01*
X74669952Y-111530190D01*
X74621571Y-111433428D01*
X74621571Y-111191523D01*
X74573190Y-111094761D01*
X75008619Y-110610952D02*
X74331285Y-110610952D01*
X74524809Y-110610952D02*
X74428047Y-110562571D01*
X74379666Y-110514190D01*
X74331285Y-110417428D01*
X74331285Y-110320666D01*
X74331285Y-110127142D02*
X74331285Y-109740095D01*
X73992619Y-109982000D02*
X74863476Y-109982000D01*
X74960238Y-109933619D01*
X75008619Y-109836857D01*
X75008619Y-109740095D01*
X75105380Y-109643333D02*
X75105380Y-108869238D01*
X74331285Y-108627333D02*
X75008619Y-108627333D01*
X74428047Y-108627333D02*
X74379666Y-108578952D01*
X74331285Y-108482190D01*
X74331285Y-108337047D01*
X74379666Y-108240285D01*
X74476428Y-108191904D01*
X75008619Y-108191904D01*
X74331285Y-107272666D02*
X75008619Y-107272666D01*
X74331285Y-107708095D02*
X74863476Y-107708095D01*
X74960238Y-107659714D01*
X75008619Y-107562952D01*
X75008619Y-107417809D01*
X74960238Y-107321047D01*
X74911857Y-107272666D01*
X75008619Y-106788857D02*
X74331285Y-106788857D01*
X74428047Y-106788857D02*
X74379666Y-106740476D01*
X74331285Y-106643714D01*
X74331285Y-106498571D01*
X74379666Y-106401809D01*
X74476428Y-106353428D01*
X75008619Y-106353428D01*
X74476428Y-106353428D02*
X74379666Y-106305047D01*
X74331285Y-106208285D01*
X74331285Y-106063142D01*
X74379666Y-105966380D01*
X74476428Y-105918000D01*
X75008619Y-105918000D01*
X75008619Y-105434190D02*
X73992619Y-105434190D01*
X74379666Y-105434190D02*
X74331285Y-105337428D01*
X74331285Y-105143904D01*
X74379666Y-105047142D01*
X74428047Y-104998761D01*
X74524809Y-104950380D01*
X74815095Y-104950380D01*
X74911857Y-104998761D01*
X74960238Y-105047142D01*
X75008619Y-105143904D01*
X75008619Y-105337428D01*
X74960238Y-105434190D01*
X74960238Y-104127904D02*
X75008619Y-104224666D01*
X75008619Y-104418190D01*
X74960238Y-104514952D01*
X74863476Y-104563333D01*
X74476428Y-104563333D01*
X74379666Y-104514952D01*
X74331285Y-104418190D01*
X74331285Y-104224666D01*
X74379666Y-104127904D01*
X74476428Y-104079523D01*
X74573190Y-104079523D01*
X74669952Y-104563333D01*
X75008619Y-103644095D02*
X74331285Y-103644095D01*
X74524809Y-103644095D02*
X74428047Y-103595714D01*
X74379666Y-103547333D01*
X74331285Y-103450571D01*
X74331285Y-103353809D01*
X74911857Y-103015142D02*
X74960238Y-102966761D01*
X75008619Y-103015142D01*
X74960238Y-103063523D01*
X74911857Y-103015142D01*
X75008619Y-103015142D01*
X74379666Y-103015142D02*
X74428047Y-102966761D01*
X74476428Y-103015142D01*
X74428047Y-103063523D01*
X74379666Y-103015142D01*
X74476428Y-103015142D01*
X75008619Y-101225047D02*
X75008619Y-101805619D01*
X75008619Y-101515333D02*
X73992619Y-101515333D01*
X74137761Y-101612095D01*
X74234523Y-101708857D01*
X74282904Y-101805619D01*
X74089380Y-100838000D02*
X74041000Y-100789619D01*
X73992619Y-100692857D01*
X73992619Y-100450952D01*
X74041000Y-100354190D01*
X74089380Y-100305809D01*
X74186142Y-100257428D01*
X74282904Y-100257428D01*
X74428047Y-100305809D01*
X75008619Y-100886380D01*
X75008619Y-100257428D01*
X75008619Y-99289809D02*
X75008619Y-99870380D01*
X75008619Y-99580095D02*
X73992619Y-99580095D01*
X74137761Y-99676857D01*
X74234523Y-99773619D01*
X74282904Y-99870380D01*
X73992619Y-98660857D02*
X73992619Y-98564095D01*
X74041000Y-98467333D01*
X74089380Y-98418952D01*
X74186142Y-98370571D01*
X74379666Y-98322190D01*
X74621571Y-98322190D01*
X74815095Y-98370571D01*
X74911857Y-98418952D01*
X74960238Y-98467333D01*
X75008619Y-98564095D01*
X75008619Y-98660857D01*
X74960238Y-98757619D01*
X74911857Y-98805999D01*
X74815095Y-98854380D01*
X74621571Y-98902761D01*
X74379666Y-98902761D01*
X74186142Y-98854380D01*
X74089380Y-98805999D01*
X74041000Y-98757619D01*
X73992619Y-98660857D01*
X75770619Y-113296095D02*
X75770619Y-113199333D01*
X75819000Y-113102571D01*
X75867380Y-113054190D01*
X75964142Y-113005809D01*
X76157666Y-112957428D01*
X76399571Y-112957428D01*
X76593095Y-113005809D01*
X76689857Y-113054190D01*
X76738238Y-113102571D01*
X76786619Y-113199333D01*
X76786619Y-113296095D01*
X76738238Y-113392857D01*
X76689857Y-113441238D01*
X76593095Y-113489619D01*
X76399571Y-113538000D01*
X76157666Y-113538000D01*
X75964142Y-113489619D01*
X75867380Y-113441238D01*
X75819000Y-113392857D01*
X75770619Y-113296095D01*
X75867380Y-112570380D02*
X75819000Y-112522000D01*
X75770619Y-112425238D01*
X75770619Y-112183333D01*
X75819000Y-112086571D01*
X75867380Y-112038190D01*
X75964142Y-111989809D01*
X76060904Y-111989809D01*
X76206047Y-112038190D01*
X76786619Y-112618761D01*
X76786619Y-111989809D01*
X75722238Y-110828666D02*
X77028523Y-111699523D01*
X75867380Y-110538380D02*
X75819000Y-110490000D01*
X75770619Y-110393238D01*
X75770619Y-110151333D01*
X75819000Y-110054571D01*
X75867380Y-110006190D01*
X75964142Y-109957809D01*
X76060904Y-109957809D01*
X76206047Y-110006190D01*
X76786619Y-110586761D01*
X76786619Y-109957809D01*
X75770619Y-109328857D02*
X75770619Y-109232095D01*
X75819000Y-109135333D01*
X75867380Y-109086952D01*
X75964142Y-109038571D01*
X76157666Y-108990190D01*
X76399571Y-108990190D01*
X76593095Y-109038571D01*
X76689857Y-109086952D01*
X76738238Y-109135333D01*
X76786619Y-109232095D01*
X76786619Y-109328857D01*
X76738238Y-109425619D01*
X76689857Y-109474000D01*
X76593095Y-109522380D01*
X76399571Y-109570761D01*
X76157666Y-109570761D01*
X75964142Y-109522380D01*
X75867380Y-109474000D01*
X75819000Y-109425619D01*
X75770619Y-109328857D01*
X76786619Y-108022571D02*
X76786619Y-108603142D01*
X76786619Y-108312857D02*
X75770619Y-108312857D01*
X75915761Y-108409619D01*
X76012523Y-108506380D01*
X76060904Y-108603142D01*
X75770619Y-107683904D02*
X75770619Y-107006571D01*
X76786619Y-107442000D01*
X76109285Y-105942190D02*
X76786619Y-105700285D01*
X76109285Y-105458380D01*
X76738238Y-104684285D02*
X76786619Y-104781047D01*
X76786619Y-104974571D01*
X76738238Y-105071333D01*
X76641476Y-105119714D01*
X76254428Y-105119714D01*
X76157666Y-105071333D01*
X76109285Y-104974571D01*
X76109285Y-104781047D01*
X76157666Y-104684285D01*
X76254428Y-104635904D01*
X76351190Y-104635904D01*
X76447952Y-105119714D01*
X76786619Y-104200476D02*
X76109285Y-104200476D01*
X76302809Y-104200476D02*
X76206047Y-104152095D01*
X76157666Y-104103714D01*
X76109285Y-104006952D01*
X76109285Y-103910190D01*
X76786619Y-102265238D02*
X76786619Y-102845809D01*
X76786619Y-102555523D02*
X75770619Y-102555523D01*
X75915761Y-102652285D01*
X76012523Y-102749047D01*
X76060904Y-102845809D01*
X76689857Y-101829809D02*
X76738238Y-101781428D01*
X76786619Y-101829809D01*
X76738238Y-101878190D01*
X76689857Y-101829809D01*
X76786619Y-101829809D01*
X75770619Y-101152476D02*
X75770619Y-101055714D01*
X75819000Y-100958952D01*
X75867380Y-100910571D01*
X75964142Y-100862190D01*
X76157666Y-100813809D01*
X76399571Y-100813809D01*
X76593095Y-100862190D01*
X76689857Y-100910571D01*
X76738238Y-100958952D01*
X76786619Y-101055714D01*
X76786619Y-101152476D01*
X76738238Y-101249238D01*
X76689857Y-101297619D01*
X76593095Y-101346000D01*
X76399571Y-101394380D01*
X76157666Y-101394380D01*
X75964142Y-101346000D01*
X75867380Y-101297619D01*
X75819000Y-101249238D01*
X75770619Y-101152476D01*
X75770619Y-99120476D02*
X75770619Y-99604285D01*
X76254428Y-99652666D01*
X76206047Y-99604285D01*
X76157666Y-99507523D01*
X76157666Y-99265619D01*
X76206047Y-99168857D01*
X76254428Y-99120476D01*
X76351190Y-99072095D01*
X76593095Y-99072095D01*
X76689857Y-99120476D01*
X76738238Y-99168857D01*
X76786619Y-99265619D01*
X76786619Y-99507523D01*
X76738238Y-99604285D01*
X76689857Y-99652666D01*
X76786619Y-98733428D02*
X76109285Y-98201238D01*
X76109285Y-98733428D02*
X76786619Y-98201238D01*
X75770619Y-97910952D02*
X75770619Y-97282000D01*
X76157666Y-97620666D01*
X76157666Y-97475523D01*
X76206047Y-97378761D01*
X76254428Y-97330380D01*
X76351190Y-97282000D01*
X76593095Y-97282000D01*
X76689857Y-97330380D01*
X76738238Y-97378761D01*
X76786619Y-97475523D01*
X76786619Y-97765809D01*
X76738238Y-97862571D01*
X76689857Y-97910952D01*
D14*
X87630000Y-99060000D02*
X95250000Y-99060000D01*
X87630000Y-101600000D02*
X87630000Y-99060000D01*
X95250000Y-101600000D02*
X87630000Y-101600000D01*
X95250000Y-99060000D02*
X95250000Y-101600000D01*
X91440000Y-100330000D02*
X92456000Y-100330000D01*
X91948000Y-99822000D02*
X91948000Y-100838000D01*
X113030000Y-99060000D02*
X120650000Y-99060000D01*
X113030000Y-101600000D02*
X113030000Y-99060000D01*
X120650000Y-101600000D02*
X113030000Y-101600000D01*
X120650000Y-99060000D02*
X120650000Y-101600000D01*
X116840000Y-100330000D02*
X117856000Y-100330000D01*
X117348000Y-99822000D02*
X117348000Y-100838000D01*
X138430000Y-99060000D02*
X146050000Y-99060000D01*
X138430000Y-101600000D02*
X138430000Y-99060000D01*
X146050000Y-101600000D02*
X138430000Y-101600000D01*
X146050000Y-99060000D02*
X146050000Y-101600000D01*
X142240000Y-100330000D02*
X143256000Y-100330000D01*
X142748000Y-99822000D02*
X142748000Y-100838000D01*
X163830000Y-99060000D02*
X171450000Y-99060000D01*
X163830000Y-101600000D02*
X163830000Y-99060000D01*
X171450000Y-101600000D02*
X163830000Y-101600000D01*
X171450000Y-99060000D02*
X171450000Y-101600000D01*
X167640000Y-100330000D02*
X168656000Y-100330000D01*
X168148000Y-99822000D02*
X168148000Y-100838000D01*
X87630000Y-124460000D02*
X95250000Y-124460000D01*
X87630000Y-127000000D02*
X87630000Y-124460000D01*
X95250000Y-127000000D02*
X87630000Y-127000000D01*
X95250000Y-124460000D02*
X95250000Y-127000000D01*
X91440000Y-125730000D02*
X92456000Y-125730000D01*
X91948000Y-125222000D02*
X91948000Y-126238000D01*
X113030000Y-124460000D02*
X120650000Y-124460000D01*
X113030000Y-127000000D02*
X113030000Y-124460000D01*
X120650000Y-127000000D02*
X113030000Y-127000000D01*
X120650000Y-124460000D02*
X120650000Y-127000000D01*
X116840000Y-125730000D02*
X117856000Y-125730000D01*
X117348000Y-125222000D02*
X117348000Y-126238000D01*
X138430000Y-124460000D02*
X146050000Y-124460000D01*
X138430000Y-127000000D02*
X138430000Y-124460000D01*
X146050000Y-127000000D02*
X138430000Y-127000000D01*
X146050000Y-124460000D02*
X146050000Y-127000000D01*
X142240000Y-125730000D02*
X143256000Y-125730000D01*
X142748000Y-125222000D02*
X142748000Y-126238000D01*
X163830000Y-124460000D02*
X171450000Y-124460000D01*
X163830000Y-127000000D02*
X163830000Y-124460000D01*
X171450000Y-127000000D02*
X163830000Y-127000000D01*
X171450000Y-124460000D02*
X171450000Y-127000000D01*
X167640000Y-125730000D02*
X168656000Y-125730000D01*
X168148000Y-125222000D02*
X168148000Y-126238000D01*
X76200000Y-80010000D02*
G75*
G03X76200000Y-80010000I-2540000J0D01*
G01*
X76200000Y-130810000D02*
G75*
G03X76200000Y-130810000I-2540000J0D01*
G01*
X139700000Y-74930000D02*
G75*
G03X139700000Y-74930000I-2540000J0D01*
G01*
X139700000Y-135890000D02*
G75*
G03X139700000Y-135890000I-2540000J0D01*
G01*
D12*
X129540000Y-94615000D02*
G75*
G03X134620000Y-94615000I2540000J2540000D01*
G01*
X114300000Y-94615000D02*
G75*
G03X119380000Y-94615000I2540000J2540000D01*
G01*
X114300000Y-94615000D02*
X114300000Y-88265000D01*
X114300000Y-88265000D02*
X134620000Y-88265000D01*
X134620000Y-88265000D02*
X134620000Y-94615000D01*
X119380000Y-94615000D02*
G75*
G03X124460000Y-94615000I2540000J2540000D01*
G01*
X124460000Y-94615000D02*
G75*
G03X129540000Y-94615000I2540000J2540000D01*
G01*
X135636000Y-95885000D02*
X135636000Y-87274400D01*
X113284000Y-87274400D02*
X135636000Y-87274400D01*
X113284000Y-95885000D02*
X113284000Y-87274400D01*
X113284000Y-95885000D02*
X135636000Y-95885000D01*
X180340000Y-94615000D02*
G75*
G03X185420000Y-94615000I2540000J2540000D01*
G01*
X165100000Y-94615000D02*
G75*
G03X170180000Y-94615000I2540000J2540000D01*
G01*
X165100000Y-94615000D02*
X165100000Y-88265000D01*
X165100000Y-88265000D02*
X185420000Y-88265000D01*
X185420000Y-88265000D02*
X185420000Y-94615000D01*
X170180000Y-94615000D02*
G75*
G03X175260000Y-94615000I2540000J2540000D01*
G01*
X175260000Y-94615000D02*
G75*
G03X180340000Y-94615000I2540000J2540000D01*
G01*
X186436000Y-95885000D02*
X186436000Y-87274400D01*
X164084000Y-87274400D02*
X186436000Y-87274400D01*
X164084000Y-95885000D02*
X164084000Y-87274400D01*
X164084000Y-95885000D02*
X186436000Y-95885000D01*
X129540000Y-120015000D02*
G75*
G03X134620000Y-120015000I2540000J2540000D01*
G01*
X114300000Y-120015000D02*
G75*
G03X119380000Y-120015000I2540000J2540000D01*
G01*
X114300000Y-120015000D02*
X114300000Y-113665000D01*
X114300000Y-113665000D02*
X134620000Y-113665000D01*
X134620000Y-113665000D02*
X134620000Y-120015000D01*
X119380000Y-120015000D02*
G75*
G03X124460000Y-120015000I2540000J2540000D01*
G01*
X124460000Y-120015000D02*
G75*
G03X129540000Y-120015000I2540000J2540000D01*
G01*
X135636000Y-121285000D02*
X135636000Y-112674400D01*
X113284000Y-112674400D02*
X135636000Y-112674400D01*
X113284000Y-121285000D02*
X113284000Y-112674400D01*
X113284000Y-121285000D02*
X135636000Y-121285000D01*
X164084000Y-121285000D02*
X186436000Y-121285000D01*
X164084000Y-121285000D02*
X164084000Y-112674400D01*
X164084000Y-112674400D02*
X186436000Y-112674400D01*
X186436000Y-121285000D02*
X186436000Y-112674400D01*
X175260000Y-120015000D02*
G75*
G03X180340000Y-120015000I2540000J2540000D01*
G01*
X170180000Y-120015000D02*
G75*
G03X175260000Y-120015000I2540000J2540000D01*
G01*
X185420000Y-113665000D02*
X185420000Y-120015000D01*
X165100000Y-113665000D02*
X185420000Y-113665000D01*
X165100000Y-120015000D02*
X165100000Y-113665000D01*
X165100000Y-120015000D02*
G75*
G03X170180000Y-120015000I2540000J2540000D01*
G01*
X180340000Y-120015000D02*
G75*
G03X185420000Y-120015000I2540000J2540000D01*
G01*
X95885000Y-99060000D02*
X95885000Y-102870000D01*
X102235000Y-102870000D02*
X102235000Y-99060000D01*
X102235000Y-104775000D02*
X102235000Y-102870000D01*
X95885000Y-104775000D02*
X95885000Y-102870000D01*
X97155000Y-104140000D02*
X98425000Y-104140000D01*
X97790000Y-102870000D02*
X97155000Y-104140000D01*
X98425000Y-104140000D02*
X97790000Y-102870000D01*
X102235000Y-104775000D02*
X95885000Y-104775000D01*
X102235000Y-102870000D02*
X95885000Y-102870000D01*
X102235000Y-99060000D02*
X95885000Y-99060000D01*
X127635000Y-99060000D02*
X121285000Y-99060000D01*
X127635000Y-102870000D02*
X121285000Y-102870000D01*
X127635000Y-104775000D02*
X121285000Y-104775000D01*
X123825000Y-104140000D02*
X123190000Y-102870000D01*
X123190000Y-102870000D02*
X122555000Y-104140000D01*
X122555000Y-104140000D02*
X123825000Y-104140000D01*
X121285000Y-104775000D02*
X121285000Y-102870000D01*
X127635000Y-104775000D02*
X127635000Y-102870000D01*
X127635000Y-102870000D02*
X127635000Y-99060000D01*
X121285000Y-99060000D02*
X121285000Y-102870000D01*
X146685000Y-99060000D02*
X146685000Y-102870000D01*
X153035000Y-102870000D02*
X153035000Y-99060000D01*
X153035000Y-104775000D02*
X153035000Y-102870000D01*
X146685000Y-104775000D02*
X146685000Y-102870000D01*
X147955000Y-104140000D02*
X149225000Y-104140000D01*
X148590000Y-102870000D02*
X147955000Y-104140000D01*
X149225000Y-104140000D02*
X148590000Y-102870000D01*
X153035000Y-104775000D02*
X146685000Y-104775000D01*
X153035000Y-102870000D02*
X146685000Y-102870000D01*
X153035000Y-99060000D02*
X146685000Y-99060000D01*
X178435000Y-99060000D02*
X172085000Y-99060000D01*
X178435000Y-102870000D02*
X172085000Y-102870000D01*
X178435000Y-104775000D02*
X172085000Y-104775000D01*
X174625000Y-104140000D02*
X173990000Y-102870000D01*
X173990000Y-102870000D02*
X173355000Y-104140000D01*
X173355000Y-104140000D02*
X174625000Y-104140000D01*
X172085000Y-104775000D02*
X172085000Y-102870000D01*
X178435000Y-104775000D02*
X178435000Y-102870000D01*
X178435000Y-102870000D02*
X178435000Y-99060000D01*
X172085000Y-99060000D02*
X172085000Y-102870000D01*
X102235000Y-124460000D02*
X95885000Y-124460000D01*
X102235000Y-128270000D02*
X95885000Y-128270000D01*
X102235000Y-130175000D02*
X95885000Y-130175000D01*
X98425000Y-129540000D02*
X97790000Y-128270000D01*
X97790000Y-128270000D02*
X97155000Y-129540000D01*
X97155000Y-129540000D02*
X98425000Y-129540000D01*
X95885000Y-130175000D02*
X95885000Y-128270000D01*
X102235000Y-130175000D02*
X102235000Y-128270000D01*
X102235000Y-128270000D02*
X102235000Y-124460000D01*
X95885000Y-124460000D02*
X95885000Y-128270000D01*
X121285000Y-124460000D02*
X121285000Y-128270000D01*
X127635000Y-128270000D02*
X127635000Y-124460000D01*
X127635000Y-130175000D02*
X127635000Y-128270000D01*
X121285000Y-130175000D02*
X121285000Y-128270000D01*
X122555000Y-129540000D02*
X123825000Y-129540000D01*
X123190000Y-128270000D02*
X122555000Y-129540000D01*
X123825000Y-129540000D02*
X123190000Y-128270000D01*
X127635000Y-130175000D02*
X121285000Y-130175000D01*
X127635000Y-128270000D02*
X121285000Y-128270000D01*
X127635000Y-124460000D02*
X121285000Y-124460000D01*
X153035000Y-124460000D02*
X146685000Y-124460000D01*
X153035000Y-128270000D02*
X146685000Y-128270000D01*
X153035000Y-130175000D02*
X146685000Y-130175000D01*
X149225000Y-129540000D02*
X148590000Y-128270000D01*
X148590000Y-128270000D02*
X147955000Y-129540000D01*
X147955000Y-129540000D02*
X149225000Y-129540000D01*
X146685000Y-130175000D02*
X146685000Y-128270000D01*
X153035000Y-130175000D02*
X153035000Y-128270000D01*
X153035000Y-128270000D02*
X153035000Y-124460000D01*
X146685000Y-124460000D02*
X146685000Y-128270000D01*
X172085000Y-124460000D02*
X172085000Y-128270000D01*
X178435000Y-128270000D02*
X178435000Y-124460000D01*
X178435000Y-130175000D02*
X178435000Y-128270000D01*
X172085000Y-130175000D02*
X172085000Y-128270000D01*
X173355000Y-129540000D02*
X174625000Y-129540000D01*
X173990000Y-128270000D02*
X173355000Y-129540000D01*
X174625000Y-129540000D02*
X173990000Y-128270000D01*
X178435000Y-130175000D02*
X172085000Y-130175000D01*
X178435000Y-128270000D02*
X172085000Y-128270000D01*
X178435000Y-124460000D02*
X172085000Y-124460000D01*
X104140000Y-94615000D02*
G75*
G03X109220000Y-94615000I2540000J2540000D01*
G01*
X88900000Y-94615000D02*
G75*
G03X93980000Y-94615000I2540000J2540000D01*
G01*
X88900000Y-94615000D02*
X88900000Y-88265000D01*
X88900000Y-88265000D02*
X109220000Y-88265000D01*
X109220000Y-88265000D02*
X109220000Y-94615000D01*
X93980000Y-94615000D02*
G75*
G03X99060000Y-94615000I2540000J2540000D01*
G01*
X99060000Y-94615000D02*
G75*
G03X104140000Y-94615000I2540000J2540000D01*
G01*
X110236000Y-95885000D02*
X110236000Y-87274400D01*
X87884000Y-87274400D02*
X110236000Y-87274400D01*
X87884000Y-95885000D02*
X87884000Y-87274400D01*
X87884000Y-95885000D02*
X110236000Y-95885000D01*
X138684000Y-95885000D02*
X161036000Y-95885000D01*
X138684000Y-95885000D02*
X138684000Y-87274400D01*
X138684000Y-87274400D02*
X161036000Y-87274400D01*
X161036000Y-95885000D02*
X161036000Y-87274400D01*
X149860000Y-94615000D02*
G75*
G03X154940000Y-94615000I2540000J2540000D01*
G01*
X144780000Y-94615000D02*
G75*
G03X149860000Y-94615000I2540000J2540000D01*
G01*
X160020000Y-88265000D02*
X160020000Y-94615000D01*
X139700000Y-88265000D02*
X160020000Y-88265000D01*
X139700000Y-94615000D02*
X139700000Y-88265000D01*
X139700000Y-94615000D02*
G75*
G03X144780000Y-94615000I2540000J2540000D01*
G01*
X154940000Y-94615000D02*
G75*
G03X160020000Y-94615000I2540000J2540000D01*
G01*
X87884000Y-121285000D02*
X110236000Y-121285000D01*
X87884000Y-121285000D02*
X87884000Y-112674400D01*
X87884000Y-112674400D02*
X110236000Y-112674400D01*
X110236000Y-121285000D02*
X110236000Y-112674400D01*
X99060000Y-120015000D02*
G75*
G03X104140000Y-120015000I2540000J2540000D01*
G01*
X93980000Y-120015000D02*
G75*
G03X99060000Y-120015000I2540000J2540000D01*
G01*
X109220000Y-113665000D02*
X109220000Y-120015000D01*
X88900000Y-113665000D02*
X109220000Y-113665000D01*
X88900000Y-120015000D02*
X88900000Y-113665000D01*
X88900000Y-120015000D02*
G75*
G03X93980000Y-120015000I2540000J2540000D01*
G01*
X104140000Y-120015000D02*
G75*
G03X109220000Y-120015000I2540000J2540000D01*
G01*
X154940000Y-120015000D02*
G75*
G03X160020000Y-120015000I2540000J2540000D01*
G01*
X139700000Y-120015000D02*
G75*
G03X144780000Y-120015000I2540000J2540000D01*
G01*
X139700000Y-120015000D02*
X139700000Y-113665000D01*
X139700000Y-113665000D02*
X160020000Y-113665000D01*
X160020000Y-113665000D02*
X160020000Y-120015000D01*
X144780000Y-120015000D02*
G75*
G03X149860000Y-120015000I2540000J2540000D01*
G01*
X149860000Y-120015000D02*
G75*
G03X154940000Y-120015000I2540000J2540000D01*
G01*
X161036000Y-121285000D02*
X161036000Y-112674400D01*
X138684000Y-112674400D02*
X161036000Y-112674400D01*
X138684000Y-121285000D02*
X138684000Y-112674400D01*
X138684000Y-121285000D02*
X161036000Y-121285000D01*
D14*
X106172000Y-100838000D02*
X106172000Y-99822000D01*
X106680000Y-100330000D02*
X105664000Y-100330000D01*
X102870000Y-101600000D02*
X102870000Y-99060000D01*
X102870000Y-99060000D02*
X110490000Y-99060000D01*
X110490000Y-99060000D02*
X110490000Y-101600000D01*
X110490000Y-101600000D02*
X102870000Y-101600000D01*
X135890000Y-101600000D02*
X128270000Y-101600000D01*
X135890000Y-99060000D02*
X135890000Y-101600000D01*
X128270000Y-99060000D02*
X135890000Y-99060000D01*
X128270000Y-101600000D02*
X128270000Y-99060000D01*
X132080000Y-100330000D02*
X131064000Y-100330000D01*
X131572000Y-100838000D02*
X131572000Y-99822000D01*
X161290000Y-101600000D02*
X153670000Y-101600000D01*
X161290000Y-99060000D02*
X161290000Y-101600000D01*
X153670000Y-99060000D02*
X161290000Y-99060000D01*
X153670000Y-101600000D02*
X153670000Y-99060000D01*
X157480000Y-100330000D02*
X156464000Y-100330000D01*
X156972000Y-100838000D02*
X156972000Y-99822000D01*
X182372000Y-100838000D02*
X182372000Y-99822000D01*
X182880000Y-100330000D02*
X181864000Y-100330000D01*
X179070000Y-101600000D02*
X179070000Y-99060000D01*
X179070000Y-99060000D02*
X186690000Y-99060000D01*
X186690000Y-99060000D02*
X186690000Y-101600000D01*
X186690000Y-101600000D02*
X179070000Y-101600000D01*
X110490000Y-127000000D02*
X102870000Y-127000000D01*
X110490000Y-124460000D02*
X110490000Y-127000000D01*
X102870000Y-124460000D02*
X110490000Y-124460000D01*
X102870000Y-127000000D02*
X102870000Y-124460000D01*
X106680000Y-125730000D02*
X105664000Y-125730000D01*
X106172000Y-126238000D02*
X106172000Y-125222000D01*
X131572000Y-126238000D02*
X131572000Y-125222000D01*
X132080000Y-125730000D02*
X131064000Y-125730000D01*
X128270000Y-127000000D02*
X128270000Y-124460000D01*
X128270000Y-124460000D02*
X135890000Y-124460000D01*
X135890000Y-124460000D02*
X135890000Y-127000000D01*
X135890000Y-127000000D02*
X128270000Y-127000000D01*
X161290000Y-127000000D02*
X153670000Y-127000000D01*
X161290000Y-124460000D02*
X161290000Y-127000000D01*
X153670000Y-124460000D02*
X161290000Y-124460000D01*
X153670000Y-127000000D02*
X153670000Y-124460000D01*
X157480000Y-125730000D02*
X156464000Y-125730000D01*
X156972000Y-126238000D02*
X156972000Y-125222000D01*
X182372000Y-126238000D02*
X182372000Y-125222000D01*
X182880000Y-125730000D02*
X181864000Y-125730000D01*
X179070000Y-127000000D02*
X179070000Y-124460000D01*
X179070000Y-124460000D02*
X186690000Y-124460000D01*
X186690000Y-124460000D02*
X186690000Y-127000000D01*
X186690000Y-127000000D02*
X179070000Y-127000000D01*
D15*
X87339714Y-100457000D02*
X87339714Y-100819857D01*
X86577714Y-100819857D01*
X87339714Y-99803857D02*
X87339714Y-100239285D01*
X87339714Y-100021571D02*
X86577714Y-100021571D01*
X86686571Y-100094142D01*
X86759142Y-100166714D01*
X86795428Y-100239285D01*
D11*
X90706095Y-99822000D02*
X90609333Y-99773619D01*
X90464190Y-99773619D01*
X90319047Y-99822000D01*
X90222285Y-99918761D01*
X90173904Y-100015523D01*
X90125523Y-100209047D01*
X90125523Y-100354190D01*
X90173904Y-100547714D01*
X90222285Y-100644476D01*
X90319047Y-100741238D01*
X90464190Y-100789619D01*
X90560952Y-100789619D01*
X90706095Y-100741238D01*
X90754476Y-100692857D01*
X90754476Y-100354190D01*
X90560952Y-100354190D01*
D15*
X112739714Y-100457000D02*
X112739714Y-100819857D01*
X111977714Y-100819857D01*
X111977714Y-100275571D02*
X111977714Y-99803857D01*
X112268000Y-100057857D01*
X112268000Y-99949000D01*
X112304285Y-99876428D01*
X112340571Y-99840142D01*
X112413142Y-99803857D01*
X112594571Y-99803857D01*
X112667142Y-99840142D01*
X112703428Y-99876428D01*
X112739714Y-99949000D01*
X112739714Y-100166714D01*
X112703428Y-100239285D01*
X112667142Y-100275571D01*
D11*
X116106095Y-99822000D02*
X116009333Y-99773619D01*
X115864190Y-99773619D01*
X115719047Y-99822000D01*
X115622285Y-99918761D01*
X115573904Y-100015523D01*
X115525523Y-100209047D01*
X115525523Y-100354190D01*
X115573904Y-100547714D01*
X115622285Y-100644476D01*
X115719047Y-100741238D01*
X115864190Y-100789619D01*
X115960952Y-100789619D01*
X116106095Y-100741238D01*
X116154476Y-100692857D01*
X116154476Y-100354190D01*
X115960952Y-100354190D01*
D15*
X138139714Y-100457000D02*
X138139714Y-100819857D01*
X137377714Y-100819857D01*
X137377714Y-99840142D02*
X137377714Y-100203000D01*
X137740571Y-100239285D01*
X137704285Y-100203000D01*
X137668000Y-100130428D01*
X137668000Y-99949000D01*
X137704285Y-99876428D01*
X137740571Y-99840142D01*
X137813142Y-99803857D01*
X137994571Y-99803857D01*
X138067142Y-99840142D01*
X138103428Y-99876428D01*
X138139714Y-99949000D01*
X138139714Y-100130428D01*
X138103428Y-100203000D01*
X138067142Y-100239285D01*
D11*
X141506095Y-99822000D02*
X141409333Y-99773619D01*
X141264190Y-99773619D01*
X141119047Y-99822000D01*
X141022285Y-99918761D01*
X140973904Y-100015523D01*
X140925523Y-100209047D01*
X140925523Y-100354190D01*
X140973904Y-100547714D01*
X141022285Y-100644476D01*
X141119047Y-100741238D01*
X141264190Y-100789619D01*
X141360952Y-100789619D01*
X141506095Y-100741238D01*
X141554476Y-100692857D01*
X141554476Y-100354190D01*
X141360952Y-100354190D01*
D15*
X163539714Y-100457000D02*
X163539714Y-100819857D01*
X162777714Y-100819857D01*
X162777714Y-100275571D02*
X162777714Y-99767571D01*
X163539714Y-100094142D01*
D11*
X166906095Y-99822000D02*
X166809333Y-99773619D01*
X166664190Y-99773619D01*
X166519047Y-99822000D01*
X166422285Y-99918761D01*
X166373904Y-100015523D01*
X166325523Y-100209047D01*
X166325523Y-100354190D01*
X166373904Y-100547714D01*
X166422285Y-100644476D01*
X166519047Y-100741238D01*
X166664190Y-100789619D01*
X166760952Y-100789619D01*
X166906095Y-100741238D01*
X166954476Y-100692857D01*
X166954476Y-100354190D01*
X166760952Y-100354190D01*
D15*
X87339714Y-125857000D02*
X87339714Y-126219857D01*
X86577714Y-126219857D01*
X87339714Y-125566714D02*
X87339714Y-125421571D01*
X87303428Y-125349000D01*
X87267142Y-125312714D01*
X87158285Y-125240142D01*
X87013142Y-125203857D01*
X86722857Y-125203857D01*
X86650285Y-125240142D01*
X86614000Y-125276428D01*
X86577714Y-125349000D01*
X86577714Y-125494142D01*
X86614000Y-125566714D01*
X86650285Y-125603000D01*
X86722857Y-125639285D01*
X86904285Y-125639285D01*
X86976857Y-125603000D01*
X87013142Y-125566714D01*
X87049428Y-125494142D01*
X87049428Y-125349000D01*
X87013142Y-125276428D01*
X86976857Y-125240142D01*
X86904285Y-125203857D01*
D11*
X90706095Y-125222000D02*
X90609333Y-125173619D01*
X90464190Y-125173619D01*
X90319047Y-125222000D01*
X90222285Y-125318761D01*
X90173904Y-125415523D01*
X90125523Y-125609047D01*
X90125523Y-125754190D01*
X90173904Y-125947714D01*
X90222285Y-126044476D01*
X90319047Y-126141238D01*
X90464190Y-126189619D01*
X90560952Y-126189619D01*
X90706095Y-126141238D01*
X90754476Y-126092857D01*
X90754476Y-125754190D01*
X90560952Y-125754190D01*
D15*
X112739714Y-126219857D02*
X112739714Y-126582714D01*
X111977714Y-126582714D01*
X112739714Y-125566714D02*
X112739714Y-126002142D01*
X112739714Y-125784428D02*
X111977714Y-125784428D01*
X112086571Y-125857000D01*
X112159142Y-125929571D01*
X112195428Y-126002142D01*
X112739714Y-124841000D02*
X112739714Y-125276428D01*
X112739714Y-125058714D02*
X111977714Y-125058714D01*
X112086571Y-125131285D01*
X112159142Y-125203857D01*
X112195428Y-125276428D01*
D11*
X116106095Y-125222000D02*
X116009333Y-125173619D01*
X115864190Y-125173619D01*
X115719047Y-125222000D01*
X115622285Y-125318761D01*
X115573904Y-125415523D01*
X115525523Y-125609047D01*
X115525523Y-125754190D01*
X115573904Y-125947714D01*
X115622285Y-126044476D01*
X115719047Y-126141238D01*
X115864190Y-126189619D01*
X115960952Y-126189619D01*
X116106095Y-126141238D01*
X116154476Y-126092857D01*
X116154476Y-125754190D01*
X115960952Y-125754190D01*
D15*
X138139714Y-126219857D02*
X138139714Y-126582714D01*
X137377714Y-126582714D01*
X138139714Y-125566714D02*
X138139714Y-126002142D01*
X138139714Y-125784428D02*
X137377714Y-125784428D01*
X137486571Y-125857000D01*
X137559142Y-125929571D01*
X137595428Y-126002142D01*
X137377714Y-125312714D02*
X137377714Y-124841000D01*
X137668000Y-125095000D01*
X137668000Y-124986142D01*
X137704285Y-124913571D01*
X137740571Y-124877285D01*
X137813142Y-124841000D01*
X137994571Y-124841000D01*
X138067142Y-124877285D01*
X138103428Y-124913571D01*
X138139714Y-124986142D01*
X138139714Y-125203857D01*
X138103428Y-125276428D01*
X138067142Y-125312714D01*
D11*
X141506095Y-125222000D02*
X141409333Y-125173619D01*
X141264190Y-125173619D01*
X141119047Y-125222000D01*
X141022285Y-125318761D01*
X140973904Y-125415523D01*
X140925523Y-125609047D01*
X140925523Y-125754190D01*
X140973904Y-125947714D01*
X141022285Y-126044476D01*
X141119047Y-126141238D01*
X141264190Y-126189619D01*
X141360952Y-126189619D01*
X141506095Y-126141238D01*
X141554476Y-126092857D01*
X141554476Y-125754190D01*
X141360952Y-125754190D01*
D15*
X163539714Y-126219857D02*
X163539714Y-126582714D01*
X162777714Y-126582714D01*
X163539714Y-125566714D02*
X163539714Y-126002142D01*
X163539714Y-125784428D02*
X162777714Y-125784428D01*
X162886571Y-125857000D01*
X162959142Y-125929571D01*
X162995428Y-126002142D01*
X162777714Y-124877285D02*
X162777714Y-125240142D01*
X163140571Y-125276428D01*
X163104285Y-125240142D01*
X163068000Y-125167571D01*
X163068000Y-124986142D01*
X163104285Y-124913571D01*
X163140571Y-124877285D01*
X163213142Y-124841000D01*
X163394571Y-124841000D01*
X163467142Y-124877285D01*
X163503428Y-124913571D01*
X163539714Y-124986142D01*
X163539714Y-125167571D01*
X163503428Y-125240142D01*
X163467142Y-125276428D01*
D11*
X166906095Y-125222000D02*
X166809333Y-125173619D01*
X166664190Y-125173619D01*
X166519047Y-125222000D01*
X166422285Y-125318761D01*
X166373904Y-125415523D01*
X166325523Y-125609047D01*
X166325523Y-125754190D01*
X166373904Y-125947714D01*
X166422285Y-126044476D01*
X166519047Y-126141238D01*
X166664190Y-126189619D01*
X166760952Y-126189619D01*
X166906095Y-126141238D01*
X166954476Y-126092857D01*
X166954476Y-125754190D01*
X166760952Y-125754190D01*
D15*
X136107714Y-92655571D02*
X136107714Y-92220142D01*
X136869714Y-92437857D02*
X136107714Y-92437857D01*
X136180285Y-92002428D02*
X136144000Y-91966142D01*
X136107714Y-91893571D01*
X136107714Y-91712142D01*
X136144000Y-91639571D01*
X136180285Y-91603285D01*
X136252857Y-91567000D01*
X136325428Y-91567000D01*
X136434285Y-91603285D01*
X136869714Y-92038714D01*
X136869714Y-91567000D01*
X186907714Y-92655571D02*
X186907714Y-92220142D01*
X187669714Y-92437857D02*
X186907714Y-92437857D01*
X187161714Y-91639571D02*
X187669714Y-91639571D01*
X186871428Y-91821000D02*
X187415714Y-92002428D01*
X187415714Y-91530714D01*
X136107714Y-118055571D02*
X136107714Y-117620142D01*
X136869714Y-117837857D02*
X136107714Y-117837857D01*
X136107714Y-117039571D02*
X136107714Y-117184714D01*
X136144000Y-117257285D01*
X136180285Y-117293571D01*
X136289142Y-117366142D01*
X136434285Y-117402428D01*
X136724571Y-117402428D01*
X136797142Y-117366142D01*
X136833428Y-117329857D01*
X136869714Y-117257285D01*
X136869714Y-117112142D01*
X136833428Y-117039571D01*
X136797142Y-117003285D01*
X136724571Y-116967000D01*
X136543142Y-116967000D01*
X136470571Y-117003285D01*
X136434285Y-117039571D01*
X136398000Y-117112142D01*
X136398000Y-117257285D01*
X136434285Y-117329857D01*
X136470571Y-117366142D01*
X136543142Y-117402428D01*
X186907714Y-118055571D02*
X186907714Y-117620142D01*
X187669714Y-117837857D02*
X186907714Y-117837857D01*
X187234285Y-117257285D02*
X187198000Y-117329857D01*
X187161714Y-117366142D01*
X187089142Y-117402428D01*
X187052857Y-117402428D01*
X186980285Y-117366142D01*
X186944000Y-117329857D01*
X186907714Y-117257285D01*
X186907714Y-117112142D01*
X186944000Y-117039571D01*
X186980285Y-117003285D01*
X187052857Y-116967000D01*
X187089142Y-116967000D01*
X187161714Y-117003285D01*
X187198000Y-117039571D01*
X187234285Y-117112142D01*
X187234285Y-117257285D01*
X187270571Y-117329857D01*
X187306857Y-117366142D01*
X187379428Y-117402428D01*
X187524571Y-117402428D01*
X187597142Y-117366142D01*
X187633428Y-117329857D01*
X187669714Y-117257285D01*
X187669714Y-117112142D01*
X187633428Y-117039571D01*
X187597142Y-117003285D01*
X187524571Y-116967000D01*
X187379428Y-116967000D01*
X187306857Y-117003285D01*
X187270571Y-117039571D01*
X187234285Y-117112142D01*
X101654428Y-98733428D02*
X101763285Y-98769714D01*
X101944714Y-98769714D01*
X102017285Y-98733428D01*
X102053571Y-98697142D01*
X102089857Y-98624571D01*
X102089857Y-98552000D01*
X102053571Y-98479428D01*
X102017285Y-98443142D01*
X101944714Y-98406857D01*
X101799571Y-98370571D01*
X101727000Y-98334285D01*
X101690714Y-98298000D01*
X101654428Y-98225428D01*
X101654428Y-98152857D01*
X101690714Y-98080285D01*
X101727000Y-98044000D01*
X101799571Y-98007714D01*
X101981000Y-98007714D01*
X102089857Y-98044000D01*
X102815571Y-98769714D02*
X102380142Y-98769714D01*
X102597857Y-98769714D02*
X102597857Y-98007714D01*
X102525285Y-98116571D01*
X102452714Y-98189142D01*
X102380142Y-98225428D01*
X127054428Y-98733428D02*
X127163285Y-98769714D01*
X127344714Y-98769714D01*
X127417285Y-98733428D01*
X127453571Y-98697142D01*
X127489857Y-98624571D01*
X127489857Y-98552000D01*
X127453571Y-98479428D01*
X127417285Y-98443142D01*
X127344714Y-98406857D01*
X127199571Y-98370571D01*
X127127000Y-98334285D01*
X127090714Y-98298000D01*
X127054428Y-98225428D01*
X127054428Y-98152857D01*
X127090714Y-98080285D01*
X127127000Y-98044000D01*
X127199571Y-98007714D01*
X127381000Y-98007714D01*
X127489857Y-98044000D01*
X127780142Y-98080285D02*
X127816428Y-98044000D01*
X127889000Y-98007714D01*
X128070428Y-98007714D01*
X128143000Y-98044000D01*
X128179285Y-98080285D01*
X128215571Y-98152857D01*
X128215571Y-98225428D01*
X128179285Y-98334285D01*
X127743857Y-98769714D01*
X128215571Y-98769714D01*
X152454428Y-98733428D02*
X152563285Y-98769714D01*
X152744714Y-98769714D01*
X152817285Y-98733428D01*
X152853571Y-98697142D01*
X152889857Y-98624571D01*
X152889857Y-98552000D01*
X152853571Y-98479428D01*
X152817285Y-98443142D01*
X152744714Y-98406857D01*
X152599571Y-98370571D01*
X152527000Y-98334285D01*
X152490714Y-98298000D01*
X152454428Y-98225428D01*
X152454428Y-98152857D01*
X152490714Y-98080285D01*
X152527000Y-98044000D01*
X152599571Y-98007714D01*
X152781000Y-98007714D01*
X152889857Y-98044000D01*
X153143857Y-98007714D02*
X153615571Y-98007714D01*
X153361571Y-98298000D01*
X153470428Y-98298000D01*
X153543000Y-98334285D01*
X153579285Y-98370571D01*
X153615571Y-98443142D01*
X153615571Y-98624571D01*
X153579285Y-98697142D01*
X153543000Y-98733428D01*
X153470428Y-98769714D01*
X153252714Y-98769714D01*
X153180142Y-98733428D01*
X153143857Y-98697142D01*
X177854428Y-98733428D02*
X177963285Y-98769714D01*
X178144714Y-98769714D01*
X178217285Y-98733428D01*
X178253571Y-98697142D01*
X178289857Y-98624571D01*
X178289857Y-98552000D01*
X178253571Y-98479428D01*
X178217285Y-98443142D01*
X178144714Y-98406857D01*
X177999571Y-98370571D01*
X177927000Y-98334285D01*
X177890714Y-98298000D01*
X177854428Y-98225428D01*
X177854428Y-98152857D01*
X177890714Y-98080285D01*
X177927000Y-98044000D01*
X177999571Y-98007714D01*
X178181000Y-98007714D01*
X178289857Y-98044000D01*
X178943000Y-98261714D02*
X178943000Y-98769714D01*
X178761571Y-97971428D02*
X178580142Y-98515714D01*
X179051857Y-98515714D01*
X101654428Y-124133428D02*
X101763285Y-124169714D01*
X101944714Y-124169714D01*
X102017285Y-124133428D01*
X102053571Y-124097142D01*
X102089857Y-124024571D01*
X102089857Y-123952000D01*
X102053571Y-123879428D01*
X102017285Y-123843142D01*
X101944714Y-123806857D01*
X101799571Y-123770571D01*
X101727000Y-123734285D01*
X101690714Y-123698000D01*
X101654428Y-123625428D01*
X101654428Y-123552857D01*
X101690714Y-123480285D01*
X101727000Y-123444000D01*
X101799571Y-123407714D01*
X101981000Y-123407714D01*
X102089857Y-123444000D01*
X102779285Y-123407714D02*
X102416428Y-123407714D01*
X102380142Y-123770571D01*
X102416428Y-123734285D01*
X102489000Y-123698000D01*
X102670428Y-123698000D01*
X102743000Y-123734285D01*
X102779285Y-123770571D01*
X102815571Y-123843142D01*
X102815571Y-124024571D01*
X102779285Y-124097142D01*
X102743000Y-124133428D01*
X102670428Y-124169714D01*
X102489000Y-124169714D01*
X102416428Y-124133428D01*
X102380142Y-124097142D01*
X127054428Y-124133428D02*
X127163285Y-124169714D01*
X127344714Y-124169714D01*
X127417285Y-124133428D01*
X127453571Y-124097142D01*
X127489857Y-124024571D01*
X127489857Y-123952000D01*
X127453571Y-123879428D01*
X127417285Y-123843142D01*
X127344714Y-123806857D01*
X127199571Y-123770571D01*
X127127000Y-123734285D01*
X127090714Y-123698000D01*
X127054428Y-123625428D01*
X127054428Y-123552857D01*
X127090714Y-123480285D01*
X127127000Y-123444000D01*
X127199571Y-123407714D01*
X127381000Y-123407714D01*
X127489857Y-123444000D01*
X128143000Y-123407714D02*
X127997857Y-123407714D01*
X127925285Y-123444000D01*
X127889000Y-123480285D01*
X127816428Y-123589142D01*
X127780142Y-123734285D01*
X127780142Y-124024571D01*
X127816428Y-124097142D01*
X127852714Y-124133428D01*
X127925285Y-124169714D01*
X128070428Y-124169714D01*
X128143000Y-124133428D01*
X128179285Y-124097142D01*
X128215571Y-124024571D01*
X128215571Y-123843142D01*
X128179285Y-123770571D01*
X128143000Y-123734285D01*
X128070428Y-123698000D01*
X127925285Y-123698000D01*
X127852714Y-123734285D01*
X127816428Y-123770571D01*
X127780142Y-123843142D01*
X152454428Y-124133428D02*
X152563285Y-124169714D01*
X152744714Y-124169714D01*
X152817285Y-124133428D01*
X152853571Y-124097142D01*
X152889857Y-124024571D01*
X152889857Y-123952000D01*
X152853571Y-123879428D01*
X152817285Y-123843142D01*
X152744714Y-123806857D01*
X152599571Y-123770571D01*
X152527000Y-123734285D01*
X152490714Y-123698000D01*
X152454428Y-123625428D01*
X152454428Y-123552857D01*
X152490714Y-123480285D01*
X152527000Y-123444000D01*
X152599571Y-123407714D01*
X152781000Y-123407714D01*
X152889857Y-123444000D01*
X153143857Y-123407714D02*
X153651857Y-123407714D01*
X153325285Y-124169714D01*
X177854428Y-124133428D02*
X177963285Y-124169714D01*
X178144714Y-124169714D01*
X178217285Y-124133428D01*
X178253571Y-124097142D01*
X178289857Y-124024571D01*
X178289857Y-123952000D01*
X178253571Y-123879428D01*
X178217285Y-123843142D01*
X178144714Y-123806857D01*
X177999571Y-123770571D01*
X177927000Y-123734285D01*
X177890714Y-123698000D01*
X177854428Y-123625428D01*
X177854428Y-123552857D01*
X177890714Y-123480285D01*
X177927000Y-123444000D01*
X177999571Y-123407714D01*
X178181000Y-123407714D01*
X178289857Y-123444000D01*
X178725285Y-123734285D02*
X178652714Y-123698000D01*
X178616428Y-123661714D01*
X178580142Y-123589142D01*
X178580142Y-123552857D01*
X178616428Y-123480285D01*
X178652714Y-123444000D01*
X178725285Y-123407714D01*
X178870428Y-123407714D01*
X178943000Y-123444000D01*
X178979285Y-123480285D01*
X179015571Y-123552857D01*
X179015571Y-123589142D01*
X178979285Y-123661714D01*
X178943000Y-123698000D01*
X178870428Y-123734285D01*
X178725285Y-123734285D01*
X178652714Y-123770571D01*
X178616428Y-123806857D01*
X178580142Y-123879428D01*
X178580142Y-124024571D01*
X178616428Y-124097142D01*
X178652714Y-124133428D01*
X178725285Y-124169714D01*
X178870428Y-124169714D01*
X178943000Y-124133428D01*
X178979285Y-124097142D01*
X179015571Y-124024571D01*
X179015571Y-123879428D01*
X178979285Y-123806857D01*
X178943000Y-123770571D01*
X178870428Y-123734285D01*
X110707714Y-92655571D02*
X110707714Y-92220142D01*
X111469714Y-92437857D02*
X110707714Y-92437857D01*
X111469714Y-91567000D02*
X111469714Y-92002428D01*
X111469714Y-91784714D02*
X110707714Y-91784714D01*
X110816571Y-91857285D01*
X110889142Y-91929857D01*
X110925428Y-92002428D01*
X161507714Y-92655571D02*
X161507714Y-92220142D01*
X162269714Y-92437857D02*
X161507714Y-92437857D01*
X161507714Y-92038714D02*
X161507714Y-91567000D01*
X161798000Y-91821000D01*
X161798000Y-91712142D01*
X161834285Y-91639571D01*
X161870571Y-91603285D01*
X161943142Y-91567000D01*
X162124571Y-91567000D01*
X162197142Y-91603285D01*
X162233428Y-91639571D01*
X162269714Y-91712142D01*
X162269714Y-91929857D01*
X162233428Y-92002428D01*
X162197142Y-92038714D01*
X110707714Y-118055571D02*
X110707714Y-117620142D01*
X111469714Y-117837857D02*
X110707714Y-117837857D01*
X110707714Y-117003285D02*
X110707714Y-117366142D01*
X111070571Y-117402428D01*
X111034285Y-117366142D01*
X110998000Y-117293571D01*
X110998000Y-117112142D01*
X111034285Y-117039571D01*
X111070571Y-117003285D01*
X111143142Y-116967000D01*
X111324571Y-116967000D01*
X111397142Y-117003285D01*
X111433428Y-117039571D01*
X111469714Y-117112142D01*
X111469714Y-117293571D01*
X111433428Y-117366142D01*
X111397142Y-117402428D01*
X161507714Y-118055571D02*
X161507714Y-117620142D01*
X162269714Y-117837857D02*
X161507714Y-117837857D01*
X161507714Y-117438714D02*
X161507714Y-116930714D01*
X162269714Y-117257285D01*
X111469714Y-100457000D02*
X111469714Y-100819857D01*
X110707714Y-100819857D01*
X110780285Y-100239285D02*
X110744000Y-100203000D01*
X110707714Y-100130428D01*
X110707714Y-99949000D01*
X110744000Y-99876428D01*
X110780285Y-99840142D01*
X110852857Y-99803857D01*
X110925428Y-99803857D01*
X111034285Y-99840142D01*
X111469714Y-100275571D01*
X111469714Y-99803857D01*
D11*
X107994476Y-100789619D02*
X107655809Y-100305809D01*
X107413904Y-100789619D02*
X107413904Y-99773619D01*
X107800952Y-99773619D01*
X107897714Y-99822000D01*
X107946095Y-99870380D01*
X107994476Y-99967142D01*
X107994476Y-100112285D01*
X107946095Y-100209047D01*
X107897714Y-100257428D01*
X107800952Y-100305809D01*
X107413904Y-100305809D01*
D15*
X136869714Y-100457000D02*
X136869714Y-100819857D01*
X136107714Y-100819857D01*
X136361714Y-99876428D02*
X136869714Y-99876428D01*
X136071428Y-100057857D02*
X136615714Y-100239285D01*
X136615714Y-99767571D01*
D11*
X133394476Y-100789619D02*
X133055809Y-100305809D01*
X132813904Y-100789619D02*
X132813904Y-99773619D01*
X133200952Y-99773619D01*
X133297714Y-99822000D01*
X133346095Y-99870380D01*
X133394476Y-99967142D01*
X133394476Y-100112285D01*
X133346095Y-100209047D01*
X133297714Y-100257428D01*
X133200952Y-100305809D01*
X132813904Y-100305809D01*
D15*
X162269714Y-100457000D02*
X162269714Y-100819857D01*
X161507714Y-100819857D01*
X161507714Y-99876428D02*
X161507714Y-100021571D01*
X161544000Y-100094142D01*
X161580285Y-100130428D01*
X161689142Y-100203000D01*
X161834285Y-100239285D01*
X162124571Y-100239285D01*
X162197142Y-100203000D01*
X162233428Y-100166714D01*
X162269714Y-100094142D01*
X162269714Y-99949000D01*
X162233428Y-99876428D01*
X162197142Y-99840142D01*
X162124571Y-99803857D01*
X161943142Y-99803857D01*
X161870571Y-99840142D01*
X161834285Y-99876428D01*
X161798000Y-99949000D01*
X161798000Y-100094142D01*
X161834285Y-100166714D01*
X161870571Y-100203000D01*
X161943142Y-100239285D01*
D11*
X158794476Y-100789619D02*
X158455809Y-100305809D01*
X158213904Y-100789619D02*
X158213904Y-99773619D01*
X158600952Y-99773619D01*
X158697714Y-99822000D01*
X158746095Y-99870380D01*
X158794476Y-99967142D01*
X158794476Y-100112285D01*
X158746095Y-100209047D01*
X158697714Y-100257428D01*
X158600952Y-100305809D01*
X158213904Y-100305809D01*
D15*
X187669714Y-100457000D02*
X187669714Y-100819857D01*
X186907714Y-100819857D01*
X187234285Y-100094142D02*
X187198000Y-100166714D01*
X187161714Y-100203000D01*
X187089142Y-100239285D01*
X187052857Y-100239285D01*
X186980285Y-100203000D01*
X186944000Y-100166714D01*
X186907714Y-100094142D01*
X186907714Y-99949000D01*
X186944000Y-99876428D01*
X186980285Y-99840142D01*
X187052857Y-99803857D01*
X187089142Y-99803857D01*
X187161714Y-99840142D01*
X187198000Y-99876428D01*
X187234285Y-99949000D01*
X187234285Y-100094142D01*
X187270571Y-100166714D01*
X187306857Y-100203000D01*
X187379428Y-100239285D01*
X187524571Y-100239285D01*
X187597142Y-100203000D01*
X187633428Y-100166714D01*
X187669714Y-100094142D01*
X187669714Y-99949000D01*
X187633428Y-99876428D01*
X187597142Y-99840142D01*
X187524571Y-99803857D01*
X187379428Y-99803857D01*
X187306857Y-99840142D01*
X187270571Y-99876428D01*
X187234285Y-99949000D01*
D11*
X184194476Y-100789619D02*
X183855809Y-100305809D01*
X183613904Y-100789619D02*
X183613904Y-99773619D01*
X184000952Y-99773619D01*
X184097714Y-99822000D01*
X184146095Y-99870380D01*
X184194476Y-99967142D01*
X184194476Y-100112285D01*
X184146095Y-100209047D01*
X184097714Y-100257428D01*
X184000952Y-100305809D01*
X183613904Y-100305809D01*
D15*
X111469714Y-126219857D02*
X111469714Y-126582714D01*
X110707714Y-126582714D01*
X111469714Y-125566714D02*
X111469714Y-126002142D01*
X111469714Y-125784428D02*
X110707714Y-125784428D01*
X110816571Y-125857000D01*
X110889142Y-125929571D01*
X110925428Y-126002142D01*
X110707714Y-125095000D02*
X110707714Y-125022428D01*
X110744000Y-124949857D01*
X110780285Y-124913571D01*
X110852857Y-124877285D01*
X110998000Y-124841000D01*
X111179428Y-124841000D01*
X111324571Y-124877285D01*
X111397142Y-124913571D01*
X111433428Y-124949857D01*
X111469714Y-125022428D01*
X111469714Y-125095000D01*
X111433428Y-125167571D01*
X111397142Y-125203857D01*
X111324571Y-125240142D01*
X111179428Y-125276428D01*
X110998000Y-125276428D01*
X110852857Y-125240142D01*
X110780285Y-125203857D01*
X110744000Y-125167571D01*
X110707714Y-125095000D01*
D11*
X107994476Y-126189619D02*
X107655809Y-125705809D01*
X107413904Y-126189619D02*
X107413904Y-125173619D01*
X107800952Y-125173619D01*
X107897714Y-125222000D01*
X107946095Y-125270380D01*
X107994476Y-125367142D01*
X107994476Y-125512285D01*
X107946095Y-125609047D01*
X107897714Y-125657428D01*
X107800952Y-125705809D01*
X107413904Y-125705809D01*
D15*
X136869714Y-126219857D02*
X136869714Y-126582714D01*
X136107714Y-126582714D01*
X136869714Y-125566714D02*
X136869714Y-126002142D01*
X136869714Y-125784428D02*
X136107714Y-125784428D01*
X136216571Y-125857000D01*
X136289142Y-125929571D01*
X136325428Y-126002142D01*
X136180285Y-125276428D02*
X136144000Y-125240142D01*
X136107714Y-125167571D01*
X136107714Y-124986142D01*
X136144000Y-124913571D01*
X136180285Y-124877285D01*
X136252857Y-124841000D01*
X136325428Y-124841000D01*
X136434285Y-124877285D01*
X136869714Y-125312714D01*
X136869714Y-124841000D01*
D11*
X133394476Y-126189619D02*
X133055809Y-125705809D01*
X132813904Y-126189619D02*
X132813904Y-125173619D01*
X133200952Y-125173619D01*
X133297714Y-125222000D01*
X133346095Y-125270380D01*
X133394476Y-125367142D01*
X133394476Y-125512285D01*
X133346095Y-125609047D01*
X133297714Y-125657428D01*
X133200952Y-125705809D01*
X132813904Y-125705809D01*
D15*
X162269714Y-126219857D02*
X162269714Y-126582714D01*
X161507714Y-126582714D01*
X162269714Y-125566714D02*
X162269714Y-126002142D01*
X162269714Y-125784428D02*
X161507714Y-125784428D01*
X161616571Y-125857000D01*
X161689142Y-125929571D01*
X161725428Y-126002142D01*
X161761714Y-124913571D02*
X162269714Y-124913571D01*
X161471428Y-125095000D02*
X162015714Y-125276428D01*
X162015714Y-124804714D01*
D11*
X158794476Y-126189619D02*
X158455809Y-125705809D01*
X158213904Y-126189619D02*
X158213904Y-125173619D01*
X158600952Y-125173619D01*
X158697714Y-125222000D01*
X158746095Y-125270380D01*
X158794476Y-125367142D01*
X158794476Y-125512285D01*
X158746095Y-125609047D01*
X158697714Y-125657428D01*
X158600952Y-125705809D01*
X158213904Y-125705809D01*
D15*
X187669714Y-126219857D02*
X187669714Y-126582714D01*
X186907714Y-126582714D01*
X187669714Y-125566714D02*
X187669714Y-126002142D01*
X187669714Y-125784428D02*
X186907714Y-125784428D01*
X187016571Y-125857000D01*
X187089142Y-125929571D01*
X187125428Y-126002142D01*
X186907714Y-124913571D02*
X186907714Y-125058714D01*
X186944000Y-125131285D01*
X186980285Y-125167571D01*
X187089142Y-125240142D01*
X187234285Y-125276428D01*
X187524571Y-125276428D01*
X187597142Y-125240142D01*
X187633428Y-125203857D01*
X187669714Y-125131285D01*
X187669714Y-124986142D01*
X187633428Y-124913571D01*
X187597142Y-124877285D01*
X187524571Y-124841000D01*
X187343142Y-124841000D01*
X187270571Y-124877285D01*
X187234285Y-124913571D01*
X187198000Y-124986142D01*
X187198000Y-125131285D01*
X187234285Y-125203857D01*
X187270571Y-125240142D01*
X187343142Y-125276428D01*
D11*
X184194476Y-126189619D02*
X183855809Y-125705809D01*
X183613904Y-126189619D02*
X183613904Y-125173619D01*
X184000952Y-125173619D01*
X184097714Y-125222000D01*
X184146095Y-125270380D01*
X184194476Y-125367142D01*
X184194476Y-125512285D01*
X184146095Y-125609047D01*
X184097714Y-125657428D01*
X184000952Y-125705809D01*
X183613904Y-125705809D01*
%LPC*%
D16*
X88900000Y-100330000D03*
X93980000Y-100330000D03*
X114300000Y-100330000D03*
X119380000Y-100330000D03*
X139700000Y-100330000D03*
X144780000Y-100330000D03*
X165100000Y-100330000D03*
X170180000Y-100330000D03*
X88900000Y-125730000D03*
X93980000Y-125730000D03*
X114300000Y-125730000D03*
X119380000Y-125730000D03*
X139700000Y-125730000D03*
X144780000Y-125730000D03*
X165100000Y-125730000D03*
X170180000Y-125730000D03*
D17*
X74930000Y-74930000D03*
X77470000Y-74930000D03*
D18*
X72390000Y-74930000D03*
D17*
X80010000Y-74930000D03*
X82550000Y-74930000D03*
X85090000Y-74930000D03*
X87630000Y-74930000D03*
X90170000Y-74930000D03*
X92710000Y-74930000D03*
X95250000Y-74930000D03*
X97790000Y-74930000D03*
X100330000Y-74930000D03*
X102870000Y-74930000D03*
X105410000Y-74930000D03*
X107950000Y-74930000D03*
X110490000Y-74930000D03*
X110490000Y-135890000D03*
X107950000Y-135890000D03*
X105410000Y-135890000D03*
X102870000Y-135890000D03*
X100330000Y-135890000D03*
X97790000Y-135890000D03*
X95250000Y-135890000D03*
X92710000Y-135890000D03*
X90170000Y-135890000D03*
X87630000Y-135890000D03*
X85090000Y-135890000D03*
X82550000Y-135890000D03*
X80010000Y-135890000D03*
X77470000Y-135890000D03*
X74930000Y-135890000D03*
X72390000Y-135890000D03*
D19*
X73660000Y-80010000D03*
X73660000Y-130810000D03*
X137160000Y-135890000D03*
X137160000Y-74930000D03*
D17*
X113030000Y-135890000D03*
X115570000Y-135890000D03*
X118110000Y-135890000D03*
X120650000Y-135890000D03*
X123190000Y-135890000D03*
X125730000Y-135890000D03*
X128270000Y-135890000D03*
X130810000Y-135890000D03*
X133350000Y-135890000D03*
X113030000Y-74930000D03*
X115570000Y-74930000D03*
X118110000Y-74930000D03*
X120650000Y-74930000D03*
X123190000Y-74930000D03*
X125730000Y-74930000D03*
X128270000Y-74930000D03*
X130810000Y-74930000D03*
X133350000Y-74930000D03*
D20*
X132080000Y-92075000D03*
X116840000Y-92075000D03*
X121920000Y-92075000D03*
X127000000Y-92075000D03*
X182880000Y-92075000D03*
X167640000Y-92075000D03*
X172720000Y-92075000D03*
X177800000Y-92075000D03*
X132080000Y-117475000D03*
X116840000Y-117475000D03*
X121920000Y-117475000D03*
X127000000Y-117475000D03*
X177800000Y-117475000D03*
X172720000Y-117475000D03*
X167640000Y-117475000D03*
X182880000Y-117475000D03*
D18*
X97790000Y-100965000D03*
D17*
X100330000Y-100965000D03*
X125730000Y-100965000D03*
D18*
X123190000Y-100965000D03*
X148590000Y-100965000D03*
D17*
X151130000Y-100965000D03*
X176530000Y-100965000D03*
D18*
X173990000Y-100965000D03*
D17*
X100330000Y-126365000D03*
D18*
X97790000Y-126365000D03*
X123190000Y-126365000D03*
D17*
X125730000Y-126365000D03*
X151130000Y-126365000D03*
D18*
X148590000Y-126365000D03*
X173990000Y-126365000D03*
D17*
X176530000Y-126365000D03*
D20*
X106680000Y-92075000D03*
X91440000Y-92075000D03*
X96520000Y-92075000D03*
X101600000Y-92075000D03*
X152400000Y-92075000D03*
X147320000Y-92075000D03*
X142240000Y-92075000D03*
X157480000Y-92075000D03*
X101600000Y-117475000D03*
X96520000Y-117475000D03*
X91440000Y-117475000D03*
X106680000Y-117475000D03*
X157480000Y-117475000D03*
X142240000Y-117475000D03*
X147320000Y-117475000D03*
X152400000Y-117475000D03*
D16*
X104140000Y-100330000D03*
X109220000Y-100330000D03*
X134620000Y-100330000D03*
X129540000Y-100330000D03*
X160020000Y-100330000D03*
X154940000Y-100330000D03*
X180340000Y-100330000D03*
X185420000Y-100330000D03*
X109220000Y-125730000D03*
X104140000Y-125730000D03*
X129540000Y-125730000D03*
X134620000Y-125730000D03*
X160020000Y-125730000D03*
X154940000Y-125730000D03*
X180340000Y-125730000D03*
X185420000Y-125730000D03*
M02*
