M48
;DRILL file {KiCad no-vcs-found-7625~57~ubuntu16.04.1} date Mon Feb 13 10:02:45 2017
;FORMAT={-:-/ absolute / inch / decimal}
FMAT,2
INCH,TZ
T1C0.025
T2C0.038
T3C0.043
T4C0.055
T5C0.130
%
G90
G05
M72
T1
X2.98Y-4.3332
X2.9807Y-4.1669
X2.9809Y-4.0634
X3.0036Y-4.1329
X3.0468Y-4.354
X3.1255Y-4.4451
X3.3947Y-4.0259
X3.7901Y-3.865
X3.8353Y-3.4202
X4.151Y-3.6962
X4.5266Y-4.354
X4.6966Y-3.2077
X5.7127Y-3.2344
X5.7207Y-3.7943
X5.9189Y-3.325
T2
X3.5Y-3.95
X3.5Y-4.95
X3.7Y-3.95
X3.7Y-4.95
X4.1Y-3.95
X4.1Y-4.95
X4.3Y-3.95
X4.3Y-4.95
X4.5Y-3.95
X4.5Y-4.95
X4.7Y-3.95
X4.7Y-4.95
X5.1Y-3.95
X5.1Y-4.95
X5.3Y-3.95
X5.3Y-4.95
X5.5Y-3.95
X5.5Y-4.95
X5.7Y-3.95
X5.7Y-4.95
X6.1Y-3.95
X6.1Y-4.95
X6.3Y-3.95
X6.3Y-4.95
X6.5Y-3.95
X6.5Y-4.95
X6.7Y-3.95
X6.7Y-4.95
X7.1Y-3.95
X7.1Y-4.95
X7.3Y-3.95
X7.3Y-4.95
T3
X2.85Y-2.95
X2.85Y-5.35
X2.95Y-2.95
X2.95Y-5.35
X3.05Y-2.95
X3.05Y-5.35
X3.15Y-2.95
X3.15Y-5.35
X3.25Y-2.95
X3.25Y-5.35
X3.35Y-2.95
X3.35Y-5.35
X3.45Y-2.95
X3.45Y-5.35
X3.55Y-2.95
X3.55Y-5.35
X3.65Y-2.95
X3.65Y-5.35
X3.75Y-2.95
X3.75Y-5.35
X3.85Y-2.95
X3.85Y-3.975
X3.85Y-4.975
X3.85Y-5.35
X3.95Y-2.95
X3.95Y-3.975
X3.95Y-4.975
X3.95Y-5.35
X4.05Y-2.95
X4.05Y-5.35
X4.15Y-2.95
X4.15Y-5.35
X4.25Y-2.95
X4.25Y-5.35
X4.35Y-2.95
X4.35Y-5.35
X4.45Y-2.95
X4.45Y-5.35
X4.55Y-2.95
X4.55Y-5.35
X4.65Y-2.95
X4.65Y-5.35
X4.75Y-2.95
X4.75Y-5.35
X4.85Y-2.95
X4.85Y-3.975
X4.85Y-4.975
X4.85Y-5.35
X4.95Y-2.95
X4.95Y-3.975
X4.95Y-4.975
X4.95Y-5.35
X5.05Y-2.95
X5.05Y-5.35
X5.15Y-2.95
X5.15Y-5.35
X5.25Y-2.95
X5.25Y-5.35
X5.85Y-3.975
X5.85Y-4.975
X5.95Y-3.975
X5.95Y-4.975
X6.85Y-3.975
X6.85Y-4.975
X6.95Y-3.975
X6.95Y-4.975
T4
X3.6Y-3.625
X3.6Y-4.625
X3.8Y-3.625
X3.8Y-4.625
X4.Y-3.625
X4.Y-4.625
X4.2Y-3.625
X4.2Y-4.625
X4.6Y-3.625
X4.6Y-4.625
X4.8Y-3.625
X4.8Y-4.625
X5.Y-3.625
X5.Y-4.625
X5.2Y-3.625
X5.2Y-4.625
X5.6Y-3.625
X5.6Y-4.625
X5.8Y-3.625
X5.8Y-4.625
X6.Y-3.625
X6.Y-4.625
X6.2Y-3.625
X6.2Y-4.625
X6.6Y-3.625
X6.6Y-4.625
X6.8Y-3.625
X6.8Y-4.625
X7.Y-3.625
X7.Y-4.625
X7.2Y-3.625
X7.2Y-4.625
T5
X2.9Y-3.15
X2.9Y-5.15
X5.4Y-2.95
X5.4Y-5.35
T0
M30
