G04 #@! TF.GenerationSoftware,KiCad,Pcbnew,no-vcs-found-7625~57~ubuntu16.04.1*
G04 #@! TF.CreationDate,2017-02-13T10:02:40-05:00*
G04 #@! TF.ProjectId,high_power_switch_controller_5x3,686967685F706F7765725F7377697463,1.0*
G04 #@! TF.FileFunction,Soldermask,Top*
G04 #@! TF.FilePolarity,Negative*
%FSLAX46Y46*%
G04 Gerber Fmt 4.6, Leading zero omitted, Abs format (unit mm)*
G04 Created by KiCad (PCBNEW no-vcs-found-7625~57~ubuntu16.04.1) date Mon Feb 13 10:02:40 2017*
%MOMM*%
%LPD*%
G01*
G04 APERTURE LIST*
%ADD10C,0.100000*%
%ADD11C,0.228600*%
%ADD12O,2.032000X1.524000*%
%ADD13O,1.854200X2.540000*%
%ADD14R,1.854200X2.540000*%
%ADD15C,3.556000*%
%ADD16C,2.540000*%
G04 APERTURE END LIST*
D10*
D11*
X190500000Y-72390000D02*
X69850000Y-72390000D01*
X190500000Y-138430000D02*
X190500000Y-72390000D01*
X69850000Y-138430000D02*
X190500000Y-138430000D01*
X69850000Y-72390000D02*
X69850000Y-138430000D01*
D12*
X88900000Y-100330000D03*
X93980000Y-100330000D03*
X114300000Y-100330000D03*
X119380000Y-100330000D03*
X139700000Y-100330000D03*
X144780000Y-100330000D03*
X165100000Y-100330000D03*
X170180000Y-100330000D03*
X88900000Y-125730000D03*
X93980000Y-125730000D03*
X114300000Y-125730000D03*
X119380000Y-125730000D03*
X139700000Y-125730000D03*
X144780000Y-125730000D03*
X165100000Y-125730000D03*
X170180000Y-125730000D03*
D13*
X74930000Y-74930000D03*
X77470000Y-74930000D03*
D14*
X72390000Y-74930000D03*
D13*
X80010000Y-74930000D03*
X82550000Y-74930000D03*
X85090000Y-74930000D03*
X87630000Y-74930000D03*
X90170000Y-74930000D03*
X92710000Y-74930000D03*
X95250000Y-74930000D03*
X97790000Y-74930000D03*
X100330000Y-74930000D03*
X102870000Y-74930000D03*
X105410000Y-74930000D03*
X107950000Y-74930000D03*
X110490000Y-74930000D03*
X110490000Y-135890000D03*
X107950000Y-135890000D03*
X105410000Y-135890000D03*
X102870000Y-135890000D03*
X100330000Y-135890000D03*
X97790000Y-135890000D03*
X95250000Y-135890000D03*
X92710000Y-135890000D03*
X90170000Y-135890000D03*
X87630000Y-135890000D03*
X85090000Y-135890000D03*
X82550000Y-135890000D03*
X80010000Y-135890000D03*
X77470000Y-135890000D03*
X74930000Y-135890000D03*
X72390000Y-135890000D03*
D15*
X73660000Y-80010000D03*
X73660000Y-130810000D03*
X137160000Y-135890000D03*
X137160000Y-74930000D03*
D13*
X113030000Y-135890000D03*
X115570000Y-135890000D03*
X118110000Y-135890000D03*
X120650000Y-135890000D03*
X123190000Y-135890000D03*
X125730000Y-135890000D03*
X128270000Y-135890000D03*
X130810000Y-135890000D03*
X133350000Y-135890000D03*
X113030000Y-74930000D03*
X115570000Y-74930000D03*
X118110000Y-74930000D03*
X120650000Y-74930000D03*
X123190000Y-74930000D03*
X125730000Y-74930000D03*
X128270000Y-74930000D03*
X130810000Y-74930000D03*
X133350000Y-74930000D03*
D16*
X132080000Y-92075000D03*
X116840000Y-92075000D03*
X121920000Y-92075000D03*
X127000000Y-92075000D03*
X182880000Y-92075000D03*
X167640000Y-92075000D03*
X172720000Y-92075000D03*
X177800000Y-92075000D03*
X132080000Y-117475000D03*
X116840000Y-117475000D03*
X121920000Y-117475000D03*
X127000000Y-117475000D03*
X177800000Y-117475000D03*
X172720000Y-117475000D03*
X167640000Y-117475000D03*
X182880000Y-117475000D03*
D14*
X97790000Y-100965000D03*
D13*
X100330000Y-100965000D03*
X125730000Y-100965000D03*
D14*
X123190000Y-100965000D03*
X148590000Y-100965000D03*
D13*
X151130000Y-100965000D03*
X176530000Y-100965000D03*
D14*
X173990000Y-100965000D03*
D13*
X100330000Y-126365000D03*
D14*
X97790000Y-126365000D03*
X123190000Y-126365000D03*
D13*
X125730000Y-126365000D03*
X151130000Y-126365000D03*
D14*
X148590000Y-126365000D03*
X173990000Y-126365000D03*
D13*
X176530000Y-126365000D03*
D16*
X106680000Y-92075000D03*
X91440000Y-92075000D03*
X96520000Y-92075000D03*
X101600000Y-92075000D03*
X152400000Y-92075000D03*
X147320000Y-92075000D03*
X142240000Y-92075000D03*
X157480000Y-92075000D03*
X101600000Y-117475000D03*
X96520000Y-117475000D03*
X91440000Y-117475000D03*
X106680000Y-117475000D03*
X157480000Y-117475000D03*
X142240000Y-117475000D03*
X147320000Y-117475000D03*
X152400000Y-117475000D03*
D12*
X104140000Y-100330000D03*
X109220000Y-100330000D03*
X134620000Y-100330000D03*
X129540000Y-100330000D03*
X160020000Y-100330000D03*
X154940000Y-100330000D03*
X180340000Y-100330000D03*
X185420000Y-100330000D03*
X109220000Y-125730000D03*
X104140000Y-125730000D03*
X129540000Y-125730000D03*
X134620000Y-125730000D03*
X160020000Y-125730000D03*
X154940000Y-125730000D03*
X180340000Y-125730000D03*
X185420000Y-125730000D03*
M02*
