G04 #@! TF.GenerationSoftware,KiCad,Pcbnew,no-vcs-found-7625~57~ubuntu16.04.1*
G04 #@! TF.CreationDate,2017-02-13T10:02:40-05:00*
G04 #@! TF.ProjectId,high_power_switch_controller_5x3,686967685F706F7765725F7377697463,1.0*
G04 #@! TF.FileFunction,Copper,L1,Top,Signal*
G04 #@! TF.FilePolarity,Positive*
%FSLAX46Y46*%
G04 Gerber Fmt 4.6, Leading zero omitted, Abs format (unit mm)*
G04 Created by KiCad (PCBNEW no-vcs-found-7625~57~ubuntu16.04.1) date Mon Feb 13 10:02:40 2017*
%MOMM*%
%LPD*%
G01*
G04 APERTURE LIST*
%ADD10C,0.100000*%
%ADD11C,0.228600*%
%ADD12O,2.032000X1.524000*%
%ADD13O,1.854200X2.540000*%
%ADD14R,1.854200X2.540000*%
%ADD15C,3.556000*%
%ADD16C,2.540000*%
%ADD17C,0.889000*%
%ADD18C,0.406400*%
%ADD19C,0.812800*%
%ADD20C,2.032000*%
%ADD21C,0.203200*%
G04 APERTURE END LIST*
D10*
D11*
X190500000Y-72390000D02*
X69850000Y-72390000D01*
X190500000Y-138430000D02*
X190500000Y-72390000D01*
X69850000Y-138430000D02*
X190500000Y-138430000D01*
X69850000Y-72390000D02*
X69850000Y-138430000D01*
D12*
X88900000Y-100330000D03*
X93980000Y-100330000D03*
X114300000Y-100330000D03*
X119380000Y-100330000D03*
X139700000Y-100330000D03*
X144780000Y-100330000D03*
X165100000Y-100330000D03*
X170180000Y-100330000D03*
X88900000Y-125730000D03*
X93980000Y-125730000D03*
X114300000Y-125730000D03*
X119380000Y-125730000D03*
X139700000Y-125730000D03*
X144780000Y-125730000D03*
X165100000Y-125730000D03*
X170180000Y-125730000D03*
D13*
X74930000Y-74930000D03*
X77470000Y-74930000D03*
D14*
X72390000Y-74930000D03*
D13*
X80010000Y-74930000D03*
X82550000Y-74930000D03*
X85090000Y-74930000D03*
X87630000Y-74930000D03*
X90170000Y-74930000D03*
X92710000Y-74930000D03*
X95250000Y-74930000D03*
X97790000Y-74930000D03*
X100330000Y-74930000D03*
X102870000Y-74930000D03*
X105410000Y-74930000D03*
X107950000Y-74930000D03*
X110490000Y-74930000D03*
X110490000Y-135890000D03*
X107950000Y-135890000D03*
X105410000Y-135890000D03*
X102870000Y-135890000D03*
X100330000Y-135890000D03*
X97790000Y-135890000D03*
X95250000Y-135890000D03*
X92710000Y-135890000D03*
X90170000Y-135890000D03*
X87630000Y-135890000D03*
X85090000Y-135890000D03*
X82550000Y-135890000D03*
X80010000Y-135890000D03*
X77470000Y-135890000D03*
X74930000Y-135890000D03*
X72390000Y-135890000D03*
D15*
X73660000Y-80010000D03*
X73660000Y-130810000D03*
X137160000Y-135890000D03*
X137160000Y-74930000D03*
D13*
X113030000Y-135890000D03*
X115570000Y-135890000D03*
X118110000Y-135890000D03*
X120650000Y-135890000D03*
X123190000Y-135890000D03*
X125730000Y-135890000D03*
X128270000Y-135890000D03*
X130810000Y-135890000D03*
X133350000Y-135890000D03*
X113030000Y-74930000D03*
X115570000Y-74930000D03*
X118110000Y-74930000D03*
X120650000Y-74930000D03*
X123190000Y-74930000D03*
X125730000Y-74930000D03*
X128270000Y-74930000D03*
X130810000Y-74930000D03*
X133350000Y-74930000D03*
D16*
X132080000Y-92075000D03*
X116840000Y-92075000D03*
X121920000Y-92075000D03*
X127000000Y-92075000D03*
X182880000Y-92075000D03*
X167640000Y-92075000D03*
X172720000Y-92075000D03*
X177800000Y-92075000D03*
X132080000Y-117475000D03*
X116840000Y-117475000D03*
X121920000Y-117475000D03*
X127000000Y-117475000D03*
X177800000Y-117475000D03*
X172720000Y-117475000D03*
X167640000Y-117475000D03*
X182880000Y-117475000D03*
D14*
X97790000Y-100965000D03*
D13*
X100330000Y-100965000D03*
X125730000Y-100965000D03*
D14*
X123190000Y-100965000D03*
X148590000Y-100965000D03*
D13*
X151130000Y-100965000D03*
X176530000Y-100965000D03*
D14*
X173990000Y-100965000D03*
D13*
X100330000Y-126365000D03*
D14*
X97790000Y-126365000D03*
X123190000Y-126365000D03*
D13*
X125730000Y-126365000D03*
X151130000Y-126365000D03*
D14*
X148590000Y-126365000D03*
X173990000Y-126365000D03*
D13*
X176530000Y-126365000D03*
D16*
X106680000Y-92075000D03*
X91440000Y-92075000D03*
X96520000Y-92075000D03*
X101600000Y-92075000D03*
X152400000Y-92075000D03*
X147320000Y-92075000D03*
X142240000Y-92075000D03*
X157480000Y-92075000D03*
X101600000Y-117475000D03*
X96520000Y-117475000D03*
X91440000Y-117475000D03*
X106680000Y-117475000D03*
X157480000Y-117475000D03*
X142240000Y-117475000D03*
X147320000Y-117475000D03*
X152400000Y-117475000D03*
D12*
X104140000Y-100330000D03*
X109220000Y-100330000D03*
X134620000Y-100330000D03*
X129540000Y-100330000D03*
X160020000Y-100330000D03*
X154940000Y-100330000D03*
X180340000Y-100330000D03*
X185420000Y-100330000D03*
X109220000Y-125730000D03*
X104140000Y-125730000D03*
X129540000Y-125730000D03*
X134620000Y-125730000D03*
X160020000Y-125730000D03*
X154940000Y-125730000D03*
X180340000Y-125730000D03*
X185420000Y-125730000D03*
D17*
X97417800Y-86873800D03*
X105436500Y-93882600D03*
X119294400Y-81475000D03*
X145101400Y-82153500D03*
X150341200Y-84455000D03*
X145306700Y-96376200D03*
X75716000Y-103209200D03*
X76290700Y-104975300D03*
X75710800Y-105840400D03*
X77387500Y-110592400D03*
X114974600Y-110592400D03*
X75692700Y-110063600D03*
X79387000Y-112904600D03*
X86224300Y-102257500D03*
X96268100Y-98170700D03*
D18*
X114300000Y-100330000D02*
X114300000Y-100812600D01*
X88900000Y-100330000D02*
X88900000Y-99237800D01*
X100330000Y-100965000D02*
X100330000Y-99364800D01*
X113918600Y-127203600D02*
X114300000Y-126822200D01*
X102425900Y-127203600D02*
X113918600Y-127203600D01*
X101587300Y-126365000D02*
X102425900Y-127203600D01*
X100330000Y-126365000D02*
X101587300Y-126365000D01*
X114300000Y-125730000D02*
X114300000Y-126822200D01*
X102179500Y-101557200D02*
X101587300Y-100965000D01*
X113555400Y-101557200D02*
X102179500Y-101557200D01*
X114300000Y-100812600D02*
X113555400Y-101557200D01*
X100330000Y-100965000D02*
X101587300Y-100965000D01*
X125603000Y-99237800D02*
X114300000Y-99237800D01*
X125730000Y-99364800D02*
X125603000Y-99237800D01*
X125730000Y-100965000D02*
X125730000Y-99364800D01*
X114300000Y-100330000D02*
X114300000Y-99237800D01*
X127571900Y-126949600D02*
X126987300Y-126365000D01*
X139572600Y-126949600D02*
X127571900Y-126949600D01*
X139700000Y-126822200D02*
X139572600Y-126949600D01*
X139700000Y-125730000D02*
X139700000Y-126822200D01*
X125730000Y-126365000D02*
X126987300Y-126365000D01*
X139700000Y-100330000D02*
X139700000Y-99237800D01*
X151130000Y-100965000D02*
X151130000Y-99364800D01*
X150113800Y-99364800D02*
X147320000Y-96571000D01*
X151130000Y-99364800D02*
X150113800Y-99364800D01*
X144653200Y-99237800D02*
X147320000Y-96571000D01*
X139700000Y-99237800D02*
X144653200Y-99237800D01*
X147320000Y-96571000D02*
X147320000Y-92075000D01*
X100203000Y-99237800D02*
X100330000Y-99364800D01*
X88900000Y-99237800D02*
X100203000Y-99237800D01*
X165557200Y-124637800D02*
X165100000Y-124637800D01*
X172720000Y-117475000D02*
X165557200Y-124637800D01*
X165100000Y-125730000D02*
X165100000Y-124637800D01*
X165100000Y-100330000D02*
X165100000Y-99237800D01*
X176221600Y-99364800D02*
X170825900Y-93969100D01*
X176530000Y-99364800D02*
X176221600Y-99364800D01*
X165557200Y-99237800D02*
X170825900Y-93969100D01*
X165100000Y-99237800D02*
X165557200Y-99237800D01*
X170825900Y-93969100D02*
X172720000Y-92075000D01*
X176530000Y-100965000D02*
X176530000Y-99364800D01*
D19*
X87404700Y-76860700D02*
X72390000Y-76860700D01*
X97417800Y-86873800D02*
X87404700Y-76860700D01*
X72390000Y-74930000D02*
X72390000Y-76860700D01*
X104749200Y-93195300D02*
X105436500Y-93882600D01*
X104749200Y-92485600D02*
X104749200Y-93195300D01*
X99137400Y-86873800D02*
X104749200Y-92485600D01*
X97417800Y-86873800D02*
X99137400Y-86873800D01*
D18*
X88887300Y-75793900D02*
X88887300Y-74930000D01*
X94568400Y-81475000D02*
X88887300Y-75793900D01*
X119294400Y-81475000D02*
X94568400Y-81475000D01*
X87630000Y-74930000D02*
X88887300Y-74930000D01*
X138433900Y-82153500D02*
X145101400Y-82153500D01*
X132080000Y-75799600D02*
X138433900Y-82153500D01*
X132080000Y-74076600D02*
X132080000Y-75799600D01*
X130789800Y-72786400D02*
X132080000Y-74076600D01*
X100326500Y-72786400D02*
X130789800Y-72786400D01*
X99047300Y-74065600D02*
X100326500Y-72786400D01*
X99047300Y-74930000D02*
X99047300Y-74065600D01*
X97790000Y-74930000D02*
X99047300Y-74930000D01*
X147402900Y-84455000D02*
X145101400Y-82153500D01*
X150341200Y-84455000D02*
X147402900Y-84455000D01*
D20*
X106680000Y-121157700D02*
X109220000Y-123697700D01*
X106680000Y-117475000D02*
X106680000Y-121157700D01*
X109220000Y-125730000D02*
X109220000Y-123697700D01*
D18*
X113030000Y-74930000D02*
X114287300Y-74930000D01*
X114287300Y-74066100D02*
X114287300Y-74930000D01*
X115007400Y-73346000D02*
X114287300Y-74066100D01*
X128810000Y-73346000D02*
X115007400Y-73346000D01*
X129577700Y-74113700D02*
X128810000Y-73346000D01*
X129577700Y-75783300D02*
X129577700Y-74113700D01*
X145306700Y-91512300D02*
X129577700Y-75783300D01*
X145306700Y-96376200D02*
X145306700Y-91512300D01*
X95961200Y-100965000D02*
X95326200Y-100330000D01*
X97790000Y-100965000D02*
X95961200Y-100965000D01*
X93980000Y-100330000D02*
X95326200Y-100330000D01*
D20*
X93980700Y-94615700D02*
X91440000Y-92075000D01*
X99059300Y-94615700D02*
X93980700Y-94615700D01*
X101600000Y-92075000D02*
X99059300Y-94615700D01*
D18*
X121361200Y-100965000D02*
X120726200Y-100330000D01*
X123190000Y-100965000D02*
X121361200Y-100965000D01*
X119380000Y-100330000D02*
X120053100Y-100330000D01*
X120053100Y-100330000D02*
X120726200Y-100330000D01*
X117173900Y-103209200D02*
X75716000Y-103209200D01*
X120053100Y-100330000D02*
X117173900Y-103209200D01*
D20*
X129540000Y-100330000D02*
X129540000Y-98297700D01*
X125158700Y-93916300D02*
X129540000Y-98297700D01*
X124459300Y-94615700D02*
X125158700Y-93916300D01*
X119380700Y-94615700D02*
X124459300Y-94615700D01*
X116840000Y-92075000D02*
X119380700Y-94615700D01*
X125158700Y-93916300D02*
X127000000Y-92075000D01*
D18*
X144780000Y-100330000D02*
X144780000Y-101422200D01*
X148590000Y-100965000D02*
X147332700Y-100965000D01*
X146875500Y-101422200D02*
X144780000Y-101422200D01*
X147332700Y-100965000D02*
X146875500Y-101422200D01*
X141226900Y-104975300D02*
X76290700Y-104975300D01*
X144780000Y-101422200D02*
X141226900Y-104975300D01*
X172161200Y-100965000D02*
X171526200Y-100330000D01*
X173990000Y-100965000D02*
X172161200Y-100965000D01*
X170180000Y-100330000D02*
X171526200Y-100330000D01*
X164669600Y-105840400D02*
X75710800Y-105840400D01*
X170180000Y-100330000D02*
X164669600Y-105840400D01*
X95961200Y-126365000D02*
X95326200Y-125730000D01*
X97790000Y-126365000D02*
X95961200Y-126365000D01*
X93980000Y-125730000D02*
X95326200Y-125730000D01*
D20*
X104140000Y-125730000D02*
X104140000Y-123697700D01*
X99758700Y-119316300D02*
X104140000Y-123697700D01*
X99012300Y-120062700D02*
X99758700Y-119316300D01*
X94027700Y-120062700D02*
X99012300Y-120062700D01*
X91440000Y-117475000D02*
X94027700Y-120062700D01*
X99758700Y-119316300D02*
X101600000Y-117475000D01*
D18*
X121361200Y-126365000D02*
X120726200Y-125730000D01*
X123190000Y-126365000D02*
X121361200Y-126365000D01*
X119380000Y-125730000D02*
X120053100Y-125730000D01*
X120053100Y-125730000D02*
X120726200Y-125730000D01*
X77387500Y-110592400D02*
X114974600Y-110592400D01*
X114974600Y-120651500D02*
X114974600Y-110592400D01*
X120053100Y-125730000D02*
X114974600Y-120651500D01*
D20*
X119401600Y-120036600D02*
X116840000Y-117475000D01*
X124438400Y-120036600D02*
X119401600Y-120036600D01*
X127000000Y-117475000D02*
X124438400Y-120036600D01*
D18*
X144780000Y-125730000D02*
X144780000Y-124637800D01*
X75913500Y-109842800D02*
X75692700Y-110063600D01*
X129985000Y-109842800D02*
X75913500Y-109842800D01*
X144780000Y-124637800D02*
X129985000Y-109842800D01*
X146761200Y-126365000D02*
X146126200Y-125730000D01*
X148590000Y-126365000D02*
X146761200Y-126365000D01*
X144780000Y-125730000D02*
X146126200Y-125730000D01*
D20*
X154940000Y-125730000D02*
X154940000Y-123697700D01*
X150558700Y-119316300D02*
X154940000Y-123697700D01*
X152400000Y-117475000D02*
X150558700Y-119316300D01*
X144782000Y-120017000D02*
X142240000Y-117475000D01*
X149858000Y-120017000D02*
X144782000Y-120017000D01*
X150558700Y-119316300D02*
X149858000Y-120017000D01*
D18*
X172161200Y-126365000D02*
X171526200Y-125730000D01*
X173990000Y-126365000D02*
X172161200Y-126365000D01*
X170853100Y-125730000D02*
X171526200Y-125730000D01*
X170853100Y-125730000D02*
X170180000Y-125730000D01*
X94440000Y-127957600D02*
X79387000Y-112904600D01*
X169044600Y-127957600D02*
X94440000Y-127957600D01*
X170180000Y-126822200D02*
X169044600Y-127957600D01*
X170180000Y-125730000D02*
X170180000Y-126822200D01*
D20*
X170195500Y-114919500D02*
X167640000Y-117475000D01*
X175244500Y-114919500D02*
X170195500Y-114919500D01*
X177800000Y-117475000D02*
X175244500Y-114919500D01*
X177800000Y-121157700D02*
X177800000Y-117475000D01*
X180340000Y-123697700D02*
X177800000Y-121157700D01*
X180340000Y-125730000D02*
X180340000Y-123697700D01*
D18*
X125730000Y-76140500D02*
X125730000Y-74930000D01*
X104474200Y-97396300D02*
X125730000Y-76140500D01*
X89987100Y-97396300D02*
X104474200Y-97396300D01*
X86224300Y-101159100D02*
X89987100Y-97396300D01*
X86224300Y-102257500D02*
X86224300Y-101159100D01*
X128270000Y-74930000D02*
X127012700Y-74930000D01*
X127012700Y-75820300D02*
X127012700Y-74930000D01*
X104662300Y-98170700D02*
X127012700Y-75820300D01*
X96268100Y-98170700D02*
X104662300Y-98170700D01*
D21*
G36*
X98688090Y-73706390D02*
X98681679Y-73715984D01*
X98661085Y-73685163D01*
X98261428Y-73418121D01*
X97790000Y-73324348D01*
X97318572Y-73418121D01*
X96918915Y-73685163D01*
X96651873Y-74084820D01*
X96558100Y-74556248D01*
X96558100Y-75303752D01*
X96651873Y-75775180D01*
X96918915Y-76174837D01*
X97318572Y-76441879D01*
X97790000Y-76535652D01*
X98261428Y-76441879D01*
X98661085Y-76174837D01*
X98928127Y-75775180D01*
X98995196Y-75438000D01*
X99047300Y-75438000D01*
X99121854Y-75423170D01*
X99191873Y-75775180D01*
X99458915Y-76174837D01*
X99858572Y-76441879D01*
X100330000Y-76535652D01*
X100801428Y-76441879D01*
X101201085Y-76174837D01*
X101468127Y-75775180D01*
X101561900Y-75303752D01*
X101561900Y-74556248D01*
X101638100Y-74556248D01*
X101638100Y-75303752D01*
X101731873Y-75775180D01*
X101998915Y-76174837D01*
X102398572Y-76441879D01*
X102870000Y-76535652D01*
X103341428Y-76441879D01*
X103741085Y-76174837D01*
X104008127Y-75775180D01*
X104101900Y-75303752D01*
X104101900Y-74556248D01*
X104178100Y-74556248D01*
X104178100Y-75303752D01*
X104271873Y-75775180D01*
X104538915Y-76174837D01*
X104938572Y-76441879D01*
X105410000Y-76535652D01*
X105881428Y-76441879D01*
X106281085Y-76174837D01*
X106548127Y-75775180D01*
X106641900Y-75303752D01*
X106641900Y-74556248D01*
X106718100Y-74556248D01*
X106718100Y-75303752D01*
X106811873Y-75775180D01*
X107078915Y-76174837D01*
X107478572Y-76441879D01*
X107950000Y-76535652D01*
X108421428Y-76441879D01*
X108821085Y-76174837D01*
X109088127Y-75775180D01*
X109181900Y-75303752D01*
X109181900Y-74556248D01*
X109258100Y-74556248D01*
X109258100Y-75303752D01*
X109351873Y-75775180D01*
X109618915Y-76174837D01*
X110018572Y-76441879D01*
X110490000Y-76535652D01*
X110961428Y-76441879D01*
X111361085Y-76174837D01*
X111628127Y-75775180D01*
X111721900Y-75303752D01*
X111721900Y-74556248D01*
X111628127Y-74084820D01*
X111361085Y-73685163D01*
X110961428Y-73418121D01*
X110490000Y-73324348D01*
X110018572Y-73418121D01*
X109618915Y-73685163D01*
X109351873Y-74084820D01*
X109258100Y-74556248D01*
X109181900Y-74556248D01*
X109088127Y-74084820D01*
X108821085Y-73685163D01*
X108421428Y-73418121D01*
X107950000Y-73324348D01*
X107478572Y-73418121D01*
X107078915Y-73685163D01*
X106811873Y-74084820D01*
X106718100Y-74556248D01*
X106641900Y-74556248D01*
X106548127Y-74084820D01*
X106281085Y-73685163D01*
X105881428Y-73418121D01*
X105410000Y-73324348D01*
X104938572Y-73418121D01*
X104538915Y-73685163D01*
X104271873Y-74084820D01*
X104178100Y-74556248D01*
X104101900Y-74556248D01*
X104008127Y-74084820D01*
X103741085Y-73685163D01*
X103341428Y-73418121D01*
X102870000Y-73324348D01*
X102398572Y-73418121D01*
X101998915Y-73685163D01*
X101731873Y-74084820D01*
X101638100Y-74556248D01*
X101561900Y-74556248D01*
X101468127Y-74084820D01*
X101201085Y-73685163D01*
X100801428Y-73418121D01*
X100477610Y-73353710D01*
X100536920Y-73294400D01*
X114340580Y-73294400D01*
X113928090Y-73706890D01*
X113921846Y-73716234D01*
X113901085Y-73685163D01*
X113501428Y-73418121D01*
X113030000Y-73324348D01*
X112558572Y-73418121D01*
X112158915Y-73685163D01*
X111891873Y-74084820D01*
X111798100Y-74556248D01*
X111798100Y-75303752D01*
X111891873Y-75775180D01*
X112158915Y-76174837D01*
X112558572Y-76441879D01*
X113030000Y-76535652D01*
X113501428Y-76441879D01*
X113901085Y-76174837D01*
X114168127Y-75775180D01*
X114235196Y-75438000D01*
X114287300Y-75438000D01*
X114361854Y-75423170D01*
X114431873Y-75775180D01*
X114698915Y-76174837D01*
X115098572Y-76441879D01*
X115570000Y-76535652D01*
X116041428Y-76441879D01*
X116441085Y-76174837D01*
X116708127Y-75775180D01*
X116801900Y-75303752D01*
X116801900Y-74556248D01*
X116708127Y-74084820D01*
X116553898Y-73854000D01*
X117126102Y-73854000D01*
X116971873Y-74084820D01*
X116878100Y-74556248D01*
X116878100Y-75303752D01*
X116971873Y-75775180D01*
X117238915Y-76174837D01*
X117638572Y-76441879D01*
X118110000Y-76535652D01*
X118581428Y-76441879D01*
X118981085Y-76174837D01*
X119248127Y-75775180D01*
X119341900Y-75303752D01*
X119341900Y-74556248D01*
X119248127Y-74084820D01*
X119093898Y-73854000D01*
X119666102Y-73854000D01*
X119511873Y-74084820D01*
X119418100Y-74556248D01*
X119418100Y-75303752D01*
X119511873Y-75775180D01*
X119778915Y-76174837D01*
X120178572Y-76441879D01*
X120650000Y-76535652D01*
X121121428Y-76441879D01*
X121521085Y-76174837D01*
X121788127Y-75775180D01*
X121881900Y-75303752D01*
X121881900Y-74556248D01*
X121788127Y-74084820D01*
X121633898Y-73854000D01*
X122206102Y-73854000D01*
X122051873Y-74084820D01*
X121958100Y-74556248D01*
X121958100Y-75303752D01*
X122051873Y-75775180D01*
X122318915Y-76174837D01*
X122718572Y-76441879D01*
X123190000Y-76535652D01*
X123661428Y-76441879D01*
X124061085Y-76174837D01*
X124328127Y-75775180D01*
X124421900Y-75303752D01*
X124421900Y-74556248D01*
X124328127Y-74084820D01*
X124173898Y-73854000D01*
X124746102Y-73854000D01*
X124591873Y-74084820D01*
X124498100Y-74556248D01*
X124498100Y-75303752D01*
X124591873Y-75775180D01*
X124858915Y-76174837D01*
X124929847Y-76222232D01*
X119979986Y-81172094D01*
X119929996Y-81051110D01*
X119719399Y-80840144D01*
X119444099Y-80725830D01*
X119146009Y-80725570D01*
X118870510Y-80839404D01*
X118742690Y-80967000D01*
X94778820Y-80967000D01*
X90318027Y-76506207D01*
X90641428Y-76441879D01*
X91041085Y-76174837D01*
X91308127Y-75775180D01*
X91401900Y-75303752D01*
X91401900Y-74556248D01*
X91478100Y-74556248D01*
X91478100Y-75303752D01*
X91571873Y-75775180D01*
X91838915Y-76174837D01*
X92238572Y-76441879D01*
X92710000Y-76535652D01*
X93181428Y-76441879D01*
X93581085Y-76174837D01*
X93848127Y-75775180D01*
X93941900Y-75303752D01*
X93941900Y-74556248D01*
X94018100Y-74556248D01*
X94018100Y-75303752D01*
X94111873Y-75775180D01*
X94378915Y-76174837D01*
X94778572Y-76441879D01*
X95250000Y-76535652D01*
X95721428Y-76441879D01*
X96121085Y-76174837D01*
X96388127Y-75775180D01*
X96481900Y-75303752D01*
X96481900Y-74556248D01*
X96388127Y-74084820D01*
X96121085Y-73685163D01*
X95721428Y-73418121D01*
X95250000Y-73324348D01*
X94778572Y-73418121D01*
X94378915Y-73685163D01*
X94111873Y-74084820D01*
X94018100Y-74556248D01*
X93941900Y-74556248D01*
X93848127Y-74084820D01*
X93581085Y-73685163D01*
X93181428Y-73418121D01*
X92710000Y-73324348D01*
X92238572Y-73418121D01*
X91838915Y-73685163D01*
X91571873Y-74084820D01*
X91478100Y-74556248D01*
X91401900Y-74556248D01*
X91308127Y-74084820D01*
X91041085Y-73685163D01*
X90641428Y-73418121D01*
X90170000Y-73324348D01*
X89698572Y-73418121D01*
X89298915Y-73685163D01*
X89031873Y-74084820D01*
X88961854Y-74436830D01*
X88887300Y-74422000D01*
X88835196Y-74422000D01*
X88768127Y-74084820D01*
X88501085Y-73685163D01*
X88101428Y-73418121D01*
X87630000Y-73324348D01*
X87158572Y-73418121D01*
X86758915Y-73685163D01*
X86491873Y-74084820D01*
X86398100Y-74556248D01*
X86398100Y-75303752D01*
X86491873Y-75775180D01*
X86708042Y-76098700D01*
X86011958Y-76098700D01*
X86228127Y-75775180D01*
X86321900Y-75303752D01*
X86321900Y-74556248D01*
X86228127Y-74084820D01*
X85961085Y-73685163D01*
X85561428Y-73418121D01*
X85090000Y-73324348D01*
X84618572Y-73418121D01*
X84218915Y-73685163D01*
X83951873Y-74084820D01*
X83858100Y-74556248D01*
X83858100Y-75303752D01*
X83951873Y-75775180D01*
X84168042Y-76098700D01*
X83471958Y-76098700D01*
X83688127Y-75775180D01*
X83781900Y-75303752D01*
X83781900Y-74556248D01*
X83688127Y-74084820D01*
X83421085Y-73685163D01*
X83021428Y-73418121D01*
X82550000Y-73324348D01*
X82078572Y-73418121D01*
X81678915Y-73685163D01*
X81411873Y-74084820D01*
X81318100Y-74556248D01*
X81318100Y-75303752D01*
X81411873Y-75775180D01*
X81628042Y-76098700D01*
X80931958Y-76098700D01*
X81148127Y-75775180D01*
X81241900Y-75303752D01*
X81241900Y-74556248D01*
X81148127Y-74084820D01*
X80881085Y-73685163D01*
X80481428Y-73418121D01*
X80010000Y-73324348D01*
X79538572Y-73418121D01*
X79138915Y-73685163D01*
X78871873Y-74084820D01*
X78778100Y-74556248D01*
X78778100Y-75303752D01*
X78871873Y-75775180D01*
X79088042Y-76098700D01*
X78391958Y-76098700D01*
X78608127Y-75775180D01*
X78701900Y-75303752D01*
X78701900Y-74556248D01*
X78608127Y-74084820D01*
X78341085Y-73685163D01*
X77941428Y-73418121D01*
X77470000Y-73324348D01*
X76998572Y-73418121D01*
X76598915Y-73685163D01*
X76351414Y-74055575D01*
X76291405Y-73858231D01*
X75908848Y-73392726D01*
X75377270Y-73109053D01*
X75319731Y-73100643D01*
X75082400Y-73211215D01*
X75082400Y-74777600D01*
X75102400Y-74777600D01*
X75102400Y-75082400D01*
X75082400Y-75082400D01*
X75082400Y-75102400D01*
X74777600Y-75102400D01*
X74777600Y-75082400D01*
X74757600Y-75082400D01*
X74757600Y-74777600D01*
X74777600Y-74777600D01*
X74777600Y-73211215D01*
X74540269Y-73100643D01*
X74482730Y-73109053D01*
X73951152Y-73392726D01*
X73679666Y-73723077D01*
X73679666Y-73660000D01*
X73652067Y-73521252D01*
X73573473Y-73403627D01*
X73455848Y-73325033D01*
X73317100Y-73297434D01*
X71462900Y-73297434D01*
X71324152Y-73325033D01*
X71206527Y-73403627D01*
X71127933Y-73521252D01*
X71100334Y-73660000D01*
X71100334Y-76200000D01*
X71127933Y-76338748D01*
X71206527Y-76456373D01*
X71324152Y-76534967D01*
X71462900Y-76562566D01*
X71628000Y-76562566D01*
X71628000Y-76860700D01*
X71686004Y-77152305D01*
X71851185Y-77399515D01*
X72098395Y-77564696D01*
X72390000Y-77622700D01*
X87089070Y-77622700D01*
X96701311Y-87234941D01*
X96739113Y-87326428D01*
X96963988Y-87551696D01*
X97257952Y-87673761D01*
X97576252Y-87674039D01*
X97668797Y-87635800D01*
X98821770Y-87635800D01*
X101635400Y-90449431D01*
X101278067Y-90449119D01*
X100680375Y-90696080D01*
X100222687Y-91152970D01*
X99974683Y-91750230D01*
X99974674Y-91760591D01*
X98491164Y-93244100D01*
X97904629Y-93244100D01*
X97870454Y-93209925D01*
X98155088Y-93074585D01*
X98413149Y-92372775D01*
X98382995Y-91625632D01*
X98155088Y-91075415D01*
X97870452Y-90940074D01*
X96735526Y-92075000D01*
X96749669Y-92089143D01*
X96534143Y-92304669D01*
X96520000Y-92290526D01*
X96505858Y-92304669D01*
X96290332Y-92089143D01*
X96304474Y-92075000D01*
X95169548Y-90940074D01*
X94884912Y-91075415D01*
X94626851Y-91777225D01*
X94657005Y-92524368D01*
X94884912Y-93074585D01*
X95169546Y-93209925D01*
X95135371Y-93244100D01*
X94548835Y-93244100D01*
X93065874Y-91761138D01*
X93065881Y-91753067D01*
X92818920Y-91155375D01*
X92388845Y-90724548D01*
X95385074Y-90724548D01*
X96520000Y-91859474D01*
X97654926Y-90724548D01*
X97519585Y-90439912D01*
X96817775Y-90181851D01*
X96070632Y-90212005D01*
X95520415Y-90439912D01*
X95385074Y-90724548D01*
X92388845Y-90724548D01*
X92362030Y-90697687D01*
X91764770Y-90449683D01*
X91118067Y-90449119D01*
X90520375Y-90696080D01*
X90062687Y-91152970D01*
X89814683Y-91750230D01*
X89814119Y-92396933D01*
X90061080Y-92994625D01*
X90517970Y-93452313D01*
X91115230Y-93700317D01*
X91125590Y-93700326D01*
X93010830Y-95585565D01*
X93010832Y-95585568D01*
X93455811Y-95882893D01*
X93980700Y-95987300D01*
X99059300Y-95987300D01*
X99584189Y-95882893D01*
X100029168Y-95585568D01*
X100029169Y-95585567D01*
X101913861Y-93700874D01*
X101921933Y-93700881D01*
X102519625Y-93453920D01*
X102977313Y-92997030D01*
X103225317Y-92399770D01*
X103225631Y-92039662D01*
X103987200Y-92801231D01*
X103987200Y-93195300D01*
X104045204Y-93486905D01*
X104114756Y-93590996D01*
X104210385Y-93734115D01*
X104720011Y-94243741D01*
X104757813Y-94335228D01*
X104982688Y-94560496D01*
X105276652Y-94682561D01*
X105594952Y-94682839D01*
X105889128Y-94561287D01*
X106114396Y-94336412D01*
X106236461Y-94042448D01*
X106236739Y-93724148D01*
X106200312Y-93635990D01*
X106355230Y-93700317D01*
X107001933Y-93700881D01*
X107599625Y-93453920D01*
X108057313Y-92997030D01*
X108305317Y-92399770D01*
X108305881Y-91753067D01*
X108058920Y-91155375D01*
X107602030Y-90697687D01*
X107004770Y-90449683D01*
X106358067Y-90449119D01*
X105760375Y-90696080D01*
X105302687Y-91152970D01*
X105065474Y-91724243D01*
X99676215Y-86334985D01*
X99429005Y-86169804D01*
X99137400Y-86111800D01*
X97733430Y-86111800D01*
X88069800Y-76448170D01*
X88101428Y-76441879D01*
X88501085Y-76174837D01*
X88521846Y-76143766D01*
X88528090Y-76153110D01*
X94209190Y-81834210D01*
X94373997Y-81944331D01*
X94568400Y-81983000D01*
X118742767Y-81983000D01*
X118869401Y-82109856D01*
X118991517Y-82160563D01*
X104263780Y-96888300D01*
X89987100Y-96888300D01*
X89792697Y-96926969D01*
X89627890Y-97037090D01*
X85865090Y-100799890D01*
X85754969Y-100964697D01*
X85716300Y-101159100D01*
X85716300Y-101705867D01*
X85589444Y-101832501D01*
X85475130Y-102107801D01*
X85474870Y-102405891D01*
X85588704Y-102681390D01*
X85608479Y-102701200D01*
X76267633Y-102701200D01*
X76140999Y-102574344D01*
X75865699Y-102460030D01*
X75567609Y-102459770D01*
X75292110Y-102573604D01*
X75081144Y-102784201D01*
X74966830Y-103059501D01*
X74966570Y-103357591D01*
X75080404Y-103633090D01*
X75291001Y-103844056D01*
X75566301Y-103958370D01*
X75864391Y-103958630D01*
X76139890Y-103844796D01*
X76267710Y-103717200D01*
X117173900Y-103717200D01*
X117368303Y-103678531D01*
X117533110Y-103568410D01*
X119715855Y-101385665D01*
X120068123Y-101315595D01*
X120414218Y-101084342D01*
X120553569Y-100875789D01*
X121001990Y-101324211D01*
X121166797Y-101434331D01*
X121361200Y-101473000D01*
X121952129Y-101473000D01*
X121952129Y-102235000D01*
X121975785Y-102353927D01*
X122043152Y-102454748D01*
X122143973Y-102522115D01*
X122262900Y-102545771D01*
X124117100Y-102545771D01*
X124236027Y-102522115D01*
X124336848Y-102454748D01*
X124404215Y-102353927D01*
X124427871Y-102235000D01*
X124427871Y-102108898D01*
X124751152Y-102502274D01*
X125282730Y-102785947D01*
X125340269Y-102794357D01*
X125577600Y-102683785D01*
X125577600Y-101117400D01*
X125882400Y-101117400D01*
X125882400Y-102683785D01*
X126119731Y-102794357D01*
X126177270Y-102785947D01*
X126708848Y-102502274D01*
X127091405Y-102036769D01*
X127266700Y-101460300D01*
X127266700Y-101117400D01*
X125882400Y-101117400D01*
X125577600Y-101117400D01*
X125557600Y-101117400D01*
X125557600Y-100812600D01*
X125577600Y-100812600D01*
X125577600Y-99246215D01*
X125882400Y-99246215D01*
X125882400Y-100812600D01*
X127266700Y-100812600D01*
X127266700Y-100469700D01*
X127091405Y-99893231D01*
X126708848Y-99427726D01*
X126177270Y-99144053D01*
X126119731Y-99135643D01*
X125882400Y-99246215D01*
X125577600Y-99246215D01*
X125340269Y-99135643D01*
X125282730Y-99144053D01*
X124751152Y-99427726D01*
X124427871Y-99821102D01*
X124427871Y-99695000D01*
X124404215Y-99576073D01*
X124336848Y-99475252D01*
X124236027Y-99407885D01*
X124117100Y-99384229D01*
X122262900Y-99384229D01*
X122143973Y-99407885D01*
X122043152Y-99475252D01*
X121975785Y-99576073D01*
X121952129Y-99695000D01*
X121952129Y-100457000D01*
X121571621Y-100457000D01*
X121085410Y-99970790D01*
X120920603Y-99860669D01*
X120726200Y-99822000D01*
X120578818Y-99822000D01*
X120414218Y-99575658D01*
X120068123Y-99344405D01*
X119659876Y-99263200D01*
X119100124Y-99263200D01*
X118691877Y-99344405D01*
X118345782Y-99575658D01*
X118114529Y-99921753D01*
X118033324Y-100330000D01*
X118114529Y-100738247D01*
X118345782Y-101084342D01*
X118486388Y-101178292D01*
X116963480Y-102701200D01*
X100936078Y-102701200D01*
X101308848Y-102502274D01*
X101691405Y-102036769D01*
X101866700Y-101460300D01*
X101866700Y-101117400D01*
X100482400Y-101117400D01*
X100482400Y-101137400D01*
X100177600Y-101137400D01*
X100177600Y-101117400D01*
X100157600Y-101117400D01*
X100157600Y-100812600D01*
X100177600Y-100812600D01*
X100177600Y-99246215D01*
X100482400Y-99246215D01*
X100482400Y-100812600D01*
X101866700Y-100812600D01*
X101866700Y-100469700D01*
X101824220Y-100330000D01*
X102741529Y-100330000D01*
X102826601Y-100757687D01*
X103068866Y-101120263D01*
X103431442Y-101362528D01*
X103859129Y-101447600D01*
X104420871Y-101447600D01*
X104848558Y-101362528D01*
X105211134Y-101120263D01*
X105453399Y-100757687D01*
X105538471Y-100330000D01*
X107821529Y-100330000D01*
X107906601Y-100757687D01*
X108148866Y-101120263D01*
X108511442Y-101362528D01*
X108939129Y-101447600D01*
X109500871Y-101447600D01*
X109928558Y-101362528D01*
X110291134Y-101120263D01*
X110533399Y-100757687D01*
X110546114Y-100693761D01*
X112723516Y-100693761D01*
X112730546Y-100750299D01*
X112991520Y-101221708D01*
X113413030Y-101557363D01*
X113930904Y-101706163D01*
X114147600Y-101554825D01*
X114147600Y-100482400D01*
X114452400Y-100482400D01*
X114452400Y-101554825D01*
X114669096Y-101706163D01*
X115186970Y-101557363D01*
X115608480Y-101221708D01*
X115869454Y-100750299D01*
X115876484Y-100693761D01*
X115763637Y-100482400D01*
X114452400Y-100482400D01*
X114147600Y-100482400D01*
X112836363Y-100482400D01*
X112723516Y-100693761D01*
X110546114Y-100693761D01*
X110618471Y-100330000D01*
X110546115Y-99966239D01*
X112723516Y-99966239D01*
X112836363Y-100177600D01*
X114147600Y-100177600D01*
X114147600Y-99105175D01*
X114452400Y-99105175D01*
X114452400Y-100177600D01*
X115763637Y-100177600D01*
X115876484Y-99966239D01*
X115869454Y-99909701D01*
X115608480Y-99438292D01*
X115186970Y-99102637D01*
X114669096Y-98953837D01*
X114452400Y-99105175D01*
X114147600Y-99105175D01*
X113930904Y-98953837D01*
X113413030Y-99102637D01*
X112991520Y-99438292D01*
X112730546Y-99909701D01*
X112723516Y-99966239D01*
X110546115Y-99966239D01*
X110533399Y-99902313D01*
X110291134Y-99539737D01*
X109928558Y-99297472D01*
X109500871Y-99212400D01*
X108939129Y-99212400D01*
X108511442Y-99297472D01*
X108148866Y-99539737D01*
X107906601Y-99902313D01*
X107821529Y-100330000D01*
X105538471Y-100330000D01*
X105453399Y-99902313D01*
X105211134Y-99539737D01*
X104848558Y-99297472D01*
X104420871Y-99212400D01*
X103859129Y-99212400D01*
X103431442Y-99297472D01*
X103068866Y-99539737D01*
X102826601Y-99902313D01*
X102741529Y-100330000D01*
X101824220Y-100330000D01*
X101691405Y-99893231D01*
X101308848Y-99427726D01*
X100777270Y-99144053D01*
X100719731Y-99135643D01*
X100482400Y-99246215D01*
X100177600Y-99246215D01*
X99940269Y-99135643D01*
X99882730Y-99144053D01*
X99351152Y-99427726D01*
X99027871Y-99821102D01*
X99027871Y-99695000D01*
X99004215Y-99576073D01*
X98936848Y-99475252D01*
X98836027Y-99407885D01*
X98717100Y-99384229D01*
X96862900Y-99384229D01*
X96743973Y-99407885D01*
X96643152Y-99475252D01*
X96575785Y-99576073D01*
X96552129Y-99695000D01*
X96552129Y-100457000D01*
X96171621Y-100457000D01*
X95685410Y-99970790D01*
X95520603Y-99860669D01*
X95326200Y-99822000D01*
X95178818Y-99822000D01*
X95014218Y-99575658D01*
X94668123Y-99344405D01*
X94259876Y-99263200D01*
X93700124Y-99263200D01*
X93291877Y-99344405D01*
X92945782Y-99575658D01*
X92714529Y-99921753D01*
X92633324Y-100330000D01*
X92714529Y-100738247D01*
X92945782Y-101084342D01*
X93291877Y-101315595D01*
X93700124Y-101396800D01*
X94259876Y-101396800D01*
X94668123Y-101315595D01*
X95014218Y-101084342D01*
X95153569Y-100875789D01*
X95601990Y-101324211D01*
X95766797Y-101434331D01*
X95961200Y-101473000D01*
X96552129Y-101473000D01*
X96552129Y-102235000D01*
X96575785Y-102353927D01*
X96643152Y-102454748D01*
X96743973Y-102522115D01*
X96862900Y-102545771D01*
X98717100Y-102545771D01*
X98836027Y-102522115D01*
X98936848Y-102454748D01*
X99004215Y-102353927D01*
X99027871Y-102235000D01*
X99027871Y-102108898D01*
X99351152Y-102502274D01*
X99723922Y-102701200D01*
X86840422Y-102701200D01*
X86859156Y-102682499D01*
X86973470Y-102407199D01*
X86973730Y-102109109D01*
X86859896Y-101833610D01*
X86732300Y-101705790D01*
X86732300Y-101369520D01*
X87338020Y-100763800D01*
X87591520Y-101221708D01*
X88013030Y-101557363D01*
X88530904Y-101706163D01*
X88747600Y-101554825D01*
X88747600Y-100482400D01*
X89052400Y-100482400D01*
X89052400Y-101554825D01*
X89269096Y-101706163D01*
X89786970Y-101557363D01*
X90208480Y-101221708D01*
X90469454Y-100750299D01*
X90476484Y-100693761D01*
X90363637Y-100482400D01*
X89052400Y-100482400D01*
X88747600Y-100482400D01*
X88727600Y-100482400D01*
X88727600Y-100177600D01*
X88747600Y-100177600D01*
X88747600Y-100157600D01*
X89052400Y-100157600D01*
X89052400Y-100177600D01*
X90363637Y-100177600D01*
X90476484Y-99966239D01*
X90469454Y-99909701D01*
X90208480Y-99438292D01*
X89786970Y-99102637D01*
X89269096Y-98953837D01*
X89052402Y-99105174D01*
X89052402Y-99049418D01*
X90197520Y-97904300D01*
X95567388Y-97904300D01*
X95518930Y-98021001D01*
X95518670Y-98319091D01*
X95632504Y-98594590D01*
X95843101Y-98805556D01*
X96118401Y-98919870D01*
X96416491Y-98920130D01*
X96691990Y-98806296D01*
X96819810Y-98678700D01*
X104662300Y-98678700D01*
X104856703Y-98640031D01*
X105021510Y-98529910D01*
X111154487Y-92396933D01*
X115214119Y-92396933D01*
X115461080Y-92994625D01*
X115917970Y-93452313D01*
X116515230Y-93700317D01*
X116525590Y-93700326D01*
X118410830Y-95585565D01*
X118410832Y-95585568D01*
X118855811Y-95882893D01*
X119380700Y-95987300D01*
X124459300Y-95987300D01*
X124984189Y-95882893D01*
X125104888Y-95802245D01*
X128168400Y-98865826D01*
X128168400Y-100194910D01*
X128141529Y-100330000D01*
X128226601Y-100757687D01*
X128264863Y-100814950D01*
X128272807Y-100854889D01*
X128570132Y-101299868D01*
X129015111Y-101597193D01*
X129540000Y-101701600D01*
X130064889Y-101597193D01*
X130509868Y-101299868D01*
X130807193Y-100854889D01*
X130815137Y-100814950D01*
X130853399Y-100757687D01*
X130938471Y-100330000D01*
X133221529Y-100330000D01*
X133306601Y-100757687D01*
X133548866Y-101120263D01*
X133911442Y-101362528D01*
X134339129Y-101447600D01*
X134900871Y-101447600D01*
X135328558Y-101362528D01*
X135691134Y-101120263D01*
X135933399Y-100757687D01*
X135946114Y-100693761D01*
X138123516Y-100693761D01*
X138130546Y-100750299D01*
X138391520Y-101221708D01*
X138813030Y-101557363D01*
X139330904Y-101706163D01*
X139547600Y-101554825D01*
X139547600Y-100482400D01*
X139852400Y-100482400D01*
X139852400Y-101554825D01*
X140069096Y-101706163D01*
X140586970Y-101557363D01*
X141008480Y-101221708D01*
X141269454Y-100750299D01*
X141276484Y-100693761D01*
X141163637Y-100482400D01*
X139852400Y-100482400D01*
X139547600Y-100482400D01*
X138236363Y-100482400D01*
X138123516Y-100693761D01*
X135946114Y-100693761D01*
X136018471Y-100330000D01*
X135946115Y-99966239D01*
X138123516Y-99966239D01*
X138236363Y-100177600D01*
X139547600Y-100177600D01*
X139547600Y-99105175D01*
X139852400Y-99105175D01*
X139852400Y-100177600D01*
X141163637Y-100177600D01*
X141276484Y-99966239D01*
X141269454Y-99909701D01*
X141008480Y-99438292D01*
X140586970Y-99102637D01*
X140069096Y-98953837D01*
X139852400Y-99105175D01*
X139547600Y-99105175D01*
X139330904Y-98953837D01*
X138813030Y-99102637D01*
X138391520Y-99438292D01*
X138130546Y-99909701D01*
X138123516Y-99966239D01*
X135946115Y-99966239D01*
X135933399Y-99902313D01*
X135691134Y-99539737D01*
X135328558Y-99297472D01*
X134900871Y-99212400D01*
X134339129Y-99212400D01*
X133911442Y-99297472D01*
X133548866Y-99539737D01*
X133306601Y-99902313D01*
X133221529Y-100330000D01*
X130938471Y-100330000D01*
X130911600Y-100194910D01*
X130911600Y-98297721D01*
X130911601Y-98297716D01*
X130911600Y-98297711D01*
X130911600Y-98297700D01*
X130873623Y-98106779D01*
X130807200Y-97772827D01*
X130807195Y-97772819D01*
X130807193Y-97772811D01*
X130642744Y-97526696D01*
X130509879Y-97327844D01*
X130509870Y-97327835D01*
X130509868Y-97327832D01*
X130509865Y-97327830D01*
X127098425Y-93916311D01*
X127313861Y-93700874D01*
X127321933Y-93700881D01*
X127919625Y-93453920D01*
X128377313Y-92997030D01*
X128625317Y-92399770D01*
X128625319Y-92396933D01*
X130454119Y-92396933D01*
X130701080Y-92994625D01*
X131157970Y-93452313D01*
X131755230Y-93700317D01*
X132401933Y-93700881D01*
X132999625Y-93453920D01*
X133457313Y-92997030D01*
X133705317Y-92399770D01*
X133705319Y-92396933D01*
X140614119Y-92396933D01*
X140861080Y-92994625D01*
X141317970Y-93452313D01*
X141915230Y-93700317D01*
X142561933Y-93700881D01*
X143159625Y-93453920D01*
X143617313Y-92997030D01*
X143865317Y-92399770D01*
X143865881Y-91753067D01*
X143618920Y-91155375D01*
X143162030Y-90697687D01*
X142564770Y-90449683D01*
X141918067Y-90449119D01*
X141320375Y-90696080D01*
X140862687Y-91152970D01*
X140614683Y-91750230D01*
X140614119Y-92396933D01*
X133705319Y-92396933D01*
X133705881Y-91753067D01*
X133458920Y-91155375D01*
X133002030Y-90697687D01*
X132404770Y-90449683D01*
X131758067Y-90449119D01*
X131160375Y-90696080D01*
X130702687Y-91152970D01*
X130454683Y-91750230D01*
X130454119Y-92396933D01*
X128625319Y-92396933D01*
X128625881Y-91753067D01*
X128378920Y-91155375D01*
X127922030Y-90697687D01*
X127324770Y-90449683D01*
X126678067Y-90449119D01*
X126080375Y-90696080D01*
X125622687Y-91152970D01*
X125374683Y-91750230D01*
X125374674Y-91760591D01*
X124188832Y-92946432D01*
X123891164Y-93244100D01*
X123304629Y-93244100D01*
X123270454Y-93209925D01*
X123555088Y-93074585D01*
X123813149Y-92372775D01*
X123782995Y-91625632D01*
X123555088Y-91075415D01*
X123270452Y-90940074D01*
X122135526Y-92075000D01*
X122149669Y-92089143D01*
X121934143Y-92304669D01*
X121920000Y-92290526D01*
X121905858Y-92304669D01*
X121690332Y-92089143D01*
X121704474Y-92075000D01*
X120569548Y-90940074D01*
X120284912Y-91075415D01*
X120026851Y-91777225D01*
X120057005Y-92524368D01*
X120284912Y-93074585D01*
X120569546Y-93209925D01*
X120535371Y-93244100D01*
X119948835Y-93244100D01*
X118465874Y-91761138D01*
X118465881Y-91753067D01*
X118218920Y-91155375D01*
X117788845Y-90724548D01*
X120785074Y-90724548D01*
X121920000Y-91859474D01*
X123054926Y-90724548D01*
X122919585Y-90439912D01*
X122217775Y-90181851D01*
X121470632Y-90212005D01*
X120920415Y-90439912D01*
X120785074Y-90724548D01*
X117788845Y-90724548D01*
X117762030Y-90697687D01*
X117164770Y-90449683D01*
X116518067Y-90449119D01*
X115920375Y-90696080D01*
X115462687Y-91152970D01*
X115214683Y-91750230D01*
X115214119Y-92396933D01*
X111154487Y-92396933D01*
X127371910Y-76179510D01*
X127386974Y-76156966D01*
X127398915Y-76174837D01*
X127798572Y-76441879D01*
X128270000Y-76535652D01*
X128741428Y-76441879D01*
X129141085Y-76174837D01*
X129190588Y-76100751D01*
X129218490Y-76142510D01*
X144798700Y-91722720D01*
X144798700Y-95824567D01*
X144671844Y-95951201D01*
X144557530Y-96226501D01*
X144557270Y-96524591D01*
X144671104Y-96800090D01*
X144881701Y-97011056D01*
X145157001Y-97125370D01*
X145455091Y-97125630D01*
X145730590Y-97011796D01*
X145941556Y-96801199D01*
X146055870Y-96525899D01*
X146056130Y-96227809D01*
X145942296Y-95952310D01*
X145814700Y-95824490D01*
X145814700Y-93425452D01*
X146185074Y-93425452D01*
X146320415Y-93710088D01*
X147022225Y-93968149D01*
X147769368Y-93937995D01*
X148319585Y-93710088D01*
X148454926Y-93425452D01*
X147320000Y-92290526D01*
X146185074Y-93425452D01*
X145814700Y-93425452D01*
X145814700Y-93136298D01*
X145969548Y-93209926D01*
X147104474Y-92075000D01*
X147535526Y-92075000D01*
X148670452Y-93209926D01*
X148955088Y-93074585D01*
X149204265Y-92396933D01*
X150774119Y-92396933D01*
X151021080Y-92994625D01*
X151477970Y-93452313D01*
X152075230Y-93700317D01*
X152721933Y-93700881D01*
X153319625Y-93453920D01*
X153777313Y-92997030D01*
X154025317Y-92399770D01*
X154025319Y-92396933D01*
X155854119Y-92396933D01*
X156101080Y-92994625D01*
X156557970Y-93452313D01*
X157155230Y-93700317D01*
X157801933Y-93700881D01*
X158399625Y-93453920D01*
X158857313Y-92997030D01*
X159105317Y-92399770D01*
X159105319Y-92396933D01*
X166014119Y-92396933D01*
X166261080Y-92994625D01*
X166717970Y-93452313D01*
X167315230Y-93700317D01*
X167961933Y-93700881D01*
X168559625Y-93453920D01*
X168588142Y-93425452D01*
X171585074Y-93425452D01*
X171720415Y-93710088D01*
X172422225Y-93968149D01*
X173169368Y-93937995D01*
X173719585Y-93710088D01*
X173854926Y-93425452D01*
X172720000Y-92290526D01*
X171585074Y-93425452D01*
X168588142Y-93425452D01*
X169017313Y-92997030D01*
X169265317Y-92399770D01*
X169265859Y-91777225D01*
X170826851Y-91777225D01*
X170857005Y-92524368D01*
X171084912Y-93074585D01*
X171369548Y-93209926D01*
X172504474Y-92075000D01*
X172935526Y-92075000D01*
X174070452Y-93209926D01*
X174355088Y-93074585D01*
X174604265Y-92396933D01*
X176174119Y-92396933D01*
X176421080Y-92994625D01*
X176877970Y-93452313D01*
X177475230Y-93700317D01*
X178121933Y-93700881D01*
X178719625Y-93453920D01*
X179177313Y-92997030D01*
X179425317Y-92399770D01*
X179425319Y-92396933D01*
X181254119Y-92396933D01*
X181501080Y-92994625D01*
X181957970Y-93452313D01*
X182555230Y-93700317D01*
X183201933Y-93700881D01*
X183799625Y-93453920D01*
X184257313Y-92997030D01*
X184505317Y-92399770D01*
X184505881Y-91753067D01*
X184258920Y-91155375D01*
X183802030Y-90697687D01*
X183204770Y-90449683D01*
X182558067Y-90449119D01*
X181960375Y-90696080D01*
X181502687Y-91152970D01*
X181254683Y-91750230D01*
X181254119Y-92396933D01*
X179425319Y-92396933D01*
X179425881Y-91753067D01*
X179178920Y-91155375D01*
X178722030Y-90697687D01*
X178124770Y-90449683D01*
X177478067Y-90449119D01*
X176880375Y-90696080D01*
X176422687Y-91152970D01*
X176174683Y-91750230D01*
X176174119Y-92396933D01*
X174604265Y-92396933D01*
X174613149Y-92372775D01*
X174582995Y-91625632D01*
X174355088Y-91075415D01*
X174070452Y-90940074D01*
X172935526Y-92075000D01*
X172504474Y-92075000D01*
X171369548Y-90940074D01*
X171084912Y-91075415D01*
X170826851Y-91777225D01*
X169265859Y-91777225D01*
X169265881Y-91753067D01*
X169018920Y-91155375D01*
X168588845Y-90724548D01*
X171585074Y-90724548D01*
X172720000Y-91859474D01*
X173854926Y-90724548D01*
X173719585Y-90439912D01*
X173017775Y-90181851D01*
X172270632Y-90212005D01*
X171720415Y-90439912D01*
X171585074Y-90724548D01*
X168588845Y-90724548D01*
X168562030Y-90697687D01*
X167964770Y-90449683D01*
X167318067Y-90449119D01*
X166720375Y-90696080D01*
X166262687Y-91152970D01*
X166014683Y-91750230D01*
X166014119Y-92396933D01*
X159105319Y-92396933D01*
X159105881Y-91753067D01*
X158858920Y-91155375D01*
X158402030Y-90697687D01*
X157804770Y-90449683D01*
X157158067Y-90449119D01*
X156560375Y-90696080D01*
X156102687Y-91152970D01*
X155854683Y-91750230D01*
X155854119Y-92396933D01*
X154025319Y-92396933D01*
X154025881Y-91753067D01*
X153778920Y-91155375D01*
X153322030Y-90697687D01*
X152724770Y-90449683D01*
X152078067Y-90449119D01*
X151480375Y-90696080D01*
X151022687Y-91152970D01*
X150774683Y-91750230D01*
X150774119Y-92396933D01*
X149204265Y-92396933D01*
X149213149Y-92372775D01*
X149182995Y-91625632D01*
X148955088Y-91075415D01*
X148670452Y-90940074D01*
X147535526Y-92075000D01*
X147104474Y-92075000D01*
X145969548Y-90940074D01*
X145684912Y-91075415D01*
X145658920Y-91146100D01*
X145237368Y-90724548D01*
X146185074Y-90724548D01*
X147320000Y-91859474D01*
X148454926Y-90724548D01*
X148319585Y-90439912D01*
X147617775Y-90181851D01*
X146870632Y-90212005D01*
X146320415Y-90439912D01*
X146185074Y-90724548D01*
X145237368Y-90724548D01*
X131008907Y-76496087D01*
X131281428Y-76441879D01*
X131681085Y-76174837D01*
X131706292Y-76137112D01*
X131720790Y-76158810D01*
X138074690Y-82512711D01*
X138239497Y-82622831D01*
X138433900Y-82661500D01*
X144549767Y-82661500D01*
X144676401Y-82788356D01*
X144951701Y-82902670D01*
X145132307Y-82902828D01*
X147043690Y-84814211D01*
X147208497Y-84924331D01*
X147402900Y-84963000D01*
X149789567Y-84963000D01*
X149916201Y-85089856D01*
X150191501Y-85204170D01*
X150489591Y-85204430D01*
X150765090Y-85090596D01*
X150976056Y-84879999D01*
X151090370Y-84604699D01*
X151090630Y-84306609D01*
X150976796Y-84031110D01*
X150766199Y-83820144D01*
X150490899Y-83705830D01*
X150192809Y-83705570D01*
X149917310Y-83819404D01*
X149789490Y-83947000D01*
X147613321Y-83947000D01*
X145850674Y-82184353D01*
X145850830Y-82005109D01*
X145736996Y-81729610D01*
X145526399Y-81518644D01*
X145251099Y-81404330D01*
X144953009Y-81404070D01*
X144677510Y-81517904D01*
X144549690Y-81645500D01*
X138644321Y-81645500D01*
X133503866Y-76505046D01*
X133821428Y-76441879D01*
X134221085Y-76174837D01*
X134488127Y-75775180D01*
X134574197Y-75342477D01*
X135076840Y-75342477D01*
X135393259Y-76108270D01*
X135978648Y-76694682D01*
X136743888Y-77012437D01*
X137572477Y-77013160D01*
X138338270Y-76696741D01*
X138924682Y-76111352D01*
X139242437Y-75346112D01*
X139243160Y-74517523D01*
X138926741Y-73751730D01*
X138341352Y-73165318D01*
X137576112Y-72847563D01*
X136747523Y-72846840D01*
X135981730Y-73163259D01*
X135395318Y-73748648D01*
X135077563Y-74513888D01*
X135076840Y-75342477D01*
X134574197Y-75342477D01*
X134581900Y-75303752D01*
X134581900Y-74556248D01*
X134488127Y-74084820D01*
X134221085Y-73685163D01*
X133821428Y-73418121D01*
X133350000Y-73324348D01*
X132878572Y-73418121D01*
X132478915Y-73685163D01*
X132448296Y-73730988D01*
X132439210Y-73717390D01*
X131530920Y-72809100D01*
X190080900Y-72809100D01*
X190080900Y-138010900D01*
X70269100Y-138010900D01*
X70269100Y-135516248D01*
X71158100Y-135516248D01*
X71158100Y-136263752D01*
X71251873Y-136735180D01*
X71518915Y-137134837D01*
X71918572Y-137401879D01*
X72390000Y-137495652D01*
X72861428Y-137401879D01*
X73261085Y-137134837D01*
X73528127Y-136735180D01*
X73621900Y-136263752D01*
X73621900Y-135516248D01*
X73621703Y-135515253D01*
X73647300Y-135515253D01*
X73647300Y-136264747D01*
X73744940Y-136755615D01*
X74022994Y-137171753D01*
X74439132Y-137449807D01*
X74930000Y-137547447D01*
X75420868Y-137449807D01*
X75837006Y-137171753D01*
X76115060Y-136755615D01*
X76212700Y-136264747D01*
X76212700Y-135516248D01*
X76238100Y-135516248D01*
X76238100Y-136263752D01*
X76331873Y-136735180D01*
X76598915Y-137134837D01*
X76998572Y-137401879D01*
X77470000Y-137495652D01*
X77941428Y-137401879D01*
X78341085Y-137134837D01*
X78608127Y-136735180D01*
X78701900Y-136263752D01*
X78701900Y-135516248D01*
X78778100Y-135516248D01*
X78778100Y-136263752D01*
X78871873Y-136735180D01*
X79138915Y-137134837D01*
X79538572Y-137401879D01*
X80010000Y-137495652D01*
X80481428Y-137401879D01*
X80881085Y-137134837D01*
X81148127Y-136735180D01*
X81241900Y-136263752D01*
X81241900Y-135516248D01*
X81318100Y-135516248D01*
X81318100Y-136263752D01*
X81411873Y-136735180D01*
X81678915Y-137134837D01*
X82078572Y-137401879D01*
X82550000Y-137495652D01*
X83021428Y-137401879D01*
X83421085Y-137134837D01*
X83688127Y-136735180D01*
X83781900Y-136263752D01*
X83781900Y-135516248D01*
X83858100Y-135516248D01*
X83858100Y-136263752D01*
X83951873Y-136735180D01*
X84218915Y-137134837D01*
X84618572Y-137401879D01*
X85090000Y-137495652D01*
X85561428Y-137401879D01*
X85961085Y-137134837D01*
X86228127Y-136735180D01*
X86321900Y-136263752D01*
X86321900Y-135516248D01*
X86398100Y-135516248D01*
X86398100Y-136263752D01*
X86491873Y-136735180D01*
X86758915Y-137134837D01*
X87158572Y-137401879D01*
X87630000Y-137495652D01*
X88101428Y-137401879D01*
X88501085Y-137134837D01*
X88768127Y-136735180D01*
X88861900Y-136263752D01*
X88861900Y-135516248D01*
X88938100Y-135516248D01*
X88938100Y-136263752D01*
X89031873Y-136735180D01*
X89298915Y-137134837D01*
X89698572Y-137401879D01*
X90170000Y-137495652D01*
X90641428Y-137401879D01*
X91041085Y-137134837D01*
X91308127Y-136735180D01*
X91401900Y-136263752D01*
X91401900Y-135516248D01*
X91478100Y-135516248D01*
X91478100Y-136263752D01*
X91571873Y-136735180D01*
X91838915Y-137134837D01*
X92238572Y-137401879D01*
X92710000Y-137495652D01*
X93181428Y-137401879D01*
X93581085Y-137134837D01*
X93848127Y-136735180D01*
X93941900Y-136263752D01*
X93941900Y-135516248D01*
X94018100Y-135516248D01*
X94018100Y-136263752D01*
X94111873Y-136735180D01*
X94378915Y-137134837D01*
X94778572Y-137401879D01*
X95250000Y-137495652D01*
X95721428Y-137401879D01*
X96121085Y-137134837D01*
X96388127Y-136735180D01*
X96481900Y-136263752D01*
X96481900Y-135516248D01*
X96558100Y-135516248D01*
X96558100Y-136263752D01*
X96651873Y-136735180D01*
X96918915Y-137134837D01*
X97318572Y-137401879D01*
X97790000Y-137495652D01*
X98261428Y-137401879D01*
X98661085Y-137134837D01*
X98928127Y-136735180D01*
X99021900Y-136263752D01*
X99021900Y-135516248D01*
X99098100Y-135516248D01*
X99098100Y-136263752D01*
X99191873Y-136735180D01*
X99458915Y-137134837D01*
X99858572Y-137401879D01*
X100330000Y-137495652D01*
X100801428Y-137401879D01*
X101201085Y-137134837D01*
X101468127Y-136735180D01*
X101561900Y-136263752D01*
X101561900Y-135516248D01*
X101638100Y-135516248D01*
X101638100Y-136263752D01*
X101731873Y-136735180D01*
X101998915Y-137134837D01*
X102398572Y-137401879D01*
X102870000Y-137495652D01*
X103341428Y-137401879D01*
X103741085Y-137134837D01*
X104008127Y-136735180D01*
X104101900Y-136263752D01*
X104101900Y-135516248D01*
X104178100Y-135516248D01*
X104178100Y-136263752D01*
X104271873Y-136735180D01*
X104538915Y-137134837D01*
X104938572Y-137401879D01*
X105410000Y-137495652D01*
X105881428Y-137401879D01*
X106281085Y-137134837D01*
X106548127Y-136735180D01*
X106641900Y-136263752D01*
X106641900Y-135516248D01*
X106718100Y-135516248D01*
X106718100Y-136263752D01*
X106811873Y-136735180D01*
X107078915Y-137134837D01*
X107478572Y-137401879D01*
X107950000Y-137495652D01*
X108421428Y-137401879D01*
X108821085Y-137134837D01*
X109088127Y-136735180D01*
X109181900Y-136263752D01*
X109181900Y-135516248D01*
X109258100Y-135516248D01*
X109258100Y-136263752D01*
X109351873Y-136735180D01*
X109618915Y-137134837D01*
X110018572Y-137401879D01*
X110490000Y-137495652D01*
X110961428Y-137401879D01*
X111361085Y-137134837D01*
X111628127Y-136735180D01*
X111721900Y-136263752D01*
X111721900Y-135516248D01*
X111798100Y-135516248D01*
X111798100Y-136263752D01*
X111891873Y-136735180D01*
X112158915Y-137134837D01*
X112558572Y-137401879D01*
X113030000Y-137495652D01*
X113501428Y-137401879D01*
X113901085Y-137134837D01*
X114168127Y-136735180D01*
X114261900Y-136263752D01*
X114261900Y-135516248D01*
X114338100Y-135516248D01*
X114338100Y-136263752D01*
X114431873Y-136735180D01*
X114698915Y-137134837D01*
X115098572Y-137401879D01*
X115570000Y-137495652D01*
X116041428Y-137401879D01*
X116441085Y-137134837D01*
X116708127Y-136735180D01*
X116801900Y-136263752D01*
X116801900Y-135516248D01*
X116878100Y-135516248D01*
X116878100Y-136263752D01*
X116971873Y-136735180D01*
X117238915Y-137134837D01*
X117638572Y-137401879D01*
X118110000Y-137495652D01*
X118581428Y-137401879D01*
X118981085Y-137134837D01*
X119248127Y-136735180D01*
X119341900Y-136263752D01*
X119341900Y-135516248D01*
X119418100Y-135516248D01*
X119418100Y-136263752D01*
X119511873Y-136735180D01*
X119778915Y-137134837D01*
X120178572Y-137401879D01*
X120650000Y-137495652D01*
X121121428Y-137401879D01*
X121521085Y-137134837D01*
X121788127Y-136735180D01*
X121881900Y-136263752D01*
X121881900Y-135516248D01*
X121958100Y-135516248D01*
X121958100Y-136263752D01*
X122051873Y-136735180D01*
X122318915Y-137134837D01*
X122718572Y-137401879D01*
X123190000Y-137495652D01*
X123661428Y-137401879D01*
X124061085Y-137134837D01*
X124328127Y-136735180D01*
X124421900Y-136263752D01*
X124421900Y-135516248D01*
X124498100Y-135516248D01*
X124498100Y-136263752D01*
X124591873Y-136735180D01*
X124858915Y-137134837D01*
X125258572Y-137401879D01*
X125730000Y-137495652D01*
X126201428Y-137401879D01*
X126601085Y-137134837D01*
X126868127Y-136735180D01*
X126961900Y-136263752D01*
X126961900Y-135516248D01*
X127038100Y-135516248D01*
X127038100Y-136263752D01*
X127131873Y-136735180D01*
X127398915Y-137134837D01*
X127798572Y-137401879D01*
X128270000Y-137495652D01*
X128741428Y-137401879D01*
X129141085Y-137134837D01*
X129408127Y-136735180D01*
X129501900Y-136263752D01*
X129501900Y-135516248D01*
X129578100Y-135516248D01*
X129578100Y-136263752D01*
X129671873Y-136735180D01*
X129938915Y-137134837D01*
X130338572Y-137401879D01*
X130810000Y-137495652D01*
X131281428Y-137401879D01*
X131681085Y-137134837D01*
X131948127Y-136735180D01*
X132041900Y-136263752D01*
X132041900Y-135516248D01*
X132118100Y-135516248D01*
X132118100Y-136263752D01*
X132211873Y-136735180D01*
X132478915Y-137134837D01*
X132878572Y-137401879D01*
X133350000Y-137495652D01*
X133821428Y-137401879D01*
X134221085Y-137134837D01*
X134488127Y-136735180D01*
X134574197Y-136302477D01*
X135076840Y-136302477D01*
X135393259Y-137068270D01*
X135978648Y-137654682D01*
X136743888Y-137972437D01*
X137572477Y-137973160D01*
X138338270Y-137656741D01*
X138924682Y-137071352D01*
X139242437Y-136306112D01*
X139243160Y-135477523D01*
X138926741Y-134711730D01*
X138341352Y-134125318D01*
X137576112Y-133807563D01*
X136747523Y-133806840D01*
X135981730Y-134123259D01*
X135395318Y-134708648D01*
X135077563Y-135473888D01*
X135076840Y-136302477D01*
X134574197Y-136302477D01*
X134581900Y-136263752D01*
X134581900Y-135516248D01*
X134488127Y-135044820D01*
X134221085Y-134645163D01*
X133821428Y-134378121D01*
X133350000Y-134284348D01*
X132878572Y-134378121D01*
X132478915Y-134645163D01*
X132211873Y-135044820D01*
X132118100Y-135516248D01*
X132041900Y-135516248D01*
X131948127Y-135044820D01*
X131681085Y-134645163D01*
X131281428Y-134378121D01*
X130810000Y-134284348D01*
X130338572Y-134378121D01*
X129938915Y-134645163D01*
X129671873Y-135044820D01*
X129578100Y-135516248D01*
X129501900Y-135516248D01*
X129408127Y-135044820D01*
X129141085Y-134645163D01*
X128741428Y-134378121D01*
X128270000Y-134284348D01*
X127798572Y-134378121D01*
X127398915Y-134645163D01*
X127131873Y-135044820D01*
X127038100Y-135516248D01*
X126961900Y-135516248D01*
X126868127Y-135044820D01*
X126601085Y-134645163D01*
X126201428Y-134378121D01*
X125730000Y-134284348D01*
X125258572Y-134378121D01*
X124858915Y-134645163D01*
X124591873Y-135044820D01*
X124498100Y-135516248D01*
X124421900Y-135516248D01*
X124328127Y-135044820D01*
X124061085Y-134645163D01*
X123661428Y-134378121D01*
X123190000Y-134284348D01*
X122718572Y-134378121D01*
X122318915Y-134645163D01*
X122051873Y-135044820D01*
X121958100Y-135516248D01*
X121881900Y-135516248D01*
X121788127Y-135044820D01*
X121521085Y-134645163D01*
X121121428Y-134378121D01*
X120650000Y-134284348D01*
X120178572Y-134378121D01*
X119778915Y-134645163D01*
X119511873Y-135044820D01*
X119418100Y-135516248D01*
X119341900Y-135516248D01*
X119248127Y-135044820D01*
X118981085Y-134645163D01*
X118581428Y-134378121D01*
X118110000Y-134284348D01*
X117638572Y-134378121D01*
X117238915Y-134645163D01*
X116971873Y-135044820D01*
X116878100Y-135516248D01*
X116801900Y-135516248D01*
X116708127Y-135044820D01*
X116441085Y-134645163D01*
X116041428Y-134378121D01*
X115570000Y-134284348D01*
X115098572Y-134378121D01*
X114698915Y-134645163D01*
X114431873Y-135044820D01*
X114338100Y-135516248D01*
X114261900Y-135516248D01*
X114168127Y-135044820D01*
X113901085Y-134645163D01*
X113501428Y-134378121D01*
X113030000Y-134284348D01*
X112558572Y-134378121D01*
X112158915Y-134645163D01*
X111891873Y-135044820D01*
X111798100Y-135516248D01*
X111721900Y-135516248D01*
X111628127Y-135044820D01*
X111361085Y-134645163D01*
X110961428Y-134378121D01*
X110490000Y-134284348D01*
X110018572Y-134378121D01*
X109618915Y-134645163D01*
X109351873Y-135044820D01*
X109258100Y-135516248D01*
X109181900Y-135516248D01*
X109088127Y-135044820D01*
X108821085Y-134645163D01*
X108421428Y-134378121D01*
X107950000Y-134284348D01*
X107478572Y-134378121D01*
X107078915Y-134645163D01*
X106811873Y-135044820D01*
X106718100Y-135516248D01*
X106641900Y-135516248D01*
X106548127Y-135044820D01*
X106281085Y-134645163D01*
X105881428Y-134378121D01*
X105410000Y-134284348D01*
X104938572Y-134378121D01*
X104538915Y-134645163D01*
X104271873Y-135044820D01*
X104178100Y-135516248D01*
X104101900Y-135516248D01*
X104008127Y-135044820D01*
X103741085Y-134645163D01*
X103341428Y-134378121D01*
X102870000Y-134284348D01*
X102398572Y-134378121D01*
X101998915Y-134645163D01*
X101731873Y-135044820D01*
X101638100Y-135516248D01*
X101561900Y-135516248D01*
X101468127Y-135044820D01*
X101201085Y-134645163D01*
X100801428Y-134378121D01*
X100330000Y-134284348D01*
X99858572Y-134378121D01*
X99458915Y-134645163D01*
X99191873Y-135044820D01*
X99098100Y-135516248D01*
X99021900Y-135516248D01*
X98928127Y-135044820D01*
X98661085Y-134645163D01*
X98261428Y-134378121D01*
X97790000Y-134284348D01*
X97318572Y-134378121D01*
X96918915Y-134645163D01*
X96651873Y-135044820D01*
X96558100Y-135516248D01*
X96481900Y-135516248D01*
X96388127Y-135044820D01*
X96121085Y-134645163D01*
X95721428Y-134378121D01*
X95250000Y-134284348D01*
X94778572Y-134378121D01*
X94378915Y-134645163D01*
X94111873Y-135044820D01*
X94018100Y-135516248D01*
X93941900Y-135516248D01*
X93848127Y-135044820D01*
X93581085Y-134645163D01*
X93181428Y-134378121D01*
X92710000Y-134284348D01*
X92238572Y-134378121D01*
X91838915Y-134645163D01*
X91571873Y-135044820D01*
X91478100Y-135516248D01*
X91401900Y-135516248D01*
X91308127Y-135044820D01*
X91041085Y-134645163D01*
X90641428Y-134378121D01*
X90170000Y-134284348D01*
X89698572Y-134378121D01*
X89298915Y-134645163D01*
X89031873Y-135044820D01*
X88938100Y-135516248D01*
X88861900Y-135516248D01*
X88768127Y-135044820D01*
X88501085Y-134645163D01*
X88101428Y-134378121D01*
X87630000Y-134284348D01*
X87158572Y-134378121D01*
X86758915Y-134645163D01*
X86491873Y-135044820D01*
X86398100Y-135516248D01*
X86321900Y-135516248D01*
X86228127Y-135044820D01*
X85961085Y-134645163D01*
X85561428Y-134378121D01*
X85090000Y-134284348D01*
X84618572Y-134378121D01*
X84218915Y-134645163D01*
X83951873Y-135044820D01*
X83858100Y-135516248D01*
X83781900Y-135516248D01*
X83688127Y-135044820D01*
X83421085Y-134645163D01*
X83021428Y-134378121D01*
X82550000Y-134284348D01*
X82078572Y-134378121D01*
X81678915Y-134645163D01*
X81411873Y-135044820D01*
X81318100Y-135516248D01*
X81241900Y-135516248D01*
X81148127Y-135044820D01*
X80881085Y-134645163D01*
X80481428Y-134378121D01*
X80010000Y-134284348D01*
X79538572Y-134378121D01*
X79138915Y-134645163D01*
X78871873Y-135044820D01*
X78778100Y-135516248D01*
X78701900Y-135516248D01*
X78608127Y-135044820D01*
X78341085Y-134645163D01*
X77941428Y-134378121D01*
X77470000Y-134284348D01*
X76998572Y-134378121D01*
X76598915Y-134645163D01*
X76331873Y-135044820D01*
X76238100Y-135516248D01*
X76212700Y-135516248D01*
X76212700Y-135515253D01*
X76115060Y-135024385D01*
X75837006Y-134608247D01*
X75420868Y-134330193D01*
X74930000Y-134232553D01*
X74439132Y-134330193D01*
X74022994Y-134608247D01*
X73744940Y-135024385D01*
X73647300Y-135515253D01*
X73621703Y-135515253D01*
X73528127Y-135044820D01*
X73261085Y-134645163D01*
X72861428Y-134378121D01*
X72390000Y-134284348D01*
X71918572Y-134378121D01*
X71518915Y-134645163D01*
X71251873Y-135044820D01*
X71158100Y-135516248D01*
X70269100Y-135516248D01*
X70269100Y-131222477D01*
X71576840Y-131222477D01*
X71893259Y-131988270D01*
X72478648Y-132574682D01*
X73243888Y-132892437D01*
X74072477Y-132893160D01*
X74838270Y-132576741D01*
X75424682Y-131991352D01*
X75742437Y-131226112D01*
X75743160Y-130397523D01*
X75426741Y-129631730D01*
X74841352Y-129045318D01*
X74076112Y-128727563D01*
X73247523Y-128726840D01*
X72481730Y-129043259D01*
X71895318Y-129628648D01*
X71577563Y-130393888D01*
X71576840Y-131222477D01*
X70269100Y-131222477D01*
X70269100Y-126093761D01*
X87323516Y-126093761D01*
X87330546Y-126150299D01*
X87591520Y-126621708D01*
X88013030Y-126957363D01*
X88530904Y-127106163D01*
X88747600Y-126954825D01*
X88747600Y-125882400D01*
X89052400Y-125882400D01*
X89052400Y-126954825D01*
X89269096Y-127106163D01*
X89786970Y-126957363D01*
X90208480Y-126621708D01*
X90469454Y-126150299D01*
X90476484Y-126093761D01*
X90363637Y-125882400D01*
X89052400Y-125882400D01*
X88747600Y-125882400D01*
X87436363Y-125882400D01*
X87323516Y-126093761D01*
X70269100Y-126093761D01*
X70269100Y-125366239D01*
X87323516Y-125366239D01*
X87436363Y-125577600D01*
X88747600Y-125577600D01*
X88747600Y-124505175D01*
X89052400Y-124505175D01*
X89052400Y-125577600D01*
X90363637Y-125577600D01*
X90476484Y-125366239D01*
X90469454Y-125309701D01*
X90208480Y-124838292D01*
X89786970Y-124502637D01*
X89269096Y-124353837D01*
X89052400Y-124505175D01*
X88747600Y-124505175D01*
X88530904Y-124353837D01*
X88013030Y-124502637D01*
X87591520Y-124838292D01*
X87330546Y-125309701D01*
X87323516Y-125366239D01*
X70269100Y-125366239D01*
X70269100Y-110211991D01*
X74943270Y-110211991D01*
X75057104Y-110487490D01*
X75267701Y-110698456D01*
X75543001Y-110812770D01*
X75841091Y-110813030D01*
X76116590Y-110699196D01*
X76327556Y-110488599D01*
X76384775Y-110350800D01*
X76676490Y-110350800D01*
X76638330Y-110442701D01*
X76638070Y-110740791D01*
X76751904Y-111016290D01*
X76962501Y-111227256D01*
X77237801Y-111341570D01*
X77535891Y-111341830D01*
X77811390Y-111227996D01*
X77939210Y-111100400D01*
X114422967Y-111100400D01*
X114466600Y-111144110D01*
X114466600Y-120651500D01*
X114505269Y-120845903D01*
X114615390Y-121010710D01*
X118486388Y-124881708D01*
X118345782Y-124975658D01*
X118114529Y-125321753D01*
X118033324Y-125730000D01*
X118114529Y-126138247D01*
X118345782Y-126484342D01*
X118691877Y-126715595D01*
X119100124Y-126796800D01*
X119659876Y-126796800D01*
X120068123Y-126715595D01*
X120414218Y-126484342D01*
X120553569Y-126275789D01*
X121001990Y-126724211D01*
X121166797Y-126834331D01*
X121361200Y-126873000D01*
X121952129Y-126873000D01*
X121952129Y-127449600D01*
X101680860Y-127449600D01*
X101691405Y-127436769D01*
X101866700Y-126860300D01*
X101866700Y-126517400D01*
X100482400Y-126517400D01*
X100482400Y-126537400D01*
X100177600Y-126537400D01*
X100177600Y-126517400D01*
X100157600Y-126517400D01*
X100157600Y-126212600D01*
X100177600Y-126212600D01*
X100177600Y-124646215D01*
X100482400Y-124646215D01*
X100482400Y-126212600D01*
X101866700Y-126212600D01*
X101866700Y-125869700D01*
X101691405Y-125293231D01*
X101308848Y-124827726D01*
X100777270Y-124544053D01*
X100719731Y-124535643D01*
X100482400Y-124646215D01*
X100177600Y-124646215D01*
X99940269Y-124535643D01*
X99882730Y-124544053D01*
X99351152Y-124827726D01*
X99027871Y-125221102D01*
X99027871Y-125095000D01*
X99004215Y-124976073D01*
X98936848Y-124875252D01*
X98836027Y-124807885D01*
X98717100Y-124784229D01*
X96862900Y-124784229D01*
X96743973Y-124807885D01*
X96643152Y-124875252D01*
X96575785Y-124976073D01*
X96552129Y-125095000D01*
X96552129Y-125857000D01*
X96171621Y-125857000D01*
X95685410Y-125370790D01*
X95520603Y-125260669D01*
X95326200Y-125222000D01*
X95178818Y-125222000D01*
X95014218Y-124975658D01*
X94668123Y-124744405D01*
X94259876Y-124663200D01*
X93700124Y-124663200D01*
X93291877Y-124744405D01*
X92945782Y-124975658D01*
X92714529Y-125321753D01*
X92682682Y-125481862D01*
X84997753Y-117796933D01*
X89814119Y-117796933D01*
X90061080Y-118394625D01*
X90517970Y-118852313D01*
X91115230Y-119100317D01*
X91125590Y-119100326D01*
X93057830Y-121032565D01*
X93057832Y-121032568D01*
X93502811Y-121329893D01*
X94027700Y-121434300D01*
X99012300Y-121434300D01*
X99537189Y-121329893D01*
X99714237Y-121211594D01*
X102768400Y-124265826D01*
X102768400Y-125594910D01*
X102741529Y-125730000D01*
X102826601Y-126157687D01*
X102864863Y-126214950D01*
X102872807Y-126254889D01*
X103170132Y-126699868D01*
X103615111Y-126997193D01*
X104140000Y-127101600D01*
X104664889Y-126997193D01*
X105109868Y-126699868D01*
X105407193Y-126254889D01*
X105415137Y-126214950D01*
X105453399Y-126157687D01*
X105538471Y-125730000D01*
X105511600Y-125594910D01*
X105511600Y-123697721D01*
X105511601Y-123697716D01*
X105511600Y-123697711D01*
X105511600Y-123697700D01*
X105473623Y-123506779D01*
X105407200Y-123172827D01*
X105407195Y-123172819D01*
X105407193Y-123172811D01*
X105242744Y-122926696D01*
X105109879Y-122727844D01*
X105109870Y-122727835D01*
X105109868Y-122727832D01*
X105109865Y-122727830D01*
X101698425Y-119316311D01*
X101913861Y-119100874D01*
X101921933Y-119100881D01*
X102519625Y-118853920D01*
X102977313Y-118397030D01*
X103225317Y-117799770D01*
X103225319Y-117796933D01*
X105054119Y-117796933D01*
X105301080Y-118394625D01*
X105308400Y-118401958D01*
X105308400Y-121157700D01*
X105412807Y-121682589D01*
X105710132Y-122127568D01*
X107848400Y-124265835D01*
X107848400Y-125594910D01*
X107821529Y-125730000D01*
X107906601Y-126157687D01*
X107944863Y-126214950D01*
X107952807Y-126254889D01*
X108250132Y-126699868D01*
X108695111Y-126997193D01*
X109220000Y-127101600D01*
X109744889Y-126997193D01*
X110189868Y-126699868D01*
X110487193Y-126254889D01*
X110495137Y-126214950D01*
X110533399Y-126157687D01*
X110546114Y-126093761D01*
X112723516Y-126093761D01*
X112730546Y-126150299D01*
X112991520Y-126621708D01*
X113413030Y-126957363D01*
X113930904Y-127106163D01*
X114147600Y-126954825D01*
X114147600Y-125882400D01*
X114452400Y-125882400D01*
X114452400Y-126954825D01*
X114669096Y-127106163D01*
X115186970Y-126957363D01*
X115608480Y-126621708D01*
X115869454Y-126150299D01*
X115876484Y-126093761D01*
X115763637Y-125882400D01*
X114452400Y-125882400D01*
X114147600Y-125882400D01*
X112836363Y-125882400D01*
X112723516Y-126093761D01*
X110546114Y-126093761D01*
X110618471Y-125730000D01*
X110591600Y-125594910D01*
X110591600Y-125366239D01*
X112723516Y-125366239D01*
X112836363Y-125577600D01*
X114147600Y-125577600D01*
X114147600Y-124505175D01*
X114452400Y-124505175D01*
X114452400Y-125577600D01*
X115763637Y-125577600D01*
X115876484Y-125366239D01*
X115869454Y-125309701D01*
X115608480Y-124838292D01*
X115186970Y-124502637D01*
X114669096Y-124353837D01*
X114452400Y-124505175D01*
X114147600Y-124505175D01*
X113930904Y-124353837D01*
X113413030Y-124502637D01*
X112991520Y-124838292D01*
X112730546Y-125309701D01*
X112723516Y-125366239D01*
X110591600Y-125366239D01*
X110591600Y-123697700D01*
X110487193Y-123172811D01*
X110189868Y-122727832D01*
X110189865Y-122727830D01*
X108051600Y-120589564D01*
X108051600Y-118402733D01*
X108057313Y-118397030D01*
X108305317Y-117799770D01*
X108305881Y-117153067D01*
X108058920Y-116555375D01*
X107602030Y-116097687D01*
X107004770Y-115849683D01*
X106358067Y-115849119D01*
X105760375Y-116096080D01*
X105302687Y-116552970D01*
X105054683Y-117150230D01*
X105054119Y-117796933D01*
X103225319Y-117796933D01*
X103225881Y-117153067D01*
X102978920Y-116555375D01*
X102522030Y-116097687D01*
X101924770Y-115849683D01*
X101278067Y-115849119D01*
X100680375Y-116096080D01*
X100222687Y-116552970D01*
X99974683Y-117150230D01*
X99974674Y-117160591D01*
X98788832Y-118346432D01*
X98444164Y-118691100D01*
X97951629Y-118691100D01*
X97870454Y-118609925D01*
X98155088Y-118474585D01*
X98413149Y-117772775D01*
X98382995Y-117025632D01*
X98155088Y-116475415D01*
X97870452Y-116340074D01*
X96735526Y-117475000D01*
X96749669Y-117489143D01*
X96534143Y-117704669D01*
X96520000Y-117690526D01*
X96505858Y-117704669D01*
X96290332Y-117489143D01*
X96304474Y-117475000D01*
X95169548Y-116340074D01*
X94884912Y-116475415D01*
X94626851Y-117177225D01*
X94657005Y-117924368D01*
X94884912Y-118474585D01*
X95169546Y-118609925D01*
X95088371Y-118691100D01*
X94595835Y-118691100D01*
X93065874Y-117161138D01*
X93065881Y-117153067D01*
X92818920Y-116555375D01*
X92388845Y-116124548D01*
X95385074Y-116124548D01*
X96520000Y-117259474D01*
X97654926Y-116124548D01*
X97519585Y-115839912D01*
X96817775Y-115581851D01*
X96070632Y-115612005D01*
X95520415Y-115839912D01*
X95385074Y-116124548D01*
X92388845Y-116124548D01*
X92362030Y-116097687D01*
X91764770Y-115849683D01*
X91118067Y-115849119D01*
X90520375Y-116096080D01*
X90062687Y-116552970D01*
X89814683Y-117150230D01*
X89814119Y-117796933D01*
X84997753Y-117796933D01*
X80136274Y-112935454D01*
X80136430Y-112756209D01*
X80022596Y-112480710D01*
X79811999Y-112269744D01*
X79536699Y-112155430D01*
X79238609Y-112155170D01*
X78963110Y-112269004D01*
X78752144Y-112479601D01*
X78637830Y-112754901D01*
X78637570Y-113052991D01*
X78751404Y-113328490D01*
X78962001Y-113539456D01*
X79237301Y-113653770D01*
X79417908Y-113653928D01*
X94080790Y-128316810D01*
X94245597Y-128426931D01*
X94440000Y-128465600D01*
X169044600Y-128465600D01*
X169239003Y-128426931D01*
X169403810Y-128316810D01*
X170539210Y-127181410D01*
X170649331Y-127016604D01*
X170688000Y-126822200D01*
X170688000Y-126751424D01*
X170868123Y-126715595D01*
X171214218Y-126484342D01*
X171353569Y-126275789D01*
X171801990Y-126724211D01*
X171910628Y-126796800D01*
X171966797Y-126834331D01*
X172161200Y-126873000D01*
X172752129Y-126873000D01*
X172752129Y-127635000D01*
X172775785Y-127753927D01*
X172843152Y-127854748D01*
X172943973Y-127922115D01*
X173062900Y-127945771D01*
X174917100Y-127945771D01*
X175036027Y-127922115D01*
X175136848Y-127854748D01*
X175204215Y-127753927D01*
X175227871Y-127635000D01*
X175227871Y-127508898D01*
X175551152Y-127902274D01*
X176082730Y-128185947D01*
X176140269Y-128194357D01*
X176377600Y-128083785D01*
X176377600Y-126517400D01*
X176682400Y-126517400D01*
X176682400Y-128083785D01*
X176919731Y-128194357D01*
X176977270Y-128185947D01*
X177508848Y-127902274D01*
X177891405Y-127436769D01*
X178066700Y-126860300D01*
X178066700Y-126517400D01*
X176682400Y-126517400D01*
X176377600Y-126517400D01*
X176357600Y-126517400D01*
X176357600Y-126212600D01*
X176377600Y-126212600D01*
X176377600Y-124646215D01*
X176682400Y-124646215D01*
X176682400Y-126212600D01*
X178066700Y-126212600D01*
X178066700Y-125869700D01*
X177891405Y-125293231D01*
X177508848Y-124827726D01*
X176977270Y-124544053D01*
X176919731Y-124535643D01*
X176682400Y-124646215D01*
X176377600Y-124646215D01*
X176140269Y-124535643D01*
X176082730Y-124544053D01*
X175551152Y-124827726D01*
X175227871Y-125221102D01*
X175227871Y-125095000D01*
X175204215Y-124976073D01*
X175136848Y-124875252D01*
X175036027Y-124807885D01*
X174917100Y-124784229D01*
X173062900Y-124784229D01*
X172943973Y-124807885D01*
X172843152Y-124875252D01*
X172775785Y-124976073D01*
X172752129Y-125095000D01*
X172752129Y-125857000D01*
X172371621Y-125857000D01*
X171885410Y-125370790D01*
X171720603Y-125260669D01*
X171526200Y-125222000D01*
X171378818Y-125222000D01*
X171214218Y-124975658D01*
X170868123Y-124744405D01*
X170459876Y-124663200D01*
X169900124Y-124663200D01*
X169491877Y-124744405D01*
X169145782Y-124975658D01*
X168914529Y-125321753D01*
X168833324Y-125730000D01*
X168914529Y-126138247D01*
X169145782Y-126484342D01*
X169491877Y-126715595D01*
X169555525Y-126728255D01*
X168834180Y-127449600D01*
X152480860Y-127449600D01*
X152491405Y-127436769D01*
X152666700Y-126860300D01*
X152666700Y-126517400D01*
X151282400Y-126517400D01*
X151282400Y-126537400D01*
X150977600Y-126537400D01*
X150977600Y-126517400D01*
X150957600Y-126517400D01*
X150957600Y-126212600D01*
X150977600Y-126212600D01*
X150977600Y-124646215D01*
X151282400Y-124646215D01*
X151282400Y-126212600D01*
X152666700Y-126212600D01*
X152666700Y-125869700D01*
X152491405Y-125293231D01*
X152108848Y-124827726D01*
X151577270Y-124544053D01*
X151519731Y-124535643D01*
X151282400Y-124646215D01*
X150977600Y-124646215D01*
X150740269Y-124535643D01*
X150682730Y-124544053D01*
X150151152Y-124827726D01*
X149827871Y-125221102D01*
X149827871Y-125095000D01*
X149804215Y-124976073D01*
X149736848Y-124875252D01*
X149636027Y-124807885D01*
X149517100Y-124784229D01*
X147662900Y-124784229D01*
X147543973Y-124807885D01*
X147443152Y-124875252D01*
X147375785Y-124976073D01*
X147352129Y-125095000D01*
X147352129Y-125857000D01*
X146971621Y-125857000D01*
X146485410Y-125370790D01*
X146320603Y-125260669D01*
X146126200Y-125222000D01*
X145978818Y-125222000D01*
X145814218Y-124975658D01*
X145468123Y-124744405D01*
X145288000Y-124708576D01*
X145288000Y-124637800D01*
X145249331Y-124443397D01*
X145139210Y-124278590D01*
X138657553Y-117796933D01*
X140614119Y-117796933D01*
X140861080Y-118394625D01*
X141317970Y-118852313D01*
X141915230Y-119100317D01*
X141925590Y-119100326D01*
X143812132Y-120986868D01*
X144257111Y-121284193D01*
X144344197Y-121301515D01*
X144782000Y-121388601D01*
X144782005Y-121388600D01*
X149858000Y-121388600D01*
X150382889Y-121284193D01*
X150505147Y-121202503D01*
X153568400Y-124265826D01*
X153568400Y-125594910D01*
X153541529Y-125730000D01*
X153626601Y-126157687D01*
X153664863Y-126214950D01*
X153672807Y-126254889D01*
X153970132Y-126699868D01*
X154415111Y-126997193D01*
X154940000Y-127101600D01*
X155464889Y-126997193D01*
X155909868Y-126699868D01*
X156207193Y-126254889D01*
X156215137Y-126214950D01*
X156253399Y-126157687D01*
X156338471Y-125730000D01*
X158621529Y-125730000D01*
X158706601Y-126157687D01*
X158948866Y-126520263D01*
X159311442Y-126762528D01*
X159739129Y-126847600D01*
X160300871Y-126847600D01*
X160728558Y-126762528D01*
X161091134Y-126520263D01*
X161333399Y-126157687D01*
X161346114Y-126093761D01*
X163523516Y-126093761D01*
X163530546Y-126150299D01*
X163791520Y-126621708D01*
X164213030Y-126957363D01*
X164730904Y-127106163D01*
X164947600Y-126954825D01*
X164947600Y-125882400D01*
X165252400Y-125882400D01*
X165252400Y-126954825D01*
X165469096Y-127106163D01*
X165986970Y-126957363D01*
X166408480Y-126621708D01*
X166669454Y-126150299D01*
X166676484Y-126093761D01*
X166563637Y-125882400D01*
X165252400Y-125882400D01*
X164947600Y-125882400D01*
X163636363Y-125882400D01*
X163523516Y-126093761D01*
X161346114Y-126093761D01*
X161418471Y-125730000D01*
X161346115Y-125366239D01*
X163523516Y-125366239D01*
X163636363Y-125577600D01*
X164947600Y-125577600D01*
X164947600Y-124505175D01*
X165252400Y-124505175D01*
X165252400Y-125577600D01*
X166563637Y-125577600D01*
X166676484Y-125366239D01*
X166669454Y-125309701D01*
X166408480Y-124838292D01*
X165986970Y-124502637D01*
X165469096Y-124353837D01*
X165252400Y-124505175D01*
X164947600Y-124505175D01*
X164730904Y-124353837D01*
X164213030Y-124502637D01*
X163791520Y-124838292D01*
X163530546Y-125309701D01*
X163523516Y-125366239D01*
X161346115Y-125366239D01*
X161333399Y-125302313D01*
X161091134Y-124939737D01*
X160728558Y-124697472D01*
X160300871Y-124612400D01*
X159739129Y-124612400D01*
X159311442Y-124697472D01*
X158948866Y-124939737D01*
X158706601Y-125302313D01*
X158621529Y-125730000D01*
X156338471Y-125730000D01*
X156311600Y-125594910D01*
X156311600Y-123697721D01*
X156311601Y-123697716D01*
X156311600Y-123697711D01*
X156311600Y-123697700D01*
X156273623Y-123506779D01*
X156207200Y-123172827D01*
X156207195Y-123172819D01*
X156207193Y-123172811D01*
X156042744Y-122926696D01*
X155909879Y-122727844D01*
X155909870Y-122727835D01*
X155909868Y-122727832D01*
X155909865Y-122727830D01*
X152498425Y-119316311D01*
X152713861Y-119100874D01*
X152721933Y-119100881D01*
X153319625Y-118853920D01*
X153777313Y-118397030D01*
X154025317Y-117799770D01*
X154025319Y-117796933D01*
X155854119Y-117796933D01*
X156101080Y-118394625D01*
X156557970Y-118852313D01*
X157155230Y-119100317D01*
X157801933Y-119100881D01*
X158399625Y-118853920D01*
X158857313Y-118397030D01*
X159105317Y-117799770D01*
X159105319Y-117796933D01*
X166014119Y-117796933D01*
X166261080Y-118394625D01*
X166717970Y-118852313D01*
X167315230Y-119100317D01*
X167961933Y-119100881D01*
X168559625Y-118853920D01*
X168588142Y-118825452D01*
X171585074Y-118825452D01*
X171720415Y-119110088D01*
X172422225Y-119368149D01*
X173169368Y-119337995D01*
X173719585Y-119110088D01*
X173854926Y-118825452D01*
X172720000Y-117690526D01*
X171585074Y-118825452D01*
X168588142Y-118825452D01*
X169017313Y-118397030D01*
X169265317Y-117799770D01*
X169265326Y-117789410D01*
X170763635Y-116291100D01*
X171320571Y-116291100D01*
X171369546Y-116340075D01*
X171084912Y-116475415D01*
X170826851Y-117177225D01*
X170857005Y-117924368D01*
X171084912Y-118474585D01*
X171369548Y-118609926D01*
X172504474Y-117475000D01*
X172490332Y-117460858D01*
X172705858Y-117245332D01*
X172720000Y-117259474D01*
X172734143Y-117245332D01*
X172949669Y-117460858D01*
X172935526Y-117475000D01*
X174070452Y-118609926D01*
X174355088Y-118474585D01*
X174613149Y-117772775D01*
X174582995Y-117025632D01*
X174355088Y-116475415D01*
X174070454Y-116340075D01*
X174119429Y-116291100D01*
X174676364Y-116291100D01*
X176174126Y-117788861D01*
X176174119Y-117796933D01*
X176421080Y-118394625D01*
X176428400Y-118401958D01*
X176428400Y-121157700D01*
X176532807Y-121682589D01*
X176830132Y-122127568D01*
X178968400Y-124265835D01*
X178968400Y-125594910D01*
X178941529Y-125730000D01*
X179026601Y-126157687D01*
X179064863Y-126214950D01*
X179072807Y-126254889D01*
X179370132Y-126699868D01*
X179815111Y-126997193D01*
X180340000Y-127101600D01*
X180864889Y-126997193D01*
X181309868Y-126699868D01*
X181607193Y-126254889D01*
X181615137Y-126214950D01*
X181653399Y-126157687D01*
X181738471Y-125730000D01*
X184021529Y-125730000D01*
X184106601Y-126157687D01*
X184348866Y-126520263D01*
X184711442Y-126762528D01*
X185139129Y-126847600D01*
X185700871Y-126847600D01*
X186128558Y-126762528D01*
X186491134Y-126520263D01*
X186733399Y-126157687D01*
X186818471Y-125730000D01*
X186733399Y-125302313D01*
X186491134Y-124939737D01*
X186128558Y-124697472D01*
X185700871Y-124612400D01*
X185139129Y-124612400D01*
X184711442Y-124697472D01*
X184348866Y-124939737D01*
X184106601Y-125302313D01*
X184021529Y-125730000D01*
X181738471Y-125730000D01*
X181711600Y-125594910D01*
X181711600Y-123697700D01*
X181607193Y-123172811D01*
X181309868Y-122727832D01*
X181309865Y-122727830D01*
X179171600Y-120589564D01*
X179171600Y-118402733D01*
X179177313Y-118397030D01*
X179425317Y-117799770D01*
X179425319Y-117796933D01*
X181254119Y-117796933D01*
X181501080Y-118394625D01*
X181957970Y-118852313D01*
X182555230Y-119100317D01*
X183201933Y-119100881D01*
X183799625Y-118853920D01*
X184257313Y-118397030D01*
X184505317Y-117799770D01*
X184505881Y-117153067D01*
X184258920Y-116555375D01*
X183802030Y-116097687D01*
X183204770Y-115849683D01*
X182558067Y-115849119D01*
X181960375Y-116096080D01*
X181502687Y-116552970D01*
X181254683Y-117150230D01*
X181254119Y-117796933D01*
X179425319Y-117796933D01*
X179425881Y-117153067D01*
X179178920Y-116555375D01*
X178722030Y-116097687D01*
X178124770Y-115849683D01*
X178114409Y-115849674D01*
X176214368Y-113949632D01*
X175769389Y-113652307D01*
X175244500Y-113547900D01*
X170195505Y-113547900D01*
X170195500Y-113547899D01*
X169670612Y-113652306D01*
X169670610Y-113652307D01*
X169670611Y-113652307D01*
X169225632Y-113949632D01*
X169225630Y-113949635D01*
X167326138Y-115849126D01*
X167318067Y-115849119D01*
X166720375Y-116096080D01*
X166262687Y-116552970D01*
X166014683Y-117150230D01*
X166014119Y-117796933D01*
X159105319Y-117796933D01*
X159105881Y-117153067D01*
X158858920Y-116555375D01*
X158402030Y-116097687D01*
X157804770Y-115849683D01*
X157158067Y-115849119D01*
X156560375Y-116096080D01*
X156102687Y-116552970D01*
X155854683Y-117150230D01*
X155854119Y-117796933D01*
X154025319Y-117796933D01*
X154025881Y-117153067D01*
X153778920Y-116555375D01*
X153322030Y-116097687D01*
X152724770Y-115849683D01*
X152078067Y-115849119D01*
X151480375Y-116096080D01*
X151022687Y-116552970D01*
X150774683Y-117150230D01*
X150774674Y-117160591D01*
X149588832Y-118346432D01*
X149588830Y-118346435D01*
X149289865Y-118645400D01*
X148705929Y-118645400D01*
X148670454Y-118609925D01*
X148955088Y-118474585D01*
X149213149Y-117772775D01*
X149182995Y-117025632D01*
X148955088Y-116475415D01*
X148670452Y-116340074D01*
X147535526Y-117475000D01*
X147549669Y-117489143D01*
X147334143Y-117704669D01*
X147320000Y-117690526D01*
X147305858Y-117704669D01*
X147090332Y-117489143D01*
X147104474Y-117475000D01*
X145969548Y-116340074D01*
X145684912Y-116475415D01*
X145426851Y-117177225D01*
X145457005Y-117924368D01*
X145684912Y-118474585D01*
X145969546Y-118609925D01*
X145934071Y-118645400D01*
X145350136Y-118645400D01*
X143865874Y-117161138D01*
X143865881Y-117153067D01*
X143618920Y-116555375D01*
X143188845Y-116124548D01*
X146185074Y-116124548D01*
X147320000Y-117259474D01*
X148454926Y-116124548D01*
X148319585Y-115839912D01*
X147617775Y-115581851D01*
X146870632Y-115612005D01*
X146320415Y-115839912D01*
X146185074Y-116124548D01*
X143188845Y-116124548D01*
X143162030Y-116097687D01*
X142564770Y-115849683D01*
X141918067Y-115849119D01*
X141320375Y-116096080D01*
X140862687Y-116552970D01*
X140614683Y-117150230D01*
X140614119Y-117796933D01*
X138657553Y-117796933D01*
X130344210Y-109483590D01*
X130179403Y-109373469D01*
X129985000Y-109334800D01*
X75913500Y-109334800D01*
X75898595Y-109337765D01*
X75842399Y-109314430D01*
X75544309Y-109314170D01*
X75268810Y-109428004D01*
X75057844Y-109638601D01*
X74943530Y-109913901D01*
X74943270Y-110211991D01*
X70269100Y-110211991D01*
X70269100Y-105988791D01*
X74961370Y-105988791D01*
X75075204Y-106264290D01*
X75285801Y-106475256D01*
X75561101Y-106589570D01*
X75859191Y-106589830D01*
X76134690Y-106475996D01*
X76262510Y-106348400D01*
X164669600Y-106348400D01*
X164864003Y-106309731D01*
X165028810Y-106199610D01*
X169842986Y-101385435D01*
X169900124Y-101396800D01*
X170459876Y-101396800D01*
X170868123Y-101315595D01*
X171214218Y-101084342D01*
X171353569Y-100875789D01*
X171801990Y-101324211D01*
X171910628Y-101396800D01*
X171966797Y-101434331D01*
X172161200Y-101473000D01*
X172752129Y-101473000D01*
X172752129Y-102235000D01*
X172775785Y-102353927D01*
X172843152Y-102454748D01*
X172943973Y-102522115D01*
X173062900Y-102545771D01*
X174917100Y-102545771D01*
X175036027Y-102522115D01*
X175136848Y-102454748D01*
X175204215Y-102353927D01*
X175227871Y-102235000D01*
X175227871Y-102108898D01*
X175551152Y-102502274D01*
X176082730Y-102785947D01*
X176140269Y-102794357D01*
X176377600Y-102683785D01*
X176377600Y-101117400D01*
X176682400Y-101117400D01*
X176682400Y-102683785D01*
X176919731Y-102794357D01*
X176977270Y-102785947D01*
X177508848Y-102502274D01*
X177891405Y-102036769D01*
X178066700Y-101460300D01*
X178066700Y-101117400D01*
X176682400Y-101117400D01*
X176377600Y-101117400D01*
X176357600Y-101117400D01*
X176357600Y-100812600D01*
X176377600Y-100812600D01*
X176377600Y-99246215D01*
X176682400Y-99246215D01*
X176682400Y-100812600D01*
X178066700Y-100812600D01*
X178066700Y-100469700D01*
X178024220Y-100330000D01*
X178941529Y-100330000D01*
X179026601Y-100757687D01*
X179268866Y-101120263D01*
X179631442Y-101362528D01*
X180059129Y-101447600D01*
X180620871Y-101447600D01*
X181048558Y-101362528D01*
X181411134Y-101120263D01*
X181653399Y-100757687D01*
X181738471Y-100330000D01*
X184021529Y-100330000D01*
X184106601Y-100757687D01*
X184348866Y-101120263D01*
X184711442Y-101362528D01*
X185139129Y-101447600D01*
X185700871Y-101447600D01*
X186128558Y-101362528D01*
X186491134Y-101120263D01*
X186733399Y-100757687D01*
X186818471Y-100330000D01*
X186733399Y-99902313D01*
X186491134Y-99539737D01*
X186128558Y-99297472D01*
X185700871Y-99212400D01*
X185139129Y-99212400D01*
X184711442Y-99297472D01*
X184348866Y-99539737D01*
X184106601Y-99902313D01*
X184021529Y-100330000D01*
X181738471Y-100330000D01*
X181653399Y-99902313D01*
X181411134Y-99539737D01*
X181048558Y-99297472D01*
X180620871Y-99212400D01*
X180059129Y-99212400D01*
X179631442Y-99297472D01*
X179268866Y-99539737D01*
X179026601Y-99902313D01*
X178941529Y-100330000D01*
X178024220Y-100330000D01*
X177891405Y-99893231D01*
X177508848Y-99427726D01*
X176977270Y-99144053D01*
X176919731Y-99135643D01*
X176682400Y-99246215D01*
X176377600Y-99246215D01*
X176140269Y-99135643D01*
X176082730Y-99144053D01*
X175551152Y-99427726D01*
X175227871Y-99821102D01*
X175227871Y-99695000D01*
X175204215Y-99576073D01*
X175136848Y-99475252D01*
X175036027Y-99407885D01*
X174917100Y-99384229D01*
X173062900Y-99384229D01*
X172943973Y-99407885D01*
X172843152Y-99475252D01*
X172775785Y-99576073D01*
X172752129Y-99695000D01*
X172752129Y-100457000D01*
X172371621Y-100457000D01*
X171885410Y-99970790D01*
X171720603Y-99860669D01*
X171526200Y-99822000D01*
X171378818Y-99822000D01*
X171214218Y-99575658D01*
X170868123Y-99344405D01*
X170459876Y-99263200D01*
X169900124Y-99263200D01*
X169491877Y-99344405D01*
X169145782Y-99575658D01*
X168914529Y-99921753D01*
X168833324Y-100330000D01*
X168914529Y-100738247D01*
X168970126Y-100821453D01*
X164459180Y-105332400D01*
X141588220Y-105332400D01*
X144990420Y-101930200D01*
X146875500Y-101930200D01*
X147069903Y-101891531D01*
X147234710Y-101781410D01*
X147352129Y-101663991D01*
X147352129Y-102235000D01*
X147375785Y-102353927D01*
X147443152Y-102454748D01*
X147543973Y-102522115D01*
X147662900Y-102545771D01*
X149517100Y-102545771D01*
X149636027Y-102522115D01*
X149736848Y-102454748D01*
X149804215Y-102353927D01*
X149827871Y-102235000D01*
X149827871Y-102108898D01*
X150151152Y-102502274D01*
X150682730Y-102785947D01*
X150740269Y-102794357D01*
X150977600Y-102683785D01*
X150977600Y-101117400D01*
X151282400Y-101117400D01*
X151282400Y-102683785D01*
X151519731Y-102794357D01*
X151577270Y-102785947D01*
X152108848Y-102502274D01*
X152491405Y-102036769D01*
X152666700Y-101460300D01*
X152666700Y-101117400D01*
X151282400Y-101117400D01*
X150977600Y-101117400D01*
X150957600Y-101117400D01*
X150957600Y-100812600D01*
X150977600Y-100812600D01*
X150977600Y-99246215D01*
X151282400Y-99246215D01*
X151282400Y-100812600D01*
X152666700Y-100812600D01*
X152666700Y-100469700D01*
X152624220Y-100330000D01*
X153541529Y-100330000D01*
X153626601Y-100757687D01*
X153868866Y-101120263D01*
X154231442Y-101362528D01*
X154659129Y-101447600D01*
X155220871Y-101447600D01*
X155648558Y-101362528D01*
X156011134Y-101120263D01*
X156253399Y-100757687D01*
X156338471Y-100330000D01*
X158621529Y-100330000D01*
X158706601Y-100757687D01*
X158948866Y-101120263D01*
X159311442Y-101362528D01*
X159739129Y-101447600D01*
X160300871Y-101447600D01*
X160728558Y-101362528D01*
X161091134Y-101120263D01*
X161333399Y-100757687D01*
X161346114Y-100693761D01*
X163523516Y-100693761D01*
X163530546Y-100750299D01*
X163791520Y-101221708D01*
X164213030Y-101557363D01*
X164730904Y-101706163D01*
X164947600Y-101554825D01*
X164947600Y-100482400D01*
X165252400Y-100482400D01*
X165252400Y-101554825D01*
X165469096Y-101706163D01*
X165986970Y-101557363D01*
X166408480Y-101221708D01*
X166669454Y-100750299D01*
X166676484Y-100693761D01*
X166563637Y-100482400D01*
X165252400Y-100482400D01*
X164947600Y-100482400D01*
X163636363Y-100482400D01*
X163523516Y-100693761D01*
X161346114Y-100693761D01*
X161418471Y-100330000D01*
X161346115Y-99966239D01*
X163523516Y-99966239D01*
X163636363Y-100177600D01*
X164947600Y-100177600D01*
X164947600Y-99105175D01*
X165252400Y-99105175D01*
X165252400Y-100177600D01*
X166563637Y-100177600D01*
X166676484Y-99966239D01*
X166669454Y-99909701D01*
X166408480Y-99438292D01*
X165986970Y-99102637D01*
X165469096Y-98953837D01*
X165252400Y-99105175D01*
X164947600Y-99105175D01*
X164730904Y-98953837D01*
X164213030Y-99102637D01*
X163791520Y-99438292D01*
X163530546Y-99909701D01*
X163523516Y-99966239D01*
X161346115Y-99966239D01*
X161333399Y-99902313D01*
X161091134Y-99539737D01*
X160728558Y-99297472D01*
X160300871Y-99212400D01*
X159739129Y-99212400D01*
X159311442Y-99297472D01*
X158948866Y-99539737D01*
X158706601Y-99902313D01*
X158621529Y-100330000D01*
X156338471Y-100330000D01*
X156253399Y-99902313D01*
X156011134Y-99539737D01*
X155648558Y-99297472D01*
X155220871Y-99212400D01*
X154659129Y-99212400D01*
X154231442Y-99297472D01*
X153868866Y-99539737D01*
X153626601Y-99902313D01*
X153541529Y-100330000D01*
X152624220Y-100330000D01*
X152491405Y-99893231D01*
X152108848Y-99427726D01*
X151577270Y-99144053D01*
X151519731Y-99135643D01*
X151282400Y-99246215D01*
X150977600Y-99246215D01*
X150740269Y-99135643D01*
X150682730Y-99144053D01*
X150151152Y-99427726D01*
X149827871Y-99821102D01*
X149827871Y-99695000D01*
X149804215Y-99576073D01*
X149736848Y-99475252D01*
X149636027Y-99407885D01*
X149517100Y-99384229D01*
X147662900Y-99384229D01*
X147543973Y-99407885D01*
X147443152Y-99475252D01*
X147375785Y-99576073D01*
X147352129Y-99695000D01*
X147352129Y-100457000D01*
X147332700Y-100457000D01*
X147170550Y-100489254D01*
X147138296Y-100495669D01*
X146973489Y-100605790D01*
X146665080Y-100914200D01*
X145927903Y-100914200D01*
X146045471Y-100738247D01*
X146126676Y-100330000D01*
X146045471Y-99921753D01*
X145814218Y-99575658D01*
X145468123Y-99344405D01*
X145059876Y-99263200D01*
X144500124Y-99263200D01*
X144091877Y-99344405D01*
X143745782Y-99575658D01*
X143514529Y-99921753D01*
X143433324Y-100330000D01*
X143514529Y-100738247D01*
X143745782Y-101084342D01*
X144091877Y-101315595D01*
X144155525Y-101328255D01*
X141016480Y-104467300D01*
X76842333Y-104467300D01*
X76715699Y-104340444D01*
X76440399Y-104226130D01*
X76142309Y-104225870D01*
X75866810Y-104339704D01*
X75655844Y-104550301D01*
X75541530Y-104825601D01*
X75541291Y-105099696D01*
X75286910Y-105204804D01*
X75075944Y-105415401D01*
X74961630Y-105690701D01*
X74961370Y-105988791D01*
X70269100Y-105988791D01*
X70269100Y-80422477D01*
X71576840Y-80422477D01*
X71893259Y-81188270D01*
X72478648Y-81774682D01*
X73243888Y-82092437D01*
X74072477Y-82093160D01*
X74838270Y-81776741D01*
X75424682Y-81191352D01*
X75742437Y-80426112D01*
X75743160Y-79597523D01*
X75426741Y-78831730D01*
X74841352Y-78245318D01*
X74076112Y-77927563D01*
X73247523Y-77926840D01*
X72481730Y-78243259D01*
X71895318Y-78828648D01*
X71577563Y-79593888D01*
X71576840Y-80422477D01*
X70269100Y-80422477D01*
X70269100Y-72809100D01*
X99585380Y-72809100D01*
X98688090Y-73706390D01*
X98688090Y-73706390D01*
G37*
X98688090Y-73706390D02*
X98681679Y-73715984D01*
X98661085Y-73685163D01*
X98261428Y-73418121D01*
X97790000Y-73324348D01*
X97318572Y-73418121D01*
X96918915Y-73685163D01*
X96651873Y-74084820D01*
X96558100Y-74556248D01*
X96558100Y-75303752D01*
X96651873Y-75775180D01*
X96918915Y-76174837D01*
X97318572Y-76441879D01*
X97790000Y-76535652D01*
X98261428Y-76441879D01*
X98661085Y-76174837D01*
X98928127Y-75775180D01*
X98995196Y-75438000D01*
X99047300Y-75438000D01*
X99121854Y-75423170D01*
X99191873Y-75775180D01*
X99458915Y-76174837D01*
X99858572Y-76441879D01*
X100330000Y-76535652D01*
X100801428Y-76441879D01*
X101201085Y-76174837D01*
X101468127Y-75775180D01*
X101561900Y-75303752D01*
X101561900Y-74556248D01*
X101638100Y-74556248D01*
X101638100Y-75303752D01*
X101731873Y-75775180D01*
X101998915Y-76174837D01*
X102398572Y-76441879D01*
X102870000Y-76535652D01*
X103341428Y-76441879D01*
X103741085Y-76174837D01*
X104008127Y-75775180D01*
X104101900Y-75303752D01*
X104101900Y-74556248D01*
X104178100Y-74556248D01*
X104178100Y-75303752D01*
X104271873Y-75775180D01*
X104538915Y-76174837D01*
X104938572Y-76441879D01*
X105410000Y-76535652D01*
X105881428Y-76441879D01*
X106281085Y-76174837D01*
X106548127Y-75775180D01*
X106641900Y-75303752D01*
X106641900Y-74556248D01*
X106718100Y-74556248D01*
X106718100Y-75303752D01*
X106811873Y-75775180D01*
X107078915Y-76174837D01*
X107478572Y-76441879D01*
X107950000Y-76535652D01*
X108421428Y-76441879D01*
X108821085Y-76174837D01*
X109088127Y-75775180D01*
X109181900Y-75303752D01*
X109181900Y-74556248D01*
X109258100Y-74556248D01*
X109258100Y-75303752D01*
X109351873Y-75775180D01*
X109618915Y-76174837D01*
X110018572Y-76441879D01*
X110490000Y-76535652D01*
X110961428Y-76441879D01*
X111361085Y-76174837D01*
X111628127Y-75775180D01*
X111721900Y-75303752D01*
X111721900Y-74556248D01*
X111628127Y-74084820D01*
X111361085Y-73685163D01*
X110961428Y-73418121D01*
X110490000Y-73324348D01*
X110018572Y-73418121D01*
X109618915Y-73685163D01*
X109351873Y-74084820D01*
X109258100Y-74556248D01*
X109181900Y-74556248D01*
X109088127Y-74084820D01*
X108821085Y-73685163D01*
X108421428Y-73418121D01*
X107950000Y-73324348D01*
X107478572Y-73418121D01*
X107078915Y-73685163D01*
X106811873Y-74084820D01*
X106718100Y-74556248D01*
X106641900Y-74556248D01*
X106548127Y-74084820D01*
X106281085Y-73685163D01*
X105881428Y-73418121D01*
X105410000Y-73324348D01*
X104938572Y-73418121D01*
X104538915Y-73685163D01*
X104271873Y-74084820D01*
X104178100Y-74556248D01*
X104101900Y-74556248D01*
X104008127Y-74084820D01*
X103741085Y-73685163D01*
X103341428Y-73418121D01*
X102870000Y-73324348D01*
X102398572Y-73418121D01*
X101998915Y-73685163D01*
X101731873Y-74084820D01*
X101638100Y-74556248D01*
X101561900Y-74556248D01*
X101468127Y-74084820D01*
X101201085Y-73685163D01*
X100801428Y-73418121D01*
X100477610Y-73353710D01*
X100536920Y-73294400D01*
X114340580Y-73294400D01*
X113928090Y-73706890D01*
X113921846Y-73716234D01*
X113901085Y-73685163D01*
X113501428Y-73418121D01*
X113030000Y-73324348D01*
X112558572Y-73418121D01*
X112158915Y-73685163D01*
X111891873Y-74084820D01*
X111798100Y-74556248D01*
X111798100Y-75303752D01*
X111891873Y-75775180D01*
X112158915Y-76174837D01*
X112558572Y-76441879D01*
X113030000Y-76535652D01*
X113501428Y-76441879D01*
X113901085Y-76174837D01*
X114168127Y-75775180D01*
X114235196Y-75438000D01*
X114287300Y-75438000D01*
X114361854Y-75423170D01*
X114431873Y-75775180D01*
X114698915Y-76174837D01*
X115098572Y-76441879D01*
X115570000Y-76535652D01*
X116041428Y-76441879D01*
X116441085Y-76174837D01*
X116708127Y-75775180D01*
X116801900Y-75303752D01*
X116801900Y-74556248D01*
X116708127Y-74084820D01*
X116553898Y-73854000D01*
X117126102Y-73854000D01*
X116971873Y-74084820D01*
X116878100Y-74556248D01*
X116878100Y-75303752D01*
X116971873Y-75775180D01*
X117238915Y-76174837D01*
X117638572Y-76441879D01*
X118110000Y-76535652D01*
X118581428Y-76441879D01*
X118981085Y-76174837D01*
X119248127Y-75775180D01*
X119341900Y-75303752D01*
X119341900Y-74556248D01*
X119248127Y-74084820D01*
X119093898Y-73854000D01*
X119666102Y-73854000D01*
X119511873Y-74084820D01*
X119418100Y-74556248D01*
X119418100Y-75303752D01*
X119511873Y-75775180D01*
X119778915Y-76174837D01*
X120178572Y-76441879D01*
X120650000Y-76535652D01*
X121121428Y-76441879D01*
X121521085Y-76174837D01*
X121788127Y-75775180D01*
X121881900Y-75303752D01*
X121881900Y-74556248D01*
X121788127Y-74084820D01*
X121633898Y-73854000D01*
X122206102Y-73854000D01*
X122051873Y-74084820D01*
X121958100Y-74556248D01*
X121958100Y-75303752D01*
X122051873Y-75775180D01*
X122318915Y-76174837D01*
X122718572Y-76441879D01*
X123190000Y-76535652D01*
X123661428Y-76441879D01*
X124061085Y-76174837D01*
X124328127Y-75775180D01*
X124421900Y-75303752D01*
X124421900Y-74556248D01*
X124328127Y-74084820D01*
X124173898Y-73854000D01*
X124746102Y-73854000D01*
X124591873Y-74084820D01*
X124498100Y-74556248D01*
X124498100Y-75303752D01*
X124591873Y-75775180D01*
X124858915Y-76174837D01*
X124929847Y-76222232D01*
X119979986Y-81172094D01*
X119929996Y-81051110D01*
X119719399Y-80840144D01*
X119444099Y-80725830D01*
X119146009Y-80725570D01*
X118870510Y-80839404D01*
X118742690Y-80967000D01*
X94778820Y-80967000D01*
X90318027Y-76506207D01*
X90641428Y-76441879D01*
X91041085Y-76174837D01*
X91308127Y-75775180D01*
X91401900Y-75303752D01*
X91401900Y-74556248D01*
X91478100Y-74556248D01*
X91478100Y-75303752D01*
X91571873Y-75775180D01*
X91838915Y-76174837D01*
X92238572Y-76441879D01*
X92710000Y-76535652D01*
X93181428Y-76441879D01*
X93581085Y-76174837D01*
X93848127Y-75775180D01*
X93941900Y-75303752D01*
X93941900Y-74556248D01*
X94018100Y-74556248D01*
X94018100Y-75303752D01*
X94111873Y-75775180D01*
X94378915Y-76174837D01*
X94778572Y-76441879D01*
X95250000Y-76535652D01*
X95721428Y-76441879D01*
X96121085Y-76174837D01*
X96388127Y-75775180D01*
X96481900Y-75303752D01*
X96481900Y-74556248D01*
X96388127Y-74084820D01*
X96121085Y-73685163D01*
X95721428Y-73418121D01*
X95250000Y-73324348D01*
X94778572Y-73418121D01*
X94378915Y-73685163D01*
X94111873Y-74084820D01*
X94018100Y-74556248D01*
X93941900Y-74556248D01*
X93848127Y-74084820D01*
X93581085Y-73685163D01*
X93181428Y-73418121D01*
X92710000Y-73324348D01*
X92238572Y-73418121D01*
X91838915Y-73685163D01*
X91571873Y-74084820D01*
X91478100Y-74556248D01*
X91401900Y-74556248D01*
X91308127Y-74084820D01*
X91041085Y-73685163D01*
X90641428Y-73418121D01*
X90170000Y-73324348D01*
X89698572Y-73418121D01*
X89298915Y-73685163D01*
X89031873Y-74084820D01*
X88961854Y-74436830D01*
X88887300Y-74422000D01*
X88835196Y-74422000D01*
X88768127Y-74084820D01*
X88501085Y-73685163D01*
X88101428Y-73418121D01*
X87630000Y-73324348D01*
X87158572Y-73418121D01*
X86758915Y-73685163D01*
X86491873Y-74084820D01*
X86398100Y-74556248D01*
X86398100Y-75303752D01*
X86491873Y-75775180D01*
X86708042Y-76098700D01*
X86011958Y-76098700D01*
X86228127Y-75775180D01*
X86321900Y-75303752D01*
X86321900Y-74556248D01*
X86228127Y-74084820D01*
X85961085Y-73685163D01*
X85561428Y-73418121D01*
X85090000Y-73324348D01*
X84618572Y-73418121D01*
X84218915Y-73685163D01*
X83951873Y-74084820D01*
X83858100Y-74556248D01*
X83858100Y-75303752D01*
X83951873Y-75775180D01*
X84168042Y-76098700D01*
X83471958Y-76098700D01*
X83688127Y-75775180D01*
X83781900Y-75303752D01*
X83781900Y-74556248D01*
X83688127Y-74084820D01*
X83421085Y-73685163D01*
X83021428Y-73418121D01*
X82550000Y-73324348D01*
X82078572Y-73418121D01*
X81678915Y-73685163D01*
X81411873Y-74084820D01*
X81318100Y-74556248D01*
X81318100Y-75303752D01*
X81411873Y-75775180D01*
X81628042Y-76098700D01*
X80931958Y-76098700D01*
X81148127Y-75775180D01*
X81241900Y-75303752D01*
X81241900Y-74556248D01*
X81148127Y-74084820D01*
X80881085Y-73685163D01*
X80481428Y-73418121D01*
X80010000Y-73324348D01*
X79538572Y-73418121D01*
X79138915Y-73685163D01*
X78871873Y-74084820D01*
X78778100Y-74556248D01*
X78778100Y-75303752D01*
X78871873Y-75775180D01*
X79088042Y-76098700D01*
X78391958Y-76098700D01*
X78608127Y-75775180D01*
X78701900Y-75303752D01*
X78701900Y-74556248D01*
X78608127Y-74084820D01*
X78341085Y-73685163D01*
X77941428Y-73418121D01*
X77470000Y-73324348D01*
X76998572Y-73418121D01*
X76598915Y-73685163D01*
X76351414Y-74055575D01*
X76291405Y-73858231D01*
X75908848Y-73392726D01*
X75377270Y-73109053D01*
X75319731Y-73100643D01*
X75082400Y-73211215D01*
X75082400Y-74777600D01*
X75102400Y-74777600D01*
X75102400Y-75082400D01*
X75082400Y-75082400D01*
X75082400Y-75102400D01*
X74777600Y-75102400D01*
X74777600Y-75082400D01*
X74757600Y-75082400D01*
X74757600Y-74777600D01*
X74777600Y-74777600D01*
X74777600Y-73211215D01*
X74540269Y-73100643D01*
X74482730Y-73109053D01*
X73951152Y-73392726D01*
X73679666Y-73723077D01*
X73679666Y-73660000D01*
X73652067Y-73521252D01*
X73573473Y-73403627D01*
X73455848Y-73325033D01*
X73317100Y-73297434D01*
X71462900Y-73297434D01*
X71324152Y-73325033D01*
X71206527Y-73403627D01*
X71127933Y-73521252D01*
X71100334Y-73660000D01*
X71100334Y-76200000D01*
X71127933Y-76338748D01*
X71206527Y-76456373D01*
X71324152Y-76534967D01*
X71462900Y-76562566D01*
X71628000Y-76562566D01*
X71628000Y-76860700D01*
X71686004Y-77152305D01*
X71851185Y-77399515D01*
X72098395Y-77564696D01*
X72390000Y-77622700D01*
X87089070Y-77622700D01*
X96701311Y-87234941D01*
X96739113Y-87326428D01*
X96963988Y-87551696D01*
X97257952Y-87673761D01*
X97576252Y-87674039D01*
X97668797Y-87635800D01*
X98821770Y-87635800D01*
X101635400Y-90449431D01*
X101278067Y-90449119D01*
X100680375Y-90696080D01*
X100222687Y-91152970D01*
X99974683Y-91750230D01*
X99974674Y-91760591D01*
X98491164Y-93244100D01*
X97904629Y-93244100D01*
X97870454Y-93209925D01*
X98155088Y-93074585D01*
X98413149Y-92372775D01*
X98382995Y-91625632D01*
X98155088Y-91075415D01*
X97870452Y-90940074D01*
X96735526Y-92075000D01*
X96749669Y-92089143D01*
X96534143Y-92304669D01*
X96520000Y-92290526D01*
X96505858Y-92304669D01*
X96290332Y-92089143D01*
X96304474Y-92075000D01*
X95169548Y-90940074D01*
X94884912Y-91075415D01*
X94626851Y-91777225D01*
X94657005Y-92524368D01*
X94884912Y-93074585D01*
X95169546Y-93209925D01*
X95135371Y-93244100D01*
X94548835Y-93244100D01*
X93065874Y-91761138D01*
X93065881Y-91753067D01*
X92818920Y-91155375D01*
X92388845Y-90724548D01*
X95385074Y-90724548D01*
X96520000Y-91859474D01*
X97654926Y-90724548D01*
X97519585Y-90439912D01*
X96817775Y-90181851D01*
X96070632Y-90212005D01*
X95520415Y-90439912D01*
X95385074Y-90724548D01*
X92388845Y-90724548D01*
X92362030Y-90697687D01*
X91764770Y-90449683D01*
X91118067Y-90449119D01*
X90520375Y-90696080D01*
X90062687Y-91152970D01*
X89814683Y-91750230D01*
X89814119Y-92396933D01*
X90061080Y-92994625D01*
X90517970Y-93452313D01*
X91115230Y-93700317D01*
X91125590Y-93700326D01*
X93010830Y-95585565D01*
X93010832Y-95585568D01*
X93455811Y-95882893D01*
X93980700Y-95987300D01*
X99059300Y-95987300D01*
X99584189Y-95882893D01*
X100029168Y-95585568D01*
X100029169Y-95585567D01*
X101913861Y-93700874D01*
X101921933Y-93700881D01*
X102519625Y-93453920D01*
X102977313Y-92997030D01*
X103225317Y-92399770D01*
X103225631Y-92039662D01*
X103987200Y-92801231D01*
X103987200Y-93195300D01*
X104045204Y-93486905D01*
X104114756Y-93590996D01*
X104210385Y-93734115D01*
X104720011Y-94243741D01*
X104757813Y-94335228D01*
X104982688Y-94560496D01*
X105276652Y-94682561D01*
X105594952Y-94682839D01*
X105889128Y-94561287D01*
X106114396Y-94336412D01*
X106236461Y-94042448D01*
X106236739Y-93724148D01*
X106200312Y-93635990D01*
X106355230Y-93700317D01*
X107001933Y-93700881D01*
X107599625Y-93453920D01*
X108057313Y-92997030D01*
X108305317Y-92399770D01*
X108305881Y-91753067D01*
X108058920Y-91155375D01*
X107602030Y-90697687D01*
X107004770Y-90449683D01*
X106358067Y-90449119D01*
X105760375Y-90696080D01*
X105302687Y-91152970D01*
X105065474Y-91724243D01*
X99676215Y-86334985D01*
X99429005Y-86169804D01*
X99137400Y-86111800D01*
X97733430Y-86111800D01*
X88069800Y-76448170D01*
X88101428Y-76441879D01*
X88501085Y-76174837D01*
X88521846Y-76143766D01*
X88528090Y-76153110D01*
X94209190Y-81834210D01*
X94373997Y-81944331D01*
X94568400Y-81983000D01*
X118742767Y-81983000D01*
X118869401Y-82109856D01*
X118991517Y-82160563D01*
X104263780Y-96888300D01*
X89987100Y-96888300D01*
X89792697Y-96926969D01*
X89627890Y-97037090D01*
X85865090Y-100799890D01*
X85754969Y-100964697D01*
X85716300Y-101159100D01*
X85716300Y-101705867D01*
X85589444Y-101832501D01*
X85475130Y-102107801D01*
X85474870Y-102405891D01*
X85588704Y-102681390D01*
X85608479Y-102701200D01*
X76267633Y-102701200D01*
X76140999Y-102574344D01*
X75865699Y-102460030D01*
X75567609Y-102459770D01*
X75292110Y-102573604D01*
X75081144Y-102784201D01*
X74966830Y-103059501D01*
X74966570Y-103357591D01*
X75080404Y-103633090D01*
X75291001Y-103844056D01*
X75566301Y-103958370D01*
X75864391Y-103958630D01*
X76139890Y-103844796D01*
X76267710Y-103717200D01*
X117173900Y-103717200D01*
X117368303Y-103678531D01*
X117533110Y-103568410D01*
X119715855Y-101385665D01*
X120068123Y-101315595D01*
X120414218Y-101084342D01*
X120553569Y-100875789D01*
X121001990Y-101324211D01*
X121166797Y-101434331D01*
X121361200Y-101473000D01*
X121952129Y-101473000D01*
X121952129Y-102235000D01*
X121975785Y-102353927D01*
X122043152Y-102454748D01*
X122143973Y-102522115D01*
X122262900Y-102545771D01*
X124117100Y-102545771D01*
X124236027Y-102522115D01*
X124336848Y-102454748D01*
X124404215Y-102353927D01*
X124427871Y-102235000D01*
X124427871Y-102108898D01*
X124751152Y-102502274D01*
X125282730Y-102785947D01*
X125340269Y-102794357D01*
X125577600Y-102683785D01*
X125577600Y-101117400D01*
X125882400Y-101117400D01*
X125882400Y-102683785D01*
X126119731Y-102794357D01*
X126177270Y-102785947D01*
X126708848Y-102502274D01*
X127091405Y-102036769D01*
X127266700Y-101460300D01*
X127266700Y-101117400D01*
X125882400Y-101117400D01*
X125577600Y-101117400D01*
X125557600Y-101117400D01*
X125557600Y-100812600D01*
X125577600Y-100812600D01*
X125577600Y-99246215D01*
X125882400Y-99246215D01*
X125882400Y-100812600D01*
X127266700Y-100812600D01*
X127266700Y-100469700D01*
X127091405Y-99893231D01*
X126708848Y-99427726D01*
X126177270Y-99144053D01*
X126119731Y-99135643D01*
X125882400Y-99246215D01*
X125577600Y-99246215D01*
X125340269Y-99135643D01*
X125282730Y-99144053D01*
X124751152Y-99427726D01*
X124427871Y-99821102D01*
X124427871Y-99695000D01*
X124404215Y-99576073D01*
X124336848Y-99475252D01*
X124236027Y-99407885D01*
X124117100Y-99384229D01*
X122262900Y-99384229D01*
X122143973Y-99407885D01*
X122043152Y-99475252D01*
X121975785Y-99576073D01*
X121952129Y-99695000D01*
X121952129Y-100457000D01*
X121571621Y-100457000D01*
X121085410Y-99970790D01*
X120920603Y-99860669D01*
X120726200Y-99822000D01*
X120578818Y-99822000D01*
X120414218Y-99575658D01*
X120068123Y-99344405D01*
X119659876Y-99263200D01*
X119100124Y-99263200D01*
X118691877Y-99344405D01*
X118345782Y-99575658D01*
X118114529Y-99921753D01*
X118033324Y-100330000D01*
X118114529Y-100738247D01*
X118345782Y-101084342D01*
X118486388Y-101178292D01*
X116963480Y-102701200D01*
X100936078Y-102701200D01*
X101308848Y-102502274D01*
X101691405Y-102036769D01*
X101866700Y-101460300D01*
X101866700Y-101117400D01*
X100482400Y-101117400D01*
X100482400Y-101137400D01*
X100177600Y-101137400D01*
X100177600Y-101117400D01*
X100157600Y-101117400D01*
X100157600Y-100812600D01*
X100177600Y-100812600D01*
X100177600Y-99246215D01*
X100482400Y-99246215D01*
X100482400Y-100812600D01*
X101866700Y-100812600D01*
X101866700Y-100469700D01*
X101824220Y-100330000D01*
X102741529Y-100330000D01*
X102826601Y-100757687D01*
X103068866Y-101120263D01*
X103431442Y-101362528D01*
X103859129Y-101447600D01*
X104420871Y-101447600D01*
X104848558Y-101362528D01*
X105211134Y-101120263D01*
X105453399Y-100757687D01*
X105538471Y-100330000D01*
X107821529Y-100330000D01*
X107906601Y-100757687D01*
X108148866Y-101120263D01*
X108511442Y-101362528D01*
X108939129Y-101447600D01*
X109500871Y-101447600D01*
X109928558Y-101362528D01*
X110291134Y-101120263D01*
X110533399Y-100757687D01*
X110546114Y-100693761D01*
X112723516Y-100693761D01*
X112730546Y-100750299D01*
X112991520Y-101221708D01*
X113413030Y-101557363D01*
X113930904Y-101706163D01*
X114147600Y-101554825D01*
X114147600Y-100482400D01*
X114452400Y-100482400D01*
X114452400Y-101554825D01*
X114669096Y-101706163D01*
X115186970Y-101557363D01*
X115608480Y-101221708D01*
X115869454Y-100750299D01*
X115876484Y-100693761D01*
X115763637Y-100482400D01*
X114452400Y-100482400D01*
X114147600Y-100482400D01*
X112836363Y-100482400D01*
X112723516Y-100693761D01*
X110546114Y-100693761D01*
X110618471Y-100330000D01*
X110546115Y-99966239D01*
X112723516Y-99966239D01*
X112836363Y-100177600D01*
X114147600Y-100177600D01*
X114147600Y-99105175D01*
X114452400Y-99105175D01*
X114452400Y-100177600D01*
X115763637Y-100177600D01*
X115876484Y-99966239D01*
X115869454Y-99909701D01*
X115608480Y-99438292D01*
X115186970Y-99102637D01*
X114669096Y-98953837D01*
X114452400Y-99105175D01*
X114147600Y-99105175D01*
X113930904Y-98953837D01*
X113413030Y-99102637D01*
X112991520Y-99438292D01*
X112730546Y-99909701D01*
X112723516Y-99966239D01*
X110546115Y-99966239D01*
X110533399Y-99902313D01*
X110291134Y-99539737D01*
X109928558Y-99297472D01*
X109500871Y-99212400D01*
X108939129Y-99212400D01*
X108511442Y-99297472D01*
X108148866Y-99539737D01*
X107906601Y-99902313D01*
X107821529Y-100330000D01*
X105538471Y-100330000D01*
X105453399Y-99902313D01*
X105211134Y-99539737D01*
X104848558Y-99297472D01*
X104420871Y-99212400D01*
X103859129Y-99212400D01*
X103431442Y-99297472D01*
X103068866Y-99539737D01*
X102826601Y-99902313D01*
X102741529Y-100330000D01*
X101824220Y-100330000D01*
X101691405Y-99893231D01*
X101308848Y-99427726D01*
X100777270Y-99144053D01*
X100719731Y-99135643D01*
X100482400Y-99246215D01*
X100177600Y-99246215D01*
X99940269Y-99135643D01*
X99882730Y-99144053D01*
X99351152Y-99427726D01*
X99027871Y-99821102D01*
X99027871Y-99695000D01*
X99004215Y-99576073D01*
X98936848Y-99475252D01*
X98836027Y-99407885D01*
X98717100Y-99384229D01*
X96862900Y-99384229D01*
X96743973Y-99407885D01*
X96643152Y-99475252D01*
X96575785Y-99576073D01*
X96552129Y-99695000D01*
X96552129Y-100457000D01*
X96171621Y-100457000D01*
X95685410Y-99970790D01*
X95520603Y-99860669D01*
X95326200Y-99822000D01*
X95178818Y-99822000D01*
X95014218Y-99575658D01*
X94668123Y-99344405D01*
X94259876Y-99263200D01*
X93700124Y-99263200D01*
X93291877Y-99344405D01*
X92945782Y-99575658D01*
X92714529Y-99921753D01*
X92633324Y-100330000D01*
X92714529Y-100738247D01*
X92945782Y-101084342D01*
X93291877Y-101315595D01*
X93700124Y-101396800D01*
X94259876Y-101396800D01*
X94668123Y-101315595D01*
X95014218Y-101084342D01*
X95153569Y-100875789D01*
X95601990Y-101324211D01*
X95766797Y-101434331D01*
X95961200Y-101473000D01*
X96552129Y-101473000D01*
X96552129Y-102235000D01*
X96575785Y-102353927D01*
X96643152Y-102454748D01*
X96743973Y-102522115D01*
X96862900Y-102545771D01*
X98717100Y-102545771D01*
X98836027Y-102522115D01*
X98936848Y-102454748D01*
X99004215Y-102353927D01*
X99027871Y-102235000D01*
X99027871Y-102108898D01*
X99351152Y-102502274D01*
X99723922Y-102701200D01*
X86840422Y-102701200D01*
X86859156Y-102682499D01*
X86973470Y-102407199D01*
X86973730Y-102109109D01*
X86859896Y-101833610D01*
X86732300Y-101705790D01*
X86732300Y-101369520D01*
X87338020Y-100763800D01*
X87591520Y-101221708D01*
X88013030Y-101557363D01*
X88530904Y-101706163D01*
X88747600Y-101554825D01*
X88747600Y-100482400D01*
X89052400Y-100482400D01*
X89052400Y-101554825D01*
X89269096Y-101706163D01*
X89786970Y-101557363D01*
X90208480Y-101221708D01*
X90469454Y-100750299D01*
X90476484Y-100693761D01*
X90363637Y-100482400D01*
X89052400Y-100482400D01*
X88747600Y-100482400D01*
X88727600Y-100482400D01*
X88727600Y-100177600D01*
X88747600Y-100177600D01*
X88747600Y-100157600D01*
X89052400Y-100157600D01*
X89052400Y-100177600D01*
X90363637Y-100177600D01*
X90476484Y-99966239D01*
X90469454Y-99909701D01*
X90208480Y-99438292D01*
X89786970Y-99102637D01*
X89269096Y-98953837D01*
X89052402Y-99105174D01*
X89052402Y-99049418D01*
X90197520Y-97904300D01*
X95567388Y-97904300D01*
X95518930Y-98021001D01*
X95518670Y-98319091D01*
X95632504Y-98594590D01*
X95843101Y-98805556D01*
X96118401Y-98919870D01*
X96416491Y-98920130D01*
X96691990Y-98806296D01*
X96819810Y-98678700D01*
X104662300Y-98678700D01*
X104856703Y-98640031D01*
X105021510Y-98529910D01*
X111154487Y-92396933D01*
X115214119Y-92396933D01*
X115461080Y-92994625D01*
X115917970Y-93452313D01*
X116515230Y-93700317D01*
X116525590Y-93700326D01*
X118410830Y-95585565D01*
X118410832Y-95585568D01*
X118855811Y-95882893D01*
X119380700Y-95987300D01*
X124459300Y-95987300D01*
X124984189Y-95882893D01*
X125104888Y-95802245D01*
X128168400Y-98865826D01*
X128168400Y-100194910D01*
X128141529Y-100330000D01*
X128226601Y-100757687D01*
X128264863Y-100814950D01*
X128272807Y-100854889D01*
X128570132Y-101299868D01*
X129015111Y-101597193D01*
X129540000Y-101701600D01*
X130064889Y-101597193D01*
X130509868Y-101299868D01*
X130807193Y-100854889D01*
X130815137Y-100814950D01*
X130853399Y-100757687D01*
X130938471Y-100330000D01*
X133221529Y-100330000D01*
X133306601Y-100757687D01*
X133548866Y-101120263D01*
X133911442Y-101362528D01*
X134339129Y-101447600D01*
X134900871Y-101447600D01*
X135328558Y-101362528D01*
X135691134Y-101120263D01*
X135933399Y-100757687D01*
X135946114Y-100693761D01*
X138123516Y-100693761D01*
X138130546Y-100750299D01*
X138391520Y-101221708D01*
X138813030Y-101557363D01*
X139330904Y-101706163D01*
X139547600Y-101554825D01*
X139547600Y-100482400D01*
X139852400Y-100482400D01*
X139852400Y-101554825D01*
X140069096Y-101706163D01*
X140586970Y-101557363D01*
X141008480Y-101221708D01*
X141269454Y-100750299D01*
X141276484Y-100693761D01*
X141163637Y-100482400D01*
X139852400Y-100482400D01*
X139547600Y-100482400D01*
X138236363Y-100482400D01*
X138123516Y-100693761D01*
X135946114Y-100693761D01*
X136018471Y-100330000D01*
X135946115Y-99966239D01*
X138123516Y-99966239D01*
X138236363Y-100177600D01*
X139547600Y-100177600D01*
X139547600Y-99105175D01*
X139852400Y-99105175D01*
X139852400Y-100177600D01*
X141163637Y-100177600D01*
X141276484Y-99966239D01*
X141269454Y-99909701D01*
X141008480Y-99438292D01*
X140586970Y-99102637D01*
X140069096Y-98953837D01*
X139852400Y-99105175D01*
X139547600Y-99105175D01*
X139330904Y-98953837D01*
X138813030Y-99102637D01*
X138391520Y-99438292D01*
X138130546Y-99909701D01*
X138123516Y-99966239D01*
X135946115Y-99966239D01*
X135933399Y-99902313D01*
X135691134Y-99539737D01*
X135328558Y-99297472D01*
X134900871Y-99212400D01*
X134339129Y-99212400D01*
X133911442Y-99297472D01*
X133548866Y-99539737D01*
X133306601Y-99902313D01*
X133221529Y-100330000D01*
X130938471Y-100330000D01*
X130911600Y-100194910D01*
X130911600Y-98297721D01*
X130911601Y-98297716D01*
X130911600Y-98297711D01*
X130911600Y-98297700D01*
X130873623Y-98106779D01*
X130807200Y-97772827D01*
X130807195Y-97772819D01*
X130807193Y-97772811D01*
X130642744Y-97526696D01*
X130509879Y-97327844D01*
X130509870Y-97327835D01*
X130509868Y-97327832D01*
X130509865Y-97327830D01*
X127098425Y-93916311D01*
X127313861Y-93700874D01*
X127321933Y-93700881D01*
X127919625Y-93453920D01*
X128377313Y-92997030D01*
X128625317Y-92399770D01*
X128625319Y-92396933D01*
X130454119Y-92396933D01*
X130701080Y-92994625D01*
X131157970Y-93452313D01*
X131755230Y-93700317D01*
X132401933Y-93700881D01*
X132999625Y-93453920D01*
X133457313Y-92997030D01*
X133705317Y-92399770D01*
X133705319Y-92396933D01*
X140614119Y-92396933D01*
X140861080Y-92994625D01*
X141317970Y-93452313D01*
X141915230Y-93700317D01*
X142561933Y-93700881D01*
X143159625Y-93453920D01*
X143617313Y-92997030D01*
X143865317Y-92399770D01*
X143865881Y-91753067D01*
X143618920Y-91155375D01*
X143162030Y-90697687D01*
X142564770Y-90449683D01*
X141918067Y-90449119D01*
X141320375Y-90696080D01*
X140862687Y-91152970D01*
X140614683Y-91750230D01*
X140614119Y-92396933D01*
X133705319Y-92396933D01*
X133705881Y-91753067D01*
X133458920Y-91155375D01*
X133002030Y-90697687D01*
X132404770Y-90449683D01*
X131758067Y-90449119D01*
X131160375Y-90696080D01*
X130702687Y-91152970D01*
X130454683Y-91750230D01*
X130454119Y-92396933D01*
X128625319Y-92396933D01*
X128625881Y-91753067D01*
X128378920Y-91155375D01*
X127922030Y-90697687D01*
X127324770Y-90449683D01*
X126678067Y-90449119D01*
X126080375Y-90696080D01*
X125622687Y-91152970D01*
X125374683Y-91750230D01*
X125374674Y-91760591D01*
X124188832Y-92946432D01*
X123891164Y-93244100D01*
X123304629Y-93244100D01*
X123270454Y-93209925D01*
X123555088Y-93074585D01*
X123813149Y-92372775D01*
X123782995Y-91625632D01*
X123555088Y-91075415D01*
X123270452Y-90940074D01*
X122135526Y-92075000D01*
X122149669Y-92089143D01*
X121934143Y-92304669D01*
X121920000Y-92290526D01*
X121905858Y-92304669D01*
X121690332Y-92089143D01*
X121704474Y-92075000D01*
X120569548Y-90940074D01*
X120284912Y-91075415D01*
X120026851Y-91777225D01*
X120057005Y-92524368D01*
X120284912Y-93074585D01*
X120569546Y-93209925D01*
X120535371Y-93244100D01*
X119948835Y-93244100D01*
X118465874Y-91761138D01*
X118465881Y-91753067D01*
X118218920Y-91155375D01*
X117788845Y-90724548D01*
X120785074Y-90724548D01*
X121920000Y-91859474D01*
X123054926Y-90724548D01*
X122919585Y-90439912D01*
X122217775Y-90181851D01*
X121470632Y-90212005D01*
X120920415Y-90439912D01*
X120785074Y-90724548D01*
X117788845Y-90724548D01*
X117762030Y-90697687D01*
X117164770Y-90449683D01*
X116518067Y-90449119D01*
X115920375Y-90696080D01*
X115462687Y-91152970D01*
X115214683Y-91750230D01*
X115214119Y-92396933D01*
X111154487Y-92396933D01*
X127371910Y-76179510D01*
X127386974Y-76156966D01*
X127398915Y-76174837D01*
X127798572Y-76441879D01*
X128270000Y-76535652D01*
X128741428Y-76441879D01*
X129141085Y-76174837D01*
X129190588Y-76100751D01*
X129218490Y-76142510D01*
X144798700Y-91722720D01*
X144798700Y-95824567D01*
X144671844Y-95951201D01*
X144557530Y-96226501D01*
X144557270Y-96524591D01*
X144671104Y-96800090D01*
X144881701Y-97011056D01*
X145157001Y-97125370D01*
X145455091Y-97125630D01*
X145730590Y-97011796D01*
X145941556Y-96801199D01*
X146055870Y-96525899D01*
X146056130Y-96227809D01*
X145942296Y-95952310D01*
X145814700Y-95824490D01*
X145814700Y-93425452D01*
X146185074Y-93425452D01*
X146320415Y-93710088D01*
X147022225Y-93968149D01*
X147769368Y-93937995D01*
X148319585Y-93710088D01*
X148454926Y-93425452D01*
X147320000Y-92290526D01*
X146185074Y-93425452D01*
X145814700Y-93425452D01*
X145814700Y-93136298D01*
X145969548Y-93209926D01*
X147104474Y-92075000D01*
X147535526Y-92075000D01*
X148670452Y-93209926D01*
X148955088Y-93074585D01*
X149204265Y-92396933D01*
X150774119Y-92396933D01*
X151021080Y-92994625D01*
X151477970Y-93452313D01*
X152075230Y-93700317D01*
X152721933Y-93700881D01*
X153319625Y-93453920D01*
X153777313Y-92997030D01*
X154025317Y-92399770D01*
X154025319Y-92396933D01*
X155854119Y-92396933D01*
X156101080Y-92994625D01*
X156557970Y-93452313D01*
X157155230Y-93700317D01*
X157801933Y-93700881D01*
X158399625Y-93453920D01*
X158857313Y-92997030D01*
X159105317Y-92399770D01*
X159105319Y-92396933D01*
X166014119Y-92396933D01*
X166261080Y-92994625D01*
X166717970Y-93452313D01*
X167315230Y-93700317D01*
X167961933Y-93700881D01*
X168559625Y-93453920D01*
X168588142Y-93425452D01*
X171585074Y-93425452D01*
X171720415Y-93710088D01*
X172422225Y-93968149D01*
X173169368Y-93937995D01*
X173719585Y-93710088D01*
X173854926Y-93425452D01*
X172720000Y-92290526D01*
X171585074Y-93425452D01*
X168588142Y-93425452D01*
X169017313Y-92997030D01*
X169265317Y-92399770D01*
X169265859Y-91777225D01*
X170826851Y-91777225D01*
X170857005Y-92524368D01*
X171084912Y-93074585D01*
X171369548Y-93209926D01*
X172504474Y-92075000D01*
X172935526Y-92075000D01*
X174070452Y-93209926D01*
X174355088Y-93074585D01*
X174604265Y-92396933D01*
X176174119Y-92396933D01*
X176421080Y-92994625D01*
X176877970Y-93452313D01*
X177475230Y-93700317D01*
X178121933Y-93700881D01*
X178719625Y-93453920D01*
X179177313Y-92997030D01*
X179425317Y-92399770D01*
X179425319Y-92396933D01*
X181254119Y-92396933D01*
X181501080Y-92994625D01*
X181957970Y-93452313D01*
X182555230Y-93700317D01*
X183201933Y-93700881D01*
X183799625Y-93453920D01*
X184257313Y-92997030D01*
X184505317Y-92399770D01*
X184505881Y-91753067D01*
X184258920Y-91155375D01*
X183802030Y-90697687D01*
X183204770Y-90449683D01*
X182558067Y-90449119D01*
X181960375Y-90696080D01*
X181502687Y-91152970D01*
X181254683Y-91750230D01*
X181254119Y-92396933D01*
X179425319Y-92396933D01*
X179425881Y-91753067D01*
X179178920Y-91155375D01*
X178722030Y-90697687D01*
X178124770Y-90449683D01*
X177478067Y-90449119D01*
X176880375Y-90696080D01*
X176422687Y-91152970D01*
X176174683Y-91750230D01*
X176174119Y-92396933D01*
X174604265Y-92396933D01*
X174613149Y-92372775D01*
X174582995Y-91625632D01*
X174355088Y-91075415D01*
X174070452Y-90940074D01*
X172935526Y-92075000D01*
X172504474Y-92075000D01*
X171369548Y-90940074D01*
X171084912Y-91075415D01*
X170826851Y-91777225D01*
X169265859Y-91777225D01*
X169265881Y-91753067D01*
X169018920Y-91155375D01*
X168588845Y-90724548D01*
X171585074Y-90724548D01*
X172720000Y-91859474D01*
X173854926Y-90724548D01*
X173719585Y-90439912D01*
X173017775Y-90181851D01*
X172270632Y-90212005D01*
X171720415Y-90439912D01*
X171585074Y-90724548D01*
X168588845Y-90724548D01*
X168562030Y-90697687D01*
X167964770Y-90449683D01*
X167318067Y-90449119D01*
X166720375Y-90696080D01*
X166262687Y-91152970D01*
X166014683Y-91750230D01*
X166014119Y-92396933D01*
X159105319Y-92396933D01*
X159105881Y-91753067D01*
X158858920Y-91155375D01*
X158402030Y-90697687D01*
X157804770Y-90449683D01*
X157158067Y-90449119D01*
X156560375Y-90696080D01*
X156102687Y-91152970D01*
X155854683Y-91750230D01*
X155854119Y-92396933D01*
X154025319Y-92396933D01*
X154025881Y-91753067D01*
X153778920Y-91155375D01*
X153322030Y-90697687D01*
X152724770Y-90449683D01*
X152078067Y-90449119D01*
X151480375Y-90696080D01*
X151022687Y-91152970D01*
X150774683Y-91750230D01*
X150774119Y-92396933D01*
X149204265Y-92396933D01*
X149213149Y-92372775D01*
X149182995Y-91625632D01*
X148955088Y-91075415D01*
X148670452Y-90940074D01*
X147535526Y-92075000D01*
X147104474Y-92075000D01*
X145969548Y-90940074D01*
X145684912Y-91075415D01*
X145658920Y-91146100D01*
X145237368Y-90724548D01*
X146185074Y-90724548D01*
X147320000Y-91859474D01*
X148454926Y-90724548D01*
X148319585Y-90439912D01*
X147617775Y-90181851D01*
X146870632Y-90212005D01*
X146320415Y-90439912D01*
X146185074Y-90724548D01*
X145237368Y-90724548D01*
X131008907Y-76496087D01*
X131281428Y-76441879D01*
X131681085Y-76174837D01*
X131706292Y-76137112D01*
X131720790Y-76158810D01*
X138074690Y-82512711D01*
X138239497Y-82622831D01*
X138433900Y-82661500D01*
X144549767Y-82661500D01*
X144676401Y-82788356D01*
X144951701Y-82902670D01*
X145132307Y-82902828D01*
X147043690Y-84814211D01*
X147208497Y-84924331D01*
X147402900Y-84963000D01*
X149789567Y-84963000D01*
X149916201Y-85089856D01*
X150191501Y-85204170D01*
X150489591Y-85204430D01*
X150765090Y-85090596D01*
X150976056Y-84879999D01*
X151090370Y-84604699D01*
X151090630Y-84306609D01*
X150976796Y-84031110D01*
X150766199Y-83820144D01*
X150490899Y-83705830D01*
X150192809Y-83705570D01*
X149917310Y-83819404D01*
X149789490Y-83947000D01*
X147613321Y-83947000D01*
X145850674Y-82184353D01*
X145850830Y-82005109D01*
X145736996Y-81729610D01*
X145526399Y-81518644D01*
X145251099Y-81404330D01*
X144953009Y-81404070D01*
X144677510Y-81517904D01*
X144549690Y-81645500D01*
X138644321Y-81645500D01*
X133503866Y-76505046D01*
X133821428Y-76441879D01*
X134221085Y-76174837D01*
X134488127Y-75775180D01*
X134574197Y-75342477D01*
X135076840Y-75342477D01*
X135393259Y-76108270D01*
X135978648Y-76694682D01*
X136743888Y-77012437D01*
X137572477Y-77013160D01*
X138338270Y-76696741D01*
X138924682Y-76111352D01*
X139242437Y-75346112D01*
X139243160Y-74517523D01*
X138926741Y-73751730D01*
X138341352Y-73165318D01*
X137576112Y-72847563D01*
X136747523Y-72846840D01*
X135981730Y-73163259D01*
X135395318Y-73748648D01*
X135077563Y-74513888D01*
X135076840Y-75342477D01*
X134574197Y-75342477D01*
X134581900Y-75303752D01*
X134581900Y-74556248D01*
X134488127Y-74084820D01*
X134221085Y-73685163D01*
X133821428Y-73418121D01*
X133350000Y-73324348D01*
X132878572Y-73418121D01*
X132478915Y-73685163D01*
X132448296Y-73730988D01*
X132439210Y-73717390D01*
X131530920Y-72809100D01*
X190080900Y-72809100D01*
X190080900Y-138010900D01*
X70269100Y-138010900D01*
X70269100Y-135516248D01*
X71158100Y-135516248D01*
X71158100Y-136263752D01*
X71251873Y-136735180D01*
X71518915Y-137134837D01*
X71918572Y-137401879D01*
X72390000Y-137495652D01*
X72861428Y-137401879D01*
X73261085Y-137134837D01*
X73528127Y-136735180D01*
X73621900Y-136263752D01*
X73621900Y-135516248D01*
X73621703Y-135515253D01*
X73647300Y-135515253D01*
X73647300Y-136264747D01*
X73744940Y-136755615D01*
X74022994Y-137171753D01*
X74439132Y-137449807D01*
X74930000Y-137547447D01*
X75420868Y-137449807D01*
X75837006Y-137171753D01*
X76115060Y-136755615D01*
X76212700Y-136264747D01*
X76212700Y-135516248D01*
X76238100Y-135516248D01*
X76238100Y-136263752D01*
X76331873Y-136735180D01*
X76598915Y-137134837D01*
X76998572Y-137401879D01*
X77470000Y-137495652D01*
X77941428Y-137401879D01*
X78341085Y-137134837D01*
X78608127Y-136735180D01*
X78701900Y-136263752D01*
X78701900Y-135516248D01*
X78778100Y-135516248D01*
X78778100Y-136263752D01*
X78871873Y-136735180D01*
X79138915Y-137134837D01*
X79538572Y-137401879D01*
X80010000Y-137495652D01*
X80481428Y-137401879D01*
X80881085Y-137134837D01*
X81148127Y-136735180D01*
X81241900Y-136263752D01*
X81241900Y-135516248D01*
X81318100Y-135516248D01*
X81318100Y-136263752D01*
X81411873Y-136735180D01*
X81678915Y-137134837D01*
X82078572Y-137401879D01*
X82550000Y-137495652D01*
X83021428Y-137401879D01*
X83421085Y-137134837D01*
X83688127Y-136735180D01*
X83781900Y-136263752D01*
X83781900Y-135516248D01*
X83858100Y-135516248D01*
X83858100Y-136263752D01*
X83951873Y-136735180D01*
X84218915Y-137134837D01*
X84618572Y-137401879D01*
X85090000Y-137495652D01*
X85561428Y-137401879D01*
X85961085Y-137134837D01*
X86228127Y-136735180D01*
X86321900Y-136263752D01*
X86321900Y-135516248D01*
X86398100Y-135516248D01*
X86398100Y-136263752D01*
X86491873Y-136735180D01*
X86758915Y-137134837D01*
X87158572Y-137401879D01*
X87630000Y-137495652D01*
X88101428Y-137401879D01*
X88501085Y-137134837D01*
X88768127Y-136735180D01*
X88861900Y-136263752D01*
X88861900Y-135516248D01*
X88938100Y-135516248D01*
X88938100Y-136263752D01*
X89031873Y-136735180D01*
X89298915Y-137134837D01*
X89698572Y-137401879D01*
X90170000Y-137495652D01*
X90641428Y-137401879D01*
X91041085Y-137134837D01*
X91308127Y-136735180D01*
X91401900Y-136263752D01*
X91401900Y-135516248D01*
X91478100Y-135516248D01*
X91478100Y-136263752D01*
X91571873Y-136735180D01*
X91838915Y-137134837D01*
X92238572Y-137401879D01*
X92710000Y-137495652D01*
X93181428Y-137401879D01*
X93581085Y-137134837D01*
X93848127Y-136735180D01*
X93941900Y-136263752D01*
X93941900Y-135516248D01*
X94018100Y-135516248D01*
X94018100Y-136263752D01*
X94111873Y-136735180D01*
X94378915Y-137134837D01*
X94778572Y-137401879D01*
X95250000Y-137495652D01*
X95721428Y-137401879D01*
X96121085Y-137134837D01*
X96388127Y-136735180D01*
X96481900Y-136263752D01*
X96481900Y-135516248D01*
X96558100Y-135516248D01*
X96558100Y-136263752D01*
X96651873Y-136735180D01*
X96918915Y-137134837D01*
X97318572Y-137401879D01*
X97790000Y-137495652D01*
X98261428Y-137401879D01*
X98661085Y-137134837D01*
X98928127Y-136735180D01*
X99021900Y-136263752D01*
X99021900Y-135516248D01*
X99098100Y-135516248D01*
X99098100Y-136263752D01*
X99191873Y-136735180D01*
X99458915Y-137134837D01*
X99858572Y-137401879D01*
X100330000Y-137495652D01*
X100801428Y-137401879D01*
X101201085Y-137134837D01*
X101468127Y-136735180D01*
X101561900Y-136263752D01*
X101561900Y-135516248D01*
X101638100Y-135516248D01*
X101638100Y-136263752D01*
X101731873Y-136735180D01*
X101998915Y-137134837D01*
X102398572Y-137401879D01*
X102870000Y-137495652D01*
X103341428Y-137401879D01*
X103741085Y-137134837D01*
X104008127Y-136735180D01*
X104101900Y-136263752D01*
X104101900Y-135516248D01*
X104178100Y-135516248D01*
X104178100Y-136263752D01*
X104271873Y-136735180D01*
X104538915Y-137134837D01*
X104938572Y-137401879D01*
X105410000Y-137495652D01*
X105881428Y-137401879D01*
X106281085Y-137134837D01*
X106548127Y-136735180D01*
X106641900Y-136263752D01*
X106641900Y-135516248D01*
X106718100Y-135516248D01*
X106718100Y-136263752D01*
X106811873Y-136735180D01*
X107078915Y-137134837D01*
X107478572Y-137401879D01*
X107950000Y-137495652D01*
X108421428Y-137401879D01*
X108821085Y-137134837D01*
X109088127Y-136735180D01*
X109181900Y-136263752D01*
X109181900Y-135516248D01*
X109258100Y-135516248D01*
X109258100Y-136263752D01*
X109351873Y-136735180D01*
X109618915Y-137134837D01*
X110018572Y-137401879D01*
X110490000Y-137495652D01*
X110961428Y-137401879D01*
X111361085Y-137134837D01*
X111628127Y-136735180D01*
X111721900Y-136263752D01*
X111721900Y-135516248D01*
X111798100Y-135516248D01*
X111798100Y-136263752D01*
X111891873Y-136735180D01*
X112158915Y-137134837D01*
X112558572Y-137401879D01*
X113030000Y-137495652D01*
X113501428Y-137401879D01*
X113901085Y-137134837D01*
X114168127Y-136735180D01*
X114261900Y-136263752D01*
X114261900Y-135516248D01*
X114338100Y-135516248D01*
X114338100Y-136263752D01*
X114431873Y-136735180D01*
X114698915Y-137134837D01*
X115098572Y-137401879D01*
X115570000Y-137495652D01*
X116041428Y-137401879D01*
X116441085Y-137134837D01*
X116708127Y-136735180D01*
X116801900Y-136263752D01*
X116801900Y-135516248D01*
X116878100Y-135516248D01*
X116878100Y-136263752D01*
X116971873Y-136735180D01*
X117238915Y-137134837D01*
X117638572Y-137401879D01*
X118110000Y-137495652D01*
X118581428Y-137401879D01*
X118981085Y-137134837D01*
X119248127Y-136735180D01*
X119341900Y-136263752D01*
X119341900Y-135516248D01*
X119418100Y-135516248D01*
X119418100Y-136263752D01*
X119511873Y-136735180D01*
X119778915Y-137134837D01*
X120178572Y-137401879D01*
X120650000Y-137495652D01*
X121121428Y-137401879D01*
X121521085Y-137134837D01*
X121788127Y-136735180D01*
X121881900Y-136263752D01*
X121881900Y-135516248D01*
X121958100Y-135516248D01*
X121958100Y-136263752D01*
X122051873Y-136735180D01*
X122318915Y-137134837D01*
X122718572Y-137401879D01*
X123190000Y-137495652D01*
X123661428Y-137401879D01*
X124061085Y-137134837D01*
X124328127Y-136735180D01*
X124421900Y-136263752D01*
X124421900Y-135516248D01*
X124498100Y-135516248D01*
X124498100Y-136263752D01*
X124591873Y-136735180D01*
X124858915Y-137134837D01*
X125258572Y-137401879D01*
X125730000Y-137495652D01*
X126201428Y-137401879D01*
X126601085Y-137134837D01*
X126868127Y-136735180D01*
X126961900Y-136263752D01*
X126961900Y-135516248D01*
X127038100Y-135516248D01*
X127038100Y-136263752D01*
X127131873Y-136735180D01*
X127398915Y-137134837D01*
X127798572Y-137401879D01*
X128270000Y-137495652D01*
X128741428Y-137401879D01*
X129141085Y-137134837D01*
X129408127Y-136735180D01*
X129501900Y-136263752D01*
X129501900Y-135516248D01*
X129578100Y-135516248D01*
X129578100Y-136263752D01*
X129671873Y-136735180D01*
X129938915Y-137134837D01*
X130338572Y-137401879D01*
X130810000Y-137495652D01*
X131281428Y-137401879D01*
X131681085Y-137134837D01*
X131948127Y-136735180D01*
X132041900Y-136263752D01*
X132041900Y-135516248D01*
X132118100Y-135516248D01*
X132118100Y-136263752D01*
X132211873Y-136735180D01*
X132478915Y-137134837D01*
X132878572Y-137401879D01*
X133350000Y-137495652D01*
X133821428Y-137401879D01*
X134221085Y-137134837D01*
X134488127Y-136735180D01*
X134574197Y-136302477D01*
X135076840Y-136302477D01*
X135393259Y-137068270D01*
X135978648Y-137654682D01*
X136743888Y-137972437D01*
X137572477Y-137973160D01*
X138338270Y-137656741D01*
X138924682Y-137071352D01*
X139242437Y-136306112D01*
X139243160Y-135477523D01*
X138926741Y-134711730D01*
X138341352Y-134125318D01*
X137576112Y-133807563D01*
X136747523Y-133806840D01*
X135981730Y-134123259D01*
X135395318Y-134708648D01*
X135077563Y-135473888D01*
X135076840Y-136302477D01*
X134574197Y-136302477D01*
X134581900Y-136263752D01*
X134581900Y-135516248D01*
X134488127Y-135044820D01*
X134221085Y-134645163D01*
X133821428Y-134378121D01*
X133350000Y-134284348D01*
X132878572Y-134378121D01*
X132478915Y-134645163D01*
X132211873Y-135044820D01*
X132118100Y-135516248D01*
X132041900Y-135516248D01*
X131948127Y-135044820D01*
X131681085Y-134645163D01*
X131281428Y-134378121D01*
X130810000Y-134284348D01*
X130338572Y-134378121D01*
X129938915Y-134645163D01*
X129671873Y-135044820D01*
X129578100Y-135516248D01*
X129501900Y-135516248D01*
X129408127Y-135044820D01*
X129141085Y-134645163D01*
X128741428Y-134378121D01*
X128270000Y-134284348D01*
X127798572Y-134378121D01*
X127398915Y-134645163D01*
X127131873Y-135044820D01*
X127038100Y-135516248D01*
X126961900Y-135516248D01*
X126868127Y-135044820D01*
X126601085Y-134645163D01*
X126201428Y-134378121D01*
X125730000Y-134284348D01*
X125258572Y-134378121D01*
X124858915Y-134645163D01*
X124591873Y-135044820D01*
X124498100Y-135516248D01*
X124421900Y-135516248D01*
X124328127Y-135044820D01*
X124061085Y-134645163D01*
X123661428Y-134378121D01*
X123190000Y-134284348D01*
X122718572Y-134378121D01*
X122318915Y-134645163D01*
X122051873Y-135044820D01*
X121958100Y-135516248D01*
X121881900Y-135516248D01*
X121788127Y-135044820D01*
X121521085Y-134645163D01*
X121121428Y-134378121D01*
X120650000Y-134284348D01*
X120178572Y-134378121D01*
X119778915Y-134645163D01*
X119511873Y-135044820D01*
X119418100Y-135516248D01*
X119341900Y-135516248D01*
X119248127Y-135044820D01*
X118981085Y-134645163D01*
X118581428Y-134378121D01*
X118110000Y-134284348D01*
X117638572Y-134378121D01*
X117238915Y-134645163D01*
X116971873Y-135044820D01*
X116878100Y-135516248D01*
X116801900Y-135516248D01*
X116708127Y-135044820D01*
X116441085Y-134645163D01*
X116041428Y-134378121D01*
X115570000Y-134284348D01*
X115098572Y-134378121D01*
X114698915Y-134645163D01*
X114431873Y-135044820D01*
X114338100Y-135516248D01*
X114261900Y-135516248D01*
X114168127Y-135044820D01*
X113901085Y-134645163D01*
X113501428Y-134378121D01*
X113030000Y-134284348D01*
X112558572Y-134378121D01*
X112158915Y-134645163D01*
X111891873Y-135044820D01*
X111798100Y-135516248D01*
X111721900Y-135516248D01*
X111628127Y-135044820D01*
X111361085Y-134645163D01*
X110961428Y-134378121D01*
X110490000Y-134284348D01*
X110018572Y-134378121D01*
X109618915Y-134645163D01*
X109351873Y-135044820D01*
X109258100Y-135516248D01*
X109181900Y-135516248D01*
X109088127Y-135044820D01*
X108821085Y-134645163D01*
X108421428Y-134378121D01*
X107950000Y-134284348D01*
X107478572Y-134378121D01*
X107078915Y-134645163D01*
X106811873Y-135044820D01*
X106718100Y-135516248D01*
X106641900Y-135516248D01*
X106548127Y-135044820D01*
X106281085Y-134645163D01*
X105881428Y-134378121D01*
X105410000Y-134284348D01*
X104938572Y-134378121D01*
X104538915Y-134645163D01*
X104271873Y-135044820D01*
X104178100Y-135516248D01*
X104101900Y-135516248D01*
X104008127Y-135044820D01*
X103741085Y-134645163D01*
X103341428Y-134378121D01*
X102870000Y-134284348D01*
X102398572Y-134378121D01*
X101998915Y-134645163D01*
X101731873Y-135044820D01*
X101638100Y-135516248D01*
X101561900Y-135516248D01*
X101468127Y-135044820D01*
X101201085Y-134645163D01*
X100801428Y-134378121D01*
X100330000Y-134284348D01*
X99858572Y-134378121D01*
X99458915Y-134645163D01*
X99191873Y-135044820D01*
X99098100Y-135516248D01*
X99021900Y-135516248D01*
X98928127Y-135044820D01*
X98661085Y-134645163D01*
X98261428Y-134378121D01*
X97790000Y-134284348D01*
X97318572Y-134378121D01*
X96918915Y-134645163D01*
X96651873Y-135044820D01*
X96558100Y-135516248D01*
X96481900Y-135516248D01*
X96388127Y-135044820D01*
X96121085Y-134645163D01*
X95721428Y-134378121D01*
X95250000Y-134284348D01*
X94778572Y-134378121D01*
X94378915Y-134645163D01*
X94111873Y-135044820D01*
X94018100Y-135516248D01*
X93941900Y-135516248D01*
X93848127Y-135044820D01*
X93581085Y-134645163D01*
X93181428Y-134378121D01*
X92710000Y-134284348D01*
X92238572Y-134378121D01*
X91838915Y-134645163D01*
X91571873Y-135044820D01*
X91478100Y-135516248D01*
X91401900Y-135516248D01*
X91308127Y-135044820D01*
X91041085Y-134645163D01*
X90641428Y-134378121D01*
X90170000Y-134284348D01*
X89698572Y-134378121D01*
X89298915Y-134645163D01*
X89031873Y-135044820D01*
X88938100Y-135516248D01*
X88861900Y-135516248D01*
X88768127Y-135044820D01*
X88501085Y-134645163D01*
X88101428Y-134378121D01*
X87630000Y-134284348D01*
X87158572Y-134378121D01*
X86758915Y-134645163D01*
X86491873Y-135044820D01*
X86398100Y-135516248D01*
X86321900Y-135516248D01*
X86228127Y-135044820D01*
X85961085Y-134645163D01*
X85561428Y-134378121D01*
X85090000Y-134284348D01*
X84618572Y-134378121D01*
X84218915Y-134645163D01*
X83951873Y-135044820D01*
X83858100Y-135516248D01*
X83781900Y-135516248D01*
X83688127Y-135044820D01*
X83421085Y-134645163D01*
X83021428Y-134378121D01*
X82550000Y-134284348D01*
X82078572Y-134378121D01*
X81678915Y-134645163D01*
X81411873Y-135044820D01*
X81318100Y-135516248D01*
X81241900Y-135516248D01*
X81148127Y-135044820D01*
X80881085Y-134645163D01*
X80481428Y-134378121D01*
X80010000Y-134284348D01*
X79538572Y-134378121D01*
X79138915Y-134645163D01*
X78871873Y-135044820D01*
X78778100Y-135516248D01*
X78701900Y-135516248D01*
X78608127Y-135044820D01*
X78341085Y-134645163D01*
X77941428Y-134378121D01*
X77470000Y-134284348D01*
X76998572Y-134378121D01*
X76598915Y-134645163D01*
X76331873Y-135044820D01*
X76238100Y-135516248D01*
X76212700Y-135516248D01*
X76212700Y-135515253D01*
X76115060Y-135024385D01*
X75837006Y-134608247D01*
X75420868Y-134330193D01*
X74930000Y-134232553D01*
X74439132Y-134330193D01*
X74022994Y-134608247D01*
X73744940Y-135024385D01*
X73647300Y-135515253D01*
X73621703Y-135515253D01*
X73528127Y-135044820D01*
X73261085Y-134645163D01*
X72861428Y-134378121D01*
X72390000Y-134284348D01*
X71918572Y-134378121D01*
X71518915Y-134645163D01*
X71251873Y-135044820D01*
X71158100Y-135516248D01*
X70269100Y-135516248D01*
X70269100Y-131222477D01*
X71576840Y-131222477D01*
X71893259Y-131988270D01*
X72478648Y-132574682D01*
X73243888Y-132892437D01*
X74072477Y-132893160D01*
X74838270Y-132576741D01*
X75424682Y-131991352D01*
X75742437Y-131226112D01*
X75743160Y-130397523D01*
X75426741Y-129631730D01*
X74841352Y-129045318D01*
X74076112Y-128727563D01*
X73247523Y-128726840D01*
X72481730Y-129043259D01*
X71895318Y-129628648D01*
X71577563Y-130393888D01*
X71576840Y-131222477D01*
X70269100Y-131222477D01*
X70269100Y-126093761D01*
X87323516Y-126093761D01*
X87330546Y-126150299D01*
X87591520Y-126621708D01*
X88013030Y-126957363D01*
X88530904Y-127106163D01*
X88747600Y-126954825D01*
X88747600Y-125882400D01*
X89052400Y-125882400D01*
X89052400Y-126954825D01*
X89269096Y-127106163D01*
X89786970Y-126957363D01*
X90208480Y-126621708D01*
X90469454Y-126150299D01*
X90476484Y-126093761D01*
X90363637Y-125882400D01*
X89052400Y-125882400D01*
X88747600Y-125882400D01*
X87436363Y-125882400D01*
X87323516Y-126093761D01*
X70269100Y-126093761D01*
X70269100Y-125366239D01*
X87323516Y-125366239D01*
X87436363Y-125577600D01*
X88747600Y-125577600D01*
X88747600Y-124505175D01*
X89052400Y-124505175D01*
X89052400Y-125577600D01*
X90363637Y-125577600D01*
X90476484Y-125366239D01*
X90469454Y-125309701D01*
X90208480Y-124838292D01*
X89786970Y-124502637D01*
X89269096Y-124353837D01*
X89052400Y-124505175D01*
X88747600Y-124505175D01*
X88530904Y-124353837D01*
X88013030Y-124502637D01*
X87591520Y-124838292D01*
X87330546Y-125309701D01*
X87323516Y-125366239D01*
X70269100Y-125366239D01*
X70269100Y-110211991D01*
X74943270Y-110211991D01*
X75057104Y-110487490D01*
X75267701Y-110698456D01*
X75543001Y-110812770D01*
X75841091Y-110813030D01*
X76116590Y-110699196D01*
X76327556Y-110488599D01*
X76384775Y-110350800D01*
X76676490Y-110350800D01*
X76638330Y-110442701D01*
X76638070Y-110740791D01*
X76751904Y-111016290D01*
X76962501Y-111227256D01*
X77237801Y-111341570D01*
X77535891Y-111341830D01*
X77811390Y-111227996D01*
X77939210Y-111100400D01*
X114422967Y-111100400D01*
X114466600Y-111144110D01*
X114466600Y-120651500D01*
X114505269Y-120845903D01*
X114615390Y-121010710D01*
X118486388Y-124881708D01*
X118345782Y-124975658D01*
X118114529Y-125321753D01*
X118033324Y-125730000D01*
X118114529Y-126138247D01*
X118345782Y-126484342D01*
X118691877Y-126715595D01*
X119100124Y-126796800D01*
X119659876Y-126796800D01*
X120068123Y-126715595D01*
X120414218Y-126484342D01*
X120553569Y-126275789D01*
X121001990Y-126724211D01*
X121166797Y-126834331D01*
X121361200Y-126873000D01*
X121952129Y-126873000D01*
X121952129Y-127449600D01*
X101680860Y-127449600D01*
X101691405Y-127436769D01*
X101866700Y-126860300D01*
X101866700Y-126517400D01*
X100482400Y-126517400D01*
X100482400Y-126537400D01*
X100177600Y-126537400D01*
X100177600Y-126517400D01*
X100157600Y-126517400D01*
X100157600Y-126212600D01*
X100177600Y-126212600D01*
X100177600Y-124646215D01*
X100482400Y-124646215D01*
X100482400Y-126212600D01*
X101866700Y-126212600D01*
X101866700Y-125869700D01*
X101691405Y-125293231D01*
X101308848Y-124827726D01*
X100777270Y-124544053D01*
X100719731Y-124535643D01*
X100482400Y-124646215D01*
X100177600Y-124646215D01*
X99940269Y-124535643D01*
X99882730Y-124544053D01*
X99351152Y-124827726D01*
X99027871Y-125221102D01*
X99027871Y-125095000D01*
X99004215Y-124976073D01*
X98936848Y-124875252D01*
X98836027Y-124807885D01*
X98717100Y-124784229D01*
X96862900Y-124784229D01*
X96743973Y-124807885D01*
X96643152Y-124875252D01*
X96575785Y-124976073D01*
X96552129Y-125095000D01*
X96552129Y-125857000D01*
X96171621Y-125857000D01*
X95685410Y-125370790D01*
X95520603Y-125260669D01*
X95326200Y-125222000D01*
X95178818Y-125222000D01*
X95014218Y-124975658D01*
X94668123Y-124744405D01*
X94259876Y-124663200D01*
X93700124Y-124663200D01*
X93291877Y-124744405D01*
X92945782Y-124975658D01*
X92714529Y-125321753D01*
X92682682Y-125481862D01*
X84997753Y-117796933D01*
X89814119Y-117796933D01*
X90061080Y-118394625D01*
X90517970Y-118852313D01*
X91115230Y-119100317D01*
X91125590Y-119100326D01*
X93057830Y-121032565D01*
X93057832Y-121032568D01*
X93502811Y-121329893D01*
X94027700Y-121434300D01*
X99012300Y-121434300D01*
X99537189Y-121329893D01*
X99714237Y-121211594D01*
X102768400Y-124265826D01*
X102768400Y-125594910D01*
X102741529Y-125730000D01*
X102826601Y-126157687D01*
X102864863Y-126214950D01*
X102872807Y-126254889D01*
X103170132Y-126699868D01*
X103615111Y-126997193D01*
X104140000Y-127101600D01*
X104664889Y-126997193D01*
X105109868Y-126699868D01*
X105407193Y-126254889D01*
X105415137Y-126214950D01*
X105453399Y-126157687D01*
X105538471Y-125730000D01*
X105511600Y-125594910D01*
X105511600Y-123697721D01*
X105511601Y-123697716D01*
X105511600Y-123697711D01*
X105511600Y-123697700D01*
X105473623Y-123506779D01*
X105407200Y-123172827D01*
X105407195Y-123172819D01*
X105407193Y-123172811D01*
X105242744Y-122926696D01*
X105109879Y-122727844D01*
X105109870Y-122727835D01*
X105109868Y-122727832D01*
X105109865Y-122727830D01*
X101698425Y-119316311D01*
X101913861Y-119100874D01*
X101921933Y-119100881D01*
X102519625Y-118853920D01*
X102977313Y-118397030D01*
X103225317Y-117799770D01*
X103225319Y-117796933D01*
X105054119Y-117796933D01*
X105301080Y-118394625D01*
X105308400Y-118401958D01*
X105308400Y-121157700D01*
X105412807Y-121682589D01*
X105710132Y-122127568D01*
X107848400Y-124265835D01*
X107848400Y-125594910D01*
X107821529Y-125730000D01*
X107906601Y-126157687D01*
X107944863Y-126214950D01*
X107952807Y-126254889D01*
X108250132Y-126699868D01*
X108695111Y-126997193D01*
X109220000Y-127101600D01*
X109744889Y-126997193D01*
X110189868Y-126699868D01*
X110487193Y-126254889D01*
X110495137Y-126214950D01*
X110533399Y-126157687D01*
X110546114Y-126093761D01*
X112723516Y-126093761D01*
X112730546Y-126150299D01*
X112991520Y-126621708D01*
X113413030Y-126957363D01*
X113930904Y-127106163D01*
X114147600Y-126954825D01*
X114147600Y-125882400D01*
X114452400Y-125882400D01*
X114452400Y-126954825D01*
X114669096Y-127106163D01*
X115186970Y-126957363D01*
X115608480Y-126621708D01*
X115869454Y-126150299D01*
X115876484Y-126093761D01*
X115763637Y-125882400D01*
X114452400Y-125882400D01*
X114147600Y-125882400D01*
X112836363Y-125882400D01*
X112723516Y-126093761D01*
X110546114Y-126093761D01*
X110618471Y-125730000D01*
X110591600Y-125594910D01*
X110591600Y-125366239D01*
X112723516Y-125366239D01*
X112836363Y-125577600D01*
X114147600Y-125577600D01*
X114147600Y-124505175D01*
X114452400Y-124505175D01*
X114452400Y-125577600D01*
X115763637Y-125577600D01*
X115876484Y-125366239D01*
X115869454Y-125309701D01*
X115608480Y-124838292D01*
X115186970Y-124502637D01*
X114669096Y-124353837D01*
X114452400Y-124505175D01*
X114147600Y-124505175D01*
X113930904Y-124353837D01*
X113413030Y-124502637D01*
X112991520Y-124838292D01*
X112730546Y-125309701D01*
X112723516Y-125366239D01*
X110591600Y-125366239D01*
X110591600Y-123697700D01*
X110487193Y-123172811D01*
X110189868Y-122727832D01*
X110189865Y-122727830D01*
X108051600Y-120589564D01*
X108051600Y-118402733D01*
X108057313Y-118397030D01*
X108305317Y-117799770D01*
X108305881Y-117153067D01*
X108058920Y-116555375D01*
X107602030Y-116097687D01*
X107004770Y-115849683D01*
X106358067Y-115849119D01*
X105760375Y-116096080D01*
X105302687Y-116552970D01*
X105054683Y-117150230D01*
X105054119Y-117796933D01*
X103225319Y-117796933D01*
X103225881Y-117153067D01*
X102978920Y-116555375D01*
X102522030Y-116097687D01*
X101924770Y-115849683D01*
X101278067Y-115849119D01*
X100680375Y-116096080D01*
X100222687Y-116552970D01*
X99974683Y-117150230D01*
X99974674Y-117160591D01*
X98788832Y-118346432D01*
X98444164Y-118691100D01*
X97951629Y-118691100D01*
X97870454Y-118609925D01*
X98155088Y-118474585D01*
X98413149Y-117772775D01*
X98382995Y-117025632D01*
X98155088Y-116475415D01*
X97870452Y-116340074D01*
X96735526Y-117475000D01*
X96749669Y-117489143D01*
X96534143Y-117704669D01*
X96520000Y-117690526D01*
X96505858Y-117704669D01*
X96290332Y-117489143D01*
X96304474Y-117475000D01*
X95169548Y-116340074D01*
X94884912Y-116475415D01*
X94626851Y-117177225D01*
X94657005Y-117924368D01*
X94884912Y-118474585D01*
X95169546Y-118609925D01*
X95088371Y-118691100D01*
X94595835Y-118691100D01*
X93065874Y-117161138D01*
X93065881Y-117153067D01*
X92818920Y-116555375D01*
X92388845Y-116124548D01*
X95385074Y-116124548D01*
X96520000Y-117259474D01*
X97654926Y-116124548D01*
X97519585Y-115839912D01*
X96817775Y-115581851D01*
X96070632Y-115612005D01*
X95520415Y-115839912D01*
X95385074Y-116124548D01*
X92388845Y-116124548D01*
X92362030Y-116097687D01*
X91764770Y-115849683D01*
X91118067Y-115849119D01*
X90520375Y-116096080D01*
X90062687Y-116552970D01*
X89814683Y-117150230D01*
X89814119Y-117796933D01*
X84997753Y-117796933D01*
X80136274Y-112935454D01*
X80136430Y-112756209D01*
X80022596Y-112480710D01*
X79811999Y-112269744D01*
X79536699Y-112155430D01*
X79238609Y-112155170D01*
X78963110Y-112269004D01*
X78752144Y-112479601D01*
X78637830Y-112754901D01*
X78637570Y-113052991D01*
X78751404Y-113328490D01*
X78962001Y-113539456D01*
X79237301Y-113653770D01*
X79417908Y-113653928D01*
X94080790Y-128316810D01*
X94245597Y-128426931D01*
X94440000Y-128465600D01*
X169044600Y-128465600D01*
X169239003Y-128426931D01*
X169403810Y-128316810D01*
X170539210Y-127181410D01*
X170649331Y-127016604D01*
X170688000Y-126822200D01*
X170688000Y-126751424D01*
X170868123Y-126715595D01*
X171214218Y-126484342D01*
X171353569Y-126275789D01*
X171801990Y-126724211D01*
X171910628Y-126796800D01*
X171966797Y-126834331D01*
X172161200Y-126873000D01*
X172752129Y-126873000D01*
X172752129Y-127635000D01*
X172775785Y-127753927D01*
X172843152Y-127854748D01*
X172943973Y-127922115D01*
X173062900Y-127945771D01*
X174917100Y-127945771D01*
X175036027Y-127922115D01*
X175136848Y-127854748D01*
X175204215Y-127753927D01*
X175227871Y-127635000D01*
X175227871Y-127508898D01*
X175551152Y-127902274D01*
X176082730Y-128185947D01*
X176140269Y-128194357D01*
X176377600Y-128083785D01*
X176377600Y-126517400D01*
X176682400Y-126517400D01*
X176682400Y-128083785D01*
X176919731Y-128194357D01*
X176977270Y-128185947D01*
X177508848Y-127902274D01*
X177891405Y-127436769D01*
X178066700Y-126860300D01*
X178066700Y-126517400D01*
X176682400Y-126517400D01*
X176377600Y-126517400D01*
X176357600Y-126517400D01*
X176357600Y-126212600D01*
X176377600Y-126212600D01*
X176377600Y-124646215D01*
X176682400Y-124646215D01*
X176682400Y-126212600D01*
X178066700Y-126212600D01*
X178066700Y-125869700D01*
X177891405Y-125293231D01*
X177508848Y-124827726D01*
X176977270Y-124544053D01*
X176919731Y-124535643D01*
X176682400Y-124646215D01*
X176377600Y-124646215D01*
X176140269Y-124535643D01*
X176082730Y-124544053D01*
X175551152Y-124827726D01*
X175227871Y-125221102D01*
X175227871Y-125095000D01*
X175204215Y-124976073D01*
X175136848Y-124875252D01*
X175036027Y-124807885D01*
X174917100Y-124784229D01*
X173062900Y-124784229D01*
X172943973Y-124807885D01*
X172843152Y-124875252D01*
X172775785Y-124976073D01*
X172752129Y-125095000D01*
X172752129Y-125857000D01*
X172371621Y-125857000D01*
X171885410Y-125370790D01*
X171720603Y-125260669D01*
X171526200Y-125222000D01*
X171378818Y-125222000D01*
X171214218Y-124975658D01*
X170868123Y-124744405D01*
X170459876Y-124663200D01*
X169900124Y-124663200D01*
X169491877Y-124744405D01*
X169145782Y-124975658D01*
X168914529Y-125321753D01*
X168833324Y-125730000D01*
X168914529Y-126138247D01*
X169145782Y-126484342D01*
X169491877Y-126715595D01*
X169555525Y-126728255D01*
X168834180Y-127449600D01*
X152480860Y-127449600D01*
X152491405Y-127436769D01*
X152666700Y-126860300D01*
X152666700Y-126517400D01*
X151282400Y-126517400D01*
X151282400Y-126537400D01*
X150977600Y-126537400D01*
X150977600Y-126517400D01*
X150957600Y-126517400D01*
X150957600Y-126212600D01*
X150977600Y-126212600D01*
X150977600Y-124646215D01*
X151282400Y-124646215D01*
X151282400Y-126212600D01*
X152666700Y-126212600D01*
X152666700Y-125869700D01*
X152491405Y-125293231D01*
X152108848Y-124827726D01*
X151577270Y-124544053D01*
X151519731Y-124535643D01*
X151282400Y-124646215D01*
X150977600Y-124646215D01*
X150740269Y-124535643D01*
X150682730Y-124544053D01*
X150151152Y-124827726D01*
X149827871Y-125221102D01*
X149827871Y-125095000D01*
X149804215Y-124976073D01*
X149736848Y-124875252D01*
X149636027Y-124807885D01*
X149517100Y-124784229D01*
X147662900Y-124784229D01*
X147543973Y-124807885D01*
X147443152Y-124875252D01*
X147375785Y-124976073D01*
X147352129Y-125095000D01*
X147352129Y-125857000D01*
X146971621Y-125857000D01*
X146485410Y-125370790D01*
X146320603Y-125260669D01*
X146126200Y-125222000D01*
X145978818Y-125222000D01*
X145814218Y-124975658D01*
X145468123Y-124744405D01*
X145288000Y-124708576D01*
X145288000Y-124637800D01*
X145249331Y-124443397D01*
X145139210Y-124278590D01*
X138657553Y-117796933D01*
X140614119Y-117796933D01*
X140861080Y-118394625D01*
X141317970Y-118852313D01*
X141915230Y-119100317D01*
X141925590Y-119100326D01*
X143812132Y-120986868D01*
X144257111Y-121284193D01*
X144344197Y-121301515D01*
X144782000Y-121388601D01*
X144782005Y-121388600D01*
X149858000Y-121388600D01*
X150382889Y-121284193D01*
X150505147Y-121202503D01*
X153568400Y-124265826D01*
X153568400Y-125594910D01*
X153541529Y-125730000D01*
X153626601Y-126157687D01*
X153664863Y-126214950D01*
X153672807Y-126254889D01*
X153970132Y-126699868D01*
X154415111Y-126997193D01*
X154940000Y-127101600D01*
X155464889Y-126997193D01*
X155909868Y-126699868D01*
X156207193Y-126254889D01*
X156215137Y-126214950D01*
X156253399Y-126157687D01*
X156338471Y-125730000D01*
X158621529Y-125730000D01*
X158706601Y-126157687D01*
X158948866Y-126520263D01*
X159311442Y-126762528D01*
X159739129Y-126847600D01*
X160300871Y-126847600D01*
X160728558Y-126762528D01*
X161091134Y-126520263D01*
X161333399Y-126157687D01*
X161346114Y-126093761D01*
X163523516Y-126093761D01*
X163530546Y-126150299D01*
X163791520Y-126621708D01*
X164213030Y-126957363D01*
X164730904Y-127106163D01*
X164947600Y-126954825D01*
X164947600Y-125882400D01*
X165252400Y-125882400D01*
X165252400Y-126954825D01*
X165469096Y-127106163D01*
X165986970Y-126957363D01*
X166408480Y-126621708D01*
X166669454Y-126150299D01*
X166676484Y-126093761D01*
X166563637Y-125882400D01*
X165252400Y-125882400D01*
X164947600Y-125882400D01*
X163636363Y-125882400D01*
X163523516Y-126093761D01*
X161346114Y-126093761D01*
X161418471Y-125730000D01*
X161346115Y-125366239D01*
X163523516Y-125366239D01*
X163636363Y-125577600D01*
X164947600Y-125577600D01*
X164947600Y-124505175D01*
X165252400Y-124505175D01*
X165252400Y-125577600D01*
X166563637Y-125577600D01*
X166676484Y-125366239D01*
X166669454Y-125309701D01*
X166408480Y-124838292D01*
X165986970Y-124502637D01*
X165469096Y-124353837D01*
X165252400Y-124505175D01*
X164947600Y-124505175D01*
X164730904Y-124353837D01*
X164213030Y-124502637D01*
X163791520Y-124838292D01*
X163530546Y-125309701D01*
X163523516Y-125366239D01*
X161346115Y-125366239D01*
X161333399Y-125302313D01*
X161091134Y-124939737D01*
X160728558Y-124697472D01*
X160300871Y-124612400D01*
X159739129Y-124612400D01*
X159311442Y-124697472D01*
X158948866Y-124939737D01*
X158706601Y-125302313D01*
X158621529Y-125730000D01*
X156338471Y-125730000D01*
X156311600Y-125594910D01*
X156311600Y-123697721D01*
X156311601Y-123697716D01*
X156311600Y-123697711D01*
X156311600Y-123697700D01*
X156273623Y-123506779D01*
X156207200Y-123172827D01*
X156207195Y-123172819D01*
X156207193Y-123172811D01*
X156042744Y-122926696D01*
X155909879Y-122727844D01*
X155909870Y-122727835D01*
X155909868Y-122727832D01*
X155909865Y-122727830D01*
X152498425Y-119316311D01*
X152713861Y-119100874D01*
X152721933Y-119100881D01*
X153319625Y-118853920D01*
X153777313Y-118397030D01*
X154025317Y-117799770D01*
X154025319Y-117796933D01*
X155854119Y-117796933D01*
X156101080Y-118394625D01*
X156557970Y-118852313D01*
X157155230Y-119100317D01*
X157801933Y-119100881D01*
X158399625Y-118853920D01*
X158857313Y-118397030D01*
X159105317Y-117799770D01*
X159105319Y-117796933D01*
X166014119Y-117796933D01*
X166261080Y-118394625D01*
X166717970Y-118852313D01*
X167315230Y-119100317D01*
X167961933Y-119100881D01*
X168559625Y-118853920D01*
X168588142Y-118825452D01*
X171585074Y-118825452D01*
X171720415Y-119110088D01*
X172422225Y-119368149D01*
X173169368Y-119337995D01*
X173719585Y-119110088D01*
X173854926Y-118825452D01*
X172720000Y-117690526D01*
X171585074Y-118825452D01*
X168588142Y-118825452D01*
X169017313Y-118397030D01*
X169265317Y-117799770D01*
X169265326Y-117789410D01*
X170763635Y-116291100D01*
X171320571Y-116291100D01*
X171369546Y-116340075D01*
X171084912Y-116475415D01*
X170826851Y-117177225D01*
X170857005Y-117924368D01*
X171084912Y-118474585D01*
X171369548Y-118609926D01*
X172504474Y-117475000D01*
X172490332Y-117460858D01*
X172705858Y-117245332D01*
X172720000Y-117259474D01*
X172734143Y-117245332D01*
X172949669Y-117460858D01*
X172935526Y-117475000D01*
X174070452Y-118609926D01*
X174355088Y-118474585D01*
X174613149Y-117772775D01*
X174582995Y-117025632D01*
X174355088Y-116475415D01*
X174070454Y-116340075D01*
X174119429Y-116291100D01*
X174676364Y-116291100D01*
X176174126Y-117788861D01*
X176174119Y-117796933D01*
X176421080Y-118394625D01*
X176428400Y-118401958D01*
X176428400Y-121157700D01*
X176532807Y-121682589D01*
X176830132Y-122127568D01*
X178968400Y-124265835D01*
X178968400Y-125594910D01*
X178941529Y-125730000D01*
X179026601Y-126157687D01*
X179064863Y-126214950D01*
X179072807Y-126254889D01*
X179370132Y-126699868D01*
X179815111Y-126997193D01*
X180340000Y-127101600D01*
X180864889Y-126997193D01*
X181309868Y-126699868D01*
X181607193Y-126254889D01*
X181615137Y-126214950D01*
X181653399Y-126157687D01*
X181738471Y-125730000D01*
X184021529Y-125730000D01*
X184106601Y-126157687D01*
X184348866Y-126520263D01*
X184711442Y-126762528D01*
X185139129Y-126847600D01*
X185700871Y-126847600D01*
X186128558Y-126762528D01*
X186491134Y-126520263D01*
X186733399Y-126157687D01*
X186818471Y-125730000D01*
X186733399Y-125302313D01*
X186491134Y-124939737D01*
X186128558Y-124697472D01*
X185700871Y-124612400D01*
X185139129Y-124612400D01*
X184711442Y-124697472D01*
X184348866Y-124939737D01*
X184106601Y-125302313D01*
X184021529Y-125730000D01*
X181738471Y-125730000D01*
X181711600Y-125594910D01*
X181711600Y-123697700D01*
X181607193Y-123172811D01*
X181309868Y-122727832D01*
X181309865Y-122727830D01*
X179171600Y-120589564D01*
X179171600Y-118402733D01*
X179177313Y-118397030D01*
X179425317Y-117799770D01*
X179425319Y-117796933D01*
X181254119Y-117796933D01*
X181501080Y-118394625D01*
X181957970Y-118852313D01*
X182555230Y-119100317D01*
X183201933Y-119100881D01*
X183799625Y-118853920D01*
X184257313Y-118397030D01*
X184505317Y-117799770D01*
X184505881Y-117153067D01*
X184258920Y-116555375D01*
X183802030Y-116097687D01*
X183204770Y-115849683D01*
X182558067Y-115849119D01*
X181960375Y-116096080D01*
X181502687Y-116552970D01*
X181254683Y-117150230D01*
X181254119Y-117796933D01*
X179425319Y-117796933D01*
X179425881Y-117153067D01*
X179178920Y-116555375D01*
X178722030Y-116097687D01*
X178124770Y-115849683D01*
X178114409Y-115849674D01*
X176214368Y-113949632D01*
X175769389Y-113652307D01*
X175244500Y-113547900D01*
X170195505Y-113547900D01*
X170195500Y-113547899D01*
X169670612Y-113652306D01*
X169670610Y-113652307D01*
X169670611Y-113652307D01*
X169225632Y-113949632D01*
X169225630Y-113949635D01*
X167326138Y-115849126D01*
X167318067Y-115849119D01*
X166720375Y-116096080D01*
X166262687Y-116552970D01*
X166014683Y-117150230D01*
X166014119Y-117796933D01*
X159105319Y-117796933D01*
X159105881Y-117153067D01*
X158858920Y-116555375D01*
X158402030Y-116097687D01*
X157804770Y-115849683D01*
X157158067Y-115849119D01*
X156560375Y-116096080D01*
X156102687Y-116552970D01*
X155854683Y-117150230D01*
X155854119Y-117796933D01*
X154025319Y-117796933D01*
X154025881Y-117153067D01*
X153778920Y-116555375D01*
X153322030Y-116097687D01*
X152724770Y-115849683D01*
X152078067Y-115849119D01*
X151480375Y-116096080D01*
X151022687Y-116552970D01*
X150774683Y-117150230D01*
X150774674Y-117160591D01*
X149588832Y-118346432D01*
X149588830Y-118346435D01*
X149289865Y-118645400D01*
X148705929Y-118645400D01*
X148670454Y-118609925D01*
X148955088Y-118474585D01*
X149213149Y-117772775D01*
X149182995Y-117025632D01*
X148955088Y-116475415D01*
X148670452Y-116340074D01*
X147535526Y-117475000D01*
X147549669Y-117489143D01*
X147334143Y-117704669D01*
X147320000Y-117690526D01*
X147305858Y-117704669D01*
X147090332Y-117489143D01*
X147104474Y-117475000D01*
X145969548Y-116340074D01*
X145684912Y-116475415D01*
X145426851Y-117177225D01*
X145457005Y-117924368D01*
X145684912Y-118474585D01*
X145969546Y-118609925D01*
X145934071Y-118645400D01*
X145350136Y-118645400D01*
X143865874Y-117161138D01*
X143865881Y-117153067D01*
X143618920Y-116555375D01*
X143188845Y-116124548D01*
X146185074Y-116124548D01*
X147320000Y-117259474D01*
X148454926Y-116124548D01*
X148319585Y-115839912D01*
X147617775Y-115581851D01*
X146870632Y-115612005D01*
X146320415Y-115839912D01*
X146185074Y-116124548D01*
X143188845Y-116124548D01*
X143162030Y-116097687D01*
X142564770Y-115849683D01*
X141918067Y-115849119D01*
X141320375Y-116096080D01*
X140862687Y-116552970D01*
X140614683Y-117150230D01*
X140614119Y-117796933D01*
X138657553Y-117796933D01*
X130344210Y-109483590D01*
X130179403Y-109373469D01*
X129985000Y-109334800D01*
X75913500Y-109334800D01*
X75898595Y-109337765D01*
X75842399Y-109314430D01*
X75544309Y-109314170D01*
X75268810Y-109428004D01*
X75057844Y-109638601D01*
X74943530Y-109913901D01*
X74943270Y-110211991D01*
X70269100Y-110211991D01*
X70269100Y-105988791D01*
X74961370Y-105988791D01*
X75075204Y-106264290D01*
X75285801Y-106475256D01*
X75561101Y-106589570D01*
X75859191Y-106589830D01*
X76134690Y-106475996D01*
X76262510Y-106348400D01*
X164669600Y-106348400D01*
X164864003Y-106309731D01*
X165028810Y-106199610D01*
X169842986Y-101385435D01*
X169900124Y-101396800D01*
X170459876Y-101396800D01*
X170868123Y-101315595D01*
X171214218Y-101084342D01*
X171353569Y-100875789D01*
X171801990Y-101324211D01*
X171910628Y-101396800D01*
X171966797Y-101434331D01*
X172161200Y-101473000D01*
X172752129Y-101473000D01*
X172752129Y-102235000D01*
X172775785Y-102353927D01*
X172843152Y-102454748D01*
X172943973Y-102522115D01*
X173062900Y-102545771D01*
X174917100Y-102545771D01*
X175036027Y-102522115D01*
X175136848Y-102454748D01*
X175204215Y-102353927D01*
X175227871Y-102235000D01*
X175227871Y-102108898D01*
X175551152Y-102502274D01*
X176082730Y-102785947D01*
X176140269Y-102794357D01*
X176377600Y-102683785D01*
X176377600Y-101117400D01*
X176682400Y-101117400D01*
X176682400Y-102683785D01*
X176919731Y-102794357D01*
X176977270Y-102785947D01*
X177508848Y-102502274D01*
X177891405Y-102036769D01*
X178066700Y-101460300D01*
X178066700Y-101117400D01*
X176682400Y-101117400D01*
X176377600Y-101117400D01*
X176357600Y-101117400D01*
X176357600Y-100812600D01*
X176377600Y-100812600D01*
X176377600Y-99246215D01*
X176682400Y-99246215D01*
X176682400Y-100812600D01*
X178066700Y-100812600D01*
X178066700Y-100469700D01*
X178024220Y-100330000D01*
X178941529Y-100330000D01*
X179026601Y-100757687D01*
X179268866Y-101120263D01*
X179631442Y-101362528D01*
X180059129Y-101447600D01*
X180620871Y-101447600D01*
X181048558Y-101362528D01*
X181411134Y-101120263D01*
X181653399Y-100757687D01*
X181738471Y-100330000D01*
X184021529Y-100330000D01*
X184106601Y-100757687D01*
X184348866Y-101120263D01*
X184711442Y-101362528D01*
X185139129Y-101447600D01*
X185700871Y-101447600D01*
X186128558Y-101362528D01*
X186491134Y-101120263D01*
X186733399Y-100757687D01*
X186818471Y-100330000D01*
X186733399Y-99902313D01*
X186491134Y-99539737D01*
X186128558Y-99297472D01*
X185700871Y-99212400D01*
X185139129Y-99212400D01*
X184711442Y-99297472D01*
X184348866Y-99539737D01*
X184106601Y-99902313D01*
X184021529Y-100330000D01*
X181738471Y-100330000D01*
X181653399Y-99902313D01*
X181411134Y-99539737D01*
X181048558Y-99297472D01*
X180620871Y-99212400D01*
X180059129Y-99212400D01*
X179631442Y-99297472D01*
X179268866Y-99539737D01*
X179026601Y-99902313D01*
X178941529Y-100330000D01*
X178024220Y-100330000D01*
X177891405Y-99893231D01*
X177508848Y-99427726D01*
X176977270Y-99144053D01*
X176919731Y-99135643D01*
X176682400Y-99246215D01*
X176377600Y-99246215D01*
X176140269Y-99135643D01*
X176082730Y-99144053D01*
X175551152Y-99427726D01*
X175227871Y-99821102D01*
X175227871Y-99695000D01*
X175204215Y-99576073D01*
X175136848Y-99475252D01*
X175036027Y-99407885D01*
X174917100Y-99384229D01*
X173062900Y-99384229D01*
X172943973Y-99407885D01*
X172843152Y-99475252D01*
X172775785Y-99576073D01*
X172752129Y-99695000D01*
X172752129Y-100457000D01*
X172371621Y-100457000D01*
X171885410Y-99970790D01*
X171720603Y-99860669D01*
X171526200Y-99822000D01*
X171378818Y-99822000D01*
X171214218Y-99575658D01*
X170868123Y-99344405D01*
X170459876Y-99263200D01*
X169900124Y-99263200D01*
X169491877Y-99344405D01*
X169145782Y-99575658D01*
X168914529Y-99921753D01*
X168833324Y-100330000D01*
X168914529Y-100738247D01*
X168970126Y-100821453D01*
X164459180Y-105332400D01*
X141588220Y-105332400D01*
X144990420Y-101930200D01*
X146875500Y-101930200D01*
X147069903Y-101891531D01*
X147234710Y-101781410D01*
X147352129Y-101663991D01*
X147352129Y-102235000D01*
X147375785Y-102353927D01*
X147443152Y-102454748D01*
X147543973Y-102522115D01*
X147662900Y-102545771D01*
X149517100Y-102545771D01*
X149636027Y-102522115D01*
X149736848Y-102454748D01*
X149804215Y-102353927D01*
X149827871Y-102235000D01*
X149827871Y-102108898D01*
X150151152Y-102502274D01*
X150682730Y-102785947D01*
X150740269Y-102794357D01*
X150977600Y-102683785D01*
X150977600Y-101117400D01*
X151282400Y-101117400D01*
X151282400Y-102683785D01*
X151519731Y-102794357D01*
X151577270Y-102785947D01*
X152108848Y-102502274D01*
X152491405Y-102036769D01*
X152666700Y-101460300D01*
X152666700Y-101117400D01*
X151282400Y-101117400D01*
X150977600Y-101117400D01*
X150957600Y-101117400D01*
X150957600Y-100812600D01*
X150977600Y-100812600D01*
X150977600Y-99246215D01*
X151282400Y-99246215D01*
X151282400Y-100812600D01*
X152666700Y-100812600D01*
X152666700Y-100469700D01*
X152624220Y-100330000D01*
X153541529Y-100330000D01*
X153626601Y-100757687D01*
X153868866Y-101120263D01*
X154231442Y-101362528D01*
X154659129Y-101447600D01*
X155220871Y-101447600D01*
X155648558Y-101362528D01*
X156011134Y-101120263D01*
X156253399Y-100757687D01*
X156338471Y-100330000D01*
X158621529Y-100330000D01*
X158706601Y-100757687D01*
X158948866Y-101120263D01*
X159311442Y-101362528D01*
X159739129Y-101447600D01*
X160300871Y-101447600D01*
X160728558Y-101362528D01*
X161091134Y-101120263D01*
X161333399Y-100757687D01*
X161346114Y-100693761D01*
X163523516Y-100693761D01*
X163530546Y-100750299D01*
X163791520Y-101221708D01*
X164213030Y-101557363D01*
X164730904Y-101706163D01*
X164947600Y-101554825D01*
X164947600Y-100482400D01*
X165252400Y-100482400D01*
X165252400Y-101554825D01*
X165469096Y-101706163D01*
X165986970Y-101557363D01*
X166408480Y-101221708D01*
X166669454Y-100750299D01*
X166676484Y-100693761D01*
X166563637Y-100482400D01*
X165252400Y-100482400D01*
X164947600Y-100482400D01*
X163636363Y-100482400D01*
X163523516Y-100693761D01*
X161346114Y-100693761D01*
X161418471Y-100330000D01*
X161346115Y-99966239D01*
X163523516Y-99966239D01*
X163636363Y-100177600D01*
X164947600Y-100177600D01*
X164947600Y-99105175D01*
X165252400Y-99105175D01*
X165252400Y-100177600D01*
X166563637Y-100177600D01*
X166676484Y-99966239D01*
X166669454Y-99909701D01*
X166408480Y-99438292D01*
X165986970Y-99102637D01*
X165469096Y-98953837D01*
X165252400Y-99105175D01*
X164947600Y-99105175D01*
X164730904Y-98953837D01*
X164213030Y-99102637D01*
X163791520Y-99438292D01*
X163530546Y-99909701D01*
X163523516Y-99966239D01*
X161346115Y-99966239D01*
X161333399Y-99902313D01*
X161091134Y-99539737D01*
X160728558Y-99297472D01*
X160300871Y-99212400D01*
X159739129Y-99212400D01*
X159311442Y-99297472D01*
X158948866Y-99539737D01*
X158706601Y-99902313D01*
X158621529Y-100330000D01*
X156338471Y-100330000D01*
X156253399Y-99902313D01*
X156011134Y-99539737D01*
X155648558Y-99297472D01*
X155220871Y-99212400D01*
X154659129Y-99212400D01*
X154231442Y-99297472D01*
X153868866Y-99539737D01*
X153626601Y-99902313D01*
X153541529Y-100330000D01*
X152624220Y-100330000D01*
X152491405Y-99893231D01*
X152108848Y-99427726D01*
X151577270Y-99144053D01*
X151519731Y-99135643D01*
X151282400Y-99246215D01*
X150977600Y-99246215D01*
X150740269Y-99135643D01*
X150682730Y-99144053D01*
X150151152Y-99427726D01*
X149827871Y-99821102D01*
X149827871Y-99695000D01*
X149804215Y-99576073D01*
X149736848Y-99475252D01*
X149636027Y-99407885D01*
X149517100Y-99384229D01*
X147662900Y-99384229D01*
X147543973Y-99407885D01*
X147443152Y-99475252D01*
X147375785Y-99576073D01*
X147352129Y-99695000D01*
X147352129Y-100457000D01*
X147332700Y-100457000D01*
X147170550Y-100489254D01*
X147138296Y-100495669D01*
X146973489Y-100605790D01*
X146665080Y-100914200D01*
X145927903Y-100914200D01*
X146045471Y-100738247D01*
X146126676Y-100330000D01*
X146045471Y-99921753D01*
X145814218Y-99575658D01*
X145468123Y-99344405D01*
X145059876Y-99263200D01*
X144500124Y-99263200D01*
X144091877Y-99344405D01*
X143745782Y-99575658D01*
X143514529Y-99921753D01*
X143433324Y-100330000D01*
X143514529Y-100738247D01*
X143745782Y-101084342D01*
X144091877Y-101315595D01*
X144155525Y-101328255D01*
X141016480Y-104467300D01*
X76842333Y-104467300D01*
X76715699Y-104340444D01*
X76440399Y-104226130D01*
X76142309Y-104225870D01*
X75866810Y-104339704D01*
X75655844Y-104550301D01*
X75541530Y-104825601D01*
X75541291Y-105099696D01*
X75286910Y-105204804D01*
X75075944Y-105415401D01*
X74961630Y-105690701D01*
X74961370Y-105988791D01*
X70269100Y-105988791D01*
X70269100Y-80422477D01*
X71576840Y-80422477D01*
X71893259Y-81188270D01*
X72478648Y-81774682D01*
X73243888Y-82092437D01*
X74072477Y-82093160D01*
X74838270Y-81776741D01*
X75424682Y-81191352D01*
X75742437Y-80426112D01*
X75743160Y-79597523D01*
X75426741Y-78831730D01*
X74841352Y-78245318D01*
X74076112Y-77927563D01*
X73247523Y-77926840D01*
X72481730Y-78243259D01*
X71895318Y-78828648D01*
X71577563Y-79593888D01*
X71576840Y-80422477D01*
X70269100Y-80422477D01*
X70269100Y-72809100D01*
X99585380Y-72809100D01*
X98688090Y-73706390D01*
G36*
X144155525Y-124731745D02*
X144091877Y-124744405D01*
X143745782Y-124975658D01*
X143514529Y-125321753D01*
X143433324Y-125730000D01*
X143514529Y-126138247D01*
X143745782Y-126484342D01*
X144091877Y-126715595D01*
X144500124Y-126796800D01*
X145059876Y-126796800D01*
X145468123Y-126715595D01*
X145814218Y-126484342D01*
X145953569Y-126275789D01*
X146401990Y-126724211D01*
X146510628Y-126796800D01*
X146566797Y-126834331D01*
X146761200Y-126873000D01*
X147352129Y-126873000D01*
X147352129Y-127449600D01*
X127080860Y-127449600D01*
X127091405Y-127436769D01*
X127266700Y-126860300D01*
X127266700Y-126517400D01*
X125882400Y-126517400D01*
X125882400Y-126537400D01*
X125577600Y-126537400D01*
X125577600Y-126517400D01*
X125557600Y-126517400D01*
X125557600Y-126212600D01*
X125577600Y-126212600D01*
X125577600Y-124646215D01*
X125882400Y-124646215D01*
X125882400Y-126212600D01*
X127266700Y-126212600D01*
X127266700Y-125869700D01*
X127224220Y-125730000D01*
X128141529Y-125730000D01*
X128226601Y-126157687D01*
X128468866Y-126520263D01*
X128831442Y-126762528D01*
X129259129Y-126847600D01*
X129820871Y-126847600D01*
X130248558Y-126762528D01*
X130611134Y-126520263D01*
X130853399Y-126157687D01*
X130938471Y-125730000D01*
X133221529Y-125730000D01*
X133306601Y-126157687D01*
X133548866Y-126520263D01*
X133911442Y-126762528D01*
X134339129Y-126847600D01*
X134900871Y-126847600D01*
X135328558Y-126762528D01*
X135691134Y-126520263D01*
X135933399Y-126157687D01*
X135946114Y-126093761D01*
X138123516Y-126093761D01*
X138130546Y-126150299D01*
X138391520Y-126621708D01*
X138813030Y-126957363D01*
X139330904Y-127106163D01*
X139547600Y-126954825D01*
X139547600Y-125882400D01*
X139852400Y-125882400D01*
X139852400Y-126954825D01*
X140069096Y-127106163D01*
X140586970Y-126957363D01*
X141008480Y-126621708D01*
X141269454Y-126150299D01*
X141276484Y-126093761D01*
X141163637Y-125882400D01*
X139852400Y-125882400D01*
X139547600Y-125882400D01*
X138236363Y-125882400D01*
X138123516Y-126093761D01*
X135946114Y-126093761D01*
X136018471Y-125730000D01*
X135946115Y-125366239D01*
X138123516Y-125366239D01*
X138236363Y-125577600D01*
X139547600Y-125577600D01*
X139547600Y-124505175D01*
X139852400Y-124505175D01*
X139852400Y-125577600D01*
X141163637Y-125577600D01*
X141276484Y-125366239D01*
X141269454Y-125309701D01*
X141008480Y-124838292D01*
X140586970Y-124502637D01*
X140069096Y-124353837D01*
X139852400Y-124505175D01*
X139547600Y-124505175D01*
X139330904Y-124353837D01*
X138813030Y-124502637D01*
X138391520Y-124838292D01*
X138130546Y-125309701D01*
X138123516Y-125366239D01*
X135946115Y-125366239D01*
X135933399Y-125302313D01*
X135691134Y-124939737D01*
X135328558Y-124697472D01*
X134900871Y-124612400D01*
X134339129Y-124612400D01*
X133911442Y-124697472D01*
X133548866Y-124939737D01*
X133306601Y-125302313D01*
X133221529Y-125730000D01*
X130938471Y-125730000D01*
X130853399Y-125302313D01*
X130611134Y-124939737D01*
X130248558Y-124697472D01*
X129820871Y-124612400D01*
X129259129Y-124612400D01*
X128831442Y-124697472D01*
X128468866Y-124939737D01*
X128226601Y-125302313D01*
X128141529Y-125730000D01*
X127224220Y-125730000D01*
X127091405Y-125293231D01*
X126708848Y-124827726D01*
X126177270Y-124544053D01*
X126119731Y-124535643D01*
X125882400Y-124646215D01*
X125577600Y-124646215D01*
X125340269Y-124535643D01*
X125282730Y-124544053D01*
X124751152Y-124827726D01*
X124427871Y-125221102D01*
X124427871Y-125095000D01*
X124404215Y-124976073D01*
X124336848Y-124875252D01*
X124236027Y-124807885D01*
X124117100Y-124784229D01*
X122262900Y-124784229D01*
X122143973Y-124807885D01*
X122043152Y-124875252D01*
X121975785Y-124976073D01*
X121952129Y-125095000D01*
X121952129Y-125857000D01*
X121571621Y-125857000D01*
X121085410Y-125370790D01*
X120920603Y-125260669D01*
X120726200Y-125222000D01*
X120578818Y-125222000D01*
X120414218Y-124975658D01*
X120068123Y-124744405D01*
X119715856Y-124674335D01*
X115482600Y-120441080D01*
X115482600Y-118416183D01*
X115917970Y-118852313D01*
X116515230Y-119100317D01*
X116525590Y-119100326D01*
X118431730Y-121006465D01*
X118431732Y-121006468D01*
X118876711Y-121303793D01*
X119401600Y-121408200D01*
X124438400Y-121408200D01*
X124963289Y-121303793D01*
X125408268Y-121006468D01*
X125408269Y-121006467D01*
X127313861Y-119100874D01*
X127321933Y-119100881D01*
X127919625Y-118853920D01*
X128377313Y-118397030D01*
X128625317Y-117799770D01*
X128625319Y-117796933D01*
X130454119Y-117796933D01*
X130701080Y-118394625D01*
X131157970Y-118852313D01*
X131755230Y-119100317D01*
X132401933Y-119100881D01*
X132999625Y-118853920D01*
X133457313Y-118397030D01*
X133705317Y-117799770D01*
X133705881Y-117153067D01*
X133458920Y-116555375D01*
X133002030Y-116097687D01*
X132404770Y-115849683D01*
X131758067Y-115849119D01*
X131160375Y-116096080D01*
X130702687Y-116552970D01*
X130454683Y-117150230D01*
X130454119Y-117796933D01*
X128625319Y-117796933D01*
X128625881Y-117153067D01*
X128378920Y-116555375D01*
X127922030Y-116097687D01*
X127324770Y-115849683D01*
X126678067Y-115849119D01*
X126080375Y-116096080D01*
X125622687Y-116552970D01*
X125374683Y-117150230D01*
X125374674Y-117160591D01*
X123870264Y-118665000D01*
X123325529Y-118665000D01*
X123270454Y-118609925D01*
X123555088Y-118474585D01*
X123813149Y-117772775D01*
X123782995Y-117025632D01*
X123555088Y-116475415D01*
X123270452Y-116340074D01*
X122135526Y-117475000D01*
X122149669Y-117489143D01*
X121934143Y-117704669D01*
X121920000Y-117690526D01*
X121905858Y-117704669D01*
X121690332Y-117489143D01*
X121704474Y-117475000D01*
X120569548Y-116340074D01*
X120284912Y-116475415D01*
X120026851Y-117177225D01*
X120057005Y-117924368D01*
X120284912Y-118474585D01*
X120569546Y-118609925D01*
X120514471Y-118665000D01*
X119969735Y-118665000D01*
X118465874Y-117161138D01*
X118465881Y-117153067D01*
X118218920Y-116555375D01*
X117788845Y-116124548D01*
X120785074Y-116124548D01*
X121920000Y-117259474D01*
X123054926Y-116124548D01*
X122919585Y-115839912D01*
X122217775Y-115581851D01*
X121470632Y-115612005D01*
X120920415Y-115839912D01*
X120785074Y-116124548D01*
X117788845Y-116124548D01*
X117762030Y-116097687D01*
X117164770Y-115849683D01*
X116518067Y-115849119D01*
X115920375Y-116096080D01*
X115482600Y-116533092D01*
X115482600Y-111144033D01*
X115609456Y-111017399D01*
X115723770Y-110742099D01*
X115724030Y-110444009D01*
X115685517Y-110350800D01*
X129774580Y-110350800D01*
X144155525Y-124731745D01*
X144155525Y-124731745D01*
G37*
X144155525Y-124731745D02*
X144091877Y-124744405D01*
X143745782Y-124975658D01*
X143514529Y-125321753D01*
X143433324Y-125730000D01*
X143514529Y-126138247D01*
X143745782Y-126484342D01*
X144091877Y-126715595D01*
X144500124Y-126796800D01*
X145059876Y-126796800D01*
X145468123Y-126715595D01*
X145814218Y-126484342D01*
X145953569Y-126275789D01*
X146401990Y-126724211D01*
X146510628Y-126796800D01*
X146566797Y-126834331D01*
X146761200Y-126873000D01*
X147352129Y-126873000D01*
X147352129Y-127449600D01*
X127080860Y-127449600D01*
X127091405Y-127436769D01*
X127266700Y-126860300D01*
X127266700Y-126517400D01*
X125882400Y-126517400D01*
X125882400Y-126537400D01*
X125577600Y-126537400D01*
X125577600Y-126517400D01*
X125557600Y-126517400D01*
X125557600Y-126212600D01*
X125577600Y-126212600D01*
X125577600Y-124646215D01*
X125882400Y-124646215D01*
X125882400Y-126212600D01*
X127266700Y-126212600D01*
X127266700Y-125869700D01*
X127224220Y-125730000D01*
X128141529Y-125730000D01*
X128226601Y-126157687D01*
X128468866Y-126520263D01*
X128831442Y-126762528D01*
X129259129Y-126847600D01*
X129820871Y-126847600D01*
X130248558Y-126762528D01*
X130611134Y-126520263D01*
X130853399Y-126157687D01*
X130938471Y-125730000D01*
X133221529Y-125730000D01*
X133306601Y-126157687D01*
X133548866Y-126520263D01*
X133911442Y-126762528D01*
X134339129Y-126847600D01*
X134900871Y-126847600D01*
X135328558Y-126762528D01*
X135691134Y-126520263D01*
X135933399Y-126157687D01*
X135946114Y-126093761D01*
X138123516Y-126093761D01*
X138130546Y-126150299D01*
X138391520Y-126621708D01*
X138813030Y-126957363D01*
X139330904Y-127106163D01*
X139547600Y-126954825D01*
X139547600Y-125882400D01*
X139852400Y-125882400D01*
X139852400Y-126954825D01*
X140069096Y-127106163D01*
X140586970Y-126957363D01*
X141008480Y-126621708D01*
X141269454Y-126150299D01*
X141276484Y-126093761D01*
X141163637Y-125882400D01*
X139852400Y-125882400D01*
X139547600Y-125882400D01*
X138236363Y-125882400D01*
X138123516Y-126093761D01*
X135946114Y-126093761D01*
X136018471Y-125730000D01*
X135946115Y-125366239D01*
X138123516Y-125366239D01*
X138236363Y-125577600D01*
X139547600Y-125577600D01*
X139547600Y-124505175D01*
X139852400Y-124505175D01*
X139852400Y-125577600D01*
X141163637Y-125577600D01*
X141276484Y-125366239D01*
X141269454Y-125309701D01*
X141008480Y-124838292D01*
X140586970Y-124502637D01*
X140069096Y-124353837D01*
X139852400Y-124505175D01*
X139547600Y-124505175D01*
X139330904Y-124353837D01*
X138813030Y-124502637D01*
X138391520Y-124838292D01*
X138130546Y-125309701D01*
X138123516Y-125366239D01*
X135946115Y-125366239D01*
X135933399Y-125302313D01*
X135691134Y-124939737D01*
X135328558Y-124697472D01*
X134900871Y-124612400D01*
X134339129Y-124612400D01*
X133911442Y-124697472D01*
X133548866Y-124939737D01*
X133306601Y-125302313D01*
X133221529Y-125730000D01*
X130938471Y-125730000D01*
X130853399Y-125302313D01*
X130611134Y-124939737D01*
X130248558Y-124697472D01*
X129820871Y-124612400D01*
X129259129Y-124612400D01*
X128831442Y-124697472D01*
X128468866Y-124939737D01*
X128226601Y-125302313D01*
X128141529Y-125730000D01*
X127224220Y-125730000D01*
X127091405Y-125293231D01*
X126708848Y-124827726D01*
X126177270Y-124544053D01*
X126119731Y-124535643D01*
X125882400Y-124646215D01*
X125577600Y-124646215D01*
X125340269Y-124535643D01*
X125282730Y-124544053D01*
X124751152Y-124827726D01*
X124427871Y-125221102D01*
X124427871Y-125095000D01*
X124404215Y-124976073D01*
X124336848Y-124875252D01*
X124236027Y-124807885D01*
X124117100Y-124784229D01*
X122262900Y-124784229D01*
X122143973Y-124807885D01*
X122043152Y-124875252D01*
X121975785Y-124976073D01*
X121952129Y-125095000D01*
X121952129Y-125857000D01*
X121571621Y-125857000D01*
X121085410Y-125370790D01*
X120920603Y-125260669D01*
X120726200Y-125222000D01*
X120578818Y-125222000D01*
X120414218Y-124975658D01*
X120068123Y-124744405D01*
X119715856Y-124674335D01*
X115482600Y-120441080D01*
X115482600Y-118416183D01*
X115917970Y-118852313D01*
X116515230Y-119100317D01*
X116525590Y-119100326D01*
X118431730Y-121006465D01*
X118431732Y-121006468D01*
X118876711Y-121303793D01*
X119401600Y-121408200D01*
X124438400Y-121408200D01*
X124963289Y-121303793D01*
X125408268Y-121006468D01*
X125408269Y-121006467D01*
X127313861Y-119100874D01*
X127321933Y-119100881D01*
X127919625Y-118853920D01*
X128377313Y-118397030D01*
X128625317Y-117799770D01*
X128625319Y-117796933D01*
X130454119Y-117796933D01*
X130701080Y-118394625D01*
X131157970Y-118852313D01*
X131755230Y-119100317D01*
X132401933Y-119100881D01*
X132999625Y-118853920D01*
X133457313Y-118397030D01*
X133705317Y-117799770D01*
X133705881Y-117153067D01*
X133458920Y-116555375D01*
X133002030Y-116097687D01*
X132404770Y-115849683D01*
X131758067Y-115849119D01*
X131160375Y-116096080D01*
X130702687Y-116552970D01*
X130454683Y-117150230D01*
X130454119Y-117796933D01*
X128625319Y-117796933D01*
X128625881Y-117153067D01*
X128378920Y-116555375D01*
X127922030Y-116097687D01*
X127324770Y-115849683D01*
X126678067Y-115849119D01*
X126080375Y-116096080D01*
X125622687Y-116552970D01*
X125374683Y-117150230D01*
X125374674Y-117160591D01*
X123870264Y-118665000D01*
X123325529Y-118665000D01*
X123270454Y-118609925D01*
X123555088Y-118474585D01*
X123813149Y-117772775D01*
X123782995Y-117025632D01*
X123555088Y-116475415D01*
X123270452Y-116340074D01*
X122135526Y-117475000D01*
X122149669Y-117489143D01*
X121934143Y-117704669D01*
X121920000Y-117690526D01*
X121905858Y-117704669D01*
X121690332Y-117489143D01*
X121704474Y-117475000D01*
X120569548Y-116340074D01*
X120284912Y-116475415D01*
X120026851Y-117177225D01*
X120057005Y-117924368D01*
X120284912Y-118474585D01*
X120569546Y-118609925D01*
X120514471Y-118665000D01*
X119969735Y-118665000D01*
X118465874Y-117161138D01*
X118465881Y-117153067D01*
X118218920Y-116555375D01*
X117788845Y-116124548D01*
X120785074Y-116124548D01*
X121920000Y-117259474D01*
X123054926Y-116124548D01*
X122919585Y-115839912D01*
X122217775Y-115581851D01*
X121470632Y-115612005D01*
X120920415Y-115839912D01*
X120785074Y-116124548D01*
X117788845Y-116124548D01*
X117762030Y-116097687D01*
X117164770Y-115849683D01*
X116518067Y-115849119D01*
X115920375Y-116096080D01*
X115482600Y-116533092D01*
X115482600Y-111144033D01*
X115609456Y-111017399D01*
X115723770Y-110742099D01*
X115724030Y-110444009D01*
X115685517Y-110350800D01*
X129774580Y-110350800D01*
X144155525Y-124731745D01*
M02*
